<svg id="Layer_1" data-name="Layer 1" xmlns="http://www.w3.org/2000/svg" viewBox="0 0 201 108"><defs><style>.cls-1{fill:#b336ae;}</style></defs><title>godine-logo</title><path class="cls-1" d="M12.6,43.71h2.7V15.49H12.6v-3H22.89a18.49,18.49,0,0,1,6.66,1.2A16.23,16.23,0,0,1,35,17.11a16.5,16.5,0,0,1,3.72,5.41,17.75,17.75,0,0,1,1.37,7.13,18.85,18.85,0,0,1-1,5.93,15.23,15.23,0,0,1-3.26,5.51A17.17,17.17,0,0,1,30,45.16a21.69,21.69,0,0,1-8.8,1.59H12.6Zm5.73-28.22V43.71h3.82a16.55,16.55,0,0,0,6.25-1.12,14.28,14.28,0,0,0,4.7-3,12.87,12.87,0,0,0,3-4.48A15.46,15.46,0,0,0,36,23.76a13,13,0,0,0-3.09-4.45,13.86,13.86,0,0,0-4.61-2.82,15.87,15.87,0,0,0-5.64-1Z"/><path class="cls-1" d="M43.57,37.59a9.14,9.14,0,0,1,.76-3.7,10.09,10.09,0,0,1,2.06-3.06,9.77,9.77,0,0,1,3.09-2.11,9.49,9.49,0,0,1,3.85-.78,8.23,8.23,0,0,1,2.57.39,9.54,9.54,0,0,1,2.13,1,8.27,8.27,0,0,1,1.54,1.23,3,3,0,0,1,.76,1.13q0-.78.07-1.62t.12-1.67H63V43.86h3.67v2.89H60.33V43.66a3.56,3.56,0,0,1-.76,1.08,7,7,0,0,1-1.47,1.13,9.65,9.65,0,0,1-2.11.91,9.1,9.1,0,0,1-2.67.37,9.74,9.74,0,0,1-3.85-.76,9.63,9.63,0,0,1-3.09-2.06,9.77,9.77,0,0,1-2.06-3A9.13,9.13,0,0,1,43.57,37.59Zm3,0a6.43,6.43,0,0,0,4,6.06,7.17,7.17,0,0,0,5.31,0,6.4,6.4,0,0,0,3.52-3.45,6.65,6.65,0,0,0-1.4-7.27,6.56,6.56,0,0,0-2.11-1.39,7.16,7.16,0,0,0-5.31,0,6.54,6.54,0,0,0-2.11,1.39,6.59,6.59,0,0,0-1.92,4.67Z"/><path class="cls-1" d="M70.15,28.38h10v3H77.25q1.52,2.77,3,5.56t2.6,5.56Q84,39.82,85.41,37t3-5.59H85.54v-3h9.9v3H91.61l-4.39,8.23-4.39,8.23-4.39-8.23-4.39-8.23H70.15Z"/><path class="cls-1" d="M98.84,43.86h3.63V31.41H98.84v-3h6.66V43.86H109v2.89H98.84Zm3.09-22.27a2,2,0,0,1,.64-1.48,2.07,2.07,0,0,1,1.47-.61,1.94,1.94,0,0,1,1.4.61,2,2,0,0,1,.61,1.48,1.9,1.9,0,0,1-.61,1.48,2,2,0,0,1-1.4.56,2.17,2.17,0,0,1-1.47-.56A1.86,1.86,0,0,1,101.93,21.59Z"/><path class="cls-1" d="M129.22,45.28V43.66a3.56,3.56,0,0,1-.76,1.08A7,7,0,0,1,127,45.87a9.65,9.65,0,0,1-2.11.91,9.1,9.1,0,0,1-2.67.37,9.74,9.74,0,0,1-3.85-.76,9.44,9.44,0,0,1-3.09-2.08,10.07,10.07,0,0,1-2.06-3.06,9.39,9.39,0,0,1,0-7.4,10.09,10.09,0,0,1,2.06-3.06,9.43,9.43,0,0,1,3.09-2.08,9.74,9.74,0,0,1,3.85-.76,8.33,8.33,0,0,1,2.5.37,9.59,9.59,0,0,1,2.11.93,7.62,7.62,0,0,1,1.54,1.2,5,5,0,0,1,.86,1.13q-.1-.68-.17-1.36t-.17-1.41V13h-3.33V10h6.37V43.86h3.67v2.89h-6.37ZM115.5,37.54a6.43,6.43,0,0,0,4,6.06,7.17,7.17,0,0,0,5.31,0,6.4,6.4,0,0,0,3.52-3.45,6.65,6.65,0,0,0-1.4-7.27,6.56,6.56,0,0,0-2.11-1.39,7.16,7.16,0,0,0-5.31,0,6.54,6.54,0,0,0-2.11,1.39,6.59,6.59,0,0,0-1.92,4.67Z"/><path class="cls-1" d="M153.72,43.86h2.6V15.49h-2.6v-3H164a13.61,13.61,0,0,1,3.53.51,12.52,12.52,0,0,1,3.6,1.62A9.66,9.66,0,0,1,174,17.4a7.42,7.42,0,0,1,1.13,4.17,9.54,9.54,0,0,1-1.86,6,9,9,0,0,1-5.39,3.19L174,43.86h4.46v2.89H172L164.6,31q-.54,0-1.08,0h-4.17V43.86h5.24v2.89H153.72ZM159.35,28H164a11,11,0,0,0,3.92-.6,6.73,6.73,0,0,0,2.47-1.54,5.35,5.35,0,0,0,1.27-2.07,7.1,7.1,0,0,0,.37-2.2,4.73,4.73,0,0,0-.61-2.32,6.31,6.31,0,0,0-1.67-1.93A8.68,8.68,0,0,0,167.24,16a9.71,9.71,0,0,0-3.18-.51h-4.7Z"/><path class="cls-1" d="M182.23,44.72a1.94,1.94,0,0,1,.64-1.5,2,2,0,0,1,2.84,0,1.94,1.94,0,0,1,.64,1.5,1.87,1.87,0,0,1-.64,1.48,2.09,2.09,0,0,1-2.84,0A1.86,1.86,0,0,1,182.23,44.72Z"/><path class="cls-1" d="M56.45,82.15V94.79a19.46,19.46,0,0,1-4.19,1.79,16.53,16.53,0,0,1-4.73.66,17,17,0,0,1-6.81-1.37,17.55,17.55,0,0,1-9.31-9.31A17,17,0,0,1,30,79.75a17.21,17.21,0,0,1,1.37-6.84,17.59,17.59,0,0,1,3.75-5.59,18,18,0,0,1,5.56-3.77,16.76,16.76,0,0,1,6.81-1.4,17.17,17.17,0,0,1,4.73.64,18.34,18.34,0,0,1,4.24,1.81l-1.71,2.5a14.15,14.15,0,0,0-7.25-1.91,13.84,13.84,0,0,0-5.61,1.15,14.47,14.47,0,0,0-4.58,3.15,15.27,15.27,0,0,0-3.11,4.66,14.06,14.06,0,0,0-1.15,5.64,14.25,14.25,0,0,0,1.13,5.67,14.59,14.59,0,0,0,7.67,7.74,13.83,13.83,0,0,0,5.61,1.15A13.6,13.6,0,0,0,53.42,93V85.19H47.34v-3Z"/><path class="cls-1" d="M59.88,87.54a9.31,9.31,0,0,1,.76-3.72,9.49,9.49,0,0,1,2.08-3.06,10,10,0,0,1,3.09-2.06,9.44,9.44,0,0,1,3.77-.76,9.75,9.75,0,0,1,3.85.76,10,10,0,0,1,3.11,2.06,9.51,9.51,0,0,1,2.08,3.06,9.57,9.57,0,0,1,0,7.47,9.59,9.59,0,0,1-2.08,3,9.94,9.94,0,0,1-3.11,2.06,9.75,9.75,0,0,1-3.85.76,9.44,9.44,0,0,1-3.77-.76,10,10,0,0,1-3.09-2.06,9.56,9.56,0,0,1-2.08-3A9.25,9.25,0,0,1,59.88,87.54Zm3,0a6.35,6.35,0,0,0,.52,2.55,6.53,6.53,0,0,0,1.4,2.07,6.62,6.62,0,0,0,2.09,1.39,6.55,6.55,0,0,0,2.58.51,6.74,6.74,0,0,0,2.61-.51,6.85,6.85,0,0,0,2.14-1.39,6.37,6.37,0,0,0,1.94-4.62,6.6,6.6,0,0,0-1.94-4.69,6.63,6.63,0,0,0-2.14-1.41A6.74,6.74,0,0,0,69.51,81a6.56,6.56,0,0,0-2.58.51,6.42,6.42,0,0,0-2.09,1.41A6.76,6.76,0,0,0,63.44,85,6.52,6.52,0,0,0,62.92,87.59Z"/><path class="cls-1" d="M99.57,95.28V93.66a3.56,3.56,0,0,1-.76,1.08,7,7,0,0,1-1.47,1.13,9.65,9.65,0,0,1-2.11.91,9.1,9.1,0,0,1-2.67.37,9.74,9.74,0,0,1-3.85-.76,9.44,9.44,0,0,1-3.09-2.08,10.07,10.07,0,0,1-2.06-3.06,9.39,9.39,0,0,1,0-7.4,10.09,10.09,0,0,1,2.06-3.06,9.43,9.43,0,0,1,3.09-2.08,9.74,9.74,0,0,1,3.85-.76,8.33,8.33,0,0,1,2.5.37,9.59,9.59,0,0,1,2.11.93,7.62,7.62,0,0,1,1.54,1.2,5,5,0,0,1,.86,1.13q-.1-.68-.17-1.36t-.17-1.41V63H95.9V60h6.37V93.86h3.67v2.89H99.57ZM85.85,87.54a6.43,6.43,0,0,0,4,6.06,7.17,7.17,0,0,0,5.31,0,6.4,6.4,0,0,0,3.52-3.45,6.65,6.65,0,0,0-1.4-7.27,6.56,6.56,0,0,0-2.11-1.39,7.16,7.16,0,0,0-5.31,0,6.54,6.54,0,0,0-2.11,1.39,6.59,6.59,0,0,0-1.92,4.67Z"/><path class="cls-1" d="M109.37,93.86H113V81.41h-3.63v-3H116V93.86h3.53v2.89H109.37Zm3.09-22.27a2,2,0,0,1,.64-1.48,2.07,2.07,0,0,1,1.47-.61,1.94,1.94,0,0,1,1.4.61,2,2,0,0,1,.61,1.48,1.9,1.9,0,0,1-.61,1.48,2,2,0,0,1-1.4.56,2.17,2.17,0,0,1-1.47-.56A1.86,1.86,0,0,1,112.46,71.59Z"/><path class="cls-1" d="M137,93.86h3.82V84.68a4.08,4.08,0,0,0-1.05-2.49A4,4,0,0,0,136.81,81a7.26,7.26,0,0,0-2.67.49,7.83,7.83,0,0,0-2.23,1.32,6.08,6.08,0,0,0-1.54,2,5.62,5.62,0,0,0-.56,2.51v6.54h3.38v2.89H123V93.86h3.77V81.36h-3.38v-3h6l0,1.08q0,1,.12,1.84t.12,1.84a8,8,0,0,1,3.16-3.75A8.84,8.84,0,0,1,137.7,78a6.19,6.19,0,0,1,4.41,1.52,5.52,5.52,0,0,1,1.71,4V93.86h3.33v2.89H137Z"/><path class="cls-1" d="M168.81,85.48l-14.26,5.44a6.24,6.24,0,0,0,2.33,2.32,6.65,6.65,0,0,0,3.41.87,6.41,6.41,0,0,0,2.47-.48,6.23,6.23,0,0,0,2-1.29l.91,1.1q.47.56,1,1.1a9.56,9.56,0,0,1-2.87,1.91,8.65,8.65,0,0,1-3.45.69,9.44,9.44,0,0,1-3.77-.76,10,10,0,0,1-3.09-2.06,9.56,9.56,0,0,1-2.08-3,9.56,9.56,0,0,1,0-7.47,9.49,9.49,0,0,1,2.08-3.06,10,10,0,0,1,3.09-2.06,9.44,9.44,0,0,1,3.77-.76,7.37,7.37,0,0,1,2.87.56,8.49,8.49,0,0,1,2.45,1.57,10.49,10.49,0,0,1,1.94,2.4A12,12,0,0,1,168.81,85.48ZM160.24,81a6.72,6.72,0,0,0-2.82.58,6.59,6.59,0,0,0-2.18,1.56,6.44,6.44,0,0,0-1.33,2.24,6.07,6.07,0,0,0-.3,2.68l5.64-2.13,5.63-2.13a6,6,0,0,0-2-2A4.92,4.92,0,0,0,160.24,81Z"/></svg>