<svg id="Layer_1" data-name="Layer 1" xmlns="http://www.w3.org/2000/svg" viewBox="0 0 201 98"><defs><style>.cls-1{fill:#b336ae;}</style></defs><title>house-logo</title><path class="cls-1" d="M56.58,22.27v7.56H54.21V40.68H45.69V12h8.52V22.27ZM66.56,12V40.68H58V12Z"/><path class="cls-1" d="M81.63,19.31a10.37,10.37,0,0,1,7.63,3.2,10.5,10.5,0,0,1,3.18,7.67,10.47,10.47,0,0,1-3.22,7.73,11.08,11.08,0,0,1-15.57,0,10.46,10.46,0,0,1-3.23-7.72,10.36,10.36,0,0,1,3.23-7.74A11,11,0,0,1,81.63,19.31Zm-.21,7.75a2.86,2.86,0,0,0-2.14.91,3.25,3.25,0,0,0,0,4.46,2.94,2.94,0,0,0,4.28,0,3.25,3.25,0,0,0,0-4.46A2.89,2.89,0,0,0,81.42,27.05Z"/><path class="cls-1" d="M95.72,20h7.85V31.86q0,1.78,1.49,1.78t1.47-1.78V20h7.85V31.72a9.52,9.52,0,0,1-2.71,6.88,9.43,9.43,0,0,1-13.84-.45,10.69,10.69,0,0,1-2.12-7.05Z"/><path class="cls-1" d="M132.09,20v8.27a3.22,3.22,0,0,0-2.28.62,4.08,4.08,0,0,0-.79,2.45q-.55,6.07-4.7,8.57a12.4,12.4,0,0,1-6.26,1.3H117V32.93h.36a3.79,3.79,0,0,0,2.7-.79,4.17,4.17,0,0,0,.93-2.76,19.48,19.48,0,0,1,.6-4.51,6.55,6.55,0,0,1,1.75-2.58,8.8,8.8,0,0,1,6.4-2.25Z"/><path class="cls-1" d="M155.22,31.48h-11.9a5.5,5.5,0,0,1,.1-3.72h4a2.47,2.47,0,0,0-2.62-2.33,2.85,2.85,0,0,0-2.39,1.25,5.24,5.24,0,0,0-.92,3.2,5.58,5.58,0,0,0,.89,3.3,2.74,2.74,0,0,0,2.34,1.26A3.13,3.13,0,0,0,147,33.27l4.47,5.38a11,11,0,0,1-6.95,2.46A10.71,10.71,0,0,1,136.66,38a10.45,10.45,0,0,1-3.17-7.75,10.51,10.51,0,0,1,3.2-7.77,10.74,10.74,0,0,1,7.86-3.17A10.58,10.58,0,0,1,155.31,30Q155.31,30.48,155.22,31.48Z"/><path class="cls-1" d="M20.17,55V83.68H11.64V55Z"/><path class="cls-1" d="M44,83.68H36.12V71.86q0-1.81-1.49-1.81t-1.47,1.81V83.68H25.31V72A9.55,9.55,0,0,1,28,65.11a8.87,8.87,0,0,1,6.63-2.8,8.9,8.9,0,0,1,7.2,3.25A10.73,10.73,0,0,1,44,72.64Z"/><path class="cls-1" d="M61.44,55H69.3V72.47a11.82,11.82,0,0,1-2.52,7.83,10.3,10.3,0,0,1-3.69,2.77A11.21,11.21,0,0,1,50.61,81a10.4,10.4,0,0,1-3.21-7.73,10.54,10.54,0,0,1,3.19-7.66,10.27,10.27,0,0,1,7.56-3.23q.69,0,2.1.13V71.1a3.13,3.13,0,0,0-1.93-.76,2.82,2.82,0,0,0-2.09.89,3,3,0,0,0-.87,2.15,2.8,2.8,0,0,0,.9,2.09,3,3,0,0,0,2.16.87q3,0,3-4.18Z"/><path class="cls-1" d="M73.43,63h7.85V74.86q0,1.78,1.49,1.78t1.47-1.78V63H92.1V74.72a9.52,9.52,0,0,1-2.71,6.88,9.43,9.43,0,0,1-13.84-.45,10.69,10.69,0,0,1-2.12-7.05Z"/><path class="cls-1" d="M109.8,63v8.27a3.22,3.22,0,0,0-2.28.62,4.08,4.08,0,0,0-.79,2.45q-.55,6.07-4.7,8.57a12.4,12.4,0,0,1-6.26,1.3H94.68V75.93H95a3.79,3.79,0,0,0,2.7-.79,4.17,4.17,0,0,0,.93-2.76,19.48,19.48,0,0,1,.6-4.51A6.55,6.55,0,0,1,101,65.29a8.8,8.8,0,0,1,6.4-2.25Z"/><path class="cls-1" d="M119.35,55v8h3.53v8.29h-3.53a5.55,5.55,0,0,0,.79,3.44,3.62,3.62,0,0,0,2.89.94V84l-.9,0a10.67,10.67,0,0,1-5-1.24,10.17,10.17,0,0,1-3.79-3.36,12.75,12.75,0,0,1-1.81-7.18V55Z"/><path class="cls-1" d="M138.23,62.54v8.4a3.09,3.09,0,0,0-1.49-.46q-2.14,0-2.14,3.28v9.93h-7.85V72.24A10.28,10.28,0,0,1,129.22,65a8.54,8.54,0,0,1,6.61-2.7A16.12,16.12,0,0,1,138.23,62.54Z"/><path class="cls-1" d="M148.39,62.75V83.68h-7.85V62.75Zm-3.91-9.34a3.85,3.85,0,0,1,2.76,1.12,3.72,3.72,0,0,1,.06,5.34,4.32,4.32,0,0,1-5.65,0,3.72,3.72,0,0,1,.06-5.34A3.85,3.85,0,0,1,144.48,53.4Z"/><path class="cls-1" d="M173.58,74.48h-11.9a5.5,5.5,0,0,1,.1-3.72h4a2.47,2.47,0,0,0-2.62-2.33,2.85,2.85,0,0,0-2.39,1.25,5.24,5.24,0,0,0-.92,3.2,5.58,5.58,0,0,0,.89,3.3,2.74,2.74,0,0,0,2.34,1.26,3.13,3.13,0,0,0,2.27-1.18l4.47,5.38a11,11,0,0,1-6.95,2.46A10.71,10.71,0,0,1,155,81a11,11,0,0,1,0-15.52,10.74,10.74,0,0,1,7.86-3.17A10.58,10.58,0,0,1,173.67,73Q173.67,73.48,173.58,74.48Z"/><path class="cls-1" d="M190,63v8.27a3.22,3.22,0,0,0-2.28.62,4.08,4.08,0,0,0-.79,2.45q-.55,6.07-4.7,8.57a12.4,12.4,0,0,1-6.26,1.3h-1.09V75.93h.36a3.79,3.79,0,0,0,2.7-.79,4.17,4.17,0,0,0,.93-2.76,19.48,19.48,0,0,1,.6-4.51,6.55,6.55,0,0,1,1.75-2.58,8.8,8.8,0,0,1,6.4-2.25Z"/></svg>