<svg id="Layer_1" data-name="Layer 1" xmlns="http://www.w3.org/2000/svg" viewBox="0 0 212 87"><defs><style>.cls-1{fill:#b336ae;}</style></defs><title>LfA-logo</title><path class="cls-1" d="M14.25,29.27q0,2.23.46,2.65a1.52,1.52,0,0,0,.89.42,24.39,24.39,0,0,0,2.49.08h3.34a6.06,6.06,0,0,0,3.5-.69,3.46,3.46,0,0,0,.87-2.79q0-.56,0-1.31-.08-1.46-.08-1.76,0-1.65,1.33-1.65,1.6,0,1.6,1.52a5.35,5.35,0,0,1,0,.72l-.27,1.94a12.91,12.91,0,0,0-.11,1.75q0,.53.1,1.58t.09,1.58q0,1.71-1.94,1.71-.38,0-1.75-.13-.91-.07-2.81-.13H13q-.91,0-3,.15-.3,0-1,.06T7.71,35q-1.6,0-1.6-1.37A1.06,1.06,0,0,1,7.3,32.41a5.44,5.44,0,0,1,.91.11,5.46,5.46,0,0,0,.91.11q1.94,0,1.94-2.85V14.55q0-2.81-1.94-2.81a3.11,3.11,0,0,0-.8.08,5.76,5.76,0,0,1-1,.11,1.11,1.11,0,0,1-.84-.36,1.25,1.25,0,0,1-.34-.89q0-1.33,1.63-1.33a5.45,5.45,0,0,1,.57,0l2,.23a24.18,24.18,0,0,0,2.47.19,19.12,19.12,0,0,0,2.43-.19L17,9.38l.49,0q1.71,0,1.71,1.33a1.25,1.25,0,0,1-.34.89,1.11,1.11,0,0,1-.84.36,6.27,6.27,0,0,1-1-.11,3.11,3.11,0,0,0-.8-.08q-1.94,0-1.94,2.8Z"/><path class="cls-1" d="M48.3,23.67a4.68,4.68,0,0,1-.19,1.77q-.19.32-1.1.32H34.92a1.06,1.06,0,0,0-.65.13.55.55,0,0,0-.15.44,6.83,6.83,0,0,0,1.71,4.75,5.66,5.66,0,0,0,7.31,1A4.17,4.17,0,0,0,45,29.75l.34-1.1a1.18,1.18,0,0,1,1.25-.91A1.26,1.26,0,0,1,48,29.18a5.49,5.49,0,0,1-2.51,4.39,9.14,9.14,0,0,1-5.7,1.92,8,8,0,0,1-6.35-2.68A10.51,10.51,0,0,1,31,25.61a11.06,11.06,0,0,1,2.51-7.52,8.25,8.25,0,0,1,6.54-2.89A7.85,7.85,0,0,1,46,17.59,8.39,8.39,0,0,1,48.3,23.67Zm-13.79-1q0,.53.84.53h9.08q.8,0,.8-.53a4.73,4.73,0,0,0-1.52-3.5,5,5,0,0,0-3.57-1.48,5.73,5.73,0,0,0-3.88,1.54A4.52,4.52,0,0,0,34.5,22.68Z"/><path class="cls-1" d="M61.67,29.6V27.16q0-1.56,1.37-1.56t1.33,1.75q0,4.14-1.06,5.78a5.2,5.2,0,0,1-4.72,2.2,4.77,4.77,0,0,1-4.3-1.94,9,9,0,0,1-.94-4.79V19.49q0-.8-.74-.8H51.37a1.42,1.42,0,0,1-1-.4,1.31,1.31,0,0,1-.41-1,1.34,1.34,0,0,1,.4-.95,1.21,1.21,0,0,1,.89-.42h1.48q.65,0,.65-.72V11.32a1.29,1.29,0,0,1,1.48-1.44q1.37,0,1.37,1.44v4.07q0,.57.68.57H61q1.44,0,1.44,1.33t-1.56,1.41H56.73q-.53,0-.53.8v9.35q0,4,2.66,4T61.67,29.6Z"/><path class="cls-1" d="M76.87,29.6V27.16q0-1.56,1.37-1.56t1.33,1.75q0,4.14-1.06,5.78a5.2,5.2,0,0,1-4.72,2.2,4.77,4.77,0,0,1-4.3-1.94,9,9,0,0,1-.94-4.79V19.49q0-.8-.74-.8H66.57a1.42,1.42,0,0,1-1-.4,1.31,1.31,0,0,1-.41-1,1.34,1.34,0,0,1,.4-.95,1.21,1.21,0,0,1,.89-.42h1.48q.65,0,.65-.72V11.32A1.29,1.29,0,0,1,70,9.87q1.37,0,1.37,1.44v4.07q0,.57.68.57h4.14q1.44,0,1.44,1.33t-1.56,1.41H71.93q-.53,0-.53.8v9.35q0,4,2.66,4T76.87,29.6Z"/><path class="cls-1" d="M98.76,23.67a4.68,4.68,0,0,1-.19,1.77q-.19.32-1.1.32H85.39a1.06,1.06,0,0,0-.65.13.55.55,0,0,0-.15.44,6.83,6.83,0,0,0,1.71,4.75,5.66,5.66,0,0,0,7.31,1,4.17,4.17,0,0,0,1.81-2.32l.34-1.1A1.18,1.18,0,0,1,97,27.73a1.26,1.26,0,0,1,1.41,1.44,5.49,5.49,0,0,1-2.51,4.39,9.14,9.14,0,0,1-5.7,1.92,8,8,0,0,1-6.35-2.68,10.51,10.51,0,0,1-2.36-7.2A11.06,11.06,0,0,1,84,18.08a8.25,8.25,0,0,1,6.54-2.89,7.85,7.85,0,0,1,5.89,2.39A8.39,8.39,0,0,1,98.76,23.67ZM85,22.68q0,.53.84.53h9.08q.8,0,.8-.53a4.73,4.73,0,0,0-1.52-3.5,5,5,0,0,0-3.57-1.48,5.73,5.73,0,0,0-3.88,1.54A4.52,4.52,0,0,0,85,22.68Z"/><path class="cls-1" d="M107.31,16.92v1a6.63,6.63,0,0,1,9.59-1.27,5,5,0,0,1,1.65,3.86,4.22,4.22,0,0,1-.84,2.72,2.68,2.68,0,0,1-2.2,1,2.17,2.17,0,0,1-1.48-.53,1.65,1.65,0,0,1-.61-1.29,1.52,1.52,0,0,1,.46-1.08,1.43,1.43,0,0,1,1.06-.48,2.31,2.31,0,0,1,.49.11,1.89,1.89,0,0,0,.23-.84,2.29,2.29,0,0,0-1-1.86,3.79,3.79,0,0,0-2.41-.76,3.84,3.84,0,0,0-4,2.66,15,15,0,0,0-.61,4.94V27.7q0,2.55,0,2.85.19,2.17,1.18,2.17a4.33,4.33,0,0,0,1-.13,3.23,3.23,0,0,1,.72-.1,1.07,1.07,0,0,1,1.22,1.2q0,1.31-1.55,1.31h-.15a16.67,16.67,0,0,1-1.72-.13,16.65,16.65,0,0,0-1.72-.13q-1.51,0-2.39.08l-2.12.19q-1.55,0-1.55-1.33,0-1.18,1.46-1.18a3.26,3.26,0,0,1,.58,0l.58.11a3.2,3.2,0,0,0,.54.08q1,0,1-1.75V29l-.11-8.63q-.11-2.24-1.14-2.24a4.24,4.24,0,0,0-.84.11,4.29,4.29,0,0,1-.84.11,1.09,1.09,0,0,1-1.25-1.22q0-1.33,1.63-1.33a10.18,10.18,0,0,1,1.14.1,10,10,0,0,0,1.14.09,8.1,8.1,0,0,0,1-.09,2.44,2.44,0,0,1,.72-.1Q107.31,15.84,107.31,16.92Z"/><path class="cls-1" d="M131.9,12.38a1.38,1.38,0,0,1,.38-1,2.68,2.68,0,0,0-1.9-.61,3.26,3.26,0,0,0-2.56,1,4.22,4.22,0,0,0-.93,2.91v.68a.44.44,0,0,0,.49.49h3q1.25,0,1.25,1.37t-1.25,1.37h-2.81q-.65,0-.65.68V30q0,1.41,0,1.63.19,1,1,1a5.68,5.68,0,0,0,.95-.19,6.25,6.25,0,0,1,.76-.08,1.13,1.13,0,0,1,1.29,1.25q0,1.33-1.56,1.33a18.75,18.75,0,0,1-2-.15,18.76,18.76,0,0,0-2-.15,16.73,16.73,0,0,0-2.05.11q-1.48.19-1.9.19-1.63,0-1.63-1.33a1.17,1.17,0,0,1,.4-.87,1.31,1.31,0,0,1,.93-.38,3.2,3.2,0,0,1,.85.13,3.19,3.19,0,0,0,.85.13q.72,0,.91-.91a31.4,31.4,0,0,0,.23-4.41v-8a.6.6,0,0,0-.68-.68h-1.88q-1.32,0-1.32-1.41A1.19,1.19,0,0,1,121.48,16h2.17a.44.44,0,0,0,.49-.49v-.68a6.22,6.22,0,0,1,1.6-4.6,6.12,6.12,0,0,1,4.52-1.6,6.79,6.79,0,0,1,3.84,1,3,3,0,0,1,1.44,2.6A1.79,1.79,0,0,1,135,13.5a1.84,1.84,0,0,1-1.33.51,1.8,1.8,0,0,1-1.27-.47A1.52,1.52,0,0,1,131.9,12.38Z"/><path class="cls-1" d="M141.66,35.49a8,8,0,0,1-6.38-2.75,10.88,10.88,0,0,1-2.39-7.39,10.82,10.82,0,0,1,2.41-7.39,8.18,8.18,0,0,1,6.48-2.75,8.29,8.29,0,0,1,6.54,2.7,10.66,10.66,0,0,1,2.39,7.33,10.88,10.88,0,0,1-2.47,7.45A8.32,8.32,0,0,1,141.66,35.49Zm.19-17.78a5.1,5.1,0,0,0-4.18,1.86A8.79,8.79,0,0,0,136,24.85v.49a9.26,9.26,0,0,0,1.5,5.6,4.92,4.92,0,0,0,4.2,2,5.2,5.2,0,0,0,4.35-2,9,9,0,0,0,1.58-5.64Q147.63,17.7,141.85,17.7Z"/><path class="cls-1" d="M159.41,16.92v1A6.63,6.63,0,0,1,169,16.69a5,5,0,0,1,1.65,3.86,4.22,4.22,0,0,1-.84,2.72,2.68,2.68,0,0,1-2.2,1,2.17,2.17,0,0,1-1.48-.53,1.65,1.65,0,0,1-.61-1.29,1.52,1.52,0,0,1,.46-1.08,1.43,1.43,0,0,1,1.06-.48,2.31,2.31,0,0,1,.49.11,1.89,1.89,0,0,0,.23-.84,2.29,2.29,0,0,0-1-1.86,3.79,3.79,0,0,0-2.41-.76,3.84,3.84,0,0,0-4,2.66,15,15,0,0,0-.61,4.94V27.7q0,2.55,0,2.85.19,2.17,1.18,2.17a4.33,4.33,0,0,0,1-.13,3.23,3.23,0,0,1,.72-.1,1.07,1.07,0,0,1,1.22,1.2Q164,35,162.45,35h-.15a16.67,16.67,0,0,1-1.72-.13,16.65,16.65,0,0,0-1.72-.13q-1.51,0-2.39.08l-2.12.19q-1.55,0-1.55-1.33,0-1.18,1.46-1.18a3.26,3.26,0,0,1,.58,0l.58.11a3.2,3.2,0,0,0,.54.08q1,0,1-1.75V29l-.11-8.63q-.11-2.24-1.14-2.24a4.24,4.24,0,0,0-.84.11,4.29,4.29,0,0,1-.84.11,1.09,1.09,0,0,1-1.25-1.22q0-1.33,1.63-1.33a10.18,10.18,0,0,1,1.14.1,10,10,0,0,0,1.14.09,8.1,8.1,0,0,0,1-.09,2.44,2.44,0,0,1,.72-.1Q159.41,15.84,159.41,16.92Z"/><path class="cls-1" d="M178.56,17v1.1a8.93,8.93,0,0,1,2.58-2.26,6.59,6.59,0,0,1,3-.63,5.94,5.94,0,0,1,5.47,2.89,8,8,0,0,1,2.62-2.24,7.84,7.84,0,0,1,3.42-.65,8.1,8.1,0,0,1,3.88.91A5.49,5.49,0,0,1,202.2,19a11.64,11.64,0,0,1,.49,4v6.55q0,1.56,0,1.9.19,1.37,1,1.37a3.54,3.54,0,0,0,.79-.13,3.59,3.59,0,0,1,.79-.13q1.32,0,1.32,1.14,0,1.33-1.52,1.33a16.77,16.77,0,0,1-1.73-.13,16.87,16.87,0,0,0-1.77-.13q-.65,0-1.88.13t-1.88.13q-1.6,0-1.6-1.33,0-1.14,1.22-1.14.15,0,.76.08a2,2,0,0,0,.61.08.78.78,0,0,0,.82-.65,18.53,18.53,0,0,0,.21-3.23V24a13.23,13.23,0,0,0-.4-3.82,3.44,3.44,0,0,0-1.5-1.88,4.62,4.62,0,0,0-2.5-.68,3.94,3.94,0,0,0-3.75,1.86,11.4,11.4,0,0,0-.83,5.17v2.7a33.24,33.24,0,0,0,.17,4.46q.17.89.89.89a4.16,4.16,0,0,0,.67-.08,4.25,4.25,0,0,1,.67-.08,1.22,1.22,0,0,1,.89.36,1.19,1.19,0,0,1,.36.88q0,1.24-1.79,1.23a13.79,13.79,0,0,1-1.69-.15,13.8,13.8,0,0,0-1.69-.15,11.15,11.15,0,0,0-1.75.15,10.78,10.78,0,0,1-1.67.15q-1.56,0-1.56-1.29a1,1,0,0,1,1.14-1.18,1.58,1.58,0,0,1,.65.11,3.06,3.06,0,0,0,.8.16q.91,0,.95-1.95L188,29V23.51q0-3.32-.89-4.62a3.58,3.58,0,0,0-3.17-1.3,4.45,4.45,0,0,0-3.84,1.83q-1.1,1.49-1.1,5.19v5.08q0,1.53,0,1.79.15,1.3.84,1.3a3.23,3.23,0,0,0,.8-.21.77.77,0,0,0,.23-.05h.27q1.48,0,1.48,1.25T181,35a13.84,13.84,0,0,1-1.6-.11,19.37,19.37,0,0,0-2.2-.15q-.46,0-1.67.11-1.63.15-2,.15Q172,35,172,33.7t1.47-1.18h.23l.23,0,1,.19a.23.23,0,0,0,.16,0q1,0,1.12-1.86v-8a27.06,27.06,0,0,0-.17-4,.88.88,0,0,0-.93-.8,9.61,9.61,0,0,0-1.06.19,3.26,3.26,0,0,1-.61.08q-1.41,0-1.41-1.22t1.56-1.29q.42,0,1.14.08a12,12,0,0,0,1.25.08h.68l.91-.15h.11Q178.56,15.88,178.56,17Z"/><path class="cls-1" d="M53.75,73.55l-1.37-3.72a1.53,1.53,0,0,0-.48-.76,2.19,2.19,0,0,0-1-.15H44.14a1.55,1.55,0,0,0-1,.27,4.66,4.66,0,0,0-.74,1.44l-1.1,2.93a2.33,2.33,0,0,0-.15.8q0,1.22,1.48,1.22a10.83,10.83,0,0,0,1.08-.08q.7-.08,1-.08,1.56,0,1.56,1.33T44.55,78a6.33,6.33,0,0,1-.84-.08l-1.9-.24a15.58,15.58,0,0,0-1.75-.07,18.38,18.38,0,0,0-1.86.06l-1.6.19a14.74,14.74,0,0,1-1.56.13q-1.48,0-1.48-1.25T35,75.41a.62.62,0,0,1,.46.15H36a1.75,1.75,0,0,0,1.56-.8A9.49,9.49,0,0,0,38.28,73l7.07-19.18a2.34,2.34,0,0,1,2.39-1.6,2.24,2.24,0,0,1,2.32,1.6l6.8,18.85A7.52,7.52,0,0,0,58,75a2,2,0,0,0,1.52.57,1.52,1.52,0,0,0,.46-.05l1.06-.1q1.44,0,1.44,1.25T61.08,78a9.54,9.54,0,0,1-1.1-.08,32.08,32.08,0,0,0-3.57-.3q-1.41,0-4.56.3-.8.08-1.22.08-1.52,0-1.52-1.29t1.67-1.29a9.77,9.77,0,0,1,1,.08,9.62,9.62,0,0,0,1,.08q1.25,0,1.25-1A5.25,5.25,0,0,0,53.75,73.55ZM51,65.79,47.59,55.31,44.1,65.79a1.53,1.53,0,0,0-.08.27q0,.34.57.34h6q.46,0,.46-.3A1.26,1.26,0,0,0,51,65.79Z"/><path class="cls-1" d="M69.44,59.92v1A6.63,6.63,0,0,1,79,59.69a5,5,0,0,1,1.65,3.86,4.22,4.22,0,0,1-.84,2.72,2.68,2.68,0,0,1-2.2,1,2.17,2.17,0,0,1-1.48-.53,1.65,1.65,0,0,1-.61-1.29A1.52,1.52,0,0,1,76,64.41a1.43,1.43,0,0,1,1.06-.48,2.31,2.31,0,0,1,.49.11,1.89,1.89,0,0,0,.23-.84,2.29,2.29,0,0,0-1-1.86,3.79,3.79,0,0,0-2.41-.76,3.84,3.84,0,0,0-4,2.66,15,15,0,0,0-.61,4.94V70.7q0,2.55,0,2.85.19,2.17,1.18,2.17a4.33,4.33,0,0,0,1-.13,3.23,3.23,0,0,1,.72-.1A1.07,1.07,0,0,1,74,76.68Q74,78,72.49,78h-.15a16.67,16.67,0,0,1-1.72-.13,16.65,16.65,0,0,0-1.72-.13q-1.51,0-2.39.08L64.38,78q-1.55,0-1.55-1.33,0-1.18,1.46-1.18a3.26,3.26,0,0,1,.58,0l.58.11a3.2,3.2,0,0,0,.54.08q1,0,1-1.75V72L66.9,63.4q-.11-2.24-1.14-2.24a4.24,4.24,0,0,0-.84.11,4.29,4.29,0,0,1-.84.11,1.09,1.09,0,0,1-1.25-1.22q0-1.33,1.63-1.33a10.18,10.18,0,0,1,1.14.1,10,10,0,0,0,1.14.09,8.1,8.1,0,0,0,1-.09,2.44,2.44,0,0,1,.72-.1Q69.44,58.84,69.44,59.92Z"/><path class="cls-1" d="M93.42,65.3q0-1.52,1.9-1.75A3,3,0,0,0,94,61.46a4.76,4.76,0,0,0-2.79-.76A5.05,5.05,0,0,0,87,62.79a8.91,8.91,0,0,0-1.6,5.55,9.26,9.26,0,0,0,1.5,5.6,4.88,4.88,0,0,0,4.16,2A4.63,4.63,0,0,0,94,75a4.78,4.78,0,0,0,1.69-2.62q.38-1.33.46-1.52a1.32,1.32,0,0,1,1.22-.76,1.43,1.43,0,0,1,1.48,1.48,5.69,5.69,0,0,1-.61,2.28,7.92,7.92,0,0,1-1.44,2.2A7.6,7.6,0,0,1,91,78.49a7.88,7.88,0,0,1-6.25-2.74,10.57,10.57,0,0,1-2.37-7.18A11.12,11.12,0,0,1,84.81,61a8.19,8.19,0,0,1,6.52-2.83,7.7,7.7,0,0,1,5.05,1.65,5.2,5.2,0,0,1,2,4.2,3.44,3.44,0,0,1-.78,2.32,2.51,2.51,0,0,1-2,.91A2.26,2.26,0,0,1,94,66.71,1.83,1.83,0,0,1,93.42,65.3Z"/><path class="cls-1" d="M107.18,53.34l-.15,7.4a10.25,10.25,0,0,1,2.78-2A8.34,8.34,0,0,1,118,60.06a6.41,6.41,0,0,1,2,4.9V71.3q0,2.24,0,2.47.15,1.9,1,1.9a2.75,2.75,0,0,0,.87-.21,2.77,2.77,0,0,1,.61-.05q1.4,0,1.41,1.29T122.11,78a13.21,13.21,0,0,1-1.44-.11,22.9,22.9,0,0,0-2.58-.19,11.56,11.56,0,0,0-1.52.08q-1.6.23-2,.23a1.67,1.67,0,0,1-1.14-.4,1.28,1.28,0,0,1-.46-1,1.06,1.06,0,0,1,.4-.84,1.39,1.39,0,0,1,.93-.34,3.2,3.2,0,0,1,1,.19,2,2,0,0,0,.65.11q1.14,0,1.18-2.47,0-.46.08-1.79V67.77q0-3.88-.76-5.21a4.08,4.08,0,0,0-3.89-2,4.9,4.9,0,0,0-4.39,2.05,8.45,8.45,0,0,0-1,4.52V69.9a3.24,3.24,0,0,1-.15.76v.72q0,2.17,0,2.51.19,1.86,1.13,1.86a3.29,3.29,0,0,0,.88-.17,3.27,3.27,0,0,1,.84-.17,1.09,1.09,0,0,1,1.25,1.21q0,1.37-1.68,1.37-.54,0-1.61-.11a24.54,24.54,0,0,0-2.49-.15q-.65,0-1.8.11-1.53.15-2,.15-1.57,0-1.57-1.41,0-1.17,1.47-1.17a1.88,1.88,0,0,1,.73.11,4.58,4.58,0,0,0,.93.16q.62,0,.83-1.16a34.77,34.77,0,0,0,.25-4.73V63a66,66,0,0,0-.23-7.2q-.23-1.5-1.06-1.5a4.18,4.18,0,0,0-.8.11,4.28,4.28,0,0,1-.84.11q-1.29,0-1.29-1.22a1.15,1.15,0,0,1,.46-.91,1.67,1.67,0,0,1,1.1-.38q.19,0,1.29.11a14.75,14.75,0,0,0,1.56.08,6.56,6.56,0,0,0,1-.1,6.49,6.49,0,0,1,.87-.09q.87,0,.87,1.26Z"/><path class="cls-1" d="M131.61,66.82v4.94q0,1.9,0,2.24.19,1.71,1,1.71a5.68,5.68,0,0,0,.95-.19,1.62,1.62,0,0,1,.57-.08q1.44,0,1.44,1.25a1.13,1.13,0,0,1-.48.91A1.87,1.87,0,0,1,134,78a14.84,14.84,0,0,1-1.85-.17,15,15,0,0,0-1.85-.17,18.08,18.08,0,0,0-2.21.15,19.71,19.71,0,0,1-2,.19q-1.53,0-1.53-1.29t1.3-1.25a5.21,5.21,0,0,1,.9.11,5.25,5.25,0,0,0,.9.11q.92,0,1.11-2.43V63.51q-.19-2.39-1.15-2.39a4,4,0,0,0-.86.13,3.93,3.93,0,0,1-.82.13q-1.38,0-1.38-1.22t1.67-1.29a9.58,9.58,0,0,1,1,0q1.22.15,1.56.15a6.87,6.87,0,0,0,.93-.1,6.92,6.92,0,0,1,.93-.09q1.1,0,1.1,1.48,0,.15,0,.46t0,.46q0,.3-.06,2.36Q131.61,65.19,131.61,66.82Zm-2-10a2.14,2.14,0,0,1-2.13-2.13,2,2,0,0,1,.63-1.48,2.16,2.16,0,0,1,3,0,2,2,0,0,1,.63,1.48,2.14,2.14,0,0,1-2.13,2.13Z"/><path class="cls-1" d="M142.9,63.3l4.45,11.92,4.29-11.86A5.7,5.7,0,0,0,152,62q0-.83-.8-.84a5.1,5.1,0,0,0-.89.11,5.17,5.17,0,0,1-.89.11,1.1,1.1,0,0,1-1.25-1.24q0-1.31,1.82-1.31h.3l.3,0,1.6.16a4,4,0,0,0,1.1.15,23.68,23.68,0,0,0,2.51-.21,14.58,14.58,0,0,1,1.52-.13q1.63,0,1.63,1.27t-1.33,1.27a1.49,1.49,0,0,1-.61-.09,4.08,4.08,0,0,0-.8-.14q-.68,0-1.41,1.83L149.47,76.7a2.38,2.38,0,0,1-2.32,1.75,2.34,2.34,0,0,1-2.24-1.76l-5.47-14.12q-.53-1.41-1.25-1.41a4.19,4.19,0,0,0-.8.11,4.23,4.23,0,0,1-.8.11q-1.25,0-1.25-1.18,0-1.37,1.75-1.37a2.06,2.06,0,0,1,.46,0l1.6.2a12.6,12.6,0,0,0,1.6.1,17.68,17.68,0,0,0,1.9-.15l1.25-.15a2.27,2.27,0,0,1,.53,0q1.67,0,1.67,1.31t-1.44,1.23a3.12,3.12,0,0,1-.65,0,5.36,5.36,0,0,0-.91-.18q-.61,0-.61.54a2.84,2.84,0,0,0,.15.76Z"/><path class="cls-1" d="M176.79,66.67a4.68,4.68,0,0,1-.19,1.77q-.19.32-1.1.32H163.42a1.06,1.06,0,0,0-.65.13.55.55,0,0,0-.15.44,6.83,6.83,0,0,0,1.71,4.75,5.66,5.66,0,0,0,7.31,1,4.17,4.17,0,0,0,1.81-2.32l.34-1.1a1.18,1.18,0,0,1,1.25-.91,1.26,1.26,0,0,1,1.41,1.44,5.49,5.49,0,0,1-2.51,4.39,9.14,9.14,0,0,1-5.7,1.92,8,8,0,0,1-6.35-2.68,10.51,10.51,0,0,1-2.36-7.2A11.06,11.06,0,0,1,162,61.08a8.25,8.25,0,0,1,6.54-2.89,7.85,7.85,0,0,1,5.89,2.39A8.39,8.39,0,0,1,176.79,66.67Zm-13.79-1q0,.53.84.53h9.08q.8,0,.8-.53a4.73,4.73,0,0,0-1.52-3.5,5,5,0,0,0-3.57-1.48,5.73,5.73,0,0,0-3.88,1.54A4.52,4.52,0,0,0,163,65.68Z"/></svg>