<svg id="Layer_1" data-name="Layer 1" xmlns="http://www.w3.org/2000/svg" viewBox="0 0 212 96"><defs><style>.cls-1{fill:none;stroke:#b336ae;stroke-miterlimit:10;stroke-width:0.5px;}.cls-2{fill:#b336ae;}</style></defs><title>okb-logo</title><path class="cls-1" d="M11,43.82l.92-1.28.24-.92L12,40.7l-.44-.76-1-1-.44-.88-1-1.28-.48-.88-.4-.08-.16-.52-.52-.8L7,33.38l-.16-1.24.48-.6v-.32l-.44-.88v-.8l.4-.64.2-1.72L6.33,25.3v-.6l1-.84.24-.48V21.74l.72-3,.92-2.32.52-1,.36-.2h.52l.12.16.64-1.4.68-1.36.48-.44.28-.84,1-1.16h.36v1.12l-.12.28h.12l2.08-2L17,9.18h.52l.44.2.36.76,2.32-.72.88-.08,1.56-.08,1.16.16,2.16.8,1.32.36,1.48.48,1.12.72,1.36.6,1.16,1.08.36.16v.44l.52.6,1.12,1.4.36,1.12.36,1L36.41,21l-.2,1.32-.12,1.24.76.6.44.6.12.52-.4,1v3.36l-.16.88v1.4l-.36,2-.44,1.48-.6.92v.28l.76.8-.2.68h-.32l-.6.44-.6.2-.8.6-.52.6-1.56,1.48-1,.28.4.4.72.28h1.4l.48.24.12.64-.36.4-1.28.12-.68-.08.16.32v.36l-.44.44h-.68l-1.16-.52-.52-.2-.4-.6h-.2l-.16,1-.24.24-.92-.16-.52-.4-.36-.6-.84.24-.88.08-.52.28-.88.16-1.44.28-1.24-.12-1.32-.32H17.41l-.8-.12-.52.56h-.44L15,43.86h-.36l-.52.52-.6.2-.36-.36-.12-.6h-.16l-1.64,1.64H11l-.36-.32Zm12.52-6.4-.24.24h-.44l-.64-.32-.16.2.08.32-.24.44h-.36L21.33,38l.12-1.2L20,35.42l-.76-.4-.64,1.56.12,1.64-.12.76.32.32.4.12-.08.08.32.2,1.4.2,1.6-.28.72.16.84-.2.64-.08,1.8-.76.76-.44.36-.28.44-.44.4-.2.28-.4.16-1,.36-.52h.44l.52-.52.44-.8.8-3.12.24-1,.28-1.76-.16-.16v-.76l-.36-1.6-.28-1.12-.8,1.2-.24.92.28.48-.16.24h-.8l-.48-.2-.28-.44-.92,1.36,1.16.36v-.2a.18.18,0,0,1,.2-.2c.05,0,.11,0,.16.12h.12a.46.46,0,0,0,.32.08h.32a.2.2,0,1,1,0,.4h-.28a.74.74,0,0,1-.4-.08.6.6,0,0,0,.08.24s0,0-.08-.12v0a0,0,0,0,1,0,0q0,.16-.2.16h0l.08.08a.27.27,0,0,1,.16.06.17.17,0,0,1,.08.14l-.16.12h.08a.11.11,0,0,1,.12.12.25.25,0,0,1-.28.28c-.08,0-.13-.05-.16-.16l0-.2c-.19,0-.28-.16-.28-.4l-1.08-.12v.28l.16.6c.13,0,.2.08.2.24l0,.24.28,0a.65.65,0,0,0,.2,0,.67.67,0,0,1,.2,0,.18.18,0,0,1,.2.2.25.25,0,0,1-.2.26,1.18,1.18,0,0,1-.32.06.88.88,0,0,1-.28,0,.9.9,0,0,0-.28,0,.36.36,0,0,0-.18.06.36.36,0,0,1-.18.06.11.11,0,0,1-.08,0,.68.68,0,0,0,0,.28v.36a2.84,2.84,0,0,1,0,.3.19.19,0,0,1-.22.18.21.21,0,0,1-.24-.24A.23.23,0,0,1,27,31.5v-.32a2.68,2.68,0,0,1,0-.44.94.94,0,0,1,.2-.44l-.2-1-.48-.72V27.46l.6-1.2.48-.64.56-.32h.28l.2-.24-1.16-.64-.64.6v.8l-.24.6h-.28l-.16-.16V25.7L25.29,25l.2-.4.8.2.52-.52-1,.2-.36-.16.16-.6.72-.16,1.4-.36v-.32l-.6-.8.08-.08a1.61,1.61,0,0,0-.42.06,1.6,1.6,0,0,1-.42.06c-.24,0-.36-.09-.36-.28a.16.16,0,0,1,0-.12l.16-.16a.16.16,0,0,1,.16-.08c.08,0,.15.05.2.16a3.75,3.75,0,0,1,.72-.08h.08a.23.23,0,0,0,.16,0,.42.42,0,0,0,.44-.38q.08-.38.24-.38a.21.21,0,0,1,.24.24v.08a2,2,0,0,1-.26.44,1.37,1.37,0,0,1-.38.36l.52.48.28.88h.32l.36.08H30l1-.88v-.76l-.4-1.92-.32-.8-.84-1.56L27.81,15.9l-.88-.12-.28.12h-1l-.52-.28-.44-.88-.4-.16-.6.2L24,16l1,.8,1.24-.16.56.2.16.36.44.44q0-.08.22-.1l.34,0a.2.2,0,0,1,0,.4h-.24a2.3,2.3,0,0,1-.16.52c-.08.19-.15.28-.2.28a.21.21,0,0,1-.24-.24v-.08a.61.61,0,0,1,.08-.24h-.4l-.68-.68h-.56l.12.28h0a0,0,0,0,1,0,0c.11,0,.16.07.16.2V18l-.08.16h.12a.2.2,0,0,1,0,.4h-.48a.6.6,0,0,1,.16.44,1,1,0,0,1-.12.4.36.36,0,0,1-.32.24.21.21,0,0,1-.24-.24.23.23,0,0,1,.08-.16l.24-.24a.57.57,0,0,1-.2-.4.78.78,0,0,1,.16-.4l-.36-.12-.44-.16-.72-.4-.24-.84-.24-.24h-.24l-.72,1.48v.44l.24.24h.2l.84.32.12.2a.21.21,0,0,1,.24.24.49.49,0,0,1-.26.38,1.29,1.29,0,0,1-.46.22c-.16,0-.24-.07-.24-.2s.05-.15.16-.2h-.32l-.64-.32-.4,1.64-.56,0a.44.44,0,0,1-.2,0,.36.36,0,0,0,.2.2.29.29,0,0,1,.16.28q0,.16-.2.16t-.4-.4c-.08-.27-.19-.4-.32-.4s-.37.13-.48.4-.21.4-.32.4-.2-.05-.2-.16a.08.08,0,0,1,0-.06.08.08,0,0,0,0-.06v0a1.1,1.1,0,0,1,.26-.56.73.73,0,0,1,.58-.36,1.23,1.23,0,0,1,.42.08,1.22,1.22,0,0,0,.42.08l.12-.32-.32-.64-.08-.68.44-1.08.32-.68.12-.52v-.88L21,14.9l-1.12-.32h-1l-1.56,1.16-.24.44.4.52-.08.32-.72.44-1,.24L15,18l-.8,1-.68,1.24-.72,1.28-.24.52-.64,2-.16.88.12.64.48,1.12-.48.48-.24.92.12,1.48.36.88.52.92,1,2.28.76,1.84.44.44.36.88,1,1,.8-.16.36-1V34.54l-.44-.6-1.6-1.32L15,32v-.44l.24-.28.52-.08.44-.76V30l-.32-.32-.64.32h-.44l-.16-.2v-.4l.84-.24-.76-.76V28.1l.4-.16.48.6.8.52.52.68h.24l.2-.2-.12-.68h.6l.24.92-.4.4-.72.36-.48.76-.08.28.76.76.52-.24.36-.36.52-.76.72-.72.76-.88.08-1.12-.28-1.08-.24-.24-.44-.68V25.14l.4-.4.32.32-.2.6.12.2.84-1.08H21l.12.36-.72,1v.44h.52l.44.44.44.84.08,1-.16.48h.76l.52-.24h.4a4.71,4.71,0,0,1-.32-.82,3.13,3.13,0,0,1-.12-.86V27.3a.24.24,0,0,1,.12-.2l.52-.2a1.8,1.8,0,0,1,.26-.2.58.58,0,0,1,.3-.12.18.18,0,0,1,.2.2.16.16,0,0,1-.08.16l-.28.2q-.44.24-.44.56h0a.76.76,0,0,1,.24,0,.44.44,0,0,0,.2,0,.23.23,0,0,1,.16.08.38.38,0,0,1,.28-.12c.11,0,.16.07.16.2s0,.11-.12.16l-.2.12.56.52h0c.05.05.08.09.08.12s-.05.2-.16.2a1.27,1.27,0,0,1-.5-.28c-.25-.19-.38-.36-.38-.52a.36.36,0,0,0-.16,0l-.12,0a4.65,4.65,0,0,0,.18.52,1.35,1.35,0,0,1,.1.52v.24l.08.44-.4.84-.36.12-.76.64h-.32l-1.72.44-.64.4-.44.76.48.92.8.6h1.36v.44l-.16.16h-.56l.12.36.76.56.28.56.52.28h.36c.11,0,.22-.1.34-.3a.53.53,0,0,1,.46-.3c.11,0,.16.07.16.2a.16.16,0,0,1-.12.16l-.24.24a1.45,1.45,0,0,1,.3,0,.2.2,0,0,1,.18.2.18.18,0,0,1-.2.2.75.75,0,0,1-.24,0,.9.9,0,0,0-.28,0h-.12Zm-.4-9.84.4,0-.48,0Z"/><path class="cls-2" d="M46.09,44.18a7.06,7.06,0,0,1-4.86-1.58,5.36,5.36,0,0,1-1.78-4.22,6,6,0,0,1,2.82-5.16q2.82-1.92,8-2.16l2.6-.2q.64-.08.64-.6v-1a4.07,4.07,0,0,0-1.2-3.1A4.57,4.57,0,0,0,49.05,25a6,6,0,0,0-5.24,3,.59.59,0,0,1-.26.3.66.66,0,0,1-.42,0l-2.72-.8a.31.31,0,0,1-.24-.32,1.23,1.23,0,0,1,.12-.44,7.67,7.67,0,0,1,3.42-3.34,12,12,0,0,1,5.54-1.18q4.2,0,6.28,1.8a6.26,6.26,0,0,1,2.08,5V43.1a.77.77,0,0,1-.14.54.63.63,0,0,1-.46.14H54.33q-.56,0-.64-.8l-.08-1.52q-.08-.32-.24-.32a1,1,0,0,0-.44.24A9.57,9.57,0,0,1,46.09,44.18Zm6.88-11-2.16.16a11.81,11.81,0,0,0-5.26,1.34,3.5,3.5,0,0,0-1.94,3.14,3,3,0,0,0,1.12,2.46,4.65,4.65,0,0,0,3,.9,6.57,6.57,0,0,0,4.08-1.48,3.8,3.8,0,0,0,1.72-2.8V33.82Q53.53,33.18,53,33.22Z"/><path class="cls-2" d="M82.17,43.38q0,.4-.52.4H78.09a.83.83,0,0,1-.8-.6L71.81,33.5q-.12-.24-.24-.24a.44.44,0,0,0-.28.16l-3.8,3.8a1.06,1.06,0,0,0-.32.84v5a.78.78,0,0,1-.18.6.93.93,0,0,1-.62.16H63.61a.77.77,0,0,1-.54-.14.7.7,0,0,1-.14-.5V14.7q0-.6.52-.6h3.2q.52,0,.52.6V32.58q0,.36.16.36c.05,0,.15-.07.28-.2l9.12-9.64a1.43,1.43,0,0,1,.92-.52h3q.56,0,.56.32a.78.78,0,0,1-.28.52l-6.08,6.2a.58.58,0,0,0-.2.4,1.56,1.56,0,0,0,.12.44L82.09,43A.65.65,0,0,1,82.17,43.38Z"/><path class="cls-1" d="M111.29,11.58v.2l-.56.84-.08.44-.2.16-.16,1.12v3l.12,1.72.16,2,.28,2.12.16.32.28.8.88.2.56-.2,1.64-1.08.84-.92V21.5l-.4-1.84-.44-1.28-.12-.68-.28-.64-1.08-.72-.48-.56-.56-1.8.4-.4h.28l.32.36v.84l.4,1,.4.24-.12-1V13.9l.12-.08q-.2,0-.34-.4a2,2,0,0,1-.14-.6v-.08a.2.2,0,1,1,.4,0v.12a.47.47,0,0,0,.16.4,3.2,3.2,0,0,1,.32.28.79.79,0,0,0,.26-.2q.1-.12.18-.12a.21.21,0,0,1,.24.24.19.19,0,0,1-.14.18.68.68,0,0,0-.22.14v.48l-.12.08v1.12l.28.52,1-1.76V13.5l-1-1-.52-.72-.56-1.36h-.12a1.25,1.25,0,0,0-.54-.3.49.49,0,0,1-.34-.54c0-.11.07-.16.2-.16s.11,0,.16.12l.36.36a2.23,2.23,0,0,0,.84.2h.12l-.4-.24a.39.39,0,0,1-.2-.36.86.86,0,0,1,0-.22.19.19,0,0,1,.2-.14.18.18,0,0,1,.2.2v.08c0,.08.08.15.24.22a.54.54,0,0,1,.32.34,2.52,2.52,0,0,1,.38-.12,1.77,1.77,0,0,1,.38,0l.16-.16a.23.23,0,0,1,.16-.08.21.21,0,0,1,.24.24.32.32,0,0,1-.18.3,1.8,1.8,0,0,1-.4.16l-.46.14a.92.92,0,0,0-.36.2l.28.92.48.52,1,1.12.4-.48,1.08-.8.16-.76a1.24,1.24,0,0,1-.08-.36,1.07,1.07,0,0,1,.08-.3c.05-.15.13-.22.24-.22s.2.05.2.16a.35.35,0,0,1,0,.16.35.35,0,0,0,0,.16.68.68,0,0,0,0,.28h.08a3.09,3.09,0,0,1,.66.1q.42.1.42.26a.18.18,0,0,1-.2.2,1.24,1.24,0,0,1-.34,0l-.34-.08-.24.68-1.16,1-.36.76h1l.72-.6a1.92,1.92,0,0,1,.18-.42,3.92,3.92,0,0,1,.32-.5,4,4,0,0,1,.36-.42.49.49,0,0,1,.3-.18.21.21,0,0,1,.24.24.23.23,0,0,1-.08.16l-.84.84a.35.35,0,0,0,0,.16,1.28,1.28,0,0,1,.36-.08h.4l.22-.08.18,0h0l0,0h0c.13,0,.2.05.2.16a.22.22,0,0,1-.12.22.88.88,0,0,1-.3.08l-.38,0a.91.91,0,0,0-.28,0l.52.64h0c.05.05.08.09.08.12s-.05.2-.16.2a.44.44,0,0,1-.44-.32,1.92,1.92,0,0,0-.28-.52l0,.08,0,0c-.05.08-.11.12-.16.12l-.72.68-1.28.12-.56.24-.28.28-.2.52-.16,1.12v1.52l.24,1.12.56,1.08h.76l.6-.76v-.44l1-1.28,1.72-2.32,1.12-.44,1.16-1.16.72-1.24.72-1.32.48-1.08v-1l-.16-.2.72-.24.28.24V10l.28,1h.4l.36-.56.12-1.16a.48.48,0,0,1-.4-.48.61.61,0,0,1,.06-.22.19.19,0,0,1,.18-.14c.13,0,.2.05.2.16a.08.08,0,0,1,0,.06.08.08,0,0,0,0,.06l0,.16a.55.55,0,0,0,.24,0h.2a1,1,0,0,0,.22-.18q.14-.14.22-.14a.21.21,0,0,1,.24.24c0,.08-.05.15-.16.2a.94.94,0,0,0-.24.16l.08.8a.46.46,0,0,1,.08-.12.47.47,0,0,0,.08-.12l.56-.44a.16.16,0,0,1,.12,0,.18.18,0,0,1,.2.2l-.6.68-.44.5c-.13.15-.21.22-.24.22l-.08.36h.6l.4-.24.08-.24.4-.32.12-.48.64-1h.56l.2.16-.4.8v.28l1.6-.56h1.16v.12a.45.45,0,0,1,.54,0q.18.1.18.18c0,.13-.08.2-.24.2l-.28-.08a.32.32,0,0,0-.22.28,3.94,3.94,0,0,1-.1.52c.11,0,.16.07.16.2a.18.18,0,0,1-.2.2h-.16a.18.18,0,0,1-.2-.2V10.7a1.07,1.07,0,0,1,.08-.4h-1l-.28.32.12.08v.64l.76.92.32.48a.71.71,0,0,1,.32-.08l.14,0,.14,0a2,2,0,0,1,.52-.42,1.23,1.23,0,0,1,.52-.22c.11,0,.16.07.16.2s-.09.14-.26.26l-.38.26.42.08a.23.23,0,0,1,.22.24.18.18,0,0,1-.2.2h0a1.5,1.5,0,0,1-.6-.12,1.5,1.5,0,0,0-.6-.12.55.55,0,0,0-.4.16,1.32,1.32,0,0,1,.08.32l.16-.08h.32a.2.2,0,1,1,0,.4h-.08a.76.76,0,0,0-.24,0L132,14v.2a.2.2,0,1,1-.4,0v-.32a.18.18,0,0,1-.2-.2V13.3l-.28-.4-.52-.36-.36-.52-.44-.44-.36.48v.8l1,.92-.2,1-.08.72.4.12A.84.84,0,0,1,131,15a3,3,0,0,1,.74-.28.16.16,0,0,1,.12,0h.2a1,1,0,0,1,.64.22.7.7,0,0,1,.28.58v.12a.18.18,0,0,1-.2.2q-.2,0-.28-.38a.44.44,0,0,0-.48-.38.61.61,0,0,0-.24.08h-.08a.16.16,0,0,1-.12,0,.12.12,0,0,1-.08,0,.75.75,0,0,1,.4.48h0l.12.08h.12a.2.2,0,1,1,0,.4h-.36a.37.37,0,0,1-.24-.3.31.31,0,0,0-.28-.26.16.16,0,0,1-.12,0v.28a.33.33,0,0,0-.08.24c0,.05.08.14.24.26l.5.36.5.34q.24.16.24.28a.18.18,0,0,1-.2.2h-.12a.45.45,0,0,1-.44-.22.87.87,0,0,0-.32-.34.23.23,0,0,1,.08.16v.12a.08.08,0,0,0,0,.06.08.08,0,0,1,0,.06.08.08,0,0,1,0,.06.08.08,0,0,0,0,.06v.08a.82.82,0,0,0-.18.46c0,.17-.09.26-.22.26a.18.18,0,0,1-.2-.2l0-.16-.08.12.14-.3a1.73,1.73,0,0,0,.1-.34.9.9,0,0,1-.12-.2l-.16-.34c-.05-.12-.12-.29-.2-.5a1.55,1.55,0,0,1-.24.2,1.63,1.63,0,0,0-.24.2.69.69,0,0,1,0,.28,1.84,1.84,0,0,1-.1.52c-.07.21-.15.32-.26.32s-.2-.05-.2-.16a.43.43,0,0,1,.08-.24.43.43,0,0,0,.08-.24.86.86,0,0,0-.06-.34.75.75,0,0,1-.06-.3.23.23,0,0,1,.08-.16l0,0a1.81,1.81,0,0,0-.22-.26.39.39,0,0,1-.14-.26.16.16,0,0,1,0-.12l-.12-.28.32-1.36-.88-.44-1.12.4-.72.68-.08.36-1.6,2.44-.32.36-1.8,1.92-1,.76-.8,1.12v.32h2.16a0,0,0,0,1,0,0h0a.22.22,0,0,1,.08-.1l.12-.1c0-.13.12-.25.36-.34a.68.68,0,0,0,.44-.38v0a.26.26,0,0,1,.22-.26,1.39,1.39,0,0,1,.34-.06,1.37,1.37,0,0,1,.68.18,1.37,1.37,0,0,0,.68.18h.2a.18.18,0,0,1,.2.2.22.22,0,0,1-.18.22,1.09,1.09,0,0,1-.34.06.87.87,0,0,1-.34-.06l-.34-.14a1.34,1.34,0,0,0,.1.28.62.62,0,0,1,.06.28.23.23,0,0,1,0,.16,2.41,2.41,0,0,0,.32.34c.13.12.2.21.2.26s-.05.2-.16.2a.39.39,0,0,1-.2-.08.39.39,0,0,0-.2-.08v0h0v0h0a3,3,0,0,0-.24-.3c-.11-.12-.16-.21-.16-.26a.25.25,0,0,1,0-.14.25.25,0,0,0,0-.14.62.62,0,0,0-.06-.28,1.79,1.79,0,0,1-.1-.24v-.16h-.32a.35.35,0,0,1-.2.34,2.3,2.3,0,0,0-.36.22c.13,0,.25.09.36.28a1.07,1.07,0,0,1,.16.52.27.27,0,0,1-.08.2c.05.05.08.09.08.12a.17.17,0,0,1,0,.12l0,0a1.27,1.27,0,0,0,.44.14c.21,0,.32.13.32.26a.18.18,0,0,1-.2.2h-.08a1.3,1.3,0,0,1-.6-.2q-.36-.2-.36-.28a.36.36,0,0,1,.06-.18.92.92,0,0,1,.14-.18v-.08c-.08,0-.12-.11-.12-.24-.05.05-.09.08-.12.08l-.2.12-1.28.12V23l1.28.84V24l.52.24c.08.05.12.11.12.16a.18.18,0,0,1-.2.2l-.56-.24a1.18,1.18,0,0,0-.14.36q-.06.24-.14.48t-.16.42q-.08.18-.12.18a.18.18,0,0,1-.2-.2,1.31,1.31,0,0,1,.08-.4.6.6,0,0,1-.08-.24.53.53,0,0,1,.14-.36,1.25,1.25,0,0,0,.22-.36h0l-.92-.72-.8-.52-1-.28h-1l-.4.36-.52.68v2.48l.44.8,2.12,2.16.68,1,2.32,2.48.64-.6.64-.36.2-.8V30.3l-.28-.32a2.44,2.44,0,0,1-.8-.38.82.82,0,0,1-.36-.7,1,1,0,0,1,0-.26.19.19,0,0,1,.2-.14.18.18,0,0,1,.2.2v0a.16.16,0,0,1,0,.1.08.08,0,0,0,0,.06.51.51,0,0,0,.36.48,1.46,1.46,0,0,1,.66-.32.52.52,0,0,0,.42-.52.16.16,0,0,1,.16-.12c.13,0,.2.05.2.16a.85.85,0,0,1-.22.6,2,2,0,0,1-.5.4h.4l.36.32.36-.16,0,0a.12.12,0,0,0,.08,0l.24-.12.16-.2a2.23,2.23,0,0,1-.08-.52,1.86,1.86,0,0,1,.18-.7.6.6,0,0,1,.58-.42.18.18,0,0,1,.2.2c0,.08-.08.19-.24.32a1.06,1.06,0,0,0-.32.4h.16a1.59,1.59,0,0,1,.34,0,1.56,1.56,0,0,0,.34,0h.08a.2.2,0,0,1,0,.4h-.08a1.56,1.56,0,0,1-.34,0,1.62,1.62,0,0,0-.34,0h-.12a.64.64,0,0,1,.08.28.67.67,0,0,1-.24.44h.12v.16l.28.16.46-.24a1.5,1.5,0,0,1,.5-.2.18.18,0,0,1,.2.2c0,.21-.14.35-.42.4a1.17,1.17,0,0,0-.62.28.63.63,0,0,0,.2.52.27.27,0,0,0-.08.2.33.33,0,0,0,.12.2.14.14,0,0,0,.12-.06.13.13,0,0,1,.12-.06q.24,0,.24.2a.28.28,0,0,1-.16.22l-.24.14a.47.47,0,0,1-.4-.16,1.1,1.1,0,0,1-.18-.4,3,3,0,0,1-.08-.48,1.12,1.12,0,0,0-.1-.4l-.68.2-.52,1.08a.53.53,0,0,1,.44.4l0,0h0a0,0,0,0,1,0,0,.21.21,0,0,1,.24.24.16.16,0,0,1-.12.16l-.2.08a.5.5,0,0,1-.34-.12,1.73,1.73,0,0,1-.26-.28.23.23,0,0,1-.16,0l-1.08,1-.2.44.72.84.44,1,1.56,2,.64.72L129.81,40l1.24,1.32,1.08,1,.52.16,1,.44,1.08.76-.32.32h-.32l-.44-.24-.6-.2-1.44-.36-.64-.32h-.8v.32l.24.24v.8l-.6.32-1.08-.28h-.84l-.12.52-.56.12-.24-.24-.2-1.28-.64.68v.68l-.24.24h-.28l-.28-.88.32-2.12-.4.2-.68,1.28-.84.32-.36-.4.52-.68.2-.68-.32-.8-2-2.84-1-1.36-1-.48-.68.64h-.2l-.64-.56-.12-.44.08-.36.8-.36v-.6l-1.16-1.12-.6-.36h-1.36l-.44.4.2.64-.16.6h-.88l-.24-.64.12-1.12.52-.6.48-1.32-.32-.72-.56-.44-1.32-.4-1.16.64-.52.72-.48.52-.32.68-.12.68-.24.44-.16,1-.08,1.44.08,1.2.52,1.24.08.52.08.8.28,1.36.36.68,1,1.8.44.44v.48l-.24.28h-.64l-.36-.68v-.4l-.48-.32-.36.2h-.6l-.32.28-.36,1.28-.48.2L109,45l-.16-.84-.24-.28-.8-.08-.44-.48-.28-.76-.16.16-.16.92-.32.52-.08.48-.64.12-.28-.76h-.16l-.68.68h-.52l-.32-.32.48-1.08.68-1.52V40.9l.28-.64-.12-.48-.08-.72.36-.36.12-1.08-.12-.68.16-.56V33.22l.2-2,.36-1.6-.12-1.72V19.5l-.6-3V15.22l-.08-.8-.2-.36-.4-.2V14a1.78,1.78,0,0,1-.28.88h0a3.5,3.5,0,0,1,.3.36.73.73,0,0,1,.18.4q0,.16-.2.16c-.05,0-.14-.07-.26-.2l-.26-.28a1.31,1.31,0,0,0-.08.4,1.25,1.25,0,0,0,.08.36v.08a.21.21,0,0,1-.24.24c-.08,0-.15-.07-.2-.22a1.13,1.13,0,0,1-.08-.38,1.35,1.35,0,0,1,.24-.76,2.15,2.15,0,0,0,.32-.72,5.07,5.07,0,0,0-.64.2.21.21,0,0,1-.24-.24c0-.08.11-.17.32-.26a1.35,1.35,0,0,1,.48-.14v0a.44.44,0,0,1,0-.2.41.41,0,0,1,.24-.4l.32-.36.4.08.56.72v-.92l-.2-.84-.08-.48a.75.75,0,0,0-.3.06.76.76,0,0,1-.3.06c-.08,0-.12,0-.12,0l-.08-.08a.23.23,0,0,1-.08-.16.21.21,0,0,1,.24-.24.23.23,0,0,1,.16.08.7.7,0,0,1,.28,0h.28l0-.24-.72-1a1.54,1.54,0,0,0-.44-.1c-.16,0-.24-.09-.24-.22a.18.18,0,0,1,.2-.2,1.1,1.1,0,0,1,.3,0l.3.08.08-.12h.44l.4.64.64.72.24,1.12.4-.16.16-.64-.16-.4V9.42l.36-.48h.4l.16.16-.16.52v.84h.32l.28-.56.56-.56.44.12.24.72-.36.36-.16.84.12.8.2.44.64-.68.16-.36.64-.52a.7.7,0,0,1-.2-.52v-.12a.18.18,0,0,1,.2-.2,3.24,3.24,0,0,1,.56.84.23.23,0,0,1-.08.16v0a.11.11,0,0,1,.08,0h.08a1.19,1.19,0,0,1,.38.06,1.19,1.19,0,0,0,.38.06h.08a.2.2,0,0,1,0,.4h-.12a2,2,0,0,1-.4,0l-.4-.08A.23.23,0,0,1,111.29,11.58ZM132,14a0,0,0,0,1,0,0h0Z"/><path class="cls-2" d="M137.73,43.14v-20q0-.6.52-.6h3.16q.48,0,.48.52v2.2c0,.16,0,.25.1.28s.17,0,.3-.16A20.17,20.17,0,0,1,146,23a7.83,7.83,0,0,1,3.48-.78,6.44,6.44,0,0,1,4.7,1.66,6,6,0,0,1,1.7,4.46V43.06q0,.72-.68.72h-3q-.6,0-.6-.64v-14a3.86,3.86,0,0,0-.94-2.78,3.74,3.74,0,0,0-2.82-1,5.86,5.86,0,0,0-2.82.7,16.37,16.37,0,0,0-3.06,2.3V43.1a.66.66,0,0,1-.18.52.86.86,0,0,1-.58.16h-2.84A.57.57,0,0,1,137.73,43.14Z"/><path class="cls-2" d="M165,42.8a9.36,9.36,0,0,1-3.62-3.86,12.12,12.12,0,0,1-1.28-5.64,12.35,12.35,0,0,1,1.32-5.78,9.69,9.69,0,0,1,3.66-3.94,10.89,10.89,0,0,1,10.72,0,9.58,9.58,0,0,1,3.62,3.94,12.46,12.46,0,0,1,1.28,5.72,12,12,0,0,1-1.3,5.64,9.63,9.63,0,0,1-3.64,3.88,10.27,10.27,0,0,1-5.38,1.4A10.39,10.39,0,0,1,165,42.8Zm9.82-3.72a9.73,9.73,0,0,0,1.56-5.9,9.83,9.83,0,0,0-1.58-5.94,5.57,5.57,0,0,0-8.78,0,9.73,9.73,0,0,0-1.6,5.94,9.57,9.57,0,0,0,1.6,5.88,5.25,5.25,0,0,0,4.44,2.12A5.12,5.12,0,0,0,174.85,39.08Z"/><path class="cls-2" d="M189.49,43a.78.78,0,0,1-.18.6,1,1,0,0,1-.66.16h-2.72a.86.86,0,0,1-.56-.14.64.64,0,0,1-.16-.5l.08-28.44q0-.6.52-.6H189q.52,0,.52.6Z"/><path class="cls-2" d="M199.41,43a.78.78,0,0,1-.18.6,1,1,0,0,1-.66.16h-2.72a.86.86,0,0,1-.56-.14.64.64,0,0,1-.16-.5l.08-28.44q0-.6.52-.6h3.16q.52,0,.52.6Z"/><path class="cls-1" d="M49.07,51.14s.07,0,.12.08a.3.3,0,0,0,.2.22,1.4,1.4,0,0,0,.34.08l.32.06q.14,0,.14.16a.18.18,0,0,1-.2.2h-.2a3.32,3.32,0,0,1-.56-.08q-.4-.08-.4-.28,0,.08-.06.06s0,0,0,0l-.08.12-1.12,1v.72l.32.52.6-.52.92-.52,1-.52h3l2.36.24h1.48l.8.4h3.52l.72.2.84.24,2.12.84,1,.16.88,1.2v.4l-.24.16h-.68l.4.52.36.6.4.72.2,1.8-.08.44.32,1,.52.28.36-.28a.5.5,0,0,1,.36-.16h.12l0-.16,0,0a2.61,2.61,0,0,0,.2-.42q.12-.3.32-.3a.18.18,0,0,1,.2.2.61.61,0,0,1-.16.28.61.61,0,0,0-.16.36c0,.08,0,.12,0,.12v.12a1.39,1.39,0,0,0,.4.12c.16,0,.24.11.24.24a.18.18,0,0,1-.2.2H70a.67.67,0,0,1-.38-.12,1.12,1.12,0,0,0-.34-.16l-.2.24-.44.48.12.68.68.68.36.16.56.64a.66.66,0,0,1,.36.08.23.23,0,0,1,.16-.08.21.21,0,0,1,.24.24.23.23,0,0,1-.08.16l-.08.08a.16.16,0,0,1-.12,0,.42.42,0,0,1-.22-.06.5.5,0,0,0-.26-.06.12.12,0,0,1,0,.08l-.4.4.12.2a.23.23,0,0,1,.08.16.21.21,0,0,1-.24.24.29.29,0,0,1-.26-.18.7.7,0,0,1-.1-.34.84.84,0,0,1,.36-.68l-.68-.48-.12.08v.72l-.4.6h-.36v-.52l.16-.36v-.56l-.6-.84-.32-.08L67.43,63l-.36-.16-.52,1.56-.36.88v.36l-.08.68-.52.88-.2.76.28.12.72.36,1.4.6,1,.52.76.8.84,1.2.24.76.76,1.16-.08.6.24.28.52.24,0,.2.08-.08a2.06,2.06,0,0,0,0-.4,2,2,0,0,1,0-.4,1.26,1.26,0,0,1,.12-.48.5.5,0,0,1,.52-.28c.11,0,.16.07.16.2s-.07.14-.2.26a.69.69,0,0,0-.2.54.34.34,0,0,1,.28.2.68.68,0,0,1,.12.32c0,.11-.07.16-.2.16a.16.16,0,0,1-.16-.12.52.52,0,0,1-.36.56l.12.48L72,76.1l-.6.72-.44,1.48-.64,1.84-.12.64-.36.56-.6.8-1.32,1.48-.44.68-.08.52v2.44l-.24.44h-.48l-1-1-.16-.52-.32-.28-.56.36-1.28,1.4-.72.36H62l-.36-.36.12-1.08-.12-.12h-.52l-.4.28-1,1.36h-.52L58,87.62H56.67l-.56-.36-1.4-.52-1.28-.28-.84.2.16.16-1.28.48-.72.48h-.92l-.44-.44H49l-.12.8-.4.44h-.28l-.52-.28-.52-.68-.52-.68-.44-.6-.92.64-.16.36h-.48v-.52L45,85.54l.08-.72.16-.84.12-.88.24-1.48.56-1.92V69L46,68.62l.2-3L46,64.42l-.16-2.52V60.46l-.36-1.68-.08-.72-.2-.24V57.3l.2-.2.68.24.08-.92.2-.52.16-1.4.28-.72-1.36.16-.28-.28.12-.28.88-.16.56-.32-.2-.4.16-1,.52-.52h.36v.44l-.52.4v.52L48.43,51l.2.08.3-.46a.71.71,0,0,1,.42-.3.16.16,0,0,1,0-.12c0-.11.11-.19.32-.26a1.84,1.84,0,0,1,.52-.1.66.66,0,0,1,.26.06.19.19,0,0,1,.14.18c0,.13-.05.2-.16.2l-.06,0-.06,0a.55.55,0,0,0-.34.08l-.26.24a5.11,5.11,0,0,1,.7.06l.8.14a3.05,3.05,0,0,1,.64.2c.17.08.26.16.26.24a.18.18,0,0,1-.2.2h-.12a.88.88,0,0,1-.28,0,.76.76,0,0,0-.24,0l.28.28a.16.16,0,0,1,.08.16.18.18,0,0,1-.2.2.44.44,0,0,1-.44-.3,1.47,1.47,0,0,1-.12-.54l0,0,0-.08A4.12,4.12,0,0,0,50,51a2.64,2.64,0,0,1-.76-.12A1.09,1.09,0,0,0,49.07,51.14Zm-.2.48.24-.16-.28.12ZM59.63,77.26a0,0,0,0,1,0,0l.12-.92h-.92a1.48,1.48,0,0,1-.18.44q-.14.24-.3.24a.18.18,0,0,1-.2-.2s0,0,.06-.1a3.19,3.19,0,0,0,.12-.34c0-.13.09-.27.14-.4l.12-.32a2.28,2.28,0,0,1-.54-.28c-.2-.13-.3-.27-.3-.4A.21.21,0,0,1,58,74.7a.23.23,0,0,1,.16.08l.48.4a.85.85,0,0,1,.4.14.4.4,0,0,1,.24.34.08.08,0,0,1,0,.06.08.08,0,0,0,0,.06h1.2V74.62l-.2-.76V72.62l.2-.76-.2-.2H59.15L58,71.9l-1.44.92h-.36l-.2-.2v-.36l.4-.72.68-.44v-.48l-.52-.52v-.36l1.16.16.72.56H59l.24-.16V70l-.44-.68V69l.28-.52h.72l.6.76.6.36.68-.12.12-.92-.16-.16-.56.28-.72-.16V68l.72-.24.56-.4.2-.4.32-.64h-.24l-1.12.72-1.08.6-1,.28-.44.84-.44.44h-.44L57.07,69v-.64l.08-.72-1-.12-.72-.28v-.48l.64-.2h2.72L60,66.1l1-.36.32-.36v-.52L61,64.54V64l1.56-1.36.16-.36.48-1-.12-1.52-.72-1-1-.64-.84-.28H58.63l-.72.36-1.2,1.2-.72.36-.08.24-.32.8h.52l1.2-.36a.27.27,0,0,1,.2-.08h.36c.13,0,.2.09.2.28a1,1,0,0,1,.44-.08h.36l.06,0,.06,0c.11,0,.16.07.16.2s-.07.18-.2.22a1.19,1.19,0,0,1-.28.06l-.18,0-.18,0-.16.16a.58.58,0,0,1-.12.36,1,1,0,0,0,.3.2c.12.05.18.12.18.2a.18.18,0,0,1-.2.2h-.08c-.37,0-.56-.17-.56-.52V61.5a.71.71,0,0,0,.08-.2.65.65,0,0,0-.08-.28l-.72.12-1,.36,1.16.36.16.28-.12.08a.3.3,0,0,1-.08.18l-.12.14.68.5a1.91,1.91,0,0,1,.6.74.18.18,0,0,1-.2.2.63.63,0,0,1-.6-.28,6.73,6.73,0,0,1-.76,1.2.18.18,0,0,1-.2-.2v-.12a.72.72,0,0,1,.28-.56.72.72,0,0,0,.28-.56v-.28l-.26-.2a1.5,1.5,0,0,0-.3-.2,2.46,2.46,0,0,1-.48.16,1,1,0,0,0-.24.4.34.34,0,0,1-.36.24c-.11,0-.16-.07-.16-.2a.76.76,0,0,1,.46-.66,8.06,8.06,0,0,1,.74-.38L56,62.26l-.44-.12-1.12-.84h-1.2l-.64.52-.68.64-.52,1.16-.12.6.12.4.4,1.52.4.52h2.56l.4.4v.52l-.28.24,1,.52.32,1v1.24l-.28.52-.24.16-1.08-.28-.4.16v.56l-.72.32-.84-.64-.6-.12-.56.2-.36.32-.24.52v2l.08.6.16.52.36,1.92.32.92.28.28h1.84l.4-.4.24-.88.28-.44a1.59,1.59,0,0,1-.52-.26.68.68,0,0,1-.24-.58.53.53,0,0,1,.06-.24.19.19,0,0,1,.18-.12c.11,0,.16.07.16.2v.08l.16.4v0a0,0,0,0,1,0,0s.06-.07.18-.14l.4-.22.44-.22a.91.91,0,0,1,.34-.1.18.18,0,0,1,.2.2.18.18,0,0,1-.12.2l-.88.44h.16l.2.28-.52.64v.4l1.6.2a1.17,1.17,0,0,1,.24-.46.56.56,0,0,1,.44-.26c.11,0,.16.07.16.2s-.07.19-.22.26a.35.35,0,0,0-.22.34v.2l.74.22q.42.14.42.34t-.2.24a1.48,1.48,0,0,1-.34-.08,5.16,5.16,0,0,1-.54-.2l-.76-.32-.72-.16-.64,0a1.13,1.13,0,0,1,.52.84l.24,0,.24,0a.49.49,0,0,1,.36.12.69.69,0,0,1,.28,0,.2.2,0,0,1,0,.4.79.79,0,0,0-.36.08h0a.16.16,0,0,1-.16-.12v0a3,3,0,0,1-.56,0,.86.86,0,0,0,.06.34.75.75,0,0,1,.06.3.17.17,0,0,1,0,.12.27.27,0,0,0,0,.12.28.28,0,0,1,0,.12h.24a.2.2,0,1,1,0,.4h-.08a.23.23,0,0,1-.2.12.26.26,0,0,1-.24-.18.77.77,0,0,1-.08-.3,6.63,6.63,0,0,0-.48.54q-.24.3-.32.3c-.13,0-.2-.05-.2-.16a.92.92,0,0,1,.32-.64,4.89,4.89,0,0,1,.6-.52,2.43,2.43,0,0,1-.08-.6,2.49,2.49,0,0,0-.08-.6.12.12,0,0,0,0-.08.1.1,0,0,0-.08-.1l-.16,0h-.08a.23.23,0,0,1-.16,0l-.88.52-1.56.36.32,1,.2.16.24.6,1,1,1.4.8,1.32.2,1.16-.16.48-.2h.44l.52-.2L61,82.3l1.28-.68,1.08-.88.64-.8.48-.24.24-.52.64-1,.8-1.68-.12-1L66,75.34l-1.08-1.88L64,72.9l-1.32-.12-.68.44-.64.68-.24.64.36,1.12.2.24.52.16.28.28a.49.49,0,0,0,.18,0l.18-.08a.57.57,0,0,1-.12-.3,2,2,0,0,1,0-.3c0-.11,0-.26,0-.46s.09-.3.22-.3a.18.18,0,0,1,.2.2v0a1.4,1.4,0,0,0,0,.4,1.23,1.23,0,0,0,.12.56v0l.26-.14a.65.65,0,0,1,.26-.1.18.18,0,0,1,.2.2c0,.05-.05.12-.16.2a1.83,1.83,0,0,1-.4.22l-.48.18a1.31,1.31,0,0,1-.4.08h0l-.44.08v.12l-.12,0a7.21,7.21,0,0,1,.66.44q.38.28.38.48a.18.18,0,0,1-.2.2.59.59,0,0,1-.32-.16,3.16,3.16,0,0,1-.38-.36l-.32-.38a.68.68,0,0,1-.14-.22v-.2l-.72-.52-.52.28-.16.52-.12.52a.44.44,0,0,1,.08.16l.16,0a1.46,1.46,0,0,1,.64.18q.36.18.36.38a.21.21,0,0,1-.24.24s0,0-.16-.1l-.46-.22L60,77.88q-.22-.1-.22-.14l-.08,0c0,.05,0,.09-.12.1s-.12,0-.12.1a.65.65,0,0,0,.1.3.71.71,0,0,1,.1.34v.08a.18.18,0,0,1-.2.2q-.16,0-.3-.4a2,2,0,0,1-.14-.6.39.39,0,0,1,.22-.36A3.89,3.89,0,0,1,59.63,77.26ZM51.39,59.74h.2l.76-.52.88-.28.84-.4.76-.68-1-.24-.68-.24-.64-.28h-.68l-.36.28-.16.36.08,1.88Zm8.72,25.64.44-.16.52-.72.08-.28-.84-.28-1.6.56-.24.24,1,.52Zm3-17.72.44-.08.88-1,.44-1-.68-.6-.12.16-.36.84v.28l-.2.2.12.24-.16.44-.16.44-.2.08Zm1.68-4.36.68-.36V61.38l-.2-1.08-.32.16-.36,1v1.68Z"/><path class="cls-2" d="M79.45,85.8a9.36,9.36,0,0,1-3.62-3.86,12.12,12.12,0,0,1-1.28-5.64,12.35,12.35,0,0,1,1.32-5.78,9.69,9.69,0,0,1,3.66-3.94,10.89,10.89,0,0,1,10.72,0,9.58,9.58,0,0,1,3.62,3.94,12.46,12.46,0,0,1,1.28,5.72,12,12,0,0,1-1.3,5.64,9.63,9.63,0,0,1-3.64,3.88,10.27,10.27,0,0,1-5.38,1.4A10.39,10.39,0,0,1,79.45,85.8Zm9.82-3.72a9.73,9.73,0,0,0,1.56-5.9,9.83,9.83,0,0,0-1.58-5.94,5.57,5.57,0,0,0-8.78,0,9.73,9.73,0,0,0-1.6,5.94,9.57,9.57,0,0,0,1.6,5.88,5.25,5.25,0,0,0,4.44,2.12A5.12,5.12,0,0,0,89.27,82.08Z"/><path class="cls-2" d="M103.41,85.8a9.36,9.36,0,0,1-3.62-3.86,12.12,12.12,0,0,1-1.28-5.64,12.35,12.35,0,0,1,1.32-5.78,9.69,9.69,0,0,1,3.66-3.94,10.89,10.89,0,0,1,10.72,0,9.58,9.58,0,0,1,3.62,3.94,12.46,12.46,0,0,1,1.28,5.72,12,12,0,0,1-1.3,5.64,9.63,9.63,0,0,1-3.64,3.88,10.27,10.27,0,0,1-5.38,1.4A10.39,10.39,0,0,1,103.41,85.8Zm9.82-3.72a9.73,9.73,0,0,0,1.56-5.9,9.83,9.83,0,0,0-1.58-5.94,5.57,5.57,0,0,0-8.78,0,9.73,9.73,0,0,0-1.6,5.94,9.57,9.57,0,0,0,1.6,5.88,5.25,5.25,0,0,0,4.44,2.12A5.12,5.12,0,0,0,113.23,82.08Z"/><path class="cls-2" d="M142.87,86.38q0,.4-.52.4h-3.56a.83.83,0,0,1-.8-.6l-5.48-9.68q-.12-.24-.24-.24a.44.44,0,0,0-.28.16l-3.8,3.8a1.06,1.06,0,0,0-.32.84v5a.78.78,0,0,1-.18.6.93.93,0,0,1-.62.16h-2.76a.77.77,0,0,1-.54-.14.7.7,0,0,1-.14-.5V57.7q0-.6.52-.6h3.2q.52,0,.52.6V75.58q0,.36.16.36c.05,0,.15-.07.28-.2l9.12-9.64a1.43,1.43,0,0,1,.92-.52h3q.56,0,.56.32a.78.78,0,0,1-.28.52l-6.08,6.2a.58.58,0,0,0-.2.4,1.56,1.56,0,0,0,.12.44L142.79,86A.65.65,0,0,1,142.87,86.38Z"/><path class="cls-2" d="M156.71,68.68a6.82,6.82,0,0,0-3.16-.7,6,6,0,0,0-3.28.82A2.52,2.52,0,0,0,149,71a2,2,0,0,0,.64,1.44A5.48,5.48,0,0,0,152,73.58l4.92,1.4A8.11,8.11,0,0,1,161,77.2a5.14,5.14,0,0,1,1.34,3.54,5.33,5.33,0,0,1-1.14,3.38A7.29,7.29,0,0,1,158,86.38,13.64,13.64,0,0,1,147.79,86a7.61,7.61,0,0,1-3.48-3.18.72.72,0,0,1-.12-.36.39.39,0,0,1,.2-.36l2-1a.94.94,0,0,1,.4-.12.38.38,0,0,1,.32.16,7,7,0,0,0,6.28,3.2,7.28,7.28,0,0,0,3.64-.82,2.48,2.48,0,0,0,1.44-2.22,2.16,2.16,0,0,0-.82-1.7,6.87,6.87,0,0,0-2.7-1.18l-4.08-1a8.84,8.84,0,0,1-4.32-2.12,4.84,4.84,0,0,1-1.36-3.52,5.6,5.6,0,0,1,1.06-3.38,7,7,0,0,1,3-2.28,12.13,12.13,0,0,1,9.3.22,7.69,7.69,0,0,1,3.24,2.72.78.78,0,0,1,.16.4.34.34,0,0,1-.2.28l-2.08,1.08a.56.56,0,0,1-.24,0,.61.61,0,0,1-.44-.2A6.13,6.13,0,0,0,156.71,68.68Z"/></svg>