<svg id="Layer_1" data-name="Layer 1" xmlns="http://www.w3.org/2000/svg" viewBox="0 0 201 99"><defs><style>.cls-1{fill:#b336ae;}</style></defs><title>standards-logo</title><path class="cls-1" d="M45.2,18.22H40.61v-1a4.9,4.9,0,0,0-.74-2.72,2.75,2.75,0,0,0-2.5-1.15,3,3,0,0,0-1.55.36,2.67,2.67,0,0,0-.94.92,3.85,3.85,0,0,0-.47,1.3,8.68,8.68,0,0,0-.13,1.55,15.93,15.93,0,0,0,.07,1.6,2.83,2.83,0,0,0,.34,1.13,2.58,2.58,0,0,0,.79.83,7.14,7.14,0,0,0,1.42.72l3.51,1.39a8.71,8.71,0,0,1,2.48,1.37,5.57,5.57,0,0,1,1.46,1.84,7.82,7.82,0,0,1,.7,2.43,24.36,24.36,0,0,1,.18,3.13,16.48,16.48,0,0,1-.4,3.76,7.93,7.93,0,0,1-1.33,3,6.38,6.38,0,0,1-2.45,2,8.74,8.74,0,0,1-3.74.72,8.18,8.18,0,0,1-3.1-.58,7.38,7.38,0,0,1-4.12-4,7.46,7.46,0,0,1-.61-3V32H34v1.44a3.75,3.75,0,0,0,.74,2.27,2.89,2.89,0,0,0,2.5,1,4,4,0,0,0,1.82-.34,2.32,2.32,0,0,0,1-.95,3.89,3.89,0,0,0,.43-1.51q.09-.9.09-2a19.53,19.53,0,0,0-.09-2.07,3.29,3.29,0,0,0-.38-1.3,2.34,2.34,0,0,0-.81-.81A10.9,10.9,0,0,0,38,27.09l-3.29-1.35a7.28,7.28,0,0,1-4-3.22,11.06,11.06,0,0,1-1-5,11.63,11.63,0,0,1,.5-3.42,8,8,0,0,1,1.46-2.79,7,7,0,0,1,2.45-1.87,8.07,8.07,0,0,1,3.46-.7,7.61,7.61,0,0,1,3.13.63A7.76,7.76,0,0,1,43.11,11a7.41,7.41,0,0,1,1.55,2.32A6.72,6.72,0,0,1,45.2,16Z"/><path class="cls-1" d="M48.35,11.29h4.59v6.93h2.83v3.6H52.94V34.47a4,4,0,0,0,.16,1.26,1.29,1.29,0,0,0,.49.67,1.83,1.83,0,0,0,.88.27q.54,0,1.31,0V41H53.89a6.18,6.18,0,0,1-2.63-.5,4.74,4.74,0,0,1-1.69-1.26,4.93,4.93,0,0,1-.92-1.73,6.42,6.42,0,0,1-.29-1.87V21.83H46.06v-3.6h2.29Z"/><path class="cls-1" d="M66.22,38.7h-.09a8.49,8.49,0,0,1-1.82,1.93,4.32,4.32,0,0,1-2.59.67,6,6,0,0,1-1.67-.25,4.15,4.15,0,0,1-1.6-.9,4.71,4.71,0,0,1-1.21-1.84,8.48,8.48,0,0,1-.47-3.08,16.27,16.27,0,0,1,.31-3.4,5.39,5.39,0,0,1,1.15-2.43A5,5,0,0,1,60.46,28,11.25,11.25,0,0,1,64,27.5c.33,0,.66,0,1,0l1.22.09V25.25a3.5,3.5,0,0,0-.5-1.94,2,2,0,0,0-1.8-.76,2.59,2.59,0,0,0-1.64.58,2.78,2.78,0,0,0-1,1.71H56.86a7.5,7.5,0,0,1,2.07-5,6.51,6.51,0,0,1,2.16-1.42A7.4,7.4,0,0,1,63.92,18a8,8,0,0,1,2.7.45,6,6,0,0,1,2.18,1.35A6.45,6.45,0,0,1,70.27,22a8.45,8.45,0,0,1,.54,3.15V41H66.22Zm0-7.47A7.47,7.47,0,0,0,65,31.09a4.51,4.51,0,0,0-2.54.7,2.82,2.82,0,0,0-1.06,2.54A3.34,3.34,0,0,0,62,36.45a2.1,2.1,0,0,0,1.75.81,2.26,2.26,0,0,0,1.82-.76,3.23,3.23,0,0,0,.65-2.16Z"/><path class="cls-1" d="M74.18,18.22h4.59v2.21h.09a6.53,6.53,0,0,1,1.73-1.78,4.46,4.46,0,0,1,2.59-.7,5.28,5.28,0,0,1,1.71.29,4,4,0,0,1,1.53,1,4.88,4.88,0,0,1,1.08,1.73,7.27,7.27,0,0,1,.41,2.59V41H83.32V25.25a3.06,3.06,0,0,0-.58-2,2,2,0,0,0-1.67-.72,1.93,1.93,0,0,0-1.8.81,4.52,4.52,0,0,0-.5,2.34V41H74.18Z"/><path class="cls-1" d="M100.82,39l-.85.92a4.71,4.71,0,0,1-.9.74,4.22,4.22,0,0,1-1.12.5,5.44,5.44,0,0,1-1.48.18,4.18,4.18,0,0,1-4-2.16,6.08,6.08,0,0,1-.58-1.89,19.94,19.94,0,0,1-.18-3V25.56a35.24,35.24,0,0,1,.13-3.64A4.53,4.53,0,0,1,92.41,20a4.91,4.91,0,0,1,1.51-1.49A4.83,4.83,0,0,1,96.5,18a4.74,4.74,0,0,1,2.41.61,5.58,5.58,0,0,1,1.82,1.73h.09V9h4.59V41h-4.59Zm-4.54-5.35a4.16,4.16,0,0,0,.54,2.25,1.87,1.87,0,0,0,1.71.85,2,2,0,0,0,1.67-.79,3.18,3.18,0,0,0,.63-2V25a2.5,2.5,0,0,0-.65-1.78,2.15,2.15,0,0,0-1.64-.7,1.88,1.88,0,0,0-1.78.81,3.68,3.68,0,0,0-.47,1.89Z"/><path class="cls-1" d="M117.88,38.7h-.09A8.49,8.49,0,0,1,116,40.63a4.32,4.32,0,0,1-2.59.67,6,6,0,0,1-1.67-.25,4.15,4.15,0,0,1-1.6-.9,4.71,4.71,0,0,1-1.21-1.84,8.48,8.48,0,0,1-.47-3.08,16.27,16.27,0,0,1,.31-3.4,5.39,5.39,0,0,1,1.15-2.43A5,5,0,0,1,112.12,28a11.25,11.25,0,0,1,3.56-.47c.33,0,.66,0,1,0l1.22.09V25.25a3.5,3.5,0,0,0-.5-1.94,2,2,0,0,0-1.8-.76,2.59,2.59,0,0,0-1.64.58,2.78,2.78,0,0,0-1,1.71h-4.46a7.5,7.5,0,0,1,2.07-5,6.51,6.51,0,0,1,2.16-1.42,7.4,7.4,0,0,1,2.83-.52,8,8,0,0,1,2.7.45,6,6,0,0,1,2.18,1.35A6.45,6.45,0,0,1,121.93,22a8.45,8.45,0,0,1,.54,3.15V41h-4.59Zm0-7.47a7.47,7.47,0,0,0-1.26-.14,4.51,4.51,0,0,0-2.54.7A2.82,2.82,0,0,0,113,34.33a3.34,3.34,0,0,0,.63,2.12,2.1,2.1,0,0,0,1.75.81,2.26,2.26,0,0,0,1.82-.76,3.23,3.23,0,0,0,.65-2.16Z"/><path class="cls-1" d="M125.84,18.22h4.59v2.43a14,14,0,0,1,2.75-2,7,7,0,0,1,3.33-.72v4.86a3.71,3.71,0,0,0-1.4-.27,5.46,5.46,0,0,0-1.55.25,4.25,4.25,0,0,0-1.53.83,4.45,4.45,0,0,0-1.15,1.53,5.42,5.42,0,0,0-.45,2.34V41h-4.59Z"/><path class="cls-1" d="M147.49,39l-.85.92a4.71,4.71,0,0,1-.9.74,4.22,4.22,0,0,1-1.12.5,5.44,5.44,0,0,1-1.48.18,4.18,4.18,0,0,1-4-2.16,6.08,6.08,0,0,1-.58-1.89,19.94,19.94,0,0,1-.18-3V25.56a35.24,35.24,0,0,1,.13-3.64,4.53,4.53,0,0,1,.58-1.89,4.91,4.91,0,0,1,1.51-1.49,4.83,4.83,0,0,1,2.59-.58,4.74,4.74,0,0,1,2.41.61,5.58,5.58,0,0,1,1.82,1.73h.09V9h4.59V41h-4.59Zm-4.54-5.35a4.16,4.16,0,0,0,.54,2.25,1.87,1.87,0,0,0,1.71.85,2,2,0,0,0,1.67-.79,3.18,3.18,0,0,0,.63-2V25a2.5,2.5,0,0,0-.65-1.78,2.15,2.15,0,0,0-1.64-.7,1.88,1.88,0,0,0-1.78.81,3.68,3.68,0,0,0-.47,1.89Z"/><path class="cls-1" d="M164.18,24.62a2.28,2.28,0,0,0-.74-1.75,2.42,2.42,0,0,0-1.6-.58,2.05,2.05,0,0,0-1.67.7,2.42,2.42,0,0,0-.58,1.6,2.66,2.66,0,0,0,.31,1.24,2.93,2.93,0,0,0,1.62,1.1l2.7,1.08a6.55,6.55,0,0,1,3.53,2.7,7.45,7.45,0,0,1,1,3.73,6.88,6.88,0,0,1-.52,2.68,7.12,7.12,0,0,1-1.42,2.18,6.48,6.48,0,0,1-2.16,1.49,6.91,6.91,0,0,1-2.75.54,7.35,7.35,0,0,1-2.56-.45,6.35,6.35,0,0,1-2.14-1.31,6.6,6.6,0,0,1-1.51-2.14,7.63,7.63,0,0,1-.63-3h4.32a4.37,4.37,0,0,0,.65,1.75,2,2,0,0,0,1.82.81,2.71,2.71,0,0,0,1.78-.65,2.24,2.24,0,0,0,.79-1.82,2.66,2.66,0,0,0-.5-1.62,3.9,3.9,0,0,0-1.8-1.17l-2.21-.81a7.51,7.51,0,0,1-3.4-2.41,6.16,6.16,0,0,1-1.24-3.89,6.62,6.62,0,0,1,.54-2.68,6.42,6.42,0,0,1,1.46-2.12,6.77,6.77,0,0,1,2.14-1.37A6.85,6.85,0,0,1,162,18a6.44,6.44,0,0,1,2.59.52A6.2,6.2,0,0,1,168,22a7,7,0,0,1,.5,2.63Z"/><path class="cls-1" d="M50.31,54h4.41l5.9,17h.09l5.85-17H71V86H66.42V66.55h-.09L61.79,80.33H59.49L55,66.55H54.9V86H50.31Z"/><path class="cls-1" d="M83.75,83.7h-.09a8.49,8.49,0,0,1-1.82,1.93,4.32,4.32,0,0,1-2.59.67,6,6,0,0,1-1.67-.25,4.15,4.15,0,0,1-1.6-.9,4.71,4.71,0,0,1-1.21-1.84,8.48,8.48,0,0,1-.47-3.08,16.27,16.27,0,0,1,.31-3.4,5.39,5.39,0,0,1,1.15-2.43A5,5,0,0,1,78,73a11.25,11.25,0,0,1,3.56-.47c.33,0,.66,0,1,0l1.22.09V70.25a3.5,3.5,0,0,0-.5-1.94,2,2,0,0,0-1.8-.76,2.59,2.59,0,0,0-1.64.58,2.78,2.78,0,0,0-1,1.71H74.39a7.5,7.5,0,0,1,2.07-5,6.51,6.51,0,0,1,2.16-1.42A7.4,7.4,0,0,1,81.45,63a8,8,0,0,1,2.7.45,6,6,0,0,1,2.18,1.35A6.45,6.45,0,0,1,87.8,67a8.45,8.45,0,0,1,.54,3.15V86H83.75Zm0-7.47a7.47,7.47,0,0,0-1.26-.14,4.51,4.51,0,0,0-2.54.7,2.82,2.82,0,0,0-1.06,2.54,3.34,3.34,0,0,0,.63,2.12,2.1,2.1,0,0,0,1.75.81,2.26,2.26,0,0,0,1.82-.76,3.23,3.23,0,0,0,.65-2.16Z"/><path class="cls-1" d="M91.71,63.22H96.3v2.21h.09a6.53,6.53,0,0,1,1.73-1.78,4.46,4.46,0,0,1,2.59-.7,5.28,5.28,0,0,1,1.71.29,4,4,0,0,1,1.53,1A4.88,4.88,0,0,1,105,65.95a7.27,7.27,0,0,1,.41,2.59V86h-4.59V70.25a3.06,3.06,0,0,0-.58-2,2,2,0,0,0-1.67-.72,1.93,1.93,0,0,0-1.8.81,4.52,4.52,0,0,0-.5,2.34V86H91.71Z"/><path class="cls-1" d="M122.94,86h-4.59V83.83h-.09a6.53,6.53,0,0,1-1.73,1.78,4.47,4.47,0,0,1-2.59.7,5.27,5.27,0,0,1-1.71-.29,4,4,0,0,1-1.53-1,4.87,4.87,0,0,1-1.08-1.73,7.26,7.26,0,0,1-.4-2.59V63.22h4.59V79a3.05,3.05,0,0,0,.58,2,2,2,0,0,0,1.67.72,1.94,1.94,0,0,0,1.8-.81,4.53,4.53,0,0,0,.5-2.34V63.22h4.59Z"/><path class="cls-1" d="M135.41,83.7h-.09a8.49,8.49,0,0,1-1.82,1.93,4.32,4.32,0,0,1-2.59.67,6,6,0,0,1-1.67-.25,4.15,4.15,0,0,1-1.6-.9,4.71,4.71,0,0,1-1.21-1.84,8.48,8.48,0,0,1-.47-3.08,16.27,16.27,0,0,1,.31-3.4,5.39,5.39,0,0,1,1.15-2.43A5,5,0,0,1,129.65,73a11.25,11.25,0,0,1,3.56-.47c.33,0,.66,0,1,0l1.22.09V70.25a3.5,3.5,0,0,0-.5-1.94,2,2,0,0,0-1.8-.76,2.59,2.59,0,0,0-1.64.58,2.78,2.78,0,0,0-1,1.71H126a7.5,7.5,0,0,1,2.07-5,6.51,6.51,0,0,1,2.16-1.42,7.4,7.4,0,0,1,2.83-.52,8,8,0,0,1,2.7.45A6,6,0,0,1,138,64.75,6.45,6.45,0,0,1,139.46,67a8.45,8.45,0,0,1,.54,3.15V86h-4.59Zm0-7.47a7.47,7.47,0,0,0-1.26-.14,4.51,4.51,0,0,0-2.54.7,2.82,2.82,0,0,0-1.06,2.54,3.34,3.34,0,0,0,.63,2.12,2.1,2.1,0,0,0,1.75.81,2.26,2.26,0,0,0,1.82-.76,3.23,3.23,0,0,0,.65-2.16Z"/><path class="cls-1" d="M143.1,54h4.59V79.61a2.53,2.53,0,0,0,.47,1.78,3,3,0,0,0,1.78.61v4.32a15.13,15.13,0,0,1-2.86-.25,4.88,4.88,0,0,1-2.16-.95,4.41,4.41,0,0,1-1.35-2,9.36,9.36,0,0,1-.47-3.24Z"/></svg>