<svg id="Layer_1" data-name="Layer 1" xmlns="http://www.w3.org/2000/svg" viewBox="0 0 928 508"><defs><style>.cls-1,.cls-2{fill:#fff;}.cls-1{stroke:#b336ae;stroke-miterlimit:10;stroke-width:6px;}</style></defs><title>type-directorsLogo</title><path class="cls-1" d="M902.4,341.2c0,15.2-5.4,28.4-16.3,38.9-10.8,10.8-23.7,16-38.9,16s-28.4-5.4-38.9-16c-10.8-10.8-16.3-23.7-16.3-38.9s5.4-28.4,16.3-38.9C819.1,291.5,832,286,847.2,286s28.4,5.4,38.9,16.3C897,313.1,902.4,326,902.4,341.2Z"/><path class="cls-1" d="M79.1,307.2V175.5H35.6V117.7H79.7l5.4-83.5h77v83.5h56.1v57.8H162.1V293.7c0,21.5,8.8,33.5,29.2,36.4a145.26,145.26,0,0,0,32.3,0v61a418.55,418.55,0,0,1-49.5,3.2c-62.1-.2-95-29.4-95-87.1"/><path class="cls-1" d="M411.9,305.7V195.8c-9.5-13.7-22-28.6-46.1-28.6-30.6,0-45,22-45,86.1,0,65.8,16.9,85,44.3,85,24.2.3,37.9-15.2,46.8-32.6m-179.8-53c0-86.7,43.5-140,108.2-140,32.3,0,55.5,14.3,71.2,32.9V23.7h84.7V390H415V351.1c-22,29.2-45,44.1-85.6,44.1-58.6-.2-97.3-46.3-97.3-142.5"/><path class="cls-1" d="M527.2,253.3c0-77.6,52.1-140.5,134.5-140.5,65.8,0,109.9,35.2,120.7,102.1L706.5,222c-3.7-31.2-15.4-52.6-42.4-52.6-30.6,0-46.7,29.2-46.7,84.7,0,60.4,18.1,86.7,47.8,86.7,26.9,0,38.9-18.1,44.1-48.9l73.6,6.6c-8.3,62.1-51.5,96.7-122.4,96.7-78.4-.2-133.3-52.3-133.3-141.9"/><path class="cls-2" d="M244.22,430.32a.28.28,0,0,1,.32-.32h23.69a.29.29,0,0,1,.32.32v1.2a.35.35,0,0,1-.07.25.44.44,0,0,1-.3.07h-9.8a.67.67,0,0,0-.37.07c-.06,0-.09.16-.09.34v31.42a.54.54,0,0,1-.09.37.45.45,0,0,1-.32.09h-1.24a.37.37,0,0,1-.46-.46V432.25c0-.18,0-.3-.09-.34a.67.67,0,0,0-.37-.07H244.59a.44.44,0,0,1-.3-.07.36.36,0,0,1-.07-.25Z"/><path class="cls-2" d="M271.5,471.65q-.6-.07-.6-.39v-.69a.39.39,0,0,1,.25-.41,3.87,3.87,0,0,1,1.08-.09H275a3,3,0,0,0,2.14-1,7.4,7.4,0,0,0,1.59-2.44,7.3,7.3,0,0,0,.6-2.78,4.48,4.48,0,0,0-.23-1.43l-8.69-22.13a.51.51,0,0,1,0-.23q0-.32.41-.32h1a.54.54,0,0,1,.55.37l8,20.42c.09.28.21.41.37.41s.34-.2.46-.6l7.82-20.29a.47.47,0,0,1,.46-.32h1a.37.37,0,0,1,.3.14.21.21,0,0,1,0,.28l-10.53,27.51a6,6,0,0,1-2.46,3.13,7.64,7.64,0,0,1-3.89.92Q272.09,471.72,271.5,471.65Z"/><path class="cls-2" d="M299.55,440.26v2.35q0,.41.18.41c.09,0,.21-.08.37-.23l.94-1.06a7,7,0,0,1,2.62-1.7,10.16,10.16,0,0,1,3.93-.74,10.58,10.58,0,0,1,5.38,1.38,9.45,9.45,0,0,1,3.75,4.12,15,15,0,0,1,1.36,6.69,16.39,16.39,0,0,1-1.36,6.88,10.65,10.65,0,0,1-3.84,4.6,10.39,10.39,0,0,1-5.84,1.63,10.53,10.53,0,0,1-3.86-.67,10.92,10.92,0,0,1-2.9-1.63,1.14,1.14,0,0,0-.41-.23c-.15,0-.23.18-.23.55v8.65q0,.46-.41.46h-1.06c-.25,0-.37-.14-.37-.41v-31a.45.45,0,0,1,.55-.55h.74Q299.55,439.75,299.55,440.26Zm3.66,21.69a8.28,8.28,0,0,0,3.8.9,8.45,8.45,0,0,0,4.74-1.36A9.07,9.07,0,0,0,315,457.6a14,14,0,0,0,1.17-5.93,13.09,13.09,0,0,0-1.2-5.89,8.28,8.28,0,0,0-3.2-3.57,8.53,8.53,0,0,0-4.39-1.17,7.93,7.93,0,0,0-3.93,1,8.07,8.07,0,0,0-2.78,2.46,5.11,5.11,0,0,0-1,2.9v12A15.34,15.34,0,0,0,303.21,461.95Z"/><path class="cls-2" d="M327.89,457.92a9.68,9.68,0,0,0,3.36,3.59,8.54,8.54,0,0,0,4.65,1.33,8.72,8.72,0,0,0,8.05-4.28c.15-.25.32-.31.51-.18l1.06.69q.28.18,0,.46-3.17,5.06-9.66,5.06a10.92,10.92,0,0,1-5.82-1.56,10.49,10.49,0,0,1-4-4.39,14.45,14.45,0,0,1-1.4-6.51,15.37,15.37,0,0,1,1.43-6.85,10.44,10.44,0,0,1,4-4.44,10.91,10.91,0,0,1,5.8-1.54,9.7,9.7,0,0,1,7.71,3.24q2.83,3.24,2.83,9v.23a1,1,0,0,1-.12.51.53.53,0,0,1-.48.18H326.92q-.28,0-.28.64A9.85,9.85,0,0,0,327.89,457.92Zm15.82-7.13a1,1,0,0,0,.62-.14.65.65,0,0,0,.16-.51,10.11,10.11,0,0,0-1.06-4.62,8,8,0,0,0-3-3.29,9.36,9.36,0,0,0-9.54.23,9.26,9.26,0,0,0-3.15,3.68,10.16,10.16,0,0,0-1,4.65Z"/><path class="cls-2" d="M372.56,430a25,25,0,0,1,10.23,1.86,11.64,11.64,0,0,1,5.75,5.47,21.28,21.28,0,0,1,1.82,9.45q0,9-4.51,13.13t-13.94,4.16h-4.69q-.41,0-.41-.46v-33.3q0-.37.41-.37Zm-3.54,2a1,1,0,0,0-.09.46v29.35q0,.41.51.41h2.3a25.28,25.28,0,0,0,9.59-1.5,9.78,9.78,0,0,0,5.2-4.83,20.55,20.55,0,0,0,1.63-8.95q0-5.84-1.66-9.08a9.31,9.31,0,0,0-5.11-4.58,28.13,28.13,0,0,0-9.25-1.47h-2.9Q369.11,431.89,369,432.07Z"/><path class="cls-2" d="M401.53,433.77a1.07,1.07,0,0,1-.11.55.48.48,0,0,1-.44.18h-1.24c-.34,0-.51-.21-.51-.64V430.6a.59.59,0,0,1,.16-.44.53.53,0,0,1,.39-.16H401a.53.53,0,0,1,.39.16.59.59,0,0,1,.16.44Zm-.23,29.81a.74.74,0,0,1-.09.44c-.06.08-.21.12-.46.12H400a.62.62,0,0,1-.41-.09.53.53,0,0,1-.09-.37V440.21a.53.53,0,0,1,.09-.37.45.45,0,0,1,.32-.09h1a.45.45,0,0,1,.32.09.54.54,0,0,1,.09.37Z"/><path class="cls-2" d="M411.06,463.72V440.17c0-.28.12-.41.37-.41h1a.33.33,0,0,1,.37.37v3.13c0,.15,0,.25.09.28s.15,0,.28-.14a16.63,16.63,0,0,1,3.75-3.15,7.17,7.17,0,0,1,3.56-.94q1.61,0,1.61.46v1.2a.2.2,0,0,1-.23.23l-.44,0q-.3,0-.94,0a7.26,7.26,0,0,0-3.27.92,9.91,9.91,0,0,0-3,2.37,4.49,4.49,0,0,0-1.24,2.92v16.38a.37.37,0,0,1-.41.41h-1A.37.37,0,0,1,411.06,463.72Z"/><path class="cls-2" d="M429.92,457.92a9.68,9.68,0,0,0,3.36,3.59,8.54,8.54,0,0,0,4.65,1.33,8.72,8.72,0,0,0,8.05-4.28c.15-.25.32-.31.51-.18l1.06.69q.28.18,0,.46-3.17,5.06-9.66,5.06A10.92,10.92,0,0,1,432.1,463a10.49,10.49,0,0,1-4-4.39,14.45,14.45,0,0,1-1.4-6.51,15.37,15.37,0,0,1,1.43-6.85,10.44,10.44,0,0,1,4-4.44,10.91,10.91,0,0,1,5.8-1.54,9.7,9.7,0,0,1,7.71,3.24q2.83,3.24,2.83,9v.23a1,1,0,0,1-.12.51.53.53,0,0,1-.48.18H429q-.28,0-.28.64A9.85,9.85,0,0,0,429.92,457.92Zm15.82-7.13a1,1,0,0,0,.62-.14.65.65,0,0,0,.16-.51,10.11,10.11,0,0,0-1.06-4.62,8,8,0,0,0-3-3.29,9.36,9.36,0,0,0-9.54.23,9.26,9.26,0,0,0-3.15,3.68,10.16,10.16,0,0,0-1,4.65Z"/><path class="cls-2" d="M470.86,440.56a12,12,0,0,1,3.87,3.66q.23.32,0,.46l-1.1.74a.19.19,0,0,1-.14,0,.62.62,0,0,1-.37-.23,14.31,14.31,0,0,0-3.54-3.22,7.09,7.09,0,0,0-3.63-1,8.62,8.62,0,0,0-8.19,5.2,14.71,14.71,0,0,0,0,11.41,8.62,8.62,0,0,0,8.14,5.2q4.65,0,7.64-4.6c.09-.15.17-.24.23-.25a.3.3,0,0,1,.23.07l1.06.69a.34.34,0,0,1,.09.46,11.33,11.33,0,0,1-4.07,4,11.35,11.35,0,0,1-11.13-.21,10.41,10.41,0,0,1-3.89-4.42,16.25,16.25,0,0,1,0-13.16,11,11,0,0,1,3.91-4.53,11,11,0,0,1,10.88-.37Z"/><path class="cls-2" d="M486.4,441.36a.28.28,0,0,0-.32.32v16.74a5.42,5.42,0,0,0,.69,3.24,2.62,2.62,0,0,0,2.16.85h3.63c.25,0,.37.11.37.32v.78q0,.23-.28.32a20.83,20.83,0,0,1-3.59.18q-2.72,0-3.77-1.24t-1.06-4.23v-17a.28.28,0,0,0-.32-.32h-4.28a.24.24,0,0,1-.28-.28V440a.24.24,0,0,1,.28-.28H484q.28,0,.28-.32l.41-7.5c0-.31.12-.46.37-.46h.64q.41,0,.41.51v7.45a.28.28,0,0,0,.32.32h6.39a.24.24,0,0,1,.28.28v1.06a.24.24,0,0,1-.28.28Z"/><path class="cls-2" d="M503.42,463a10.53,10.53,0,0,1-3.91-4.42,14.67,14.67,0,0,1-1.38-6.51,15,15,0,0,1,1.4-6.62,10.87,10.87,0,0,1,4-4.53,11.3,11.3,0,0,1,11.66,0,10.77,10.77,0,0,1,3.93,4.51,14.92,14.92,0,0,1,1.4,6.58,14.77,14.77,0,0,1-1.4,6.55,10.64,10.64,0,0,1-3.93,4.46,11.63,11.63,0,0,1-11.73,0Zm12.67-3.13a12,12,0,0,0,2.46-7.89,13.64,13.64,0,0,0-1.13-5.73,8.94,8.94,0,0,0-3.22-3.84,9.3,9.3,0,0,0-9.75,0,9,9,0,0,0-3.24,3.86,13.42,13.42,0,0,0-1.15,5.7,13.27,13.27,0,0,0,1.15,5.68,8.65,8.65,0,0,0,8.19,5.17A8.24,8.24,0,0,0,516.1,459.88Z"/><path class="cls-2" d="M528.63,463.72V440.17q0-.41.37-.41h1a.33.33,0,0,1,.37.37v3.13c0,.15,0,.25.09.28s.15,0,.28-.14a16.6,16.6,0,0,1,3.75-3.15,7.18,7.18,0,0,1,3.57-.94q1.61,0,1.61.46v1.2a.2.2,0,0,1-.23.23l-.44,0q-.3,0-.94,0a7.26,7.26,0,0,0-3.27.92,9.92,9.92,0,0,0-3,2.37,4.5,4.5,0,0,0-1.24,2.92v16.38a.37.37,0,0,1-.41.41h-1A.37.37,0,0,1,528.63,463.72Z"/><path class="cls-2" d="M557.82,442a9.71,9.71,0,0,0-4.35-.92,8.47,8.47,0,0,0-4.9,1.31,4,4,0,0,0-1.91,3.47,3.36,3.36,0,0,0,1,2.35,8.11,8.11,0,0,0,3.47,1.84l6.21,2a9.12,9.12,0,0,1,4,2.35,5,5,0,0,1,1.33,3.45,5.45,5.45,0,0,1-1.22,3.47,8.06,8.06,0,0,1-3.33,2.42,12.32,12.32,0,0,1-4.74.87,12.63,12.63,0,0,1-6-1.4,8.5,8.5,0,0,1-3.82-3.7.34.34,0,0,1,.09-.46l1-.64c.18-.12.32-.11.41,0a8.61,8.61,0,0,0,3.33,3.27,10.1,10.1,0,0,0,4.94,1.15,9.65,9.65,0,0,0,5.24-1.33,4,4,0,0,0,2.12-3.45,3.4,3.4,0,0,0-1.29-2.67,11.84,11.84,0,0,0-4.14-2l-4.74-1.47a9.91,9.91,0,0,1-4.53-2.42,4.82,4.82,0,0,1-1.31-3.33,6,6,0,0,1,2.48-5,10,10,0,0,1,6.3-1.91,11.76,11.76,0,0,1,5.15,1.1,8.83,8.83,0,0,1,3.63,3.13c.12.15.11.28,0,.37l-1.06.69c-.18.12-.32.11-.41,0A7.46,7.46,0,0,0,557.82,442Z"/><path class="cls-2" d="M600.74,430.8a12.88,12.88,0,0,1,4.32,3.33,8.36,8.36,0,0,1,2,4.42q0,.32-.23.32l-1.66.18h-.09c-.12,0-.2-.11-.23-.32a9.21,9.21,0,0,0-3.33-5.27,9.51,9.51,0,0,0-6-2,10,10,0,0,0-8.58,4q-3,4-3,11.71,0,7.5,3,11.48t8.9,4a9.75,9.75,0,0,0,5.93-1.73,11.47,11.47,0,0,0,3.73-5.36.23.23,0,0,1,.28-.09l1.56.46a.29.29,0,0,1,.09.32,11.38,11.38,0,0,1-4.39,6.07,12.49,12.49,0,0,1-7.38,2.25q-6.67,0-10.3-4.53t-3.63-12.86a25.26,25.26,0,0,1,1.61-9.5,13,13,0,0,1,4.69-6.07,12.79,12.79,0,0,1,7.36-2.09A12.12,12.12,0,0,1,600.74,430.8Z"/><path class="cls-2" d="M617.5,463.58a.73.73,0,0,1-.09.44c-.06.08-.21.12-.46.12h-.78a.62.62,0,0,1-.41-.09.53.53,0,0,1-.09-.37V430.46a.53.53,0,0,1,.09-.37.44.44,0,0,1,.32-.09h1a.45.45,0,0,1,.32.09.53.53,0,0,1,.09.37Z"/><path class="cls-2" d="M638.78,461.63a22.05,22.05,0,0,0,4.53-3.61V440.17a.37.37,0,0,1,.41-.41h1a.37.37,0,0,1,.41.41v23.55q0,.41-.37.41h-1a.32.32,0,0,1-.37-.37v-2.94c0-.15,0-.25-.09-.28s-.15,0-.28.14a22,22,0,0,1-4.74,3.06,9.86,9.86,0,0,1-3.91.85,7.87,7.87,0,0,1-5.41-1.89,6.2,6.2,0,0,1-2.14-4.88V440.21q0-.46.41-.46h1a.37.37,0,0,1,.41.41v16.65a6.21,6.21,0,0,0,1.52,4.37,5.34,5.34,0,0,0,4.14,1.66A8.77,8.77,0,0,0,638.78,461.63Z"/><path class="cls-2" d="M655.4,464.13A.48.48,0,0,1,655,464a.72.72,0,0,1-.12-.46V430.46c0-.31.14-.46.41-.46h1.06q.37,0,.37.51v11.64c0,.31.06.46.18.46a.64.64,0,0,0,.41-.23,16.64,16.64,0,0,1,3-2.09,10.14,10.14,0,0,1,4.88-1q5,0,7.5,3.52a15.32,15.32,0,0,1,2.48,9q0,5.93-2.78,9.34a9.4,9.4,0,0,1-7.71,3.4,8.95,8.95,0,0,1-7.59-3.54c-.09-.15-.18-.23-.28-.23s-.18.12-.18.37l-.09,2.35a.62.62,0,0,1-.14.48.92.92,0,0,1-.55.12Zm1.33-8.14a5.73,5.73,0,0,0,1.13,3.38,8.13,8.13,0,0,0,2.94,2.53,8,8,0,0,0,3.75.94,7.91,7.91,0,0,0,6.26-2.81q2.44-2.81,2.44-8.19a13,13,0,0,0-2.16-7.91,7.23,7.23,0,0,0-6.16-2.9,9.85,9.85,0,0,0-4.58,1.1,11.33,11.33,0,0,0-3.61,2.9Z"/></svg>