<svg id="Layer_1" data-name="Layer 1" xmlns="http://www.w3.org/2000/svg" viewBox="0 0 201 96"><defs><style>.cls-1{fill:#b336ae;}</style></defs><title>wms-logo</title><path class="cls-1" d="M75.68,25.72l4.41,10.42q.72,1.74,1.05,1.74t.72-1q.13-.33.55-1.21,2.89-6.41,5.38-12.94T90.27,15q0-1-1.87-1.43-1-.24-1-.71t.64-.45l.4,0q.92.07,2.64.07a27.29,27.29,0,0,0,3-.12,9.36,9.36,0,0,1,1-.1.42.42,0,0,1,.48.47q0,.39-.64.65a2.41,2.41,0,0,0-1.34,1.32l-1.21,2.62q-.75,1.63-2.33,5.32-1.63,3.89-2.48,5.83l-2.64,6L83.17,38.6,82.12,41l-.48,1.12-.33.66Q80.74,44,80.18,44t-.94-1.05L73.78,30.2l-5.5,13.1q-.39.94-.8.92-.57,0-1.26-1.71L57.14,20.79l-.57-1.45a19,19,0,0,0-2.08-4.16,3.83,3.83,0,0,0-2.25-1.47l-.9-.2a.52.52,0,0,1-.46-.54q0-.52.66-.52a4.92,4.92,0,0,1,.55,0,17.74,17.74,0,0,0,2.2.11l2.71,0,1.85,0c.75-.06,1.2-.09,1.37-.09q.59,0,.59.54t-.48.56q-1.38.4-1.38,1.28a16.82,16.82,0,0,0,1.6,4.75q.74,1.67,2.36,5.7t2.23,5.42l2.15,4.75q.35.79.48,1.06L68,37q.24.48.37.49c.1,0,.26-.24.46-.7l.11-.26,3.77-8.84-.55-1.32-2-4.58-1.82-4.27a14.38,14.38,0,0,0-1.58-3,2.64,2.64,0,0,0-1.74-.79q-1.8-.24-1.76-.8t.92-.43l.86,0,4.27.13a21.22,21.22,0,0,0,2.18-.13c.48,0,.8-.07.95-.07q.77,0,.77.52,0,.34-.73.63A1.48,1.48,0,0,0,71.51,15a8.19,8.19,0,0,0,.79,2.71l2.32,5.51q.29-.68.44-1,2.53-5.64,2.53-7.34,0-1-1.45-1.28-1.05-.19-1.05-.71t.77-.43l.85,0q1,.05,2.26.05a20,20,0,0,0,2.15-.09c.42,0,.72-.07.9-.07q.66,0,.66.52,0,.37-.77.58a2.3,2.3,0,0,0-1.22.79,20,20,0,0,0-1.4,2.9Z"/><path class="cls-1" d="M102.64,27.16a7.34,7.34,0,0,1,5.8-3,6,6,0,0,1,3.16.75,7.23,7.23,0,0,1,2.31,2.55,7.41,7.41,0,0,1,6-3.3,5.85,5.85,0,0,1,4.64,1.9,7.79,7.79,0,0,1,1.66,5.31v7.08a3.93,3.93,0,0,0,.66,2.5,3.06,3.06,0,0,0,2.18,1q.53,0,.53.47t-.53.38a4.77,4.77,0,0,1-.68-.07,15.65,15.65,0,0,0-2.19-.11q-2.91,0-3.64.1a5.25,5.25,0,0,1-.66.08c-.38,0-.58-.14-.59-.43s.11-.3.37-.41a3.27,3.27,0,0,0,1.26-.73,1.77,1.77,0,0,0,.3-1.14l0-.75V32.17A7.45,7.45,0,0,0,122,27.55a4.18,4.18,0,0,0-3.52-1.65,5,5,0,0,0-2.85.93,2.51,2.51,0,0,0-1.36,2,2.89,2.89,0,0,0,.07.55,9.21,9.21,0,0,1,.13,1.52V38.8a3.67,3.67,0,0,0,.56,2.33,3.06,3.06,0,0,0,2.12.79q.73.07.73.48t-.64.4l-.7,0a19.58,19.58,0,0,0-2.07-.13q-3,0-3.81.11a4.45,4.45,0,0,1-.68.07q-.53,0-.53-.38t.4-.38a2.63,2.63,0,0,0,1.38-.82,6,6,0,0,0,.22-2.14V30.93a5.23,5.23,0,0,0-1.19-3.63A4.21,4.21,0,0,0,107,26a4.72,4.72,0,0,0-3.12,1,3.23,3.23,0,0,0-1.19,2.61V39a2.94,2.94,0,0,0,.63,2.08,3.42,3.42,0,0,0,2.12.83q.68.07.68.5t-.53.38l-1.06-.11a15.73,15.73,0,0,0-1.83-.07h-1.48l-1.5,0a7.43,7.43,0,0,0-.77,0l-.81.1q-.55,0-.55-.38t.48-.5a2.19,2.19,0,0,0,1.3-.79,4.16,4.16,0,0,0,.29-1.89V29.42a4.8,4.8,0,0,0-.34-2.17A1.33,1.33,0,0,0,98,26.65H97a.61.61,0,0,1-.37-.11.24.24,0,0,1-.13-.23c0-.2.18-.35.53-.45a17.43,17.43,0,0,0,4.21-1.69,3.84,3.84,0,0,1,1-.48q.33,0,.33.81Z"/><path class="cls-1" d="M138.06,24.19a8.78,8.78,0,0,1,3,.46l1,.33q.59.22.59.67V26a4.35,4.35,0,0,0,0,.62l.09.86a6,6,0,0,1,.07.83q0,.86-.49.88-.27,0-.49-.57a4.51,4.51,0,0,0-4.53-3.34,3.14,3.14,0,0,0-2.16.75,2.56,2.56,0,0,0,.07,3.86,15.22,15.22,0,0,0,3.68,1.83A10.08,10.08,0,0,1,142.69,34a4.65,4.65,0,0,1,1.07,3.21,5.68,5.68,0,0,1-1.83,4.24,6.1,6.1,0,0,1-4.38,1.77,9.15,9.15,0,0,1-4-1,2.25,2.25,0,0,0-.64-.24l-.57-.07a.54.54,0,0,1-.55-.55l0-.94-.07-2.8,0-.66q.09-.59.49-.61t.54.66a7.2,7.2,0,0,0,1.79,3.78,4.31,4.31,0,0,0,3.2,1.36,3.71,3.71,0,0,0,2.63-.95,3.16,3.16,0,0,0,1-2.42A3.57,3.57,0,0,0,139,35.38L137,34.52a10.91,10.91,0,0,1-3.74-2.36,4.27,4.27,0,0,1-1.1-3,4.5,4.5,0,0,1,1.69-3.55A6.2,6.2,0,0,1,138.06,24.19Z"/><path class="cls-1" d="M67.66,78.88q6.55,5.49,9.51,5.49a2.53,2.53,0,0,0,.83-.15,3.89,3.89,0,0,1,.77-.2q.37,0,.37.33,0,.54-1.44,1.06a8.61,8.61,0,0,1-3,.52,9.4,9.4,0,0,1-4-.83,31.67,31.67,0,0,1-5.23-3.47q-4.86,4.31-10.22,4.31a13.27,13.27,0,0,1-9.06-3.14,10.09,10.09,0,0,1-3.59-7.93,9.08,9.08,0,0,1,2.77-6.7A8.68,8.68,0,0,1,49.69,66a8.15,8.15,0,0,1-2-5,5.18,5.18,0,0,1,2-4.22,7.93,7.93,0,0,1,5.17-1.6,9.54,9.54,0,0,1,3.41.68l1,.4.22,0A1.07,1.07,0,0,0,60,56a.65.65,0,0,1,.37-.17q.59,0,.59,1.58l.07,1.2.11,1.73c0,.37,0,.59,0,.68a.43.43,0,0,1-.48.48q-.29,0-.46-.52a6.76,6.76,0,0,0-2.51-3.19A6.26,6.26,0,0,0,54,56.42a3.9,3.9,0,0,0-2.63.94,2.91,2.91,0,0,0-1.1,2.28,5.45,5.45,0,0,0,1,2.85,29.71,29.71,0,0,0,3.49,4.15l5.53,5.71q2.15,2.22,6.1,5.6a8.31,8.31,0,0,0,1.12-4.27,5.69,5.69,0,0,0-.68-2.91A2.67,2.67,0,0,0,65,69.39l-1-.2q-.66-.13-.64-.58c0-.2.18-.3.48-.3a4.29,4.29,0,0,1,.59.07q.66.09,3.81.09a17.19,17.19,0,0,0,1.83-.09c.51,0,.88-.07,1.1-.07s.4.11.42.34-.18.41-.59.56a1.65,1.65,0,0,0-1,.88,7.78,7.78,0,0,0-.41,2.25A15.89,15.89,0,0,1,67.66,78.88Zm-3.49,1.69q-.7-.62-.9-.81L61.16,78q-1.78-1.54-4.69-4.52t-4.58-5q-1.36-1.63-2.3-1.63a3.93,3.93,0,0,0-2.91,1.78A6.72,6.72,0,0,0,45.18,73a9.32,9.32,0,0,0,2.55,6.17,11.28,11.28,0,0,0,8.91,4A11,11,0,0,0,64.17,80.57Z"/><path class="cls-1" d="M119.56,58.18l.7,5.27.07.55-.07.22a.4.4,0,0,1-.33.22q-.26,0-.79-.92Q115,56.34,108,56.34a11.54,11.54,0,0,0-8.84,3.44q-3.23,3.44-3.23,9.41,0,6.87,3.6,11.22a11.45,11.45,0,0,0,9.25,4.35A13.26,13.26,0,0,0,115.25,83a10.15,10.15,0,0,0,4.42-4.28q.57-1.17.88-1.19t.35.42l0,.24-.09.49-.51,2.69-.09.4q-.09.57-1,1.19A20.42,20.42,0,0,1,108,86.2q-7.08,0-11.4-4.19a14.68,14.68,0,0,1-4.33-11,15.53,15.53,0,0,1,4.48-11.38A15.17,15.17,0,0,1,108,55a17.74,17.74,0,0,1,8.52,2.09l.88.46.35.15.37.13a.64.64,0,0,0,.33-.18,1.58,1.58,0,0,1,.66-.35Q119.45,57.35,119.56,58.18Z"/><path class="cls-1" d="M133.8,67.19A9.36,9.36,0,0,1,140.59,70a8.94,8.94,0,0,1,2.83,6.62,9.22,9.22,0,0,1-2.79,6.89,9.69,9.69,0,0,1-7.05,2.72,9.38,9.38,0,0,1-6.87-2.64A9.68,9.68,0,0,1,126.88,70,9.53,9.53,0,0,1,133.8,67.19Zm-.56.88a5.45,5.45,0,0,0-4.42,2,8.09,8.09,0,0,0-1.68,5.33,11.46,11.46,0,0,0,2.09,7,6.28,6.28,0,0,0,5.21,2.82,5.15,5.15,0,0,0,4.29-2,8.56,8.56,0,0,0,1.57-5.43,11.74,11.74,0,0,0-2-7.05A6,6,0,0,0,133.24,68.07Z"/><path class="cls-1" d="M150.66,80.48q.35,0,.81.81a3.93,3.93,0,0,0,1.14,1.12q.85.61.85,1t-.81.85a3.29,3.29,0,0,0-1.16,1.12l-.31.48a.7.7,0,0,1-.63.37q-.35,0-.92-.81a3.67,3.67,0,0,0-1.16-1.16q-.77-.48-.77-.9t.72-.79a4,4,0,0,0,1.31-1.31Q150.25,80.48,150.66,80.48Z"/></svg>