<svg id="Calque_1" data-name="Calque 1" xmlns="http://www.w3.org/2000/svg" viewBox="0 0 958 138"><defs><style>.cls-1{fill:#c4c4c4;stroke:#a1d324;stroke-miterlimit:10;stroke-width:2px;}</style></defs><title>a2a</title><path class="cls-1" d="M812.7,68.6c-5.9,0-10,4.6-10,11.2s4.1,11.2,10,11.2,10-4.6,10-11.2S818.6,68.6,812.7,68.6Z"/><polygon class="cls-1" points="232.7 73 247.9 73 240.3 51.6 232.7 73"/><path class="cls-1" d="M518.5,68.6c-5.9,0-10,4.6-10,11.2s4.1,11.2,10,11.2,10-4.6,10-11.2S524.4,68.6,518.5,68.6Z"/><path class="cls-1" d="M167.4,68.6c-5.9,0-10,4.6-10,11.2s4.1,11.2,10,11.2,10-4.6,10-11.2S173.3,68.6,167.4,68.6Z"/><path class="cls-1" d="M9,11.2V128.8H949V11.2ZM775.3,44.4a5.91,5.91,0,0,1,5.9,5.9,6.08,6.08,0,0,1-6.1,5.9,5.91,5.91,0,0,1-5.9-5.9A6.08,6.08,0,0,1,775.3,44.4Zm-294.2,0a5.91,5.91,0,0,1,5.9,5.9,6.08,6.08,0,0,1-6.1,5.9,5.91,5.91,0,0,1-5.9-5.9A6.08,6.08,0,0,1,481.1,44.4ZM90.2,98H69.4V89.7h6.3l-3.1-8.9H52.2l-3.1,8.9h6.6V98H34.9V89.7h4.7L53.1,51.9H47.2V43.7H77.9v8.2H72L85.5,89.7h4.7ZM141,96.5a19.94,19.94,0,0,1-8.7,2.1c-4.4,0-7.9-1.5-9.7-4.9a12,12,0,0,1-1.2-5.7V69.4h-7V61.8h7V54.2l8.9-3.9V61.8h11v7.6h-11V86.3a4.76,4.76,0,0,0,.6,2.6c.7,1.2,2,1.7,3.8,1.7a17.88,17.88,0,0,0,7.1-1.9Zm26.4,2.1c-12,0-19.2-8.7-19.2-18.7s7.4-18.7,19.2-18.7c12,0,19.2,8.7,19.2,18.7S179.2,98.6,167.4,98.6ZM268.1,98H247.2V89.7h6.3l-3.1-8.9H230.1L227,89.7h6.6V98H212.7V89.7h4.7l13.5-37.8H225V43.7h30.7v8.2h-5.9l13.5,37.8H268l.1,8.3Zm46.1,1c-10.7,0-19.4-6-19.4-12.6,0-3.9,2.3-6.4,5.7-6.4a5.63,5.63,0,0,1,5.9,5.4,7,7,0,0,1-.7,3.3,15.15,15.15,0,0,0,8.6,2.3c6,0,9.8-2.6,9.8-7.4,0-4.5-4.5-6.6-10-8.5-10.1-3.6-17.2-6.9-17.2-16.9,0-8.7,7-15.4,18-15.4,10.2,0,18,5.2,18,11.7,0,3.9-2.4,6.1-5.5,6.1a5.58,5.58,0,0,1-5.9-5.5,4.54,4.54,0,0,1,.6-2.6,13.77,13.77,0,0,0-7.2-1.7c-5.4,0-8.5,2.7-8.5,6.7,0,4.5,4.5,6.4,10,8.4,9.8,3.5,17.1,6.9,17.1,16.9C333.4,93.1,325.4,99,314.2,99Zm52.6-2.5a19.94,19.94,0,0,1-8.7,2.1c-4.4,0-7.9-1.5-9.7-4.9a12,12,0,0,1-1.2-5.7V69.4h-7V61.8h7V54.2l8.9-3.9V61.8h11v7.6h-11V86.3a4.76,4.76,0,0,0,.6,2.6c.7,1.2,2,1.7,3.8,1.7a17.88,17.88,0,0,0,7.1-1.9ZM416.6,98h-14V92.2c-3.5,3.4-7.4,6.4-12.6,6.4-4.4,0-7.6-1.8-9.4-4.8a13.62,13.62,0,0,1-1.8-7.3V69.3h-5.4V61.7h14.4V84.2a9.37,9.37,0,0,0,.7,3.7q1.2,2.4,4.5,2.4c3.1,0,6.4-1.8,9.3-4.2V69.2h-5.6V61.6h14.6V90.3h5.4l-.1,7.7Zm48.8,0H451V94a14.61,14.61,0,0,1-10.7,4.6c-9.6,0-16.8-7.7-16.8-18.6,0-10.5,7.6-18.9,17.3-18.9a15.37,15.37,0,0,1,10.1,3.5V45.1h-5.5V37.5H460v53h5.4V98Zm26.3,0H471.8V90.6h5.5V69.4h-5.5V61.8h14.5V90.5h5.4Zm26.8.6c-12,0-19.2-8.7-19.2-18.7s7.4-18.7,19.2-18.7c12,0,19.2,8.7,19.2,18.7S530.3,98.6,518.5,98.6Zm67.1.4c-10.7,0-19.4-6-19.4-12.6,0-3.9,2.3-6.4,5.7-6.4a5.63,5.63,0,0,1,5.9,5.4,8.43,8.43,0,0,1-.7,3.3,15.15,15.15,0,0,0,8.6,2.3c5.9,0,9.7-2.6,9.7-7.4,0-4.5-4.5-6.6-10-8.5-10.1-3.6-17.2-6.9-17.2-16.9,0-8.7,7-15.4,18-15.4,10.2,0,18,5.2,18,11.7,0,3.9-2.4,6.1-5.5,6.1a5.58,5.58,0,0,1-5.9-5.5,4.54,4.54,0,0,1,.6-2.6,13.77,13.77,0,0,0-7.2-1.7c-5.4,0-8.5,2.7-8.5,6.7,0,4.5,4.5,6.4,10,8.4,9.8,3.5,17.1,6.9,17.1,16.9C604.7,93.1,596.7,99,585.6,99Zm46.7-.4c-12,0-19.2-8.7-19.2-18.7s7.4-18.7,19.2-18.7c12,0,19.2,8.7,19.2,18.7S644.1,98.6,632.3,98.6Zm46.3-.6h-20V90.6h5.6V45.2h-5.6V37.6h14.6v53h5.4V98Zm48,0h-14V92.2c-3.5,3.4-7.4,6.4-12.6,6.4-4.4,0-7.6-1.8-9.4-4.8a13.62,13.62,0,0,1-1.8-7.3V69.3h-5.4V61.7h14.4V84.2a7.88,7.88,0,0,0,.7,3.7q1.2,2.4,4.5,2.4c3.1,0,6.4-1.8,9.3-4.2V69.2h-5.6V61.6h14.6V90.3h5.4l-.1,7.7Zm31.7-1.5a19.94,19.94,0,0,1-8.7,2.1c-4.4,0-7.9-1.5-9.7-4.9a12,12,0,0,1-1.2-5.7V69.4h-7V61.8h7V54.2l8.9-3.9V61.8h11v7.6h-11V86.3a4.76,4.76,0,0,0,.6,2.6c.7,1.2,2,1.7,3.8,1.7a18.34,18.34,0,0,0,7.1-1.9ZM785.9,98H766V90.6h5.5V69.4H766V61.8h14.5V90.5h5.4V98Zm26.8.6c-12,0-19.2-8.7-19.2-18.7s7.4-18.7,19.2-18.7c12,0,19.2,8.7,19.2,18.7S824.5,98.6,812.7,98.6Zm69.9-.6H863.3V90.6h5V75.5a7.88,7.88,0,0,0-.7-3.7q-1.2-2.4-4.5-2.4c-3.1,0-6.4,1.8-9.3,4.2v17h5V98H839.5V90.6h5.4V69.4h-5.4V61.8h14v5.8c3.5-3.4,7.4-6.4,12.6-6.4,4.3,0,7.4,1.7,9.3,4.6a14.25,14.25,0,0,1,1.9,7.4V90.6h5.4l-.1,7.4Zm22.1.7c-5.5,0-11.5-2-13.9-4.4a6.45,6.45,0,0,1-2.1-4.9,4.82,4.82,0,0,1,4.8-4.9,4.69,4.69,0,0,1,4.9,4.8,7.72,7.72,0,0,1-.2,1.5,17.13,17.13,0,0,0,6.5,1.2c3.6,0,6.6-1.2,6.6-3.9,0-1.8-1.6-2.9-7.1-4.4-10-2.6-14.2-5-14.2-11.2,0-5.6,4.6-11.5,14.8-11.5,4.4,0,9.7,1.6,12.1,4.1a6.46,6.46,0,0,1,2,4.6c0,2.9-1.8,4.9-4.5,4.9-2.9,0-4.9-1.7-4.9-4.5a4.14,4.14,0,0,1,.2-1.6,14,14,0,0,0-5.1-.9c-4,0-6,1.8-6,3.7,0,2.1,2.1,3.1,7.6,4.6,8.7,2.3,13.7,4.5,13.7,11C920,94.7,912.9,98.7,904.7,98.7Z"/><path class="cls-1" d="M432.8,80c0,6.9,4.3,10.9,9.6,10.9,3.4,0,6.1-1.5,8.6-3.6V71.8a15.21,15.21,0,0,0-8.6-2.8C437.4,68.9,432.8,72.8,432.8,80Z"/><path class="cls-1" d="M632.3,68.6c-5.9,0-10,4.6-10,11.2s4.1,11.2,10,11.2,10-4.6,10-11.2S638.2,68.6,632.3,68.6Z"/><polygon class="cls-1" points="54.8 73 70 73 62.4 51.6 54.8 73"/></svg>