<svg id="Layer_1" data-name="Layer 1" xmlns="http://www.w3.org/2000/svg" viewBox="0 0 824.96 509.97"><defs><style>.cls-1{fill:#c4c4c4;stroke:#a1d324;stroke-miterlimit:10;stroke-width:2px;}</style></defs><title>adobe-typekit</title><path class="cls-1" d="M29.19,429l-12.7,34.8c0,.7-.3.7-1,.7H10c-.7,0-.7-.3-.7-1l33.5-91.7a10.73,10.73,0,0,0,.6-4.2.75.75,0,0,1,.7-.7h8.5c.6,0,.6,0,1,.7l35.1,95.9c0,.7,0,1-.7,1h-5.9c-.3,0-.6,0-1-.7L68.39,429Zm37.4-6.5c-3.3-9.4-14.6-40.3-17.6-49.8-2.6,9.1-10.7,30.9-17.6,49.8Zm29,7.4c0-21.8,16.3-36.7,38.4-36.7,5.9,0,8.8.3,12,1.3V359.7c0-.7,0-.7.6-.7h5.5c.6,0,.6,0,.6.7V460.2a1,1,0,0,1-.6,1,47.53,47.53,0,0,1-21.8,5.2C111.19,465.7,95.59,453.7,95.59,429.9ZM146,401.3c-2.9-1.3-7.2-2-12.4-2-20.2,0-30.9,14-30.9,30.2,0,22.1,14.3,29.9,28.3,29.9,4.6,0,10.7-.7,14.6-2.6V401.2l.4.1Zm86.2,28c0,21.8-13,36.4-31.5,36.4-22.4,0-32.2-19.2-32.2-36.4,0-20.8,13-36.4,32.2-36.4C219.19,392.9,232.19,407.5,232.19,429.3Zm-56.9-.3c0,16.3,9.1,30.2,25.7,30.2,11.4,0,24.1-8.8,24.1-29.9,0-15-7.2-30.2-25-30.2C185.29,399.4,175.29,411.4,175.29,429Zm78.3-70.3c.3,0,.6,0,.6.7v37.4a43.63,43.63,0,0,1,17.9-3.6c19.5,0,32.2,14,32.2,33.8,0,25.7-18.9,39-38.4,39a54.29,54.29,0,0,1-18.2-2.9c-.3,0-.6-.7-.6-1.3V359.4c0-.3.3-.7,1-.7Zm18.2,40.7c-7.5,0-12.7,1.3-17.2,3.6v55.3a43.44,43.44,0,0,0,12.4,1.6c16.3,0,30.9-11.1,30.9-32.2,0-16.6-9.8-28.3-26.1-28.3Zm51.1,28.9c-.6,17.6,8.8,30.9,26.7,30.9,6.2,0,12.7-1,18.2-4.2.3-.3.6,0,.6.3v4.9c0,.7,0,1-.6,1-4.6,2.6-10.7,4.6-19.5,4.6-23.7,0-32.8-18.2-32.8-36.1,0-20.5,11.7-36.7,30.6-36.7,20.2,0,27,16.6,27,27.6a30.63,30.63,0,0,1-.3,6.2,1.06,1.06,0,0,1-1,1c-2.3.3-9.4.3-15,.3H323v.2h-.1Zm32.5-5.8c8.8,0,10.4,0,10.7-.3v-2c0-6.5-3.9-21.1-20.5-21.1-14,0-21.5,11.4-23.1,23.4Zm86.8-48.8H409c-.3,0-.6,0-.6-1l1.3-4.9c0-.3.3-.7,1-.7h70.6c.7,0,.7,0,1,.7l.7,4.9c0,.7,0,1-.7,1h-32.9v89.8c0,.7-.3,1-1,1h-5.2c-.7,0-1,0-1-1V373.7Zm39.7,20.5c.3,0,.3,0,.7.7,14.6,36.7,21.5,54.3,23.4,60.2,4.6-12,11.7-30.6,23.1-60.2,0-.3.3-.7,1-.7h5.5c.7,0,.7.3.7,1-11.1,31.2-25.4,66.7-41.3,102.1,0,.3-.7.7-1.3.7l-5.9.7c-.7,0-.7-.3-.3-1,4.6-9.1,10.4-22.4,15.3-34.1V462c-3.3-7.8-18.2-44.2-27.3-67,0-.3,0-.7.3-.7l6.1-.1Zm123.6,32.5c0,26.3-20.5,39.3-40.3,39.3a36.37,36.37,0,0,1-10.1-1v32.2a.93.93,0,0,1-.7,1c-1.3,0-5.5.7-5.9.7s-.7,0-.7-.7V403.6a22.81,22.81,0,0,0-.3-4.2,1.3,1.3,0,0,1,.3-.7,58.94,58.94,0,0,1,24.7-5.5c19.7-.3,33,13,33,33.5Zm-50.4-24.4v55.9c3.3,1,6.8,1,10.7,1,16.6,0,32.5-10.7,32.5-32.2,0-16.6-9.8-28-26.7-28C565.49,399.4,559.59,400.3,555.09,402.3Zm68.3,26c-.7,17.6,8.8,30.9,26.7,30.9,6.2,0,12.7-1,18.2-4.2a.41.41,0,0,1,.7.3v4.9c0,.7,0,1-.7,1-4.6,2.6-10.7,4.6-19.5,4.6-23.7,0-32.8-18.2-32.8-36.1,0-20.5,11.7-36.7,30.6-36.7,20.2,0,27,16.6,27,27.6a30.63,30.63,0,0,1-.3,6.2,1.06,1.06,0,0,1-1,1c-2.3.3-9.4.3-15,.3h-33.9Zm32.5-5.8c8.8,0,10.4,0,10.7-.3v-2c0-6.5-3.9-21.1-20.5-21.1-14,0-21.5,11.4-23.1,23.4Zm39.4,41.3c0,.7,0,.7-.7.7h-5.9c-.3,0-.7,0-.7-.7V359.4a.75.75,0,0,1,.7-.7h5.9c.3,0,.7,0,.7.7Zm1.3-36.8c6.2-5.9,29.6-28,33.8-32.2a1.86,1.86,0,0,1,1.3-.7h6.8c.7,0,.7.7.3,1-3.9,4.2-28.9,26.7-34.1,31.5v.3c10.1,9.8,27.3,25.7,39,36.4.3.3,0,1-.3,1h-7.8c-.7,0-1,0-1.3-.7-9.4-8.8-29.9-27.6-37.7-35.1-.7-.5-.7-.8,0-1.5Zm54.6-55.6c0-2.9,2-5.2,4.6-5.2a4.92,4.92,0,0,1,4.9,5.2,4.84,4.84,0,0,1-4.9,4.9C752.79,375.9,751.19,374,751.19,371.4Zm1.3,23.7c0-.7.3-1,.7-1h5.5c.3,0,.7,0,.7.7v68.6c0,.7,0,.7-.7.7h-5.2c-.7,0-1,0-1-1v-68Zm56.2,67.4a.93.93,0,0,1-.7,1,21.66,21.66,0,0,1-9.8,2.3c-9.4,0-15-4.6-15-17.9V400.7h-10.7c-.7,0-1-.3-1-1v-4.6c0-.7,0-1,1-1h10.9c0-5.9.7-16.6,1.3-19.5a1.55,1.55,0,0,1,.7-1l5.5-1c.3,0,1,0,1,.3a191.48,191.48,0,0,0-1,21.1h16.5c.7,0,1,.3,1,1v4.6c0,.7-.3.7-1,1h-16.6v47.5c0,6.8,2.9,11.4,9.8,11.4a20.63,20.63,0,0,0,8.1-1.6c.3,0,.7,0,.7.3v4.2Z"/><path class="cls-1" d="M276.39,16.9V276.1h265.7V16.9Zm11,11.1h243.3V265.1H287.39Z"/><path class="cls-1" d="M356.39,103.4h-30.6c-1,0-1.3-.3-1-1.3l2.3-15.3c.3-1,.6-1.3,1.3-1.3h76.4c1,0,1.3.3,1.6,1.3l1.3,15.3c.3,1-.3,1.3-1.3,1.3h-30.6V205.5c0,1-.3,1.3-1.3,1.3h-16.9c-1,0-1.3-.3-1.3-1.3C356.39,205.5,356.39,103.4,356.39,103.4Zm83.2,52.7,28-37.7c.7-1,1-1.3,2-1.3h18.5c1,0,1.3.7.7,1.6-4.2,5.5-24.4,30.6-30.9,38.4-.3.3-.3.6,0,1l35.4,47.2c.3.6.3,1.3-1,1.3h-21.5a2.33,2.33,0,0,1-2-1c-5.9-8.1-21.5-29.6-29.3-40.6v40.3c0,1-.3,1.3-1.3,1.3H421c-1.3,0-1.3-.3-1.3-1.3V86.5c0-.6.3-1,1.3-1h17.2a1.16,1.16,0,0,1,1.3,1.3l.1,69.3Z"/></svg>