<svg id="Layer_1" data-name="Layer 1" xmlns="http://www.w3.org/2000/svg" viewBox="0 0 512.97 542.97"><defs><style>.cls-1{fill:#c4c4c4;stroke:#a1d324;stroke-miterlimit:10;stroke-width:2px;}</style></defs><title>commercial-type</title><path class="cls-1" d="M203.5,268.4c0,183,49.7,238.8,104.9,245.7v17.6c-160,0-295.5-89.6-295.5-263.3C12.9,84,179.1,8.1,308.4,8.1V26.4C250.9,39.5,203.5,85.5,203.5,268.4Zm289.3-64.3H473.7c-23-66.6-60.5-147.7-128.5-177.6V8.1c46.7,0,118.6,19.1,147.7,29.8l-.1,166.2Zm0,114.8H473.7c-26.1,73.5-57.4,162.3-128.5,195.2v17.6c46.7,0,112.5-16.1,147.7-32.9l-.1-179.9Z"/></svg>