<svg id="Layer_1" data-name="Layer 1" xmlns="http://www.w3.org/2000/svg" viewBox="0 0 950 506"><defs><style>.cls-1{fill:#c4c4c4;stroke:#a1d324;stroke-miterlimit:10;stroke-width:2px;}</style></defs><title>cooper-hewitt</title><path class="cls-1" d="M576.9,19.1H513.7V245h51.8V166.2h11.4c35.2,0,66.3-11.4,66.3-73.6S612.1,19.1,576.9,19.1Zm-5.2,99.5h-7.3V64.7h7.3c11.4,0,20.7,5.2,20.7,26.9S583.1,118.6,571.7,118.6Z"/><polygon class="cls-1" points="111.7 350.6 70.3 350.6 70.3 263.6 18.5 263.6 18.5 489.5 70.3 489.5 70.3 397.2 111.7 397.2 111.7 489.5 163.5 489.5 163.5 263.6 111.7 263.6 111.7 350.6"/><polygon class="cls-1" points="182.1 489.5 311.7 489.5 311.7 442.8 233.9 442.8 233.9 397.2 296.1 397.2 296.1 350.6 233.9 350.6 233.9 309.2 311.7 309.2 311.7 263.6 182.1 263.6 182.1 489.5"/><rect class="cls-1" x="583.1" y="263.6" width="51.8" height="225.9"/><polygon class="cls-1" points="653.5 309.2 692.9 309.2 692.9 489.5 743.7 489.5 743.7 309.2 783 309.2 783 263.6 653.5 263.6 653.5 309.2"/><polygon class="cls-1" points="801.7 309.2 840 309.2 840 489.5 891.8 489.5 891.8 309.2 931.2 309.2 931.2 263.6 801.7 263.6 801.7 309.2"/><polygon class="cls-1" points="653.5 244.9 783 244.9 783 198.3 705.3 198.3 705.3 152.7 767.5 152.7 767.5 106.1 705.3 106.1 705.3 64.7 783 64.7 783 18.1 653.5 18.1 653.5 244.9"/><path class="cls-1" d="M252.6,247c57,0,75.6-28,75.6-111.9v-8.3c0-83.9-18.6-111.9-75.6-111.9S177,42.9,177,126.8v8.3C177,219,195.6,247,252.6,247ZM228.8,123.7c0-51.8,5.2-63.2,22.8-63.2h2.1c17.6,0,22.8,11.4,22.8,63.2v15.5c0,51.8-5.2,63.2-22.8,63.2h-2.1c-17.6,0-22.8-11.4-22.8-63.2Z"/><path class="cls-1" d="M93,202.5H88.9c-13.5,0-24.9-11.4-24.9-63.2V123.8C64,72,75.4,60.6,88.9,60.6H91c13.5,0,20.7,8.3,20.7,45.6h50.8V91.7c0-58-22.8-75.6-72.5-75.6-53.9,0-78.7,28-78.7,111.9v7.3h2.1c0,83.9,24.9,111.9,78.7,111.9,49.7,0,72.5-18.6,72.5-75.6v-6.4H113.8C112.7,193.1,105.5,202.5,93,202.5Z"/><path class="cls-1" d="M415.3,247c57,0,75.6-28,75.6-111.9v-8.3c0-83.9-18.6-111.9-75.6-111.9s-75.6,28-75.6,111.9v8.3C339.6,219,358.3,247,415.3,247ZM391.4,123.7c0-51.8,5.2-63.2,22.8-63.2h2.1c17.6,0,22.8,11.4,22.8,63.2v15.5c0,51.8-5.2,63.2-22.8,63.2h-2.1c-17.6,0-22.8-11.4-22.8-63.2Z"/><path class="cls-1" d="M931.2,91.6c0-61.1-31.1-73.6-66.3-73.6H801.7V244.9h51.8V166.2h9.3l13.5,78.7h54.9l-23.8-91.2C918.8,145.5,931.2,128.9,931.2,91.6Zm-70.5,27h-7.3V64.7h7.3c11.4,0,20.7,5.2,20.7,26.9S872.1,118.6,860.7,118.6Z"/><polygon class="cls-1" points="500.2 426.3 498.1 426.3 475.3 263.6 445.3 263.6 415.3 263.6 392.5 426.3 391.4 426.3 378 263.6 324.1 263.6 355.2 489.5 422.5 489.5 445.3 335.1 446.3 335.1 468.1 489.5 536.5 489.5 566.5 263.6 512.6 263.6 500.2 426.3"/></svg>