<svg id="Layer_1" data-name="Layer 1" xmlns="http://www.w3.org/2000/svg" viewBox="0 0 654 976"><defs><style>.cls-1,.cls-2,.cls-3,.cls-4{fill:#c4c4c4;stroke:#a1d324;}.cls-1,.cls-2,.cls-3{stroke-miterlimit:10;}.cls-1{opacity:0.25;}.cls-1,.cls-3{isolation:isolate;}.cls-3{opacity:0.5;}.cls-4{stroke-linejoin:round;stroke-width:2px;}</style></defs><title>cooper-union</title><path class="cls-1" d="M50.9,900.6v9.8H38v47.9H27V910.4H14.1v-9.8Zm10.4,57.7V900.6h11v23H87.9v-23h11v57.7h-11V933.4H72.3v24.9Zm51.4,0V900.6h30.2v9.8H123.7v13.3h14.6v9.7H123.7v15.2h20v9.8l-31-.1Z"/><path class="cls-2" d="M165.9,941.2c0,6.4,2.8,8.2,7.2,8.2s7.2-1.8,7.2-8.2v-3.8h11v2.4c0,14.2-7.5,19.3-18.2,19.3s-18.2-5.1-18.2-19.3V919.2c0-14.2,7.5-19.3,18.2-19.3s18.2,5.1,18.2,19.3v.2h-11v-1.6c0-6.4-2.8-8.2-7.2-8.2s-7.2,1.8-7.2,8.2Zm36.6-22c0-14.2,7.5-19.3,18.2-19.3s18.2,5.1,18.2,19.3v20.6c0,14.2-7.5,19.3-18.2,19.3s-18.2-5.1-18.2-19.3Zm11,22c0,6.4,2.8,8.2,7.2,8.2s7.2-1.8,7.2-8.2V917.7c0-6.4-2.8-8.2-7.2-8.2s-7.2,1.8-7.2,8.2Zm36.6-22c0-14.2,7.5-19.3,18.2-19.3s18.2,5.1,18.2,19.3v20.6c0,14.2-7.5,19.3-18.2,19.3s-18.2-5.1-18.2-19.3Zm11.1,22c0,6.4,2.8,8.2,7.2,8.2s7.2-1.8,7.2-8.2V917.7c0-6.4-2.8-8.2-7.2-8.2s-7.2,1.8-7.2,8.2Zm38.1,17.1V900.6h15.9c13.6,0,20.2,6.4,20.2,17.3s-6.6,17.3-20.2,17.3h-4.9v23.2l-11-.1Zm11.1-32.2h5.9c5.4,0,8.2-2.7,8.2-8.2s-2.7-8.1-8.2-8.1h-5.9Zm35.9,32.2V900.6h30.2v9.8H357.3v13.3H372v9.7H357.4v15.2h20v9.8l-31.1-.1Zm69.1,0-9.6-23.5h-5.3v23.5h-11V900.6h16c13.3,0,19.6,6.4,19.6,17.3,0,7.2-2.5,12.4-8.7,14.7l10.9,25.7Zm-14.9-32.6h5.7c4.9,0,7.8-2.4,7.8-8s-3-8-7.8-8h-5.7Z"/><path class="cls-3" d="M447.3,903.2v38.5c0,5.3,2.3,8,7.4,8s7.5-2.8,7.5-8V903.2h10.5v38.6c0,12.1-7.2,17.2-18,17.2s-17.9-5.1-17.9-17.2V903.2Zm39.9,55.1V903.2h11.5l14.6,32.7h.2V903.2h9.6v55.1H513l-16.1-35.6h-.1v35.6Zm51.1,0V903.2h10.5v55.1Zm23.6-37.4c0-13.6,7.2-18.5,17.4-18.5s17.4,4.9,17.4,18.5v19.7c0,13.6-7.2,18.5-17.4,18.5s-17.4-4.9-17.4-18.5Zm10.5,21c0,6.1,2.7,7.8,6.9,7.8s6.9-1.7,6.9-7.8V919.5c0-6.1-2.7-7.8-6.9-7.8s-6.9,1.7-6.9,7.8Zm37.2,16.4V903.2h11.5l14.7,32.7h.1V903.2h9.6v55.1H635.4l-16.1-35.6h-.1v35.6Z"/><polygon class="cls-4" points="222.1 9.1 639.8 426.8 639.8 635.6 430.9 844.4 13.3 426.8 13.3 218 222.1 9.1"/><line class="cls-4" x1="222.1" y1="218" x2="222.1" y2="9.1"/><polygon class="cls-4" points="430.9 217.9 222.1 426.8 222.1 635.6 431 426.7 430.9 217.9"/><polyline class="cls-4" points="639.8 426.8 430.9 635.6 13.3 218"/><polyline class="cls-4" points="13.3 426.8 222.1 218 639.8 635.6"/><line class="cls-4" x1="430.9" y1="635.6" x2="430.9" y2="844.4"/></svg>