<svg id="Layer_1" data-name="Layer 1" xmlns="http://www.w3.org/2000/svg" viewBox="0 0 980.95 392.98"><defs><style>.cls-1{fill:#c4c4c4;stroke:#a1d324;stroke-miterlimit:10;}</style></defs><title>creatively-quarterly</title><path class="cls-1" d="M149.58,17.2c5.5,0,10.5,1.1,15.3,5.3,3.1,2.8,4.4,8,4.7,15.3l1.1.6,3.1.3c0-10.5,1.1-19.7,2.8-24.7l-3.9-1.1-.6.3a3.61,3.61,0,0,1-3.6,3.3,10,10,0,0,1-4.2-1.1,43.35,43.35,0,0,0-16.6-2.8c-21.9,0-37.7,16.9-37.7,39.9,0,21.9,15,36.9,37.7,36.9,7.2,0,13.6-1.4,17.7-3.3a11.59,11.59,0,0,1,4.4-1.1c1.1,0,1.9.8,2.8,4.4l.6.3,4.4-1.4c-2.2-7.8-2.8-16.4-2.5-26.1l-3.6.3-.8.8c0,4.4-1.1,11.6-5,15.3-4.2,4.4-9.4,5.5-15.5,5.5-14.4,0-24.4-12.8-24.4-32.7C126,33,134.58,17.2,149.58,17.2Z"/><path class="cls-1" d="M241.28,41.4c0-14.4,0-20,.8-21.6.6-1.1,3.6-1.4,6.1-1.4,12.8,0,16.4,6.9,16.4,14.4,0,6.4-2.8,11.1-8,13.9-2.5,1.1-6.4,1.9-15.3,1.9V41.4ZM234.38,15a148.05,148.05,0,0,1-16.6-.6l-.3.3-.3,3,.3.3c5.5.3,8,1.1,9.2,3,1.4,2.2,1.4,9.7,1.4,20.2V60.1c0,15.5-.3,18.9-2.2,21.1-1.1,1.4-3.6,2.2-9.4,2.5l-.3.3.3,3.6.3.3c5-.3,13.9-.6,17.7-.6,7.2,0,13.9.3,18.6.6l.3-.3.3-3.6-.3-.3c-5.5-.3-9.2-.6-10.3-2.8-1.1-1.9-1.7-9.4-1.7-20.2v-8c7.2,0,8.3.3,11.1,1.4,1.4.6,3,2.8,5.3,6.1,3.6,5.3,8.6,18.9,11.1,22.7,2.2,3.6,4.7,4.7,9.4,4.7,5,0,11.9-.3,14.1-.8l.6-.3.6-2.8-.6-.3a20.05,20.05,0,0,1-5.3-.8c-3.9-1.7-5.3-4.2-8.9-12.5-2.8-5.3-6.1-10.8-8.6-13.3-3.6-4.2-7.8-5.5-12.2-5.8v-.8c11.1-1.1,21.6-6.4,21.6-18.3,0-12.8-10.5-17.7-23.6-17.7C252.38,14.2,238.78,15,234.38,15Z"/><path class="cls-1" d="M338.38,87.4h29.7a152.77,152.77,0,0,1,21.4,1.4l1.1-1.7,2.8-23.8-4.4-.6c-1.9,5.3-5.5,11.9-7.8,14.7-3.6,4.7-6.4,6.1-14.7,6.1-9.7,0-14.4-.3-17.2-3.6-1.4-1.9-2.2-7.8-2.2-17.7V51.7h8.6c9.4,0,11.1,6.4,12.5,14.7l4.7-1.1c-.3-3.6-.6-9.4-.6-13.6a161.19,161.19,0,0,1,1.4-16.4L369,35c-2.2,10-5.3,11.9-11.6,11.9h-10.3V36.4c0-8.6.3-13.9,1.4-15.5,1.4-1.9,5.5-2.2,12.2-2.2,10,0,12.2,1.7,14.4,4.4a44.48,44.48,0,0,1,7.2,15.3l4.4-1.1L385,14.8l-.6-.6a135,135,0,0,1-16.4.6h-23.8c-6.7,0-15.3-.3-21.1-.6l-.3.3-.3,3.3.3.3c5.5,0,8,.8,9.2,2.8,1.4,2.2,1.4,9.4,1.4,20V59.8c0,15.5-.3,18.9-2.2,21.1-1.1,1.4-3.6,2.2-9.4,2.5l-.3.3.3,3.6.3.3C327.28,87.7,334.18,87.4,338.38,87.4Z"/><path class="cls-1" d="M452.38,56.9c2.8-8.3,7.2-19.4,11.1-28h1.1c3.6,9.7,7.5,20.2,10,28l-.3.6h-21.4Zm-1.7,5.8,24.7-.6.6.3c3,8,4.7,13.6,4.7,16.9,0,3-3,4.2-10.3,4.4l-.3.6.3,3.6c7.2-.3,14.4-.6,19.7-.6s10.8.3,13.9.6l.3-3.9-.3-.3c-4.4-.3-6.1-1.9-7.8-4.4-2.8-4.2-9.7-26.6-19.7-53a48,48,0,0,1-3.3-15L471,10.2c-5.3,7.2-10,8.6-13.6,8.6l-.6,1.4a5.85,5.85,0,0,1,1.9,4.4,9.82,9.82,0,0,1-1.1,4.4c-8.3,21.1-16.1,41.6-19.7,48.8-1.4,3.3-5,5.3-10.8,5.8l-.3.3.6,3.9a111.21,111.21,0,0,1,13.3-.6c6.7,0,12.5.3,17.7.6l.3-3.3-.3-.3c-8.9-.3-11.9-3.3-11.9-6.4s1.4-8.9,3.6-14.7Z"/><path class="cls-1" d="M578.28,61V19.7l.6-.8h3c6.9,0,9.7,1.4,13,5a148.83,148.83,0,0,1,8.6,16.4l1.1.3,2.5-1.1-1.4-24.1-1.1-1.7a84.66,84.66,0,0,1-17.7,1.7h-30.2a75.36,75.36,0,0,1-17.2-1.7l-1.1,1.7-1.9,24.4,3,1.1.6-.6c3-6.9,6.4-13.9,8.6-16.6,3.3-3.6,6.1-4.7,13.6-4.7h1.9l.6.8V60.3c0,15.5-.8,18.9-2.2,21.1-1.4,1.7-3.9,2.2-11.1,2.5l-.6.6.3,3,.6.6c6.7-.3,13.9-.6,18-.6,6.7,0,12.5.3,22.2.6l.3-.6.3-3.3-.6-.6c-6.9,0-10-.6-11.1-2.8C579.08,79.1,578.28,71.9,578.28,61Z"/><path class="cls-1" d="M664.48,42.7c0-15.8,1.1-19.4,3-21.4,1.4-1.4,3.6-2.5,10.3-2.8h.3l-.3-3.3-.3-.3c-6.1.3-13,.3-16.9.3-6.9,0-15.3,0-21.9-.6l-.3.3-.3,3.3h.3c6.1.3,8.9,1.1,10,3s2.2,9.7,2.2,20.2V60.3c0,15.5-1.1,18.9-3,21.1-1.1,1.7-3.6,2.2-10,2.5l-.3.3.3,3.6.3.3c5.8-.3,13-.6,16.9-.6,6.9,0,13.3.3,21.9.6l.3-.3.3-3.6-.3-.3c-6.4,0-9.2-.6-10.3-2.8-1.4-1.9-2.2-9.4-2.2-20V42.7Z"/><path class="cls-1" d="M742.08,39.4c-3-9.7-3.9-13-3.9-16.1s1.9-4.4,10.3-5l.6-.3-.6-3.6c-8.6.3-14.7.6-20.5.6-5,0-9.2,0-15.3-.3l-.3,3.3.6.3c3.6.6,5.8,1.9,7.2,4.7,2.5,4.4,7.8,21.1,20.5,52.1,1.9,4.7,4.7,11.9,5.3,14.4l1.9,1.1a26.66,26.66,0,0,1,7.5-2.2c.6-2.2,1.7-5.5,2.5-7.5,5.5-12.2,11.6-26.9,16.1-38.3,3-8,5.5-14.4,8-18,1.7-3,3.3-5,8.3-6.1l.3-.3-.3-3.6c-3.3.3-7.5.3-11.4.3-6.9,0-12.8-.3-18.6-.6l-.3,3.6.3.3c8.9,1.1,11.1,3.9,11.1,6.4,0,3-.8,7.2-3.3,15.3-2.5,8.6-8.3,23.6-12.8,33.8h-.8C751.28,64.9,745.68,49.1,742.08,39.4Z"/><path class="cls-1" d="M835.58,87.4h29.7a152.77,152.77,0,0,1,21.4,1.4l1.1-1.7,2.8-23.8-4.4-.6c-1.9,5.3-5.5,11.9-7.8,14.7-3.6,4.7-6.4,6.1-14.7,6.1-9.7,0-14.4-.3-17.2-3.6-1.4-1.9-2.2-7.8-2.2-17.7V51.7h8.6c9.4,0,11.1,6.4,12.5,14.7l4.7-1.1c-.3-3.6-.6-9.4-.6-13.6a161.18,161.18,0,0,1,1.4-16.4l-4.7-.3c-2.2,10-5.3,11.9-11.6,11.9h-10.3V36.4c0-8.6.3-13.9,1.4-15.5,1.4-1.9,5.5-2.2,12.2-2.2,10,0,12.2,1.7,14.4,4.4a44.48,44.48,0,0,1,7.2,15.3l4.4-1.1-1.7-22.5-.8-.6a135,135,0,0,1-16.4.6h-23.8c-6.7,0-15.3-.3-21.1-.6l-.3.3-.3,3.3.3.3c5.5,0,8,.8,9.2,2.8,1.4,2.2,1.4,9.4,1.4,20V59.8c0,15.5-.3,18.9-2.2,21.1-1.1,1.4-3.6,2.2-9.4,2.5l-.3.3.3,3.6.3.3C824.48,87.7,831.38,87.4,835.58,87.4Z"/><path class="cls-1" d="M44.18,213c-3,1.4-10.3,1.9-14.1,1.9-4.2,0-10.5-1.4-10.5-5.3,0-3,3.3-4.7,8.6-4.7,7.2,0,15.3,4.7,16.4,6.1S45.58,212.5,44.18,213Zm11.9-26.6c16.9,0,30.5-12.2,30.5-31.3,0-6.1-3.1-15.5-14.4-15.5-6.1,0-13,3.9-13,12.2,0,5,2.8,8,7.2,8,5.5,0,6.7-4.4,6.7-8.9,0-2.2.3-3.3,1.9-3.3,4.2,0,5.5,4.2,5.5,8,0,9.2-6.1,22.2-19.4,22.2-10.3,0-14.7-8.6-14.7-19.4,0-17.5,11.4-42.7,32.4-42.7,17.7,0,22.5,17.2,22.5,32.2,0,31.1-20.5,52.1-42.7,59.3-8-6.1-19.4-11.6-28.8-11.6s-16.4,5.5-16.4,12.4c0,8,7.5,11.6,16.6,11.6a79.08,79.08,0,0,0,21.1-3c8.6,5.3,38.5,36.3,62.1,36.3,19.7,0,31.1-10.3,31.1-18.6,0-4.2-2.8-9.7-9.7-9.7-4.4,0-7.8,4.7-7.8,8,0,2.8,1.1,3.9,3.6,6.1,1.9,1.9,1.1,7.5-5.5,7.5-10.5,0-35.2-16.4-59.3-33.8v-.6c19.7-6.1,51.9-24.1,51.9-61.8,0-16.6-7.2-39.9-38.3-39.9s-46.9,29.7-46.9,50.5C31.68,179.7,43.88,186.4,56.08,186.4Z"/><path class="cls-1" d="M198.88,142.6l.6.3c4.7.3,9.4,1.1,11.4,3a14.73,14.73,0,0,1,3.1,8c.3,4.2,1.1,11.9,1.1,19.1v8c0,16.1-6.7,26.9-20.5,26.9-13,0-22.2-7.8-22.2-27.2V164.1c0-11.1.6-16.4,2.5-18.6,1.7-1.9,4.2-2.5,9.4-2.5l.6-.6-.3-2.8-.3-.3c-4.7.6-13.6.6-18,.6a147.41,147.41,0,0,1-17.2-.6l-.3.3-.3,3.3h.3c5.3.3,7.8,1.4,8.6,3,.8,1.9.8,7.8.8,18.3v17.5c0,21.4,7.8,33.6,32.2,33.6,20,0,31.1-11.4,31.1-34.4v-10c0-18.9.3-23.3,1.9-25,1.4-1.7,3.9-2.8,6.7-3.3l.6-.3V139c-2.8.6-9.7.6-14.1.6a166.69,166.69,0,0,1-17.2-.6v3.3l-.5.3Z"/><path class="cls-1" d="M281.48,182c2.8-8.3,7.2-19.4,11.1-28h1.1c3.6,9.7,7.5,20.2,10,28l-.3.6h-21.6Zm-1.6,5.5,24.7-.6.6.3c3,8,4.7,13.6,4.7,16.9,0,3-3,4.2-10.3,4.4l-.3.6.3,3.6c7.2-.3,14.4-.6,19.7-.6s10.8.3,13.9.6l.3-3.9-.3-.3c-4.4-.3-6.1-1.9-7.8-4.4-2.8-4.2-9.7-26.6-19.7-53a48,48,0,0,1-3.3-15l-2.2-1.1c-5.3,7.2-10,8.6-13.6,8.6L286,145a5.85,5.85,0,0,1,1.9,4.4,9.82,9.82,0,0,1-1.1,4.4c-8.3,21.1-16.1,41.6-19.7,48.8-1.4,3.3-5,5.3-10.8,5.8l-.3.3.6,3.9a111.21,111.21,0,0,1,13.3-.6c6.7,0,12.5.3,17.7.6l.3-3.3-.3-.3c-8.9-.3-11.9-3.3-11.9-6.4s1.4-8.9,3.6-14.7Z"/><path class="cls-1" d="M391.38,166.1c0-14.4,0-20,.8-21.6.6-1.1,3.6-1.4,6.1-1.4,12.8,0,16.4,6.9,16.4,14.4,0,6.4-2.8,11.1-8,13.9-2.5,1.1-6.4,1.9-15.3,1.9Zm-7.3-26.3a148.05,148.05,0,0,1-16.6-.6l-.3.3-.3,3,.3.3c5.5.3,8,1.1,9.2,3,1.4,2.2,1.4,9.7,1.4,20.2v18.9c0,15.5-.3,18.9-2.2,21.1-1.1,1.4-3.6,2.2-9.4,2.5l-.3.3.3,3.6.3.3c5-.3,13.9-.6,17.7-.6,7.2,0,13.9.3,18.6.6l.3-.3.3-3.6-.3-.3c-5.5-.3-9.2-.6-10.3-2.8-1.1-1.9-1.7-9.4-1.7-20.2v-8c7.2,0,8.3.3,11.1,1.4,1.4.6,3,2.8,5.3,6.1,3.6,5.3,8.6,18.9,11.1,22.7,2.2,3.6,4.7,4.7,9.4,4.7,5,0,11.9-.3,14.1-.8l.6-.3.6-2.8-.6-.3a20.05,20.05,0,0,1-5.3-.8c-3.9-1.7-5.3-4.2-8.9-12.5-2.8-5.3-6.1-10.8-8.6-13.3-3.6-4.2-7.8-5.5-12.2-5.8V175c11.1-1.1,21.6-6.4,21.6-18.3,0-12.8-10.5-17.7-23.6-17.7C402.18,139,388.58,139.8,384.08,139.8Z"/><path class="cls-1" d="M517,185.8V144.5l.6-.8h3c6.9,0,9.7,1.4,13,5a148.83,148.83,0,0,1,8.6,16.4l1.1.3,2.5-1.1-1.4-24.1-1.1-1.7a84.66,84.66,0,0,1-17.7,1.7h-30.2a75.36,75.36,0,0,1-17.2-1.7l-1.1,1.7-1.9,24.4,3,1.1.6-.6c3-6.9,6.4-13.9,8.6-16.6,3.3-3.6,6.1-4.7,13.6-4.7h1.9l.6.8v40.5c0,15.5-.8,18.9-2.2,21.1-1.4,1.7-3.9,2.2-11.1,2.5l-.6.6.3,3,.6.6c6.7-.3,13.9-.6,18-.6,6.7,0,12.5.3,22.2.6l.3-.6.3-3.3-.6-.6c-6.9,0-10-.6-11.1-2.8C517.78,204.1,517,196.4,517,185.8Z"/><path class="cls-1" d="M592.68,212.5h29.7a152.77,152.77,0,0,1,21.4,1.4l1.1-1.7,2.8-23.8-4.4-.6c-1.9,5.3-5.5,11.9-7.8,14.7-3.6,4.7-6.4,6.1-14.7,6.1-9.7,0-14.4-.3-17.2-3.6-1.4-1.9-2.2-7.8-2.2-17.7V176.8H610c9.4,0,11.1,6.4,12.5,14.7l4.7-1.1c-.3-3.6-.6-9.4-.6-13.6a161.18,161.18,0,0,1,1.4-16.4l-4.7-.3c-2.2,10-5.3,11.9-11.6,11.9h-10.3V161.4c0-8.6.3-13.9,1.4-15.5,1.4-1.9,5.5-2.2,12.2-2.2,10,0,12.2,1.7,14.4,4.4a44.48,44.48,0,0,1,7.2,15.3l4.4-1.1-1.7-22.5-.8-.6a135,135,0,0,1-16.4.6h-23.8c-6.7,0-15.3-.3-21.1-.6l-.3.3-.3,3.3.3.3c5.5,0,8,.8,9.2,2.8,1.4,2.2,1.4,9.4,1.4,20v18.9c0,15.5-.3,18.9-2.2,21.1-1.1,1.4-3.6,2.2-9.4,2.5l-.3.3.3,3.6.3.3C581.58,212.5,588.48,212.5,592.68,212.5Z"/><path class="cls-1" d="M712.18,166.1c0-14.4,0-20,.8-21.6.6-1.1,3.6-1.4,6.1-1.4,12.8,0,16.4,6.9,16.4,14.4,0,6.4-2.8,11.1-8,13.9-2.5,1.1-6.4,1.9-15.3,1.9ZM705,139.8a148.05,148.05,0,0,1-16.6-.6l-.3.3-.3,3,.3.3c5.5.3,8,1.1,9.2,3,1.4,2.2,1.4,9.7,1.4,20.2v18.9c0,15.5-.3,18.9-2.2,21.1-1.1,1.4-3.6,2.2-9.4,2.5l-.3.3.3,3.6.3.3c5-.3,13.9-.6,17.7-.6,7.2,0,13.9.3,18.6.6l.3-.3.3-3.6-.3-.3c-5.5-.3-9.2-.6-10.3-2.8-1.1-1.9-1.7-9.4-1.7-20.2v-8c7.2,0,8.3.3,11.1,1.4,1.4.6,3,2.8,5.3,6.1,3.6,5.3,8.6,18.9,11.1,22.7,2.2,3.6,4.7,4.7,9.4,4.7,5,0,11.9-.3,14.1-.8l.6-.3.6-2.8-.3-.3a20.05,20.05,0,0,1-5.3-.8c-3.9-1.7-5.3-4.2-8.9-12.5-2.8-5.3-6.1-10.8-8.6-13.3-3.6-4.2-7.8-5.5-12.2-5.8V175c11.1-1.1,21.6-6.4,21.6-18.3,0-12.8-10.5-17.7-23.6-17.7C723,139,709.38,139.8,705,139.8Z"/><path class="cls-1" d="M828.08,167.3c0-15.8,1.4-19.4,3-21.4,1.1-1.7,4.4-2.5,11.1-2.8h.3l-.3-3.3-.3-.3c-6.4.3-13.6.3-17.2.3-6.7,0-15.3,0-21.1-.6l-.3.3-.3,3,.3.3c5.5.3,8,1.1,9.2,3,1.1,2.2,1.4,9.7,1.4,20.2v18.9c0,15.5-.3,18.9-2.2,21.1-1.4,1.4-3.6,2.2-9.4,2.5l-.3.3.3,3.6.3.3c5-.3,11.9-.6,16.1-.6h29.9c9.2,0,15,.6,18.6,1.4l2.2-1.7,2.8-28.6-3.9-.8-.8.3a59.1,59.1,0,0,1-8,19.1c-3,4.2-6.1,5.8-13.9,5.8-9.2,0-11.4-1.1-14.4-4.2-1.9-1.9-3-5.3-3-21.4l-.1-14.7Z"/><path class="cls-1" d="M926.78,190.3c0,10.3-.6,13.6-1.9,15.8-1.1,1.7-3.9,2.2-10.3,2.5l-.3.3.3,3.6.3.3c5.8-.3,13-.6,17.2-.6,6.9,0,13,.3,20,.6l.3-.3.3-3.6-.3-.3c-6.1,0-9.2-.6-10.3-2.8-1.1-1.9-1.1-8.9-1.1-15.8V179.7a5.33,5.33,0,0,1,1.4-3.6c4.7-6.1,11.9-16.1,15-21.1,2.8-4.4,5.3-7.8,7.5-9.4a15.39,15.39,0,0,1,8.3-2.5l.3-.3-.3-3.6a118,118,0,0,1-14.4.6c-6.7,0-11.6-.3-16.4-.6l-.3,3.6.3.3c7.8.3,11.1,1.9,11.1,5,0,2.2-.8,5-4.2,10.3A164.15,164.15,0,0,1,939,172.5c-11.1-11.9-16.9-23-16.9-26.1,0-1.9,3-3.3,9.7-3.3l.3-.3-.3-3.6c-6.4.6-13.9.6-17.7.6-6.7,0-12.2-.3-17.7-.6l-.3,3.6.3.3a11.6,11.6,0,0,1,10.3,5.8c4.4,6.9,12.5,18.9,18.9,27.7a5.51,5.51,0,0,1,1.4,3.6l-.2,10.1Z"/><path class="cls-1" d="M143.18,340.6c1.1-4.2,5.5-13,9.4-13,1.7,0,1.7,1.7,1.7,2.8a8.21,8.21,0,0,1-1.7,5.3c-1.7,2.1-6.4,4.6-9.4,4.9Zm-.9,2.5c6.7-1.4,12.8-4.2,15-6.1a8.4,8.4,0,0,0,2.2-5.5c0-4.7-2.8-6.4-5.5-6.4-3.9,0-7.2,2.2-10.3,5.3-4.2,4.2-8.3,13.3-8.3,20.5,0,3.9,1.4,9.2,7.8,9.2,7.2,0,10.8-6.7,12.5-10.3v-.4l-1.4-.8H154c-1.7,3.3-4.2,7.8-8.6,7.8-3.6,0-4.2-3-4.2-5.8A30.55,30.55,0,0,1,142.28,343.1Zm-18-38.9c0-.8-.8-2.2-1.4-1.9-2.8.3-7.8,1.1-12.2,1.9v.3l.3,1.4c4.2,0,5.5.3,5.5,2.2,0,2.2-5.3,16.6-16.9,50.5l.6.8,5-.8.6-.6c3.9-15.5,14.4-28.3,18.3-28.3,1.7,0,2.2,1.4,2.2,3.6,0,8.6-4.4,20.8-7.2,20.8-.8,0-1.7-.3-2.5-2.2-.6-1.1-.8-1.1-1.7-1.1-1.7,0-3.1,1.9-3.1,4.2,0,2.5,1.4,4.4,3.9,4.4,1.9,0,3.9-1.7,6.1-4.2,4.2-4.4,10.8-14.4,10.8-22.7,0-2.8-.8-7.5-5.5-7.5-5.8,0-12.5,8.9-15,13.9l-.6-.3C116.28,325.3,122.38,308.1,124.28,304.2Zm-51.6,23.3c0,1.4-1.4,1.7-2.2,1.7-2.2,0-4.2-2.2-4.2-5,0-7.8,7.2-9.4,11.9-9.4a35.29,35.29,0,0,1,7.2.8l.3.3-6.3,24.4c-2.8,10.3-3.9,14.1-5,15.3-.8.8-2.8,1.4-5.3,1.4l-.3.3v2.2c3.3-.3,7.2-.6,9.7-.6,3.6,0,8,.3,11.9.6l.3-.3.3-1.9-.3-.3c-4.7-.3-7.2-.8-7.2-3.6,0-1.9.6-4.2,2.5-12.5l6.1-24.1.3-.4a39.46,39.46,0,0,0,9.7,1.7c5.5,0,9.4-4.4,9.4-8,0-2.5-1.4-4.2-3.6-4.2a3,3,0,0,0-3.1,3,3.16,3.16,0,0,0,1.7,2.5c.9.6,1.7,1.1,1.7,1.7,0,1.1-.8,1.7-2.5,1.7-5.3,0-14.1-5.3-26.3-5.3-11.9,0-16.9,6.9-16.9,13.3,0,2.8,1.1,8.9,8.6,8.9a6.57,6.57,0,0,0,6.7-6.4c0-1.4-.8-4.2-3.9-4.2a3.4,3.4,0,0,0-3.3,3.6,2.47,2.47,0,0,0,1.7,2.5C72.48,327,72.68,327.3,72.68,327.5Z"/><path class="cls-1" d="M266.58,318.1c-.6,2.5-1.7,6.4-2.8,9.7l-5.5.3-.3.3-.6,2.5.3.3,5.3-.3v.3c-1.4,4.2-4.2,12.5-7.2,21.9a10.94,10.94,0,0,0-.8,4.4,3.3,3.3,0,0,0,3,2.8c4.7,0,11.9-7.2,15-10.8v-.6l-1.4-1.7h-.3c-1.9,2.8-6.9,7.2-8.3,7.2a1,1,0,0,1-1.1-1.1c0-2.2,3-11.6,7.2-23.3l8-.3.3-.3.8-2.5-.3-.3-7.8.6-.3-.3c1.1-3.3,3-8,4.4-11.4l-.8-.6C272.08,316.2,269.08,317.3,266.58,318.1Zm-26.9,25.2c2.2,3,3.6,6.1,3.6,9.4,0,2.5-1.4,4.4-3.6,4.4s-4.2-1.7-5.3-4.7c-.6-1.7-1.1-2.5-2.5-2.5-1.7,0-3.1,2.2-3.1,3.9a6,6,0,0,0,1.4,3.6,10,10,0,0,0,6.7,2.5c5.5,0,11.4-6.4,11.4-11.6,0-1.9-.8-4.2-2.5-6.9l-2.8-3.9c-1.9-3-2.5-3.9-2.5-5.8,0-1.7,1.1-4.4,3.3-4.4,1.7,0,2.8,1.4,3.3,3s.8,2.2,1.9,2.2a3.61,3.61,0,0,0,3.3-3.6c0-2.5-3.3-4.2-7.2-4.2-4.4,0-9.7,5.8-9.7,10,0,2.2.3,3.6,2.2,6.4Zm-26.4-2.7c1.1-4.2,5.5-13,9.4-13,1.7,0,1.7,1.7,1.7,2.8a8.21,8.21,0,0,1-1.7,5.3c-1.3,2.1-6.3,4.6-9.4,4.9Zm-.5,2.5c6.7-1.4,12.8-4.2,15-6.1a8.4,8.4,0,0,0,2.2-5.5c0-4.7-2.8-6.4-5.5-6.4-3.9,0-7.2,2.2-10.3,5.3-4.2,4.2-8.3,13.3-8.3,20.5,0,3.9,1.4,9.2,7.8,9.2,7.2,0,10.8-6.7,12.5-10.3v-.4l-1.4-.8h-.4c-1.7,3.3-4.2,7.8-8.6,7.8-3.6,0-4.2-3-4.2-5.8A30.17,30.17,0,0,1,212.78,343.1Zm-33.9,9.1c0-8.9,11.4-22.7,16.1-22.7,1.7,0,1.9,1.1,1.9,2.2,0,8.9-8.3,24.7-13.9,24.7A4.1,4.1,0,0,1,178.88,352.2Zm18.6-48.5c.3-.8-.6-1.7-1.4-1.7-2.8.3-8.6,1.4-13,1.9v.3l.3,1.7c4.4,0,5.5.3,5.5,2.2,0,2.2-4.7,12.8-16.4,45.2l.3,1.4a12.9,12.9,0,0,0,8,5.3,13,13,0,0,0,7.2-2.5c6.1-3.9,15.5-16.6,15.5-26.9,0-2.2-1.1-5.5-4.4-5.5-5.3,0-10.5,4.7-14.4,9.7l-.3-.3C188.38,324.2,194.78,308.4,197.48,303.7Z"/><path class="cls-1" d="M335.08,319.8c1.7-6.1,3.3-10,5.5-12.2a5.75,5.75,0,0,1,4.2-1.9c1.4,0,1.7.6,1.7,2.8s.6,4.2,3,4.2c3,0,4.2-2.2,4.2-4.4,0-3.6-3-5.5-7.8-5.5a14.52,14.52,0,0,0-9.7,3.6c-4.4,3.6-6.1,8.3-7.5,12.8l-2.2,7.8-7.2.3-.8,2.8.3.3,6.9-.6v.3l-.8,2.8c-1.4,4.7-5,18.3-8,28.8-1.7,6.1-3,10-5,12.5a5.19,5.19,0,0,1-4.2,2.2c-1.4,0-1.9-.6-1.9-2.8s-.3-3.6-2.2-3.6a4.49,4.49,0,0,0-4.4,4.4c0,4.2,3.6,5.3,6.4,5.3,3.3,0,6.4-1.1,9.7-4.2a37.58,37.58,0,0,0,7.8-12.5c2.5-7.5,6.1-21.4,8-28.3l1.1-4.7,9.4-.3.8-2.5-.3-.3-8.9.6-.3-.3Zm-28,7.7c2.2,0,2.2,2.5,2.2,4.2,0,11.1-9.2,25-13.6,25-2.2,0-2.8-1.7-2.8-3.9C292.88,345,300.68,327.5,307.08,327.5Zm-2.3-2.5c-7.2,0-16.6,11.9-16.6,24.1,0,7.8,5.3,10.8,9.4,10.8,6.4,0,16.1-10.5,16.1-24.1,0-4.4-.8-6.9-2.8-8.9A8.75,8.75,0,0,0,304.78,325Z"/><path class="cls-1" d="M421.58,318.1c-.6,2.5-1.7,6.4-2.8,9.7l-5.5.3-.3.3-.6,2.5.3.3,5.3-.3v.3c-1.4,4.2-4.2,12.5-7.2,21.9a10.94,10.94,0,0,0-.8,4.4,3.3,3.3,0,0,0,3,2.8c4.7,0,11.9-7.2,15-10.8v-.6l-1.4-1.7h-.3c-1.9,2.8-6.9,7.2-8.3,7.2a1,1,0,0,1-1.1-1.1c0-2.2,3-11.6,7.2-23.3l8-.3.3-.3.8-2.5-.3-.3-7.8.6-.3-.3c1.1-3.3,3-8,4.4-11.4l-.8-.6A22.61,22.61,0,0,1,421.58,318.1Zm-13.1,17.8c1.1-.8,2.5-5,2.5-7.2,0-1.7-.3-3.6-2.2-3.6-4.7,0-10.3,8.6-13.3,14.4l-.3-.3c1.7-5,3.3-10.3,3.3-11.6,0-1.7-.8-2.5-1.9-2.5-2.8,0-7.2,1.7-13,7.8v.3l1.1,1.7h.3c1.9-1.9,4.7-4.2,6.1-4.2.8,0,1.1.8,1.1,1.7,0,1.7-2.5,11.1-8.3,26.9l.6.8,5.3-1.1.6-.8a81,81,0,0,1,4.7-14.4c4.7-7.8,8.3-11.9,10.3-11.9,1.4,0,2.2,1.4,2.5,3.9l.6.1Zm-34.3-8.6a5.15,5.15,0,0,0-4.2-2.2c-4.4,0-10.3,4.2-15.3,11.4-4.2,6.4-6.4,12.5-6.4,16.4,0,3,.8,6.7,5.3,6.7,5.3,0,11.1-8,13.6-12.2l.3.3a36.74,36.74,0,0,0-2.5,9.4c0,1.7,1.1,2.5,2.8,2.5,2.8,0,9.2-5,12.8-11.6v-.3l-1.4-1.4h-.3c-1.9,3.3-6.1,7.8-7.2,7.8-.6,0-.6-.3-.6-.8,0-2.2,3.3-12.5,8.6-26.1-.3-.8-2.2-1.7-3.3-1.7l-1.7,1.7h-.6l.1.1ZM355,351.1c0-2.8,1.7-9.7,5.3-15.3,3.3-5.3,7.2-8.3,9.2-8.3a2.68,2.68,0,0,1,2.8,3c0,6.4-11.1,24.4-15.3,24.4C355.28,355,355,353,355,351.1Z"/><path class="cls-1" d="M457.58,330.3a7.55,7.55,0,0,1,4.2-1.1c1.4,0,2.8.3,2.8,1.7s-1.1,1.9-2.5,1.9A5.78,5.78,0,0,1,457.58,330.3Zm21.9,13.3c0,1.7-1.7,2.5-3,2.5-3.9,0-5.5-2.8-5.5-6.4,0-4.4,3.3-6.9,7.2-6.9,6.4,0,9.7,4.2,9.7,8.9,0,10.8-10.8,13-17.7,13-11.1,0-19.1-4.2-19.1-13.3a11.86,11.86,0,0,1,4.7-9.7,9.85,9.85,0,0,0,6.9,3.3c2.5,0,4.7-.8,4.7-4.2,0-2.8-2.8-3.6-5.5-3.6a13.09,13.09,0,0,0-5.3,1.4,10.18,10.18,0,0,1-1.1-4.7c0-4.2,2.8-8.6,7.8-8.6,4.4,0,7.2,2.8,7.2,6.4a9.07,9.07,0,0,1-1.1,4.2c0,.6.6.8,1.1.8a7.37,7.37,0,0,0,5-7.2c0-6.1-5.3-8.9-10.5-8.9-9.4,0-13,6.9-13,12.5a10.56,10.56,0,0,0,2.2,6.9v.3c-3.9,2.2-9.2,7.2-9.2,14.4,0,13.3,12.8,16.4,22.2,16.4,15,0,24.1-7.2,24.1-18a10.47,10.47,0,0,0-4.2-8.6v-.3c7.8,1.4,14.4-3,14.4-10.3a7.66,7.66,0,0,0-8-8c-2.8,0-6.1,1.4-6.1,5a3,3,0,0,0,3.3,3.3,2.67,2.67,0,0,0,2.8-2.8c0-1.1.6-2.5,1.7-2.5,2.5,0,3.9,1.9,3.9,4.4,0,5-3.6,6.1-6.9,6.1s-8.3-1.7-11.6-1.7c-7.8,0-12.2,5.8-12.2,12.2,0,4.2,2.8,8.9,8.6,8.9,3.9,0,6.9-2.5,6.9-6.4,0-2.8-1.4-5.3-4.4-5.3-2.2,0-3.6.8-3.6,3a2.72,2.72,0,0,0,2.8,2.5C479.28,342.2,479.48,342.5,479.48,343.6Z"/><path class="cls-1" d="M642,332.8h0l.8,1.7h.3c1.9-1.7,4.4-3.9,6.1-3.9.6,0,1.1.3,1.1,1.4,0,2.8-4.2,15.5-8.6,27.5l.6.6,5-1.1.8-.8c4.2-16.6,15.3-27.2,17.7-27.2.6,0,1.4.3,1.4.8,0,2.5-6.9,19.4-8.3,23-.8,1.7-1.1,2.2-1.1,3,0,1.4,1.4,2.2,2.8,2.2,4.7,0,12.5-7.2,14.7-10v-.3l-1.1-1.7h-.6c-1.9,2.2-6.4,6.7-8,6.7a.65.65,0,0,1-.6-.6c0-.8,5.5-14.7,6.9-18a23.4,23.4,0,0,0,2.2-7.8c0-1.7-.8-2.8-3.6-2.8-5.5,0-12.8,8.6-16.6,14.4l-.3-.3c1.7-4.4,3.3-9.7,3.3-11.9,0-1.7-1.1-2.2-2.8-2.2C650.58,325,645.38,329.5,642,332.8Zm-23.5,28c-8.6,2.8-13.3,5.3-13.3,10.3,0,6.7,10.3,8.9,15.8,8.9,7.8,0,20.2-2.5,20.2-13,0-4.2-5-7.2-14.1-9.4-7.5-1.7-8.9-3.3-8.9-5.3,0-1.7,1.4-3.9,4.4-4.4a16.94,16.94,0,0,0,9.4-3,15.18,15.18,0,0,0,4.7-10.8c0-1.7-.3-3.9-1.1-4.7v-.6a5.18,5.18,0,0,1,2.8-1.1c1.7,0,2.5,1.4,3,2.5l1.4-.3a12,12,0,0,0,1.1-4.7c0-.8-.6-2.2-1.9-2.2-2.2,0-4.7,1.9-6.9,4.2-.6.6-.8.3-1.7-.3a9.12,9.12,0,0,0-5.8-1.9c-10.3,0-13.6,9.7-13.6,14.1,0,3.9,1.4,6.7,4.4,8,.6.3.6.8-.3,1.4-3.3,1.7-5.5,3.6-5.5,6.4-.2,2.9,3.1,4.5,5.9,5.9Zm4.7,1.1c7.8,1.9,11.4,5.3,11.4,7.8,0,4.4-2.5,7.2-10.3,7.2-4.7,0-12.5-2.5-12.5-6.7,0-4.7,3.6-6.7,7.8-8A12.36,12.36,0,0,1,623.18,361.9Zm4.4-34.9c2.5,0,3.3,2.8,3.3,5.3,0,4.4-2.5,13.6-7.5,13.6-3.3,0-3.6-3.3-3.6-5.5C619.58,335.9,622.88,327,627.58,327Zm-23.3-2c-4.4,0-9.7,4.4-12.5,7.8v.3l1.1,1.7h.3c1.7-1.9,4.4-4.2,5.8-4.2.6,0,.8.3.8,1.1,0,1.9-3.9,11.9-8,22.2a9.83,9.83,0,0,0-.8,3.6c0,1.4.8,2.5,2.8,2.5,5.3,0,12.2-8,13.9-10.3v-.8l-1.4-1.4H606c-1.4,2.2-5.5,6.4-7.2,6.4-.6,0-.8-.3-.8-.6,0-1.7,5.3-14.7,6.7-18s2.5-6.4,2.5-7.8C607.38,326.1,606.78,325,604.28,325Zm-.3-14.9c0,3.3,2.2,3.9,3.6,3.9,2.8,0,4.7-2.8,4.7-5.5s-1.7-3.9-3.6-3.9C606.48,304.5,604,307.3,604,310.1Zm-28,33.2c2.2,3,3.6,6.1,3.6,9.4,0,2.5-1.4,4.4-3.6,4.4s-4.2-1.7-5.3-4.7c-.6-1.7-1.1-2.5-2.5-2.5-1.7,0-3,2.2-3,3.9a6,6,0,0,0,1.4,3.6,10,10,0,0,0,6.7,2.5c5.5,0,11.4-6.4,11.4-11.6,0-1.9-.8-4.2-2.5-6.9l-2.8-3.9c-1.9-3-2.5-3.9-2.5-5.8,0-1.7,1.1-4.4,3.3-4.4,1.7,0,2.8,1.4,3.3,3s.8,2.2,1.9,2.2a3.61,3.61,0,0,0,3.3-3.6c0-2.5-3.3-4.2-7.2-4.2-4.4,0-9.7,5.8-9.7,10,0,2.2.3,3.6,2.2,6.4Zm-26-2.7c1.1-4.2,5.5-13,9.4-13,1.7,0,1.7,1.7,1.7,2.8a8.21,8.21,0,0,1-1.7,5.3c-1.7,2.1-6.4,4.6-9.4,4.9Zm-.9,2.5c6.7-1.4,12.8-4.2,15-6.1a8.4,8.4,0,0,0,2.2-5.5c0-4.7-2.8-6.4-5.5-6.4-3.9,0-7.2,2.2-10.3,5.3-4.2,4.2-8.3,13.3-8.3,20.5,0,3.9,1.4,9.2,7.8,9.2,7.2,0,10.8-6.7,12.5-10.3v-.4l-1.4-.8h-.3c-1.7,3.3-4.2,7.8-8.6,7.8-3.6,0-4.2-3-4.2-5.8A30.55,30.55,0,0,1,549.08,343.1Zm-16.3-38.9h0v1.7c4.7,0,6.1.3,6.1,2.2,0,1.4-2.2,6.4-6.9,19.7h-.3a3.45,3.45,0,0,0-3.6-2.8c-3.6,0-9.7,4.2-14.4,11.6-4.2,6.4-6.4,12.2-6.4,16.6,0,2.8.8,6.4,5.3,6.4,5.3,0,11.1-7.8,13.6-12.2l.3.3a40.1,40.1,0,0,0-2.5,9.4c0,1.7,1.4,2.5,3,2.5,2.8,0,8.9-5.3,12.5-11.6v-.3l-1.4-1.4h-.3c-1.9,3.3-6.4,7.8-7.2,7.8-.6,0-.6-.3-.6-.8,0-2.2,3-12.5,8-26.1,5.5-14.7,7.2-19.4,9.7-23.3a1.26,1.26,0,0,0-1.1-1.7C543,302.6,536.88,303.4,532.78,304.2Zm-18.9,46.9c0-2.8,1.9-9.7,5.3-15.3,3.3-5.3,6.4-8,8.6-8s2.8,1.7,2.8,4.2c0,5.5-10.5,23.3-15,23.3C514.18,355,513.88,352.8,513.88,351.1Z"/><path class="cls-1" d="M688.58,355.5c0-3.6-1.9-5.8-4.7-5.8a4.68,4.68,0,0,0-4.7,4.7,3.54,3.54,0,0,0,3.6,3.9c.8,0,1.1.3,1.1,1.4,0,3.6-4.2,8.3-10,9.7v.6l1.1,1.4C682.18,370.2,688.58,363.3,688.58,355.5Z"/><path class="cls-1" d="M913.78,380.5c3.3,0,6.1-1.4,8.9-3.9,3.3-2.8,9.2-10.3,12.5-15.5,4.4-5.8,13.3-21.9,13.3-31.6,0-2.8-.8-5-3.3-5a4.79,4.79,0,0,0-4.4,4.7,5.46,5.46,0,0,0,1.7,3.6c.8.8.8,1.7.8,3,0,4.7-3.9,14.1-7.8,20.8a35.7,35.7,0,0,0,.3-5.5c0-6.7-.6-18.3-3.3-23.3a5,5,0,0,0-4.2-2.8c-3.6,0-7.8,5.3-9.2,8.3v.3l1.7,1.1h.3c.8-1.9,2.5-4.7,3.9-4.7.8,0,1.7.3,2.2,1.9,2.2,4.2,3.3,15.3,3.3,21.4a48,48,0,0,1-.6,9.4c-1.4,3-6.9,9.7-10,11.6-1.4.8-2.2,1.4-3.6,1.4a1.74,1.74,0,0,1-1.7-1.9c0-1.9-.6-3.6-2.8-3.6a5,5,0,0,0-5,5C907.08,378.8,909.88,380.5,913.78,380.5Zm-7-26.9c0-1.4,1.4-6.4,4.2-13.3,4.7-13,11.9-32.2,13.6-35.8.3-.8-.8-2.2-1.4-1.9-2.8.3-8.6,1.1-13,1.9v.3l.3,1.4c4.4,0,5.8.3,5.8,2.2,0,2.2-4.2,11.6-15.8,45.5a8.56,8.56,0,0,0-.8,3.3c0,1.1,1.7,2.5,3.3,2.5,4.7,0,11.4-7.2,14.4-10.8h0l-.8-1.7h-.3c-1.9,2.8-7.2,7.2-8,7.2C907.08,354.4,906.78,354.2,906.78,353.6Zm-6.3-17.7c1.1-.8,2.5-5,2.5-7.2,0-1.7-.3-3.6-2.2-3.6-4.7,0-10.3,8.6-13.3,14.4l-.3-.3c1.7-5,3.3-10.3,3.3-11.6,0-1.7-.8-2.5-1.9-2.5-2.8,0-7.2,1.7-13,7.8v.3l1.1,1.7h.3c1.9-1.9,4.7-4.2,6.1-4.2.8,0,1.1.8,1.1,1.7,0,1.7-2.5,11.1-8.3,26.9l.6.8,5.3-1.1.6-.8a80.94,80.94,0,0,1,4.7-14.4c4.7-7.8,8.3-11.9,10.3-11.9,1.4,0,2.2,1.4,2.5,3.9l.6.1Zm-43.3,4.7c1.1-4.2,5.5-13,9.4-13,1.7,0,1.7,1.7,1.7,2.8a8.21,8.21,0,0,1-1.7,5.3c-1.6,2.1-6.3,4.6-9.4,4.9Zm-.8,2.5c6.7-1.4,12.8-4.2,15-6.1a8.4,8.4,0,0,0,2.2-5.5c0-4.7-2.8-6.4-5.5-6.4-3.9,0-7.2,2.2-10.3,5.3-4.2,4.2-8.3,13.3-8.3,20.5,0,3.9,1.4,9.2,7.8,9.2,7.2,0,10.8-6.7,12.5-10.3v-.4l-1.4-.8h-.3c-1.7,3.3-4.2,7.8-8.6,7.8-3.6,0-4.2-3-4.2-5.8A26.42,26.42,0,0,1,856.38,343.1Zm-16.4-25c-.6,2.5-1.7,6.4-2.8,9.7l-5.5.3-.3.3-.6,2.5.3.3,5.3-.3v.3c-1.4,4.2-4.2,12.5-7.2,21.9a10.94,10.94,0,0,0-.8,4.4,3.3,3.3,0,0,0,3,2.8c4.7,0,11.9-7.2,15-10.8v-.6l-1.4-1.7h-.3c-1.9,2.8-6.9,7.2-8.3,7.2a1,1,0,0,1-1.1-1.1c0-2.2,3-11.6,7.2-23.3l8-.3.3-.3.8-2.5-.3-.3-7.8.6-.3-.3c1.1-3.3,3-8,4.4-11.4l-.8-.6C845.58,316.2,842.48,317.3,840,318.1Zm-13,17.8c1.1-.8,2.5-5,2.5-7.2,0-1.7-.3-3.6-2.2-3.6-4.7,0-10.3,8.6-13.3,14.4l-.3-.3c1.7-5,3.3-10.3,3.3-11.6,0-1.7-.8-2.5-1.9-2.5-2.8,0-7.2,1.7-13,7.8v.3l1.1,1.7h.3c1.9-1.9,4.7-4.2,6.1-4.2.8,0,1.1.8,1.1,1.7,0,1.7-2.5,11.1-8.3,26.9l.6.8,5.3-1.1.6-.8a80.94,80.94,0,0,1,4.7-14.4c4.7-7.8,8.3-11.9,10.3-11.9,1.4,0,2.2,1.4,2.5,3.9l.6.1Zm-34.4-8.6a5.15,5.15,0,0,0-4.2-2.2c-4.4,0-10.3,4.2-15.3,11.4-4.2,6.4-6.4,12.5-6.4,16.4,0,3,.8,6.7,5.3,6.7,5.3,0,11.1-8,13.6-12.2l.3.3a36.73,36.73,0,0,0-2.5,9.4c0,1.7,1.1,2.5,2.8,2.5,2.8,0,9.2-5,12.8-11.6v-.3l-1.4-1.4h-.3c-1.9,3.3-6.1,7.8-7.2,7.8-.6,0-.6-.3-.6-.8,0-2.2,3.3-12.5,8.6-26.1-.3-.8-2.2-1.7-3.3-1.7l-1.7,1.7h-.6l.1.1Zm-19.1,23.8c0-2.8,1.7-9.7,5.3-15.3,3.3-5.3,7.2-8.3,9.2-8.3a2.68,2.68,0,0,1,2.8,3c0,6.4-11.1,24.4-15.3,24.4C773.68,355,773.48,353,773.48,351.1Zm-18.3,2.2c0-1.9,3-11.6,9.4-27.7l-.6-.6-5.3,1.1-.8.8c-5,18.3-15.3,27.2-18,27.2-.6,0-.8-.3-.8-1.1,0-2.5,5.8-16.4,8.3-22.2a17.33,17.33,0,0,0,.8-3.3c0-1.7-.8-2.5-1.9-2.5-4.7,0-10,3.9-13.3,7.8v.3l.8,1.4h.3c1.7-2.2,4.4-4.2,5.8-4.2.6,0,.8.3.8,1.4,0,1.4-4.7,12.8-6.4,17.5-1.4,3.6-1.9,5.8-1.9,7.2a2.77,2.77,0,0,0,2.8,3c6.1,0,13-8.3,16.1-13.3l.3.3c-1.9,4.7-3.3,9.4-3.3,10.8,0,1.7,1.4,2.2,2.8,2.2,4.7,0,11.4-6.4,13.9-9.7v-.8l-1.1-1.4h-.3c-1.4,2.2-6.4,6.7-8,6.7C755.18,354.2,754.88,353.9,755.18,353.3Zm-39.4-.3c-2.5,7.2-6.1,21.1-8,23-1.1,1.1-3.9,1.7-5.5,1.7l-.3.3.3,1.7.3.3a92.1,92.1,0,0,1,12.2-.8c1.7,0,5.8.3,7.8.3l.3-.3.3-1.7-.3-.3c-5,0-6.7-.6-6.7-2.5,0-1.1.3-3.3,3.6-15.3,2.8-9.7,7.8-25.8,11.1-33.3l-1.4-1.1a17.47,17.47,0,0,0-4.4,2.8c-.3-1.4-2.5-2.8-5.3-2.8-9.4,0-19.7,14.1-19.7,26.3,0,5.3,3,8,6.1,8,3.3,0,7.2-3,9.7-6.7l-.1.4Zm-10-1.9c0-9.2,8-23.6,13.3-23.6,2.2,0,2.8,2.5,2.8,5.8,0,5.5-8,22.2-13.3,22.2C706.38,355.5,705.78,354.2,705.78,351.1Z"/></svg>