<svg id="Layer_1" data-name="Layer 1" xmlns="http://www.w3.org/2000/svg" viewBox="0 0 722 870"><defs><style>.cls-1{fill:#c4c4c4;stroke:#a1d324;stroke-miterlimit:10;stroke-width:2px;}</style></defs><title>darden-studio</title><path class="cls-1" d="M705.6,840.7c0,.5-4.4,6.4-4.9,6.4H688.4c-.5,0-4.9-5.9-4.9-6.4V809.8c0-.5,4.4-6.4,4.9-6.4h12.3c.5,0,4.9,5.9,4.9,6.4Zm-2.9-43.2H686.5a2.6,2.6,0,0,0-2,1c-2.5,2.9-7.8,9.3-7.8,9.8v34.3c0,.5,4.9,6.9,7.8,9.8a3.79,3.79,0,0,0,2,1h15.2a2.6,2.6,0,0,0,2-1c2.5-2.9,7.8-9.3,7.8-9.8V808.3c0-.5-6.4-8.8-8.8-10.8m-56.4,56h0a2.77,2.77,0,0,0,2.9-2.9v-50a3.12,3.12,0,0,0-2.9-2.9h0a3.12,3.12,0,0,0-2.9,2.9v50A3,3,0,0,0,646.3,853.5Zm-61.8,0h21.6a2.6,2.6,0,0,0,2-1c2.5-2.9,7.8-9.3,7.8-9.8V808.3c0-.5-4.9-6.9-7.8-9.8a3.79,3.79,0,0,0-2-1H584.5a3.12,3.12,0,0,0-2.9,2.9v50A3.08,3.08,0,0,0,584.5,853.5Zm3.4-8.9V806.3a3.12,3.12,0,0,1,2.9-2.9H605c.5,0,4.9,5.9,4.9,6.4v30.9c0,.5-4.4,6.4-4.9,6.4H590.8C588.9,847.6,587.9,846.1,587.9,844.6Zm-36.8-47.1h0a2.77,2.77,0,0,0-2.9,2.9v40.2c0,.5-5.4,6.4-5.9,6.4H530.5c-.5,0-5.9-5.9-5.9-6.4V800.4a3.12,3.12,0,0,0-2.9-2.9h0a3.12,3.12,0,0,0-2.9,2.9v42.2c0,.5,5.9,7.4,8.8,9.8a3.79,3.79,0,0,0,2,1h14.2a2.6,2.6,0,0,0,2-1c2.9-2.9,8.8-9.8,8.8-9.8V800.4C554,799,552.6,797.5,551.1,797.5ZM477,806.4v44.1a3.12,3.12,0,0,0,2.9,2.9h0a3.12,3.12,0,0,0,2.9-2.9V806.4a3.12,3.12,0,0,1,2.9-2.9h8.8a3.12,3.12,0,0,0,2.9-2.9h0a3.12,3.12,0,0,0-2.9-2.9H465.1a3.12,3.12,0,0,0-2.9,2.9h0a3.12,3.12,0,0,0,2.9,2.9h8.8A2.78,2.78,0,0,1,477,806.4Zm-37.7,29.4v4.9c0,.5-4.4,6.9-4.9,6.9H422.1c-.5,0-6.4-5.9-6.4-6.9v-3.9a3.12,3.12,0,0,0-2.9-2.9h0a3.12,3.12,0,0,0-2.9,2.9v5.9c0,.5,6.4,6.9,9.8,9.8.5.5,1,.5,2,.5h14.2a2.6,2.6,0,0,0,2-1c2.5-2.9,7.8-9.3,7.8-9.8V830.9c0-1-.5-1.5-8.3-5.4l-13.7-6.9c-6.4-3.4-6.9-3.4-6.9-4.4v-4.4c0-.5,4.4-6.9,4.9-6.9H433c.5,0,6.9,5.9,6.9,6.9v5.4h2.9a3.12,3.12,0,0,0,2.9-2.9v-4c0-.5-6.9-7.4-9.8-9.8-.5-.5-1-.5-2-.5H420.7a2.6,2.6,0,0,0-2,1c-2.5,2.9-7.8,9.3-7.8,9.8v10.3c0,1,.5,1.5,8.8,5.4l14.2,6.9c4.9,2.4,5.4,2.4,5.4,4.4m-99.6,17.7h6.9V797.6h-5.9v45.1l-22.1-45.1h-8.3v55.9h5.9V805.4Zm-80-29.5H271v-5.9H259.7V802.9h23.1v-5.4H253.9v55.9h32.4v-5.9h-26V824Zm-68.2,29.5H217c2-2,8.8-10.3,8.8-10.8V808.3c0-.5-6.4-8.8-8.8-10.8H191.5Zm5.9-5.9V803.5h17.2c.5,0,4.9,5.9,4.9,6.4v30.9c0,.5-4.4,6.4-4.9,6.4H197.4Zm-60.3-44.2h14.2c1,0,3.9,3.9,3.9,4.4v6.9c0,.5-4.4,6.4-4.9,6.4H136.6V803.4Zm24.5,13.3V805.9c0-.5-4.9-6.9-7.8-8.8H130.7V853h5.9V826h12.8c.5,0,10.3,15.7,10.3,16.7l.5,10.3h6.4l-1-12.3c0-.5-8.3-12.8-10.8-16.7,3.4-2.9,6.8-6.8,6.8-7.3M87,806.9l8.3,24.5H79.1ZM65.5,853.5h5.9l5.4-16.7H96.9l5.4,16.7h5.9l-18.7-56H84.6Zm-54,0H37c2-2,8.8-10.3,8.8-10.8V808.3c0-.5-6.4-8.8-8.8-10.8H11.5Zm5.9-5.9V803.5H34.6c.5,0,4.9,5.9,4.9,6.4v30.9c0,.5-4.4,6.4-4.9,6.4H17.4Z"/><path class="cls-1" d="M622,129.4,369.3,16.6a21.29,21.29,0,0,0-15.7,0L101,129.4a14.41,14.41,0,0,0-7.8,12.3V623.9a14.41,14.41,0,0,0,7.8,12.3L353.6,749a21.29,21.29,0,0,0,15.7,0L621.9,636.2a14.41,14.41,0,0,0,7.8-12.3V141.7A14.12,14.12,0,0,0,622,129.4ZM608,613.8a6,6,0,0,1-4,5.7l-239.3,107a7,7,0,0,1-3,.6,10.23,10.23,0,0,1-3.2-.5l-.2-.1L119,619.6a6.15,6.15,0,0,1-4-5.7V151.3a6,6,0,0,1,4-5.7L358.3,39.2c1.7-.9,4.5-.7,6.2-.1l.2.1L604,145.6a6.15,6.15,0,0,1,4,5.7Z"/><path class="cls-1" d="M602.3,150.2l-.2-.1L362.8,43.7a5.44,5.44,0,0,0-2.5-.1L120.8,150.1h-.1a1.21,1.21,0,0,0-.8,1.1V613.8a1.27,1.27,0,0,0,.8,1.1l.2.1L360.2,721.9a5,5,0,0,0,2.4.1L602.2,615h.1a1.27,1.27,0,0,0,.8-1.1V151.3A1.21,1.21,0,0,0,602.3,150.2ZM557,399.7C535.4,486,455,516.4,406.9,516.4c-41.2,0-73-15.1-99.8-31.4-22.7,20.9-49.3,29-77.8,29-47.6,0-69.7-17.7-69.7-42.2,0-27,25.5-35.8,52.5-35.8,27.4,0,52.2,15,78,31.3,13.3-25.9,22.6-59.5,30.4-88.7,20.6-76,42.7-120.7,113.3-138.3l2,3.4C389.2,254,380.4,304,361.7,379.1c-12.1,47.9-29.4,80.4-50.1,101.5,24.2,14.5,50,27,80.1,27,51.5,0,101.5-29.4,123.6-129.5,21.6-95.7-30.9-169.2-140.8-169.2-33.8,0-132.9,10.3-132.9,71.1,0,20.1,12.3,37.3,35.8,37.3,16.2,0,33.8-17.7,18.6-37.3l2-1.5c22.6,18.6,1.5,68.2-42.7,68.2-30.4,0-50-21.6-50-48.1,0-66.2,93.2-95.7,172.2-95.7C493.7,203,586.4,283,557,399.7Z"/><path class="cls-1" d="M195,474.3c0,17.7,12.8,35.3,44.1,35.3,20.4,0,36-15.2,48.2-37.1-22.3-14.6-41.2-27.1-60-27.1C207.7,445.3,195,459.1,195,474.3Z"/></svg>