<svg id="Layer_1" data-name="Layer 1" xmlns="http://www.w3.org/2000/svg" viewBox="0 0 969.09 278.9"><defs><style>.cls-1{fill:#c4c4c4;stroke:#a1d324;stroke-miterlimit:10;}</style></defs><title>dissection</title><path class="cls-1" d="M73.39,58.8l-.2-20.2c-.2-12.1-2.5-16.9-17.8-13.3L55,24l51.5-13.9V129.5c0,12.1,1.1,18.9,15.7,16l.2,1.3c-14.8,4.5-25.2,6.8-32.6,6.8-13.3,0-16.6-7-16-19.6-8.3,12.8-17.3,19.6-29.2,19.6-19.1,0-35.7-17.3-35.7-42.9,0-28.6,20.5-54.2,51.9-54.2A42.08,42.08,0,0,1,73.39,58.8Zm-.2,19.6c0-14.6-.7-20.4-11.2-20.4-12.6,0-17.8,14-17.8,47.4,0,8.8,0,39.3,14.4,39.3,6.1,0,10.1-5.6,14.6-12.4Zm49.9,74v-1.3c14,0,15.7-3.6,15.7-22.9V85c0-12.1-2.5-16.9-17.8-13.3l-.4-1.3,51.5-13.9v71.7c0,19.3,1.6,22.9,15.7,22.9v1.3Zm51.7-123a19.5,19.5,0,1,1-19.5-19.3A19.48,19.48,0,0,1,174.79,29.4ZM195,115h1.3c4.1,30.4,30.4,37.3,43,37.3,11.5,0,19.8-5.6,19.8-12.6,0-19.6-64.1-17.5-64.1-53,0-22.2,25.2-30.1,43.9-30.1a76,76,0,0,1,22.2,3.4L273,56.8l1.8,31.7h-1.3c-2.2-21.8-22.2-30.4-35.3-30.4-10.4,0-17.5,5.6-17.5,12.4,0,20.5,62.9,15.1,62.9,50.6,0,19.5-19.1,32.6-44.3,32.6a129.91,129.91,0,0,1-29-3.8L197,153.3Zm99.4,0h1.3c4.1,30.4,30.4,37.3,43,37.3,11.5,0,19.8-5.6,19.8-12.6,0-19.6-64.1-17.5-64.1-53,0-22.2,25.2-30.1,43.9-30.1a76,76,0,0,1,22.2,3.4l11.9-3.2,1.8,31.7h-1.3c-2.2-21.8-22.2-30.4-35.3-30.4-10.4,0-17.5,5.6-17.5,12.4,0,20.5,62.9,15.1,62.9,50.6,0,19.5-19.1,32.6-44.3,32.6a129.91,129.91,0,0,1-29-3.8l-13.3,3.4Zm131.5-20.2c0,18.9,9.9,37.5,33.3,37.5,14.2,0,24-6.8,30.3-17.3l1.1.5c-8.5,21.4-24.7,38.2-50.4,38.2-29.4,0-48.1-20.2-48.1-49s24.9-48.1,54.2-48.1c29.7,0,46.1,15.3,40.3,38.2Zm0-1.8h28.8c2.9-11.2,3.1-34.9-11.3-34.9C430.49,58.1,426,80.4,425.89,93Zm125-36.4c16,0,39.8,5.4,39.8,25,0,11.5-8.3,16.8-16.9,16.8-8.1,0-15.5-4.9-16-15.1,4-1.8,6.3-6.1,6.3-11a14,14,0,0,0-14-14.2c-15.1,0-19.5,21.4-19.5,34.4,0,25.4,16.6,39.1,34.4,39.1,9,0,20.5-3.4,27-13.3l1.1.5c-8.8,19.3-24.3,34.9-49,34.9-25.8,0-46.3-18.4-46.3-47C497.69,77.2,519.69,56.6,550.89,56.6Zm45.7,1.3h3.8c14.8,0,25.4-3.1,33-9.4,5.4-6.8,8.5-16,8.5-26.7h1.8v36h19.8v1.8h-19.8v62.5c0,7,.2,19.6,10.1,19.6,4.9,0,9-2.5,13.1-5.6l.7.9c-9.9,8.5-22.3,16.6-37.8,16.6-12.4,0-19.5-11.3-19.5-25.4V59.6h-13.7V57.9Zm69.9,94.5v-1.3c14,0,15.7-3.6,15.7-22.9V85c0-12.1-2.5-16.9-17.8-13.3l-.4-1.3,51.5-13.9v71.7c0,19.3,1.6,22.9,15.7,22.9v1.3Zm51.7-123a19.5,19.5,0,1,1-19.5-19.3A19.48,19.48,0,0,1,718.19,29.4Zm119.4,75.8c0,27.9-22.9,48.5-52.4,48.5S733,133.2,733,105.2s22.9-48.6,52.2-48.6C814.69,56.6,837.59,77.2,837.59,105.2Zm-36.6,0c0-20.5,0-47.2-15.8-47.2s-15.7,26.7-15.7,47.2c0,21.1,0,47,15.7,47S801,126.3,801,105.2Zm109.2,47.2v-1.3c9.5,0,9.7-4.9,9.7-19.3V87.7c0-7.4-.9-17.1-11.3-17.1-4.3,0-10.4,2.3-15.8,7v54.3c0,11.3.2,19.3,9.9,19.3v1.3h-58.9v-1.3c14,0,15.7-3.6,15.7-22.9V85.1c0-12.1-2.5-16.9-17.8-13.3l-.4-1.3,51.9-13.9-.5,19.5c17.8-14.6,28.8-19.5,39.8-19.5,14.6,0,20.9,8.1,20.9,26.5v45.2c0,19.3,1.6,22.9,15.7,22.9v1.3l-58.9-.1Zm-711,58.8c4.2,0,7.5,1.1,9.8,3.2a11.3,11.3,0,0,1,3.5,8.6,11.15,11.15,0,0,1-3.5,8.6c-2.3,2.1-5.6,3.2-9.8,3.2H190v14l4.5.4v2.4h-12.3v-2.4l4.5-.4V214.1l-4.5-.4v-2.5h17ZM190,231.9h9.2c3.3,0,5.8-.8,7.5-2.5a9.44,9.44,0,0,0,0-12.8c-1.7-1.7-4.2-2.6-7.5-2.6H190v17.9Zm35.4-10.4.4,5v.4a10.73,10.73,0,0,1,3.5-4.3,9.15,9.15,0,0,1,5.2-1.6,4.87,4.87,0,0,1,1.2.1c.4.1.7.1,1,.2l-.4,3.1-2.5-.2a7.22,7.22,0,0,0-5.1,1.8,10.52,10.52,0,0,0-2.9,4.8v17.9l4.5.4v2.4H218v-2.4l4.5-.4V224.3l-4.5-.4v-2.5h4.5l2.9.1Zm15.1,14.6a16.46,16.46,0,0,1,3.6-10.9,13.07,13.07,0,0,1,19.2,0,16.28,16.28,0,0,1,3.6,10.9v.9a16.28,16.28,0,0,1-3.6,10.9,12,12,0,0,1-9.6,4.2,12.21,12.21,0,0,1-9.7-4.2c-2.4-2.8-3.6-6.4-3.6-10.9l.1-.9Zm3.4.9a14.79,14.79,0,0,0,2.6,8.8,8.52,8.52,0,0,0,7.3,3.5,8.78,8.78,0,0,0,7.3-3.5,14.13,14.13,0,0,0,2.6-8.8v-.9a14.69,14.69,0,0,0-2.6-8.7,9.2,9.2,0,0,0-14.6,0,14,14,0,0,0-2.6,8.7v.9Zm49.4,10.2a9.62,9.62,0,0,1-3.9,3.6,10.92,10.92,0,0,1-5.5,1.3,9.81,9.81,0,0,1-8.4-4c-2-2.7-3-6.3-3-10.7v-.6c0-4.8,1-8.6,3-11.5A9.64,9.64,0,0,1,284,221a10.29,10.29,0,0,1,5.4,1.3,10.64,10.64,0,0,1,3.8,3.8V211.2l-4.5-.4v-2.5h7.8v40.5l4.5.4v2.4h-7.5Zm-17.5-9.8c0,3.6.7,6.5,2.2,8.7a7.51,7.51,0,0,0,6.6,3.2,9.71,9.71,0,0,0,5.3-1.4,10,10,0,0,0,3.3-4V229.7a10.27,10.27,0,0,0-3.2-4.2,8.46,8.46,0,0,0-5.4-1.6,7.3,7.3,0,0,0-6.6,3.6,17.31,17.31,0,0,0-2.2,9.3v.6Zm52.4,9.2a9.65,9.65,0,0,1-3.9,4.1,10.85,10.85,0,0,1-5.8,1.4,9.18,9.18,0,0,1-7.4-3.2c-1.8-2.1-2.7-5.5-2.7-10V224.3l-3.7-.4v-2.5h7v17.4c0,3.7.6,6.3,1.9,7.9a6.25,6.25,0,0,0,5.3,2.4,9.93,9.93,0,0,0,6-1.7,8.44,8.44,0,0,0,3.1-4.6V224.2l-4.3-.4v-2.5h7.6v27.2l4,.4v2.4h-6.9Zm24.9,2.7a9.19,9.19,0,0,0,5.8-1.9,6.13,6.13,0,0,0,2.5-5.2h2.9l.1.2a8.29,8.29,0,0,1-3.3,7,12.21,12.21,0,0,1-8,2.8,11.54,11.54,0,0,1-9.5-4.2,17,17,0,0,1-3.4-10.8V236a16.62,16.62,0,0,1,3.4-10.8c2.2-2.8,5.4-4.2,9.4-4.2a14.51,14.51,0,0,1,6.3,1.3,14.11,14.11,0,0,1,4.7,3.5l.1,6.5h-2.8l-.5-5.3a10,10,0,0,0-3.3-2.4,10.63,10.63,0,0,0-4.5-.9,7.93,7.93,0,0,0-7.1,3.5,15.63,15.63,0,0,0-2.3,8.7v1.2a16,16,0,0,0,2.3,8.8C347.49,248.2,349.89,249.3,353.09,249.3Zm30.8,2.8a12.27,12.27,0,0,1-9.4-4.1,15.15,15.15,0,0,1-3.7-10.5v-1.6a15.66,15.66,0,0,1,3.7-10.7,11.46,11.46,0,0,1,8.9-4.2,11.22,11.22,0,0,1,8.7,3.5,13.29,13.29,0,0,1,3.2,9.3v2.8h-21.2v.8a13.3,13.3,0,0,0,2.7,8.5,8.58,8.58,0,0,0,7.1,3.4,14,14,0,0,0,5.3-.9,9.7,9.7,0,0,0,3.7-2.5l1.4,2.3A11.89,11.89,0,0,1,390,251,14.16,14.16,0,0,1,383.89,252.1Zm-.5-28.3a8,8,0,0,0-6.2,2.8,12,12,0,0,0-2.9,7.1l.1.1H392V233a9.55,9.55,0,0,0-2.3-6.5A7.75,7.75,0,0,0,383.39,223.8Zm38.7,23.4a9.62,9.62,0,0,1-3.9,3.6,10.92,10.92,0,0,1-5.5,1.3,9.81,9.81,0,0,1-8.4-4c-2-2.7-3-6.3-3-10.7v-.6c0-4.8,1-8.6,3-11.5a9.64,9.64,0,0,1,8.5-4.3,10.29,10.29,0,0,1,5.4,1.3,10.64,10.64,0,0,1,3.8,3.8V211.2l-4.5-.4v-2.5h7.8v40.5l4.5.4v2.4h-7.5Zm-17.5-9.8c0,3.6.7,6.5,2.2,8.7a7.51,7.51,0,0,0,6.6,3.2,9.71,9.71,0,0,0,5.3-1.4,10,10,0,0,0,3.3-4V229.7a10.27,10.27,0,0,0-3.2-4.2,8.46,8.46,0,0,0-5.4-1.6,7.3,7.3,0,0,0-6.6,3.6,17.31,17.31,0,0,0-2.2,9.3v.6Zm59.7-26.2c4.2,0,7.5.9,9.8,2.6s3.5,4.4,3.5,8a8.38,8.38,0,0,1-1.8,5.4,9.52,9.52,0,0,1-4.8,3.2,9.27,9.27,0,0,1,6,3.5,10.12,10.12,0,0,1,2.3,6.5c0,3.6-1.2,6.4-3.5,8.3s-5.5,2.9-9.4,2.9h-18.5v-2.4l4.5-.4V214.1l-4.5-.4v-2.5h16.4Zm-8.5,18.1h9.3c2.9,0,5.2-.6,6.8-1.9a7.87,7.87,0,0,0-.2-11.5c-1.7-1.3-4.2-1.9-7.4-1.9h-8.5v15.3Zm0,2.8v16.7h10.6c3,0,5.3-.7,7-2.2a7.78,7.78,0,0,0,2.6-6.2,8.47,8.47,0,0,0-2.3-6c-1.5-1.6-3.8-2.3-6.7-2.3h-11.2Zm58.4-8.1-3,.2-12.1,32.1a18.68,18.68,0,0,1-3,5.2,6.72,6.72,0,0,1-5.4,2.1,7.08,7.08,0,0,1-1.4-.1,5,5,0,0,1-1.2-.3l.4-2.8c.2,0,.6.1,1.1.1s.8.1,1,.1a4.4,4.4,0,0,0,3.5-1.5,11.62,11.62,0,0,0,2.2-4l1.6-4-10.6-26.9-3-.2v-2.5h10.3V224l-3.6.3,7.3,19.1,1.1,3.6h.2l8.2-22.7-3.7-.3v-2.5h10.4V224h-.3ZM559,211.2v2.5l-4.5.4v26.1a11.84,11.84,0,0,1-3.3,8.8,11.45,11.45,0,0,1-8.5,3.3c-3.8,0-6.8-1-9-2.9s-3.3-4.8-3.2-8.6l.1-.2h3.1a9,9,0,0,0,2.3,6.6c1.5,1.5,3.8,2.3,6.7,2.3a7.92,7.92,0,0,0,6.1-2.5,9.32,9.32,0,0,0,2.4-6.7V214.2l-4.5-.4v-2.5h7.8l4.5-.1Zm4.1,37.9,4.5-.4V214l-4.5-.4v-2.5h12.3v2.5l-4.5.4v15.7h5.5L590,213.8l-3.9-.2v-2.5h11.3v2.5l-3.5.3L579.49,231l15.6,17.7,3.6.3v2.4h-11.5V249l3.8-.2-14.5-16.3H571v16.2l4.5.4v2.4h-12.3l-.1-2.4Zm69.4-37.9a16.28,16.28,0,0,1,12.2,4.9,17.43,17.43,0,0,1,4.8,12.7V234a17.43,17.43,0,0,1-4.8,12.7,16.28,16.28,0,0,1-12.2,4.9h-16.2v-2.4l4.5-.4V214.1l-4.5-.4v-2.5h16.2ZM624,214v34.7h8.4a12.92,12.92,0,0,0,9.9-4.2,14.92,14.92,0,0,0,3.9-10.6v-5.3a14.84,14.84,0,0,0-3.9-10.5,12.86,12.86,0,0,0-9.8-4.2l-8.5.1Zm45,38.1a12.27,12.27,0,0,1-9.4-4.1,15.15,15.15,0,0,1-3.7-10.5v-1.6a15.66,15.66,0,0,1,3.7-10.7,12,12,0,0,1,17.6-.7,13.29,13.29,0,0,1,3.2,9.3v2.8h-21.2v.8a13.3,13.3,0,0,0,2.7,8.5,8.58,8.58,0,0,0,7.1,3.4,14,14,0,0,0,5.3-.9,9.7,9.7,0,0,0,3.7-2.5l1.4,2.3a11.88,11.88,0,0,1-4.3,2.8A14.16,14.16,0,0,1,669,252.1Zm-.4-28.3a8,8,0,0,0-6.2,2.8,11.42,11.42,0,0,0-2.9,7.1l.1.1h17.6V233a9.55,9.55,0,0,0-2.3-6.5A8,8,0,0,0,668.59,223.8Zm39.5,7h-2.7l-.4-4.2a8.3,8.3,0,0,0-3.1-2,12,12,0,0,0-4.4-.7c-2.4,0-4.2.5-5.4,1.6a4.73,4.73,0,0,0-1.8,3.7,4.12,4.12,0,0,0,1.6,3.4q1.5,1.35,6.3,2.4a20,20,0,0,1,8,3.3,6.65,6.65,0,0,1,2.7,5.6,7.44,7.44,0,0,1-3,6.1,13.09,13.09,0,0,1-8,2.3,20,20,0,0,1-6.1-.9,14.27,14.27,0,0,1-4.7-2.6v-6h2.7l.5,4.3a7.55,7.55,0,0,0,3.4,1.9,15.4,15.4,0,0,0,4.3.6,9,9,0,0,0,5.7-1.6,4.68,4.68,0,0,0,2.1-3.8,5.12,5.12,0,0,0-1.7-3.7c-1.2-1.1-3.2-1.9-6.3-2.6-3.6-.8-6.2-1.8-7.9-3.1a6.46,6.46,0,0,1-2.6-5.4,7.34,7.34,0,0,1,2.9-5.8,11.63,11.63,0,0,1,7.7-2.4,16.43,16.43,0,0,1,6,1,12.66,12.66,0,0,1,4.4,2.7Zm6.4,18.3,4.5-.4V224.3l-4.5-.4v-2.5h7.8v27.2l4.5.4v2.4h-12.3Zm7.9-36.2h-3.3v-4.7h3.3Zm10.2,23.9c0-4.8,1-8.6,3.1-11.5a9.76,9.76,0,0,1,8.5-4.3,10.39,10.39,0,0,1,9.4,5.4l.4-4.8h2.8v29.6c0,3.9-1,6.9-3.1,9.1a11.51,11.51,0,0,1-8.7,3.4,25.81,25.81,0,0,1-4.6-.5,21.71,21.71,0,0,1-4.3-1.4l.9-2.8a17.06,17.06,0,0,0,3.8,1.3,18.59,18.59,0,0,0,4.2.5c2.8,0,5-.8,6.4-2.5a10.66,10.66,0,0,0,2.2-7v-3.8a10.1,10.1,0,0,1-3.9,3.5,12,12,0,0,1-5.5,1.2,10.12,10.12,0,0,1-8.5-4c-2-2.7-3-6.3-3-10.7l-.1-.7Zm3.3.6c0,3.6.7,6.5,2.2,8.6a7.4,7.4,0,0,0,6.6,3.2,9.07,9.07,0,0,0,5.4-1.5,10,10,0,0,0,3.3-4V229.8a10,10,0,0,0-3.2-4.3,8.57,8.57,0,0,0-5.5-1.6,7.3,7.3,0,0,0-6.6,3.6,17.31,17.31,0,0,0-2.2,9.3v.6Zm27.8,11.7,4.5-.4V224.3l-4.5-.4v-2.5h7.5l.3,5.2a11.62,11.62,0,0,1,3.9-4.3,10.89,10.89,0,0,1,5.8-1.5c3.3,0,5.7,1,7.4,3s2.6,5.1,2.6,9.3v15.5l4.5.4v2.4h-12.4V249l4.5-.4V233.2c0-3.4-.6-5.9-1.9-7.3a7.09,7.09,0,0,0-5.5-2.1,8.84,8.84,0,0,0-5.7,1.8,10.51,10.51,0,0,0-3.2,4.9v18.1l4.5.4v2.4h-12.4l.1-2.3Z"/></svg>