<svg id="Layer_1" data-name="Layer 1" xmlns="http://www.w3.org/2000/svg" viewBox="0 0 622.47 616.47"><defs><style>.cls-1,.cls-2{fill:#c4c4c4;stroke:#a1d324;stroke-miterlimit:10;stroke-width:2px;}.cls-1{opacity:0.6;isolation:isolate;}</style></defs><title>djr</title><path class="cls-1" d="M10.39,608.39v-98.2H234v98.2H10.39Z"/><path class="cls-1" d="M386.79,106.59V8.39h223.6v98.2H386.79Z"/><path class="cls-1" d="M386.79,608.39v-98.2h223.6v98.2H386.79Z"/><path class="cls-1" d="M10.39,106.59V8.39h98.2v98.2H10.39Z"/><path class="cls-1" d="M512.19,482.89v-98.2h98.2v98.2h-98.2Z"/><path class="cls-2" d="M10.39,482.89v-349h98.2V483h0l-98.2-.1Z"/><path class="cls-2" d="M135.89,482.89V8.39h98.2v474.5h-98.2Z"/><path class="cls-2" d="M261.29,608.39V133.89h98.2v474.5h-98.2Z"/><path class="cls-2" d="M261.29,106.59V8.39h98.2v98.2h-98.2Z"/><path class="cls-2" d="M386.79,482.89v-349H485V483h0l-98.2-.1Z"/><path class="cls-2" d="M512.19,357.49V133.89h98.2v223.6h-98.2Z"/></svg>