<svg id="Layer_1" data-name="Layer 1" xmlns="http://www.w3.org/2000/svg" viewBox="0 0 745.46 601.47"><defs><style>.cls-1{fill:#c4c4c4;stroke:#a1d324;stroke-miterlimit:10;stroke-width:2px;}</style></defs><title>downer</title><path class="cls-1" d="M646.49,379.89s-11-19.5-15.6-29.2c-5.8-9.7-10.4-21.4-13-26.6a10.12,10.12,0,0,0-2.6-1.9l-1.3,1.3,1.3,14.9v8.4l.6,9.1.7,26v10.4l-.7,7.1a8.27,8.27,0,0,1-3.9,5.2l-5.2,3.2c-3.9,1.3-8.4,4-14.3,5.2-9.7,2-16.2,3.2-24,3.2a15.59,15.59,0,0,1-3.9-.6c-2-.5-2-1.3-3.2-2.6-1.3-1.9-1.3-5.2-1.3-7.1,0-5.2,1.9-16.2,1.9-26l.7-11,.7-42.2-.7-68.2-.7-15.6-.6-7.8c0-3.9,1.3-9.7,3.9-11.7,1.3-.6,3.9-2.6,5.8-2.6a103.57,103.57,0,0,1,21.4-6.5c8.4-1.4,23.4-3.2,33.1-3.2,2.6,0,4.5,1.3,6.5,1.9,2,0,4.5,4.5,4.5,4.5l5.2,12.3,1.3,4.5,1.3,2.6,4.5,11s6.5,16.2,11,26c5.2,10.4,10.4,22.7,13,27.9a10.13,10.13,0,0,1,2,3.2l.6-1.9c-.6-12.3-2-48.1-3.2-63l-1.3-9.7v-3.2s-.1-3.3.6-4.5a9.35,9.35,0,0,1,5.8-3.9c3.9-2.6,11-4,16.9-5.2,9.7-2,14.9-2.6,22.7-2.6a15.59,15.59,0,0,1,3.9.6c2,.5,2.6,1.3,3.9,2.6a10.91,10.91,0,0,1,2,6.5c0,7.1-2,26.6-2,26.6l-.6,12.3-.7,45.5v61.8l.7,15.6.6,12.3c0,3.9-.6,4.5-2.6,7.1-1.3.7-4.5,3.9-6.5,3.9-4.5,1.9-12.4,5.7-19.5,7.8-8.5,2.5-13,3.9-19.5,3.9l-3.9.6h-2.6c-1.3-1.3-3.2-2-3.2-3.9l-3.9-4.5-6.5-11-2.6-4.5-1.3-2.6Zm-122.1-167.6a21.82,21.82,0,0,1-3.9-1.3,142.36,142.36,0,0,0-24,2.6c-3.9.7-11.7,2.6-14.9,2.6l-13,3.9c-2.6,1.3-6.5,3.2-7.8,5.8a12.12,12.12,0,0,0-1.3,5.8,43,43,0,0,0,1.3,7.8V244l.7,7.1.6,29.9a2.34,2.34,0,0,1-3.2,1.3h-10.4c-2.6,0-13,.7-16.2,2-1.9-.6-1.9-1.3-1.9-2.6V270l-.7-6.5.7-3.9c.6-9.7-.7-29.9.6-36.4v-4.5a8.59,8.59,0,0,0-5.8-7.8c-9.7-.6-26.7,2.5-36.4,4.5-11.7,2.5-22.8,5.7-27.9,10.4-2.7,2.5-2,6.5-2,13l1.3,3.9-.6,3.9,1.3,15.6,2.6,42.9.6,25.3,1.3,40.3-.6,39,1.3,3.2a9.67,9.67,0,0,0,5.8,2.6h9.7a134.37,134.37,0,0,0,19.5-2l9.1-2c4.6-1,11-2.6,13.6-4.5,1.3-.6,3.9-2.6,4.5-4.5.6-1.3,1.3-3.2,1.3-9.7l.7-6.5-.7-10.4.7-13.6.6-18.2c4.5-4.5,17.5-6.5,32.5-6.5l1.3,37v18.3l.6,11.7v4.5c0,3.2,5.2,5.8,8.4,5.8a105.67,105.67,0,0,0,28.6-3.9c7.1-2.1,13.6-3.2,16.2-5.8,2,0,3.9-1.3,5.2-1.9,2-2.6,3.9-5.2,3.9-9.1l.7-14.3v-80.6l.7-39.6-.7-9.1.7-3.9v-25.3c0-1.9,0-4.5-1.3-6.5C526.29,213.59,526.39,212.79,524.39,212.29Zm213.1,372.2-3.9,1.9-7.8,1.9a19.38,19.38,0,0,1-9.7,2.6c-2,.6-4.5-.6-7.1-2-5.2-3.9-9.7-9.7-13.6-16.9l-13.6-22.7-9.7,2c-.6,8.4,2,23.4,2,28.6-1.3,2.6-3.9,5.2-5.8,5.2-2.6,2.6-9.7,3.2-13.6,3.9l-7.1.7c-3.2-.7-6.5-2.6-6.5-7.1,0,0,.7-3.9,0-5.2,1.3-1.3,0-13.6,0-13.6l-.6-10.4-1.3-27.3-.6-20.1-1.3-16.9-.7-14.9c0-3.2.7-7.1,2.6-9.1l4.5-1.9,9.7-1.3,14.3-2.6s11.7-1.3,17.5-1.3a61,61,0,0,1,18.2,3.2,39.43,39.43,0,0,1,11,6.5c10.4,10.4,13,19.5,13,32.5s-4.5,27.9-13,34.4l-1.3,1.3v1.3l9.7,20.1,13,22.1C736.79,580.59,738.79,581.29,737.49,584.49Zm-42.9-81.2c0-12.3-8.4-17.5-13.6-17.5,0,0-5.8,0-7.8,1.3-1.3,5.8-1.3,22.1-.7,34.4l1.3,1.3c7.8,0,11-.6,14.3-1.3C692,517.59,694.59,513.69,694.59,503.29Zm-74.1,55.2h-3.2l-6.5.6s-19.5,1.3-26,1.3c-1.3,0-2-1.9-2-1.9V552c0-5.2-.7-12.3-.7-12.3l1.3-1.3,18.2-1.3,3.2-.6,5.8-.6c1.9-.6,4.5-2.6,4.5-4.5,1.9-2.6,1.9-5.8,2.6-8.4l.7-6.5s.6-5.2-.7-6.5-3.2-.6-6.5-.6c0,0-13,1.3-20.1,1.3h-5.8l-2.6-1.3.7-19.5,1.3-.6h3.2l9.7-1.3,6.5-.6h5.8l4.5-1.3,2-2.6c2-2,3.9-5.8,3.9-7.8l1.3-5.8v-6.5c0-1.3-.7-3.2-4.5-3.2h-39a117.68,117.68,0,0,0-19.5,1.9s-5.2,0-8.4,1.3c-3.2,1.9-5.2,6.5-5.2,14.3l1.3,12.3.7,16.2v7.1l1.3,33.8v17.5l.7,13v5.2c.6,3.9,3.2,7.1,5.8,7.8l11.7.6,16.2-1.3,16.2-2,9.7-1.3,6.5-1.9c1.9-.6,3.9-1.3,5.2-3.2a42.68,42.68,0,0,0,3.9-17.5,12.8,12.8,0,0,0-1.3-4.5Zm-285.8-298.8c6.4,15,7.8,37.7,7.8,52,0,40.9-13,74.7-45.5,94.2-16.2,9.7-42.2,13-68.2,13-16.2,0-32.5-6.5-45.5-19.5-19.5-19.5-27.3-52-27.3-81.2,0-32.5,5.2-58.5,29.2-82.5,20.8-20.8,53.9-27.9,79.3-27.9,11.7,0,26,2.5,35.7,8.4C313.89,224.49,326.09,239.59,334.69,259.69Zm-60.4,52c0-42.2-9.7-48.7-22.7-48.7-9.1,0-18.2,3.2-21.4,6.5-2.6,6.5-4.5,19.5-4.5,39,0,39,3.2,53.3,26,53.3,9.7,0,14.9-3.2,19.5-7.8C273,344.09,274.29,331.19,274.29,311.69Zm250.1,149.4a9.34,9.34,0,0,0-5.2-1.3c-4.5,0-19.5,3.2-26,5.8-1.3,1.3-1.9,3.9-1.3,5.2,1.9,6.5,2.3,13,2.6,19.5l1.3,32.5-3.9-6.5c-3.2-5.3-16.1-29.3-18.2-33.8l-7.8-16.9c-.7-1.3-1.3-6.5-3.2-7.8-3.9-.6-13.6,1.3-13.6,1.3l-6.5,1.9a58.86,58.86,0,0,0-11,3.2,7.74,7.74,0,0,0-5.8,5.2c0,3.9,1.3,13,1.3,13l1.3,29.9L429,550v34.4c0,1.9.7,3.9,2.6,4.5h3.2c6.5,0,19.5-2.6,24.7-7.8,1.3-1.3,1.3-5.2,1.3-5.2,0-5.2-1.3-18.8-1.3-18.8l-2-33.1,3.2,5.8c11,20.1,29.9,52.6,35.7,58.5a9.94,9.94,0,0,0,4.5,1.3c1.9,0,8.4-2,13-3.9,2-.6,7.8-3.2,9.1-5.2a7,7,0,0,0,1.3-6.5v-2.6l-.6-9.7v-32.5l.6-33.8,2-24v-1.9s.7-3.2,0-4.5C526.29,463.69,526.39,462.29,524.39,461.09Zm-116.3-1.3-8.4,1.3c-2.6,0-8.4,1.3-10.4,3.2-.7.6-2.1,1.9-2.6,5.2-2.1,12.3-8.4,42.2-11.7,56.5l-5.2-27.9s-6.5-33.8-7.8-35.1c0-1.9-1.3-2.6-3.2-3.9-7.8,0-24,5.2-27.3,7.1-3.2,3.2-3.2,6.5-5.2,17.5l-8.4,45.5-5.8-32.5s-5.2-33.1-6.5-35.1c0-2.6-1.9-3.9-5.2-3.9-6.5,0-30.5,6.5-30.5,9.7,0,4.5,10.4,43.5,14.3,58.5.6,5.2,6.5,29.2,6.5,29.2,2.6,9.1,5.2,29.9,6.5,31.2s3.9,3.2,7.1,2.6c7.1,0,15.6-2.6,15.6-2.6l4.5-1.9,1.9-2c1.9-1.9,2.6-2,3.2-4.5l5.2-19.5,7.8-29.2v-1.3l1.3-3.9c2,1.9,13.6,59.8,15.6,61.7,1.3,2.6,2.6,3.2,5.8,3.2a76.47,76.47,0,0,0,22.1-3.9c1.9-.7,2.6-2.6,3.2-3.9l3.2-13,2.6-13,3.2-11s13-53.3,14.3-59.1c2-7.8,3.3-12.3,3.3-16.2l.6-1.3c1.3-4.5,0-6.5-1.9-8.4A50.21,50.21,0,0,0,408.09,459.79Zm-280-79.9c7.2-16.2,9.7-45.5,9.7-78s0-78-6.5-91c-1.9-4.5-3.2-6.5-9.7-6.5-16.2,0-52,9.7-58.5,16.2-1.9,2-3.2,3.2-3.2,6.5s3.2,9.7,3.2,16.2c0,9.7,9.7,106.5,7.8,110.4-2.6,5.2-7.8,9.7-17.5,9.7-6.5,0-13-3.2-16.2-6.5-5.2-3.2-5.2-9.7-9.7-6.5-3.2,0-4.5,3.2-6.5,6.5-3.2,3.2-13,21.4-13,35.7,0,19.5,19.5,29.2,45.5,29.2C92.39,422.09,118.39,402,128.09,379.89Zm139,139.7c.4,12.4-.6,24-2.6,32.5-2.6,9.1-8.4,18.2-13,22.7l-3.2,2.6c-1.9,2-9.1,6.5-13.6,8.4-3.2,1.3-9.1,3.9-13.6,3.9a118.2,118.2,0,0,1-14.9,1.3h-7.8c-9.1-1.3-15.6-3.2-21.4-6.5-3.3-1.9-7.8-6.5-10.4-10.4-4.5-7.1-8.3-18.9-10.4-34.4-.5-3.9-.6-17.5-.6-23.4l1.3-5.8v-4.6c2.6-14.9,3.2-18.2,11-30.5,2.6-4.5,12.4-12.2,15.6-13.6,4-1.8,11-3.9,13.6-3.9l10.4-2s7.1-.6,13.6-.6c13.6,1.3,13.6,2.6,18.8,5.2l4.5,1.9c8.4,5.8,15,15.6,18.8,29.9A127.48,127.48,0,0,1,267.09,519.59Zm-36.4,6.5c0-28.6-8.4-40.9-21.4-40.9-4.5,0-10.4,2.6-12.3,3.9-1.9,3.2-4.5,14.3-4.5,31.8,0,29.2,9.1,39.6,18.8,39.6a19.7,19.7,0,0,0,14.3-5.8C228.09,548.79,230.69,539.09,230.69,526.09Zm-97.4-54c11,14.3,14.9,31.2,14.3,50.7l-1.3,14.3v2c-2.6,14.9-7.1,23.4-11.7,29.2s-16.2,14.3-19.5,16.2a70.1,70.1,0,0,1-9.7,4.5c-3.2,1.3-13,2.6-13,2.6l-11,1.3s-13,.6-18.2.6a43.58,43.58,0,0,1-11-1.3c-2.6-.6-5.2-5.2-5.8-9.1v-5.2l-1.3-12.3v-7.7l-4.5-50.7v-1.3l-1.9-13-2.6-19.5c-1.3-3.2.6-5.8,2.6-7.8l4.5-2.6a137.09,137.09,0,0,1,29.9-7.1c6.5-.7,21.4-1.3,28.6-.6a43.83,43.83,0,0,1,20.1,6.5A71.5,71.5,0,0,1,133.29,472.09Zm-21.5,52c0-11.7-3.2-26-6.5-30.5-1.9-4.5-9.7-9.7-16.2-8.4-3.2-.6-9.1.6-11.7,2-1.3,1.9,0,9.7,0,13v16.2c0,22.7,1.3,40.3,1.9,42.2,1.3,1.3,7.8,1.9,11,1.9l5.2-.6c3-1.3,5.2-1.3,7.8-4.5C108.59,550.09,111.79,539.09,111.79,524.09Zm-61.7-413.8c0,40.9-1.9,55.2-1.9,58.5s1.9,3.2,5.2,3.2,8.4-2,13-5.2c1.9-1.3,3.2-4.5,3.2-7.8,0-16.2-.3-29.7,0-48.7.4-25.3-1.3-61.7,1.9-65,1.3-1.3,14.7,41,20.8,61.7,3,10.5,11.8,37.7,17.5,58.5.7,2.6,3.2,2.6,5.8,2.6,3.2,0,14.9-3.3,15.6-5.8,11.6-41,35.7-120.2,39-120.2s3.2,97.4,4.5,123.4c-1.3,3.2,0,5.2,1.9,5.2,0,0,3.2-.7,3.2-2,7.1,0,13.1-4.5,14.3-6.5,2-3.2,0-35.7,0-61.7V68c1.3-1.3-1.3-3.2-1.3-3.2,1.3-.6,1.3-1.9,1.3-3.2v-39c0-6.5-1.3-9.7-7.8-9.7h-3.2c-16.2,1.9-29.2,6.5-30.5,8.4-1.9,2.6-5.2,20.8-11.7,43.5-9.8,34.4-18.2,60.4-19.5,61.7-1.3,0-13-42.9-16.2-55.2s-6.5-26-11-45.5c-2-8.4-5.2-11-8.4-11-16.2,0-32.5,6.5-37,11-1.9,1.9-1.9,3.2,0,19.5C50.09,56.39,50.09,90.09,50.09,110.29Zm192.3-58.5,1.3,33.8s0,33.1,1.3,34.4c-1.3,6.5-1.3,45.5-3.2,45.5,0,3.2,1.9,3.9,3.9,3.9.6,1.3,12.3-2.6,14.9-5.2,2,0,3.9-1.9,3.9-5.2V81s0-42.2,3.2-61.7c1.9-3.2,0-7.1-4.5-7.1-8.4,0-18.2,3.9-21.4,7.1-1.9,3.2-1.3,9.7,0,13C241.79,38.19,242.39,51.79,242.39,51.79Zm59.1,110.5c5.8,5.8,18.2,13,34.4,13s32.5-6.5,39-16.2c11-9.7,19.5-26,16.2-42.2,0-9.7-6.4-17.7-13-22.7-4.4-3.4-13-7.7-26-13-7.8-3.2-16.9-8.4-20.8-13-1.9-1.3-3.9-6.5-3.9-11.7,0-7.8,1.9-11,5.2-15.6,6.5-5.2,13-6.5,22.7-6.5s13,2.6,18.8,2.6h1.3l2.6-1.3c1.3-1.3,1.3-1.3,3.2-6.5,1.3-1.3,3.2-6.5,1.9-7.8,0-5.2-8.4-8.4-14.9-8.4-9.7,0-17.5,0-26,3.2-3.2,0-9.1,2.6-13,5.2-8.4,2.6-16.2,11-19.5,17.5-3.2,4.5-5.2,13-5.2,22.7,0,6.5,3.9,16.2,10.4,22.7s17.5,13,40.3,22.7c9.7,5.2,13,13,13,19.5s0,9.7-3.2,13c-3.2,9.7-9.7,16.2-22.7,16.2-3.2,0-10.4-.7-13-1.9a42.29,42.29,0,0,1-13-9.1c-1.9-3.2-4.5-4.5-6.5-3.2-1.9,0-3.2,1.3-6.5,5.2-3.2,3.2-4.5,6.5-4.5,9.1C298.89,157.69,299.59,160.89,301.49,162.29Zm94.9-121.5c6.5,1.5,13-1.9,32.5-1.9h3.2c1.9,1.9,1.3,9.7,1.3,16.2,0,13,1.3,26,1.3,42.2s.7,42.2,2,52c-1.3,3.2,0,9.7,0,13s0,6.5,1.3,7.8c2,2,.7,2,3.9,2s9.1-3.2,12.3-6.5c3.2-2,3.9-3.2,3.9-6.5v-9.7c0-9.7-1.9-35.7-1.9-55.2,0-16.2,1.9-52,5.2-55.2,6.5-1.9,19.5.7,26-1.9,3.2-1.3,5.2-2.6,6.5-4.5s2.6-2.6,3.2-4.5c1.3-3.9,1.9-8.4,0-10.4-1.3-1.3-6.5.7-13,.7s-19.5-.7-29.2-.7h-26c-9.1,0-16.2.7-22.7.7-3.2,0-6.5,3.2-9.7,7.8s-5,8.3-3.2,11C394,38.09,394.39,40.29,396.39,40.79Zm194.2,126,1.9-2.6c2,0,2,0,2-1.9,2.6-3.2,4.5-6.5,4.5-11,0-1.9-.6-4.5-2-5.2-1.3,1.3-2.6,1.3-5.2,1.9-5.8,0-15.6,1.3-22.1,1.3s-13,1.3-19.5,0c0,0-7.1-.6-9.7-1.9-2-1.3-3.2-4.5-3.2-7.8,0-13-.7-27.9,0-33.8,3.9-2,17.5-2,26-2,3.2,0,16.2-.6,19.5-1.9s6.5-4.5,6.5-6.5c1.3-1.3,3.2-6.5,3.2-9.1,0-5.8-1.9-5.2-1.9-5.2-2,1.9-4.5,1.3-7.8,1.3h-20.1s-17.5,0-23.4-1.3c-1.3,0-1.9-3.2-1.9-6.5,0-13,1.3-29.2,3.2-32.5a3.13,3.13,0,0,1,3.2-3.2l26-1.3c13-.6,18.2-.6,20.8-3.2,1.9-1.9,5.2-4.5,6.5-10.4,0-3.2,2-5.8,0-7.8-2.6-1.3-14.3,0-20.1,0-2.6.6-23.4-.6-31.8,0-14.3,0-17.5.6-23.4,1.9-2,0-3.9,1.3-5.2,1.9-1.3,1.3-1.3,1.9-2,5.2v36.4c0,19.5,2,65,2,84.5l-.6,16.2c0,8.4,3.2,7.8,5.2,9.7,3.9,1.3,4.6,1.6,9.7,1.3l22.7-1.3C579.49,170.49,586.09,168.69,590.59,166.79Zm37.7-137.7c-1.3-3.9-.7-6.5,1.3-7.8,2-1.9,24.7-6.5,40.9-6.5,13,0,21.4,2.6,26,4.5,10.4,4.5,17.6,13,19.5,17.5a54.14,54.14,0,0,1,4.5,21.4c0,16.2-4.5,26-7.8,32.5a40.1,40.1,0,0,1-13,14.3v1.9c0,1.3,4.6,8.4,6.5,13a229.55,229.55,0,0,0,22.7,39c1.9,2.6,4.5,4.5,6.5,7.8v1.9c-1.3,2-1.3,1.3-3.2,2-1.3,1.3-9.7,2.6-13,2.6s-4.5-1.3-7.8-2.6c-2.6-2-3.3-3.2-5.2-6.5-3.9-4.5-6.5-11.7-16.2-27.9-6.5-9.7-9.7-17.5-13-22.7-5.8,1.3-26,3.2-26,3.2,0,9.7-1.3,42.2-1.3,42.2,1.3,3.2-.7,6.5-1.9,7.8-3.2,3.9-14.9,7.1-16.2,5.8-2.6,0-3.2-3.2-3.2-5.8,2-5.8,0-81.9,0-113.7C628.29,53.09,628.29,34.89,628.29,29.09Zm22.8,66.2c3.2,1.3,9.7,2,16.2,2,9.7,0,16.2-2,19.5-4.5,6.5-8.4,9.7-18.2,9.7-31.2,0-16.2-9.7-26-28.6-26a56,56,0,0,0-12.3,1.3,8.76,8.76,0,0,0-1.3,1.9C651.09,48.59,651.09,74.49,651.09,95.29Z"/></svg>