<svg id="Layer_1" data-name="Layer 1" xmlns="http://www.w3.org/2000/svg" viewBox="0 0 980.95 314.98"><defs><style>.cls-1,.cls-2{fill:#c4c4c4;stroke:#a1d324;stroke-miterlimit:10;}.cls-1{opacity:0.5;isolation:isolate;}</style></defs><title>fontlab</title><path class="cls-1" d="M226.68,128.2a7.76,7.76,0,0,0-1.8-.5c.2-.1.6,0,1.1.3a6.37,6.37,0,0,1,.7.2Zm1.2,0v-1.3h-.8c0,.7-.2,1.1-.5,1.2C227.18,128.4,227.68,128.5,227.88,128.2ZM272,170a2.07,2.07,0,0,1,1.5-.5,10.08,10.08,0,0,0,1.8-3.4,15.65,15.65,0,0,1,1.5-3.9h.5a6.36,6.36,0,0,1,2-4v-3.5h.3v-2.8c-.3,0-.5-.1-.5-.3s.1-.3.3-.5a2.11,2.11,0,0,1-1.6-.6,4.19,4.19,0,0,0-1.4-.9v-3.3a1.93,1.93,0,0,1-.3-1l-4.5.5V145h-2v-.8a.27.27,0,0,1-.3-.3c0-.2-.2-.3-.5-.3h-2l-.3-.8-5.3.3-.5.5h-.3a.6.6,0,0,1-.6-.3.6.6,0,0,0-.6-.3c-.2,0-.3.1-.5.3a1,1,0,0,1-.8.3c-.2,0-.4-.2-.8-.5l-.8-.8-.8-.3v-.8h-1.3v.3h-2q0-.3-.6-.9t-.9-.6h-.3c-.2,0-.3.3-.3.8h-6.3a1.57,1.57,0,0,1-1.4,1.1,16.25,16.25,0,0,0-1.9.4V142h-9.3v-.5h-3v.3c0,.2-.2.3-.5.3l-6.3.3v-.8a4.48,4.48,0,0,1-1.1-.1,4.48,4.48,0,0,0-1.1-.1v.3h-4.3c0,.3-.1.5-.3.5a.27.27,0,0,0-.3.3c-.2,0-.3-.3-.3-.8h-1.3c.3-.7,1.2-1,2.5-1v-1.3h.8c-.3-.3-.5-.6-.4-.9a.55.55,0,0,1,.6-.4h1v-.8c.5.3.8.2,1-.4s.4-.9.8-.9v-1.3l-.3-.3c.2-.5.6-.7,1.3-.5h1.3c0-2.8,1-4.9,3-6a.46.46,0,0,1,.3-.5,5.07,5.07,0,0,0-1.3-.2c-1.2-.2-1.8,0-1.8.5-.5,0-.8.1-.8.3h-.2l.1-.1c.3-.4.5-.5.9-.1a1.63,1.63,0,0,1,1.3-2v-1.3a.76.76,0,0,0,.9-.1l.6-.6h1.8c0-.3,0-.5.1-.6s.1-.3.1-.6l.9-.9a1.8,1.8,0,0,1,.9-.6,1.1,1.1,0,0,0,1-.5h2a3,3,0,0,1,1-1.6c.7-.8,1-1.3,1-1.6a2.81,2.81,0,0,0-.1-.8.63.63,0,0,0-.6-.5q-1,0-.9.3c.1.2,0,.3-.4.3l-.8-.8.5-2a1.19,1.19,0,0,0,.4-1.1.7.7,0,0,1,.4-.9c.3.2.8.1,1.4-.3a8.47,8.47,0,0,0,1.4-1,1.86,1.86,0,0,1,.4-1.1,1.86,1.86,0,0,0,.4-1.1,3.51,3.51,0,0,0,1-.8c.7-.7,1-1.1,1-1.3a2,2,0,0,1-.8-.8,1.59,1.59,0,0,1-.5-1,7.74,7.74,0,0,1-.6,2.4,6.86,6.86,0,0,0-.9,1.6,6.47,6.47,0,0,0-.8.9.81.81,0,0,1-.8.4,2.5,2.5,0,0,0-1.8-.8v-2.8a3.47,3.47,0,0,0,.8-1.5c.2-.7.6-.8,1.3-.5q.45-1,.6-1.5c.1-.3.5-.4,1.1-.3a7.73,7.73,0,0,1,2.8-2,3.69,3.69,0,0,0,.8-1.4,1.39,1.39,0,0,1,1.5-.9V96.3h.8c.3,0,.5.1.5.3s.2.3.5.3c0-.7,0-1,.1-.9s.1,0,.1-.4a1.27,1.27,0,0,0-.1-.6,2.48,2.48,0,0,1-.1-.9,1.22,1.22,0,0,1,.4-.9c.3-.3.4-.5.4-.6h1.3a2.11,2.11,0,0,1,.5-1.3,1.46,1.46,0,0,0,.5-.8,2,2,0,0,0-.1-.8.9.9,0,0,1-.1-.5c0-.7.5-1.1,1.6-1.4a10.11,10.11,0,0,1,1.9-.4l1-1a2.57,2.57,0,0,1,1.8-.5,3.45,3.45,0,0,1-.3-1.3v-.8h.3a4.94,4.94,0,0,1,1.5-2.4,2.08,2.08,0,0,0,.5-2.4c.2,0,.3-.1.5-.3,0-.2.1-.3.3-.5a1.9,1.9,0,0,1,.5,1.3h.8l-.3-1.3a.47.47,0,0,1,.5-.5c.3,0,1.2-.1,2.5-.2h2.4c.3,0,.4.1.4.2,0,.3-.1.5-.3.5V79l1.3-.3c.2.2.3.3.5.3s.3.2.3.5h2.3v.8h3.8v.3h2.8a1.21,1.21,0,0,0,.6.9c.4.3.5.5.1.9a2.58,2.58,0,0,0,.5-1.8,1.43,1.43,0,0,0,1-.8h.8q0,.45.9.9c.6.3.7.8.4,1.6a1.59,1.59,0,0,0,.5-1,1.93,1.93,0,0,1,.3-1h1.3l-.3,1.5c.3,0,.5,0,.4-.1s0-.1.4-.1a2.11,2.11,0,0,0,1.3-.5c.2-.3.3-.5.5-.5a.27.27,0,0,0,.3-.3h1.3a7,7,0,0,0,1,.8.89.89,0,0,1,.5.8h1.3c0-.3.1-.5.3-.5s.3.1.5.3c.5,0,.9.3,1.3,1h.3l.5-.5v.3a5.84,5.84,0,0,1,1.3.5,4.92,4.92,0,0,0,2,.5h1.8v2h1.3c.3-.5.6-.8.8-.8h1a1.45,1.45,0,0,1,1.5.8h-.3v1a1.76,1.76,0,0,0,.5.4c.2.1.3.5.3,1.1q.75-.45.9,0a1.56,1.56,0,0,0,.6.8h.5l.3-.3H303a.27.27,0,0,0,.3.3h.3a1.88,1.88,0,0,0,.3-1.3.47.47,0,0,1,.5.5h2v-.8h.8a4.94,4.94,0,0,0,2.3,2.3V90a1.45,1.45,0,0,1,1.3.5c-.2.2,0,.5.5.9a2.15,2.15,0,0,0,1.3.6.86.86,0,0,0,.6-.3,1.4,1.4,0,0,1,.9-.3,2.27,2.27,0,0,1,1.8.9,2.89,2.89,0,0,0,1.8,1.1,1.6,1.6,0,0,1,.8-.3h.5v3a2.15,2.15,0,0,1,2.8,1.8h.5c0-.7.1-1,.4-.9s.5,0,.6-.4h5c0,.3.3.5.8.5a2.77,2.77,0,0,1,1.3.3l1,2a2.3,2.3,0,0,1,1.4.4,1.86,1.86,0,0,0,1.1.4c.2,0,.3,0,.3-.1s.1-.1.2-.1h.3a2.42,2.42,0,0,1,1.3.6,2.15,2.15,0,0,0,1.3.6c.2,0,.5-.2,1-.6s.9-.8,1.3-1.1h2.5l2,1.8c.5-.8,1-1.2,1.5-1-.3-.7-.3-1,0-1.1a2,2,0,0,0,.8-.4h2l.9-.9.6-.6a1.14,1.14,0,0,0,.8-.3c.2-.2.3-.3.5-.3a3,3,0,0,1,.5-1.5c.3,0,.5-.1.5-.3s.3-.2.8-.2c.2,0,.3.1.5.4s.3.4.5.4c.5,0,1-.4,1.4-1.1a1.43,1.43,0,0,1,1.6-.9h.8a2.69,2.69,0,0,0,.4,1.3c.2.5.5.8.9.8s.9-.3,1.3-1a1.5,1.5,0,0,1,1.5-1V91.3h1.3V88.8a1.88,1.88,0,0,0,.3-1.3.8.8,0,0,1-.1-.8c.1-.2,0-.4-.1-.8-.3-.3-.5-.6-.4-.9s-.1-.5-.6-.6V81.1l.5-.5a13.73,13.73,0,0,0,.5-1.8v-.5h.8a7,7,0,0,1,1-.8,1.45,1.45,0,0,0,.5-1.3.6.6,0,0,0-.3-.6q-.3-.15-.3-.9l.5-.5V71.7c-.3-.2-.4-.3-.3-.5s.1-.4-.3-.8a.27.27,0,0,1-.3-.3v-.5a2.24,2.24,0,0,1,.8-1.5.91.91,0,0,0-.4-.8.81.81,0,0,1-.4-.8,1.61,1.61,0,0,1-.9-.3,1.55,1.55,0,0,0-.6-.3,3.07,3.07,0,0,0-1.3.5v-.5h-2.5V64.6c.3,0,.5-.1.5-.3-.3,0-.5-.2-.5-.6V62.6c-1.5,0-2.3-.3-2.3-1-.8,0-1.3-.2-1.4-.5s-.5-.5-1.1-.5a.47.47,0,0,1-.5-.5l-.3-.3-.8-.3V59l-4.5-1.5a3.14,3.14,0,0,0-1-1,11.65,11.65,0,0,1-1.3-.8v-.3c-1.3-.7-2.5-1.3-3.5-1.9a16,16,0,0,0-3.5-1.4v-.8a10.54,10.54,0,0,1-3.5-1c-.7-.3-1.4-.7-2.3-1a.91.91,0,0,0-.8.4c-.2.3-.5.3-1,.1h-.8V48.5h-3.3c0-.7-.2-.9-.5-.8a.91.91,0,0,1-1,0v-.5h-1.3c-.7-.3-1.4-.7-2.1-1a10.93,10.93,0,0,1-1.9-1,3.44,3.44,0,0,0-.9.1c-.4.1-.8-.2-1.1-.9h-2.3c0-.3-.2-.4-.5-.3s-.8.1-1.3-.3l.5-.8a4.48,4.48,0,0,0-1.1.1,1,1,0,0,1-1.1-.6,4.48,4.48,0,0,0-1.1.1.7.7,0,0,1-.9-.4h-2.5v-.5l-2.8-.3v-.5H303v-.6h-3q-.45-.3-.3-.3h-.3l-2-.5v-.3h-4.8v-1h-2.8v-.3h-3.3a1.38,1.38,0,0,0-.9-.5.6.6,0,0,1-.6-.3c.3-.8.2-1.4-.4-1.6a4.83,4.83,0,0,1-1.4-.9v-.7c-.2,0-.3-.2-.3-.5V30.1a1.05,1.05,0,0,1-.5-.9V28.1q-1.05,0-.6-.6c.3-.4.2-.7-.1-.9l-.8-2.8a3.41,3.41,0,0,1-.8-2c-.7-.7-1-1.2-1-1.5-.8-.8-1.6-1.6-2.3-2.4a12,12,0,0,1-1.8-2.6,1.05,1.05,0,0,1-.8-1V12.5a23.92,23.92,0,0,1-1.3-2.1,5.11,5.11,0,0,0-1.5-2.1l.5,1.3v2.8c0,.2,0,.3.1.3s.1.1.1.3v.3c0,.2-.1.4-.4.8a3.28,3.28,0,0,0-.6.8h-1.8a1.59,1.59,0,0,0-.5-1,1.9,1.9,0,0,1-.5-1.3,1.45,1.45,0,0,1-1.3-.5h-3.3a1.46,1.46,0,0,1-.8.5v1.5a6.65,6.65,0,0,1,4,1.5,1.61,1.61,0,0,0-.9.3,1.22,1.22,0,0,1-.9.3h-1.5a1,1,0,0,1,0,1.3c-.3.5-.6.8-.8.8a1,1,0,0,1-.8-.5,2.27,2.27,0,0,0-.5-2.1c-.5-.6-1-1.2-1.5-1.9a1.1,1.1,0,0,0-.5-1,.27.27,0,0,1-.3-.3c-.2,0-.3,0-.3-.1s-.1-.1-.3-.1a1.46,1.46,0,0,1-.8.5l-.3-.3a.9.9,0,0,1-.5-.1.9.9,0,0,0-.5-.1c0,.3-.4.8-1.3,1.3v2.3l-1.3,3h-.3a3.8,3.8,0,0,1-.8,1.6c-.5.8-.9,1.1-1.3,1.1a.6.6,0,0,1-.6-.3.6.6,0,0,0-.6-.3c-1,0-1.6.6-1.9,1.9a8.27,8.27,0,0,1-.9,2.9c-.3.3-.7.6-1,.9a1.85,1.85,0,0,0-.3,1.6,11,11,0,0,0-2.5,2.3,26.14,26.14,0,0,1-2.3,2.5,1.46,1.46,0,0,0-.5.8c-.2.3-.6.4-1.3.1a4.54,4.54,0,0,0-1.8-.4.63.63,0,0,1-.6-.5.63.63,0,0,0-.6-.5,1.5,1.5,0,0,0-1.5,1v-1h-2.5l-1.5,1a1.61,1.61,0,0,1-.9-.3,1.4,1.4,0,0,0-.9-.3H229l-.5.5-3.5.3h-3.5V32.5h-3.1v1.3a.61.61,0,0,0-.8.1,1.05,1.05,0,0,1-1,.4c-.2,0-.5-.3-1-.8v-1h-1.2l.3,1.3a.89.89,0,0,1-.8.5l-1.3,2h-1.5c0,.3,0,.5-.1.4s-.3-.1-.6-.1h-.8v-.7a2.62,2.62,0,0,0-1.3-.6,3.1,3.1,0,0,1-1.3-.6h-.8c.3.7.3,1,0,1a1,1,0,0,0-.8.5h-2.5c.2,0,0-.3-.5-.8-.2-.2-.3-.3-.3-.5l-.8,1.8a3.92,3.92,0,0,0-1.3.3,3.05,3.05,0,0,0-1.3,1c-2.2-.3-3.4-.5-3.8-.5h-1a1.46,1.46,0,0,0,.5-.8c-.2,0-.5.3-1,.8l-.5.5h-1V37h.8c.2,0,.2-.1.2-.3h-3.8a1.88,1.88,0,0,1-1.3.3v1h-.4a1.33,1.33,0,0,0-.3,1,2.11,2.11,0,0,0-1.3.5l-.4-.6a.86.86,0,0,0-.6.3,2.42,2.42,0,0,1-1.4.3V41h-.8a1.61,1.61,0,0,0-.3-.9,1.55,1.55,0,0,1-.3-.6c-1.2,0-1.8-.4-1.8-1.3v-.5c0-.5.1-.8.3-.8-.2-.3-.4-.2-.8.5a11.65,11.65,0,0,1-.8,1.3l-1.3-.8c.3.8.3,1.1-.3.9a1,1,0,0,0-1.3.1h-2.8a1.38,1.38,0,0,1-.9.5h-.9a2.45,2.45,0,0,0-1.4.9c-.3.4-.5.6-.9.6a1.25,1.25,0,0,1-1.3-.8,1,1,0,0,1-.5.8c-.2-.2-.3-.3-.3-.5s-.2-.3-.5-.3-.3.1-.5.3a2.07,2.07,0,0,1-1.5.5c-.5.5-.9.8-1.3.8,0,.3-.1.5-.3.5s-.5.1-.5.3v-.3l-.3-.5v1.8h-3.3a7.5,7.5,0,0,1-1.8.8,6.23,6.23,0,0,1-2.3.8,2.77,2.77,0,0,1-.9-.1,1.76,1.76,0,0,0-.6-.1v-1a1.37,1.37,0,0,0-1,.6,1.25,1.25,0,0,1-1.3.4,1.33,1.33,0,0,1-.3,1h-1.3v-.8h-2a2.77,2.77,0,0,1-.3,1.3l-1.8-.8v-.5a10.93,10.93,0,0,1-1.5.8,3.05,3.05,0,0,0-1.3,1h-2.3c-.3.5-1.3.8-3,.8l-3,1.5v.5h-.7l-7.8,2.8q-.45,1-.9.6c-.3-.3-.5-.2-.9.1a.76.76,0,0,1-.9.3.83.83,0,0,0-1.1.3,4,4,0,0,1-1.5.3,7.58,7.58,0,0,0-1.6.9,2.73,2.73,0,0,1-1.6.4,3.29,3.29,0,0,1-.6,1.9,1.48,1.48,0,0,1-1.9.4.27.27,0,0,0-.3.3c0,.2-.2.3-.5.3s-.3-.1-.3-.4-.2-.4-.5-.4c-.2.2-.5.4-.9.8a2.11,2.11,0,0,1-1.1.5v1a1.59,1.59,0,0,1,.5,1c0,.2-.2.3-.5.3h-1a1.93,1.93,0,0,0-1-.3,1.05,1.05,0,0,0-1,.8c0-.3-.1-.5-.3-.5a.27.27,0,0,1-.3-.3h-2.5c0,.3-.1.5-.4.4s-.5,0-.6.4c0-.2-.1-.3-.3-.5h-.2a4.83,4.83,0,0,1-1,1.5,4.73,4.73,0,0,1-1.8,1v.3h-2.8a5.8,5.8,0,0,1-2.6,2.1,34,34,0,0,0-3.4,1.6,5.55,5.55,0,0,0-.8.6c-.2.3-.6.3-1.3.1l-2.5,1.3a1.38,1.38,0,0,0-.9.5,1.43,1.43,0,0,1-1.1.5v1.3a1.1,1.1,0,0,0-1,.5h-2a2.5,2.5,0,0,1-1.3.3,3.85,3.85,0,0,1-2.1,2.8c-1.1.5-2.1.9-3.1,1.3a3.68,3.68,0,0,1-.5,1.6c-.3.6-.8.7-1.5.4a1,1,0,0,1-1.1,1.1c-.8.1-1.1.5-1.1,1.4a3.81,3.81,0,0,0-1.3.1,1.72,1.72,0,0,1-.8.1c-.3,0-.5,0-.5-.1s-.1-.1-.3-.1a10.63,10.63,0,0,1-1.1.9c-.4.3-.7.2-.9-.1a8.41,8.41,0,0,1-2.1,1.8,7.91,7.91,0,0,0-2.4,1.5c.2.5.3.8.5.8h.2c0,.3-.4.7-1.1,1a6.42,6.42,0,0,1-1.6.5,5.92,5.92,0,0,1-.4.6,2.53,2.53,0,0,1-1.1.1,4.11,4.11,0,0,0-.8,1.3c-.2.5-.6.7-1.3.5a2.73,2.73,0,0,1-1.4,1.4,10.66,10.66,0,0,0-1.9.9l-.3-.3a2.43,2.43,0,0,0-1,1.4c-.2.6-.6.8-1.3.6a1,1,0,0,1-.8.3,2.5,2.5,0,0,1-1.3,2,12.34,12.34,0,0,1-2.3.8,4.83,4.83,0,0,1-1.4,2,9.2,9.2,0,0,0-1.4,1.3,4.74,4.74,0,0,1-1.6,2.1c-.8.6-1.6,1.1-2.4,1.6a4.55,4.55,0,0,0-.8,2.3h-.8c-.5.7-1,1.4-1.4,2.1a2.71,2.71,0,0,1-1.9,1.4v1H33a1.15,1.15,0,0,1-.6,1.1,4.07,4.07,0,0,1-1.1.6,5.11,5.11,0,0,1-1.5,3.3,6.19,6.19,0,0,0-1.8,2.8,8.17,8.17,0,0,0-3.5,4h-1.3a3,3,0,0,1-.5,1.8,1.59,1.59,0,0,0-.5,1,2.51,2.51,0,0,0,.1,1,1.72,1.72,0,0,1,.1.8,2.81,2.81,0,0,1-.1.8,2.49,2.49,0,0,0-.1.8.7.7,0,0,0-1,.4,2.84,2.84,0,0,1-.8,1.1h-.8l-.3,5c-.3.2-.6.3-.9.5a1.4,1.4,0,0,1-.9.3v.8l.5.5a.86.86,0,0,1-.3.6,1.4,1.4,0,0,0-.3.9h0c-.3.7-.5,1.1-.6,1.4a3.42,3.42,0,0,0-.1,1.1h-.5l-.2,3c.5,0,.8.2.8.5v.3c0,.3-.3.8-1,1.3a7,7,0,0,0-1.5,1.3c0,.3,0,.5-.1.6s-.1.3-.1.6l.3-.4c0,.2-.1.2-.2.2,0,.2,0,.3-.1.4s-.1.2-.1.4v.5a.9.9,0,0,0,.1.5,1.72,1.72,0,0,1,.1.8,1.05,1.05,0,0,1-.8,1,1.25,1.25,0,0,0,.8,1.3.74.74,0,0,0-.8.8,1.61,1.61,0,0,0,.3.9,1.4,1.4,0,0,1,.3.9c0,.2-.1.3-.3.5s-.3.3-.3.5a3.92,3.92,0,0,0,.3,1.3,3.45,3.45,0,0,1,.3,1.3l1.5.8-.5,1.3c.8.2,1.3.6,1.3,1.3,0,.2,0,.3-.1.4s0,.3.1.6v3h.5v3c.3,0,.5.2.4.6a1,1,0,0,0,.4,1.1v-1.8h.8a28.26,28.26,0,0,1,2,2.6c1,1.4,1.7,2.1,2,2.1s.5,0,.6-.1.3-.1.6-.1a14.51,14.51,0,0,1,1.8,1,5.48,5.48,0,0,0,1.8,1,1.61,1.61,0,0,0,.9-.3,1.55,1.55,0,0,1,.6-.3,1.45,1.45,0,0,1,.5-1.3.6.6,0,0,1,.8,0,.6.6,0,0,1,.6.3.6.6,0,0,0,.6.3c.3-.8.8-1.3,1.5-1.3a1.22,1.22,0,0,1,.9.4,1.09,1.09,0,0,0,.9.4c.3,0,.8-.4,1.5-1.3l.5-1.8c-.7,0-1-.3-.9-.8a1.31,1.31,0,0,0-.4-1.3l.5-6.8v-.3l.3.3.5-3c.2,0,.3-.3.3-.8a.9.9,0,0,0-.1-.5,1.72,1.72,0,0,1-.1-.8,3.07,3.07,0,0,1,1.4-2.3c.9-.7,1.4-1.2,1.4-1.5a.55.55,0,0,0-.4-.6c-.3-.1-.3-.3-.1-.6,0-.3,0-.4-.1-.3s0,.1.1-.3h.8a4.6,4.6,0,0,1,1-2.3h.8a3.24,3.24,0,0,1,.8-.9,3.45,3.45,0,0,0,.8-.9v-2.8a1.43,1.43,0,0,0,1-.8c.3-.5.7-.7,1-.5a3.34,3.34,0,0,1,1.8-1.9,3.72,3.72,0,0,0,1.8-1.9h1v-1h-1.3a5.58,5.58,0,0,1,.5-.8c.2-.2.2-.4.2-.8a1.94,1.94,0,0,0,1.8.1c.5-.3,1.1-.5,1.8-.9v-2.5c.7-.2,1.3-.8,2-2h.5c.7.7,1.1,1,1.3,1a8,8,0,0,0,.8-1.6,3.2,3.2,0,0,1,1.3-1.6,3.61,3.61,0,0,0,.3-1.8,1.45,1.45,0,0,0,.8-1.5l1.8-1.3c0-.2-.1-.3-.3-.5s-.1-.3.3-.3H63c0,.3.3.5.8.5a1.61,1.61,0,0,0,.9-.3,1.4,1.4,0,0,1,.9-.3,1.93,1.93,0,0,1,1.5-1.5c.8-.2,1.1-.8.8-2a4.44,4.44,0,0,0,2.5-.4,1.84,1.84,0,0,1,1.3-.4c.2,0,.3,0,.3.1s.2.1.5.1V120l-.5-.5v-.1h.8c0,.3.3.5,1,.5a2.4,2.4,0,0,0,1.5-.6c.5-.4.9-.8,1.3-1.1a1.36,1.36,0,0,0,1.6-.1,15.14,15.14,0,0,1,1.4-.9,1.9,1.9,0,0,1,1.3-.5v-1.3a1.36,1.36,0,0,0,1.9-.8,1.4,1.4,0,0,1,1.9-.8,4.9,4.9,0,0,1,.8-2.5c.3.3.6.4.8.1a5.74,5.74,0,0,1,.8-.9h1.3c.7-.2,1.2-.9,1.5-2.3h-.5l2-2h2c0-.3.1-.5.3-.5h.5a2.42,2.42,0,0,1,2-1.3c0-.2.2-.4.5-.8a2.64,2.64,0,0,0,2.1-1,3,3,0,0,1,2.4-1,1.65,1.65,0,0,1,1.1-1.3,4.81,4.81,0,0,0,1.6-.8h2.8c.3-.8,1.3-1.3,2.8-1.3a.74.74,0,0,1,.8-.8,2.87,2.87,0,0,1,.9-1.3,1.44,1.44,0,0,0,.6-1c1,0,1.6-.1,1.9-.4s.9-.4,1.9-.4c.2-.7.4-1,.8-1h.8c0-.3.1-.5.3-.5s.3.1.5.3a4.65,4.65,0,0,1,2.8-.8c0-.7.3-1,1-1a1.86,1.86,0,0,0,1.1-.4,1.86,1.86,0,0,1,1.1-.4c.3-.2.7-.3,1-.5a2.81,2.81,0,0,1,1.5-.3l2-1.5a.27.27,0,0,0,.3.3,5.58,5.58,0,0,0,.8-.5c.2-.2.3-.3.5-.3,0,.3.1.5.3.5h.2a3.05,3.05,0,0,1,1-1.3,1.9,1.9,0,0,1,1.8,0,5.4,5.4,0,0,1,4.2-2.1,15.28,15.28,0,0,0,4.9-1.1l2,.5c-.2-.5-.3-.8-.5-.8s-.3-.2-.3-.5a.47.47,0,0,1,.5-.5h.8c0,.3.1.5.3.5a.27.27,0,0,1,.3.3h.8v-.3h2.3v-.8a1.56,1.56,0,0,0,1.4-.6,4.07,4.07,0,0,0,.6-1.1,4.07,4.07,0,0,0,2.8-.8h3v.5h.3l.5-.5h2.3v-1h4v.3l.5-.3h3.3a1.05,1.05,0,0,1,.9-.5h.9c0-.5.4-.8,1.3-.8a.6.6,0,0,1,.6.3.6.6,0,0,0,.6.3c.5,0,.8-.2.8-.5h2.8a1.14,1.14,0,0,0,.3.8c0,.3,0,.5.1.6s.1.2.1.4h2c0-1.2.4-1.8,1.3-1.8v-.8h-.3c-.2,0-.3-.3-.3-.8H182c0,.2.1.4.4.8s.5.5.9.5a.47.47,0,0,0,.5-.5h3.3c.2-.7.5-1,1-.9a1.31,1.31,0,0,0,1.3-.4v.8h4a2.24,2.24,0,0,1,1.8-.9,3.8,3.8,0,0,0,1.8-.6h3.3c.3.3.8.3,1.3-.1s.8-.5,1-.4v1c.3,0,.5.3.5.8.5-.5.9-.8,1.3-.8h.5v.8c.2-.5.4-.8.8-.8.2.3.3.3.5-.3s.3-.6.5-.3c.3-.3.4-.2.3.5s-.1,1,.3,1c0-.5,0-.8.1-.8s.3.2.6.5c.5-.5.9-.8,1.3-.8a2.38,2.38,0,0,1,1.3.8,1.43,1.43,0,0,0-1,.4.68.68,0,0,1-1-.1,1.47,1.47,0,0,0-.2,1.4c.2.4,0,.8-.5,1.1-.5,0-.8.2-.8.5a5,5,0,0,1-.5,1.5h-.5a14.45,14.45,0,0,1-2,4.7,19.81,19.81,0,0,0-2.3,4.9,4,4,0,0,0-1.8,2.3,15.15,15.15,0,0,0-1,3.8c-.2,0-.3,0-.4.1s-.2.1-.4.1h-.3a2.5,2.5,0,0,0-.3,1.3h-.5a1.9,1.9,0,0,0-.5,1.3c0,.5-.3.9-1,1.3-.3.8-.7,1.6-1,2.3a2.17,2.17,0,0,1-1.5,1.3,2.77,2.77,0,0,1-.1.9,2.48,2.48,0,0,0-.1.9l-4,7.5h-1.5a4.68,4.68,0,0,1-1.5,2.8,2.11,2.11,0,0,1-.5,1.3l-1.3,2.3a2.55,2.55,0,0,0-.2,1.3h-.5a8.81,8.81,0,0,1-1.5,3.4c-.7.9-1.3,1.8-2,2.6a8.17,8.17,0,0,1-.1,1.4,1,1,0,0,1-1.1.9,8.93,8.93,0,0,1-1.5,2.9,14.49,14.49,0,0,0-1.8,3.1c-.3.3-.5.6-.4.8s0,.3-.4.5a2.77,2.77,0,0,1-.3,1.3,2.11,2.11,0,0,1-.5,1.3H173a7.57,7.57,0,0,1-.1,1.5,3.1,3.1,0,0,1-.6,1.3,1.1,1.1,0,0,0-.5,1H171v.8h-2.8c-.2.2-.3.3-.3.5a.3.3,0,1,1-.6,0v.3a.27.27,0,0,1-.3-.3l-.3-.5h-2.8c-.2.2-.3.3-.3.5a.27.27,0,0,1-.3.3v-.3a.27.27,0,0,1-.3-.3c0-.2-.2-.3-.5-.3,0,.7-.1,1-.4.9s-.5,0-.9.4h-2.3v.3c0,.2-.2.3-.5.3h-2.8c0-.3,0-.5-.1-.5s-.1-.1-.1-.3h-2.5a2,2,0,0,1-1.8.8h-.3c-.2,0-.3-.2-.5-.5h-2.8a5.65,5.65,0,0,1-1.4.9,4.83,4.83,0,0,0-1.4.9h-2.8c0-.7-.4-1-1.3-1a5.84,5.84,0,0,0-2.1,1.1,4.81,4.81,0,0,1-2.6,1.1v.3a15.43,15.43,0,0,0-2.4.9,6.16,6.16,0,0,1-2.6.4c.2.3-.2.5-1,.5a4.13,4.13,0,0,1-1.1-.5c-.6-.3-.9-.6-.9-.8h-2c-.2.3-.3.5-.5.5s-.3-.1-.5-.3a1.75,1.75,0,0,1-.6,1.5,2.11,2.11,0,0,1-1.1.5c-.7,0-1,0-.9-.1s0-.3-.4-.6h-.8a2,2,0,0,1-.1.8,2.51,2.51,0,0,0-.1,1,.9.9,0,0,0,.1.5.9.9,0,0,1,.1.5v1h-2l-2.3,1-2.5.5c-.8.5-1.3,1-1.3,1.5a1.61,1.61,0,0,0,.3.9,1.55,1.55,0,0,1,.3.6,2.11,2.11,0,0,1-.5,1.1,2.75,2.75,0,0,1-1.5.9,2,2,0,0,1-.1,2c-.4.5-.8.9-1.1,1.3.5.5.8.9.8,1.3h5.3a1.46,1.46,0,0,0,.8.5,2.11,2.11,0,0,0,1.1-.5c.4-.3.6-.6.6-.8h3a.6.6,0,0,1,.3-.6c.2-.1.2-.3.2-.6H125v.5h2.3a1.9,1.9,0,0,1,1.3-.5,2.38,2.38,0,0,1,1.3.8,2.5,2.5,0,0,1,.8,1.8l1.3-.5h2c.3,1.2,1.3,1.4,2.8.8a1.05,1.05,0,0,0,.4,1,.81.81,0,0,1,.4.8h4l1.3,1v-.5a.27.27,0,0,1,.3-.3l1.3,1.8h2v-.5h2.3l.5-.8c.2,0,.3.1.5.3a2.77,2.77,0,0,0,.8.5l.8.8a2,2,0,0,0,.8-.1,1.72,1.72,0,0,1,.8-.1,2.12,2.12,0,0,1,1.8,1h2v1.3h1v1.3c-.3.2-.5.4-.4.6s0,.5-.4.9c-.2.3-.4.7-.6,1a1.43,1.43,0,0,0-.4,1c-.3.3-.5.5-.4.6s-.1.3-.6.6a5,5,0,0,1-.1,1.5,3.81,3.81,0,0,0-.1,1.3,4.11,4.11,0,0,0-.8,1.3,4.37,4.37,0,0,1-1,1.5h-.3v1.8H154c.2.2.4.3.6.5s.4.3.4.5a2.77,2.77,0,0,1-.1.9,2.48,2.48,0,0,0-.1.9h-1.3l-.5-.5h-.3a3.94,3.94,0,0,0-.5-2,64.92,64.92,0,0,0-2.8,7.5h-.5c-.2.7-.8.8-1.9.4s-1.6-.2-1.6.6a6.13,6.13,0,0,0-2.3,5h-1a.78.78,0,0,1,.1,1.1,2.58,2.58,0,0,1-.9.9,8.93,8.93,0,0,1-1.6,3.4,7.8,7.8,0,0,0-1.6,3.9h-.3a3.94,3.94,0,0,0-.5,2,5.35,5.35,0,0,0-1.5,4c-.3,0-.5,0-.6.1s-.3.1-.6.1a2.77,2.77,0,0,1-.3,1.3,2.11,2.11,0,0,1-.5,1.3h-.4c0,.3,0,.5-.1.6s-.1.3-.1.6c-.3.2-.5.7-.5,1.5-.3.3-.5.5-.4.6s0,.3-.4.6l-.3,1.5h1v.8a2.44,2.44,0,0,0-1.8.6,11,11,0,0,1-1,1.1V227h.8a.6.6,0,0,0,.3.6.6.6,0,0,1,.3.6v2a2.59,2.59,0,0,0-.6,1.4,4.42,4.42,0,0,1-.6,1.6c-.3-.2-.5-.4-.4-.6a2.48,2.48,0,0,0,.1-.9q-.45,0-.3-.3c.2-.2.1-.2-.3-.2h-.8c-.3.5-.6,1-.9,1.6a4.83,4.83,0,0,1-.9,1.4v2.3a2,2,0,0,0-.8,1.8,3.58,3.58,0,0,0-.4,1.1,1.86,1.86,0,0,1-.9,1.1h-.3c-.3,1-.7,2-1,3.1a7.3,7.3,0,0,1-1.5,2.9l-.3,3.5a2.31,2.31,0,0,0-.8,2.3q.3,1.5-1.8,1.8v1l.5.5v1.1h-.5a4,4,0,0,1-.3,1.5,1.05,1.05,0,0,1-1,.8l-.3,2.8c-.7.7-.9,1-.8,1l-.5,3.5a.6.6,0,0,0-.6.3.6.6,0,0,1-.6.3v3.5h-.5l-.3,2.8c-.3,0-.5.3-.5.8a.6.6,0,0,0,.3.6.6.6,0,0,1,.3.6v.3c0-.2-.3,0-.8.5l.3,2.8-.3,3.3c-.3.3-.4.6-.3.8s.1.5-.2,1h-.8l-.5,5.8c-.2,0-.3.2-.5.6s-.3.6-.5.6c0,.3.3.6.8.8v6.8a2.87,2.87,0,0,1,1.3.9.81.81,0,0,0,.8.4l2.8-.8h.8c-.2.3-.2.5-.1.6s.1.3.1.6v2l.5.3h.3c0,1,.3,1.7,1,2a3.32,3.32,0,0,1,1-1.4,2.15,2.15,0,0,1,1.3-.6.63.63,0,0,1,.6.5.63.63,0,0,0,.6.5l.8-1c0-.5-.2-.8-.5-.8l-.3-2.8.3-3.5.5-.5a.85.85,0,0,0-.2-.6.6.6,0,0,1-.3-.6,1.88,1.88,0,0,0,.8-.2l.5-.5a5.58,5.58,0,0,0-.5-.8,7.91,7.91,0,0,1-.8-1.3c0-.3.3-.5,1-.5-.5-.7-.2-1,1-1v-1.8c-.3,0-.5-.1-.5-.3s.1-.3.3-.5V286h.8v-.8c-.3,0-.5-.1-.5-.3a.27.27,0,0,0-.3-.3c.2-.2.4-.2.8-.2-.3-.3-.3-.7.1-1.1a7.29,7.29,0,0,1,1.1-.9v-1h2.4a2.06,2.06,0,0,1,.9.5l-1,.5c0,.7-.1,1.1-.4,1.3a1.05,1.05,0,0,0-.4,1,2.55,2.55,0,0,1,1.3-.2c.3-.3.5-.6.4-.9s0-.5.4-.9v-3.3a9.34,9.34,0,0,0,1.8-1.6,5,5,0,0,0,1-1.9h.8a2.8,2.8,0,0,1,.3-2.3,14.51,14.51,0,0,0,1-1.8l1.3,1.3h-.6v2.3h-1a32.51,32.51,0,0,1-1.8,5h-.2a1.14,1.14,0,0,1-.3.8,1,1,0,0,0-.3.8,1.9,1.9,0,0,1,1.3-.5,2.71,2.71,0,0,1,.6-1.9,4.17,4.17,0,0,0,.9-1.6,1,1,0,0,1,.3,1,.73.73,0,0,0,.3,1c.2,0,.2.1.1.2s0,.3.1.3l3.8.3,1-3.3,2-1.5c0-.5.3-.9,1-1.3v-4.3a4.11,4.11,0,0,0,.8-1.3,1.25,1.25,0,0,1,1.3-.8,24.88,24.88,0,0,1,1.1-2.9,6.14,6.14,0,0,1,1.9-2.4v-.8l-1.3.5c0-.3-.1-.5-.4-.5s-.2-.2.1-.5c0-.2,0-.3-.1-.3s0-.2.4-.5v-.8c-.5,0-.8-.1-.8-.3.3-.3.4-.6.3-.8s-.1-.3.3-.5h3.5v-1c1,.3,1.5,0,1.6-.9a1.42,1.42,0,0,1,1.6-1.4,4.75,4.75,0,0,1,1.4-2.3,6.23,6.23,0,0,0,1.4-1.8l1.5-4.3h.5a2.44,2.44,0,0,1,.6-1.8,3,3,0,0,0,.9-1.3l-.3-.2.3-2c.5,0,.6-.2.4-.6s-.2-.7.1-.9a1.1,1.1,0,0,1,.5,1,2.11,2.11,0,0,0,1.1-.5,2.13,2.13,0,0,1,1.6-.3l-1.3-1.3,1.5-1,.5-2.5a1.59,1.59,0,0,0,.5-1,3.61,3.61,0,0,1,.8-1.5h.8l.5-2.3c.2-.3.4-.7.6-1a1.43,1.43,0,0,0,.4-1l2-1.5v-1.3a.74.74,0,0,1,.8-.8v-2h-.8l.5-1.8v.5h.3c0-.3.1-.5.3-.5h.3l.5-.8a1.88,1.88,0,0,1-1.3-.3,5.76,5.76,0,0,1,.1-1.5,3.4,3.4,0,0,0,.1-1v-.5c.7.7,1,1.1,1,1.3h1c-.2-.3,0-.6.4-.9s.6-.5.6-.6l.8-1.8a4.84,4.84,0,0,1,.3-1.8c0,.2.5.1,1.4-.1s1.4-.8,1.4-1.6v-.3l-.3-.5.3-3.3a3.82,3.82,0,0,0,.9-.9c.3-.4.5-.6.9-.6l.8.8a.55.55,0,0,0,.6-.4.55.55,0,0,1,.6-.4v-1.3l-.5-.5v-.8h.8v-.8a.56.56,0,0,0,.9,0c.3-.3.2-.8-.1-1.5q1,0,.6-.9t.6-.9v-.8h-.8a3.29,3.29,0,0,1-.6,1.9,2.66,2.66,0,0,0-.6,1.4h-.8l.5-2.8c.2,0,.3-.1.4-.3a.6.6,0,0,1,.6-.3v-2.5a1.59,1.59,0,0,0,1-1.1c.2-.6.5-.7,1-.4l1.8-3.3c.7.3,1.1.2,1.3-.4s.5-.7,1-.4c-.2-.3.3-.5,1.4-.6s1.7-.3,1.9-.6v-2h.8a2.11,2.11,0,0,1,.5-1.3v-3a1.9,1.9,0,0,0,.5-1.3h1c0-.8.3-1.3.8-1.3v-1.5h1c-.3-.7-.3-1.1.1-1.4a6.78,6.78,0,0,1,.9-.6,1.2,1.2,0,0,1,1-1.3v-2.5c.3-.2.5-.4.4-.8a1.5,1.5,0,0,1,.4-1.3h1.3a4.21,4.21,0,0,0,1,2v-1.5h1.3a.6.6,0,0,0,.3.6.6.6,0,0,1,.3.6h.8v-1.3a1.93,1.93,0,0,0-1.6-.4c-.8.1-1.1-.3-1.1-1.1a1.14,1.14,0,0,1,.3-.8.6.6,0,0,0,.6-.3.6.6,0,0,1,.6-.3c0,.2.4.4,1.3.8a1.93,1.93,0,0,0,.3,1,1.93,1.93,0,0,1,.3,1h.8c-.3-.8-.3-1.4.1-1.8a2.75,2.75,0,0,0,.9-1.5h2.5l.5-.3h.8V171a3,3,0,0,1,1.8.4c.3.3.8.5,1.3.9l1-1.8,1.5-1h2.5c-.5,1-.5,1.7.1,2s.8.9.6,1.8c.2,0,.4-.1.8-.4s.8-.2,1.3.1a.74.74,0,0,1,.8-.8h.5a5,5,0,0,0,.1,1.5,1.72,1.72,0,0,1,.1.8h2.8l2.8,1.8h2.8q0-1.2.6-1.5c.4-.2.6-.3.6-.5h3.8c0,.2.2.4.5.6a.81.81,0,0,1,.3.9,14.51,14.51,0,0,0,1.8-1,14.51,14.51,0,0,1,1.8-1,7,7,0,0,0,.8-1c.2-.3.6-.4,1.3-.3a2.33,2.33,0,0,1,2-1,5,5,0,0,1,1.5.5c.7.3,1,.7,1,1,0,.5-.2.8-.5.8h-.5a2.77,2.77,0,0,1-.1.9,1.76,1.76,0,0,0-.1.6l.3.3v.3h2.5l.5-.5h.3a3.11,3.11,0,0,1,1.5.9,7.17,7.17,0,0,1,1.3,1.4,3.67,3.67,0,0,1,2-1.3c.3-.5.5-.7.5-.6s.1,0,.3-.4c1-.3,1.4-.6,1.3-.8s.3-.3,1.3-.3a2.77,2.77,0,0,0,.9-.1c.2-.1.4.2.4.9h.8q0-.45.6-.6a1.46,1.46,0,0,0,.9-.6h2.5v.5h.3c.3,0,.8-.3,1.5-1s1.2-1,1.5-1h2c.5.5.8.8,1,.8v-2a4.21,4.21,0,0,0,1.4-.9C270.28,170.4,270.88,170.2,272,170Zm250.2,28.2c0-.2.1-.3.2-.3.3,0,.5.1.5.3a.27.27,0,0,0,.3.3v-4.8a2,2,0,0,0,.5-1.4c0-.6.4-1.1,1.3-1.6v-2.8c.2-.2.2-.6.2-1.3,0-.3-.5-.7-1.5-1v-1.8a1.88,1.88,0,0,0-.8.2,1,1,0,0,1-.8.3v2h-.5v2.3c-.5,0-.8.2-.8.5.5.3.8.6.8.8a.47.47,0,0,1-.5.5h-1a1.38,1.38,0,0,1-.5.9c-.3.3-.5.5-.5.6a3,3,0,0,0,1,1.6c.7.8,1.2,1.3,1.5,1.6a.74.74,0,0,0-.8.8,2.38,2.38,0,0,0,.8,1.3.74.74,0,0,0-.8.8c.5,0,.8.2.8.5Q522.18,198.35,522.18,198.2Zm35.2-61.4a2,2,0,0,0,.8-.8,1.76,1.76,0,0,0,.4-.5,1.76,1.76,0,0,1,.4-.5h-.8c0,.7-.3,1-.8,1h-.8C556.68,136.5,556.88,136.8,557.38,136.8Zm115.2-64.9-.5-.5-1.5-.8H669v.3h-1.3v-1a2.59,2.59,0,0,1-1.8-.1,2.62,2.62,0,0,0-1.5-.6V67.9h-.8c-.5.8-.9,1.3-1.3,1.3h-.5a2.5,2.5,0,0,0-.8-1.8h-3.5q0-.3-.6-.6a2.58,2.58,0,0,1-.9-.9h-1.3v1.3h-.8a1.38,1.38,0,0,1-.5.9,1.43,1.43,0,0,0-.5,1.1.27.27,0,0,1-.3-.3c0-.2-.2-.3-.5-.3V65.1c.3,0,.5-.3.5-.8a1.05,1.05,0,0,0-.4-1,5.74,5.74,0,0,1-.9-.8h-1.5v1.3h-1c-.3-.5-.6-.8-.8-.8-1,0-1.5.4-1.5,1.1s-.4,1.1-1.3,1.1a.9.9,0,0,1-.5-.1.9.9,0,0,0-.5-.1,1.22,1.22,0,0,0-.9.4,1.25,1.25,0,0,1-1.1.4q0,1.2-.6,1.5a2.84,2.84,0,0,0-1.1.8l-.8,2.5a1.59,1.59,0,0,0-1-.5,1.93,1.93,0,0,1-1-.3c-.3.2-.5.3-.5.5a.27.27,0,0,1-.3.3q-1.2-1-1.8-1.5c-.2.3-.3.5-.5.4s-.3,0-.5.4c0,.2-.2.4-.5.6a1.2,1.2,0,0,1-.8.4,1.59,1.59,0,0,1-1-.5,1.59,1.59,0,0,0-1-.5v1a.47.47,0,0,1,.5.5v3.3h-2.8c.2.5-.2,1.2-1,2a1.8,1.8,0,0,0-.2,1c0,.3-.3.5-.8.5a4.72,4.72,0,0,1-2.3,2.5V82a3.61,3.61,0,0,0-1.5.8l-1.5,1a3,3,0,0,1-1,2.4,2.23,2.23,0,0,0-1,1.6,2.59,2.59,0,0,0-1.4,1.5,1.38,1.38,0,0,1-1.4,1,4.2,4.2,0,0,1-1.3,1.8,3.81,3.81,0,0,0-1.3,1.8,3.64,3.64,0,0,1-1.4,1.6,1.92,1.92,0,0,0-.9,1.6l-1.3.8a8.66,8.66,0,0,1-2,2.8,4.57,4.57,0,0,1-1.3,1.9,4.85,4.85,0,0,0-1.3,1.9h-2.3c0-.5-.2-.8-.5-.8a.55.55,0,0,0-.6.4.55.55,0,0,1-.6.4v-.8h-3l-.8,2a6.15,6.15,0,0,1-1.4-.1c-.4-.1-.6,0-.6.4h-3l-.3-.3c-.2,0-.3,0-.4.1s-.2.1-.4.1h.7c-.3-.3-.6-.5-.8-.4s-.4,0-.8-.4a1.14,1.14,0,0,1-.8-.3l-.5-.5a.9.9,0,0,0-.5.1.9.9,0,0,1-.5.1l-.5-.3h-3.3l-.3.3a1.6,1.6,0,0,0-.8-.3,1.6,1.6,0,0,1-.8.3h-1.3c0,.7-.3,1-1,1-.2,0-.2-.2-.2-.5v-.5H577c0,.7-.2,1-.5,1s-.4-.2-.8-.5v-.5a2.5,2.5,0,0,0-.3,1.3h-.8v-.3h-1.3c0,.2-.2.4-.5.8h-1.5c-.3-.3-.5-.5-.6-.4s-.3,0-.6-.4h-4.3v.3h-5.3v.5h-2.8l-.3.5h-.3v-.3a.9.9,0,0,1-.5-.1.9.9,0,0,0-.5-.1c-.3,0-.5,0-.5.1s-.2.1-.5.1l-.3-.3-.3.3h-.3c0-.3-.2-.4-.8-.3a1.48,1.48,0,0,1-1.3,0,.47.47,0,0,0-.5-.5c-.2,0-.3.1-.5.3s-.3.3-.5.3-.5-.1-.5-.3-.2-.3-.5-.3-.4.1-.8.4a2.5,2.5,0,0,1-1.3.4,1.33,1.33,0,0,1-1-.3c-.3.3-.6.5-.8.4a.9.9,0,0,0-.5-.1c-.7,0-.9,0-.8-.1s-.1-.3-.8-.6c0,.7-.1.9-.4.6s-.5-.2-.9.1h-8.6a.27.27,0,0,0-.3-.3,5.15,5.15,0,0,0-2.8,1.3h-4.5v.3h-2l-.3-.3c-.7,0-1,.1-1,.3h-3l-.3.5h.9c-.2,0-.3-.1-.5-.3a1,1,0,0,0-.8-.3c-.5,0-.8.2-.8.5h-3.5c-.3.5-.5.8-.6.8h-1.4v-.8l-1.5,1h-4.5c0-.2-.1-.3-.4-.4a.55.55,0,0,1-.4-.6c-.3.8-.8,1.3-1.4,1.3a1.72,1.72,0,0,0-1.4.8h-2.5a3.2,3.2,0,0,1-2.3.8,3.82,3.82,0,0,1-2.5,1,3.14,3.14,0,0,1-1,1,3.51,3.51,0,0,0-1,.8l-.8,2.3h-.5v1.3a1.59,1.59,0,0,1,1,.5h2.8v2a1.93,1.93,0,0,1-1,.3v1a.89.89,0,0,1,.5.8h1.3a3.4,3.4,0,0,0,.1,1,3.4,3.4,0,0,1,.1,1,7.27,7.27,0,0,1,2.5.4,11.36,11.36,0,0,0,2.5.6v.5h1.5v-.8h2v.8h1.5l1,1,1,1a2.87,2.87,0,0,1,1.3.9.81.81,0,0,0,.8.4.74.74,0,0,0,.8-.8h3.3a7,7,0,0,0,1,.8,1.1,1.1,0,0,1,.5,1h1.3a1.59,1.59,0,0,1,1.8-1.8c.5,0,.8.1.8.3a1.43,1.43,0,0,0,.4,1,2.11,2.11,0,0,1,.4,1h3.5v.5h1.3c-.3-.5-.5-.8-.6-.8s-.1-.2-.1-.5v-.8h1.3l.8,1a1.2,1.2,0,0,1,1.3-1l.3.3c0-.5.2-.7.5-.5s.8,0,1.3-.5h2.8a.74.74,0,0,0,.8.8c.3,0,.5-.1.5-.4s.3-.4.8-.4a1,1,0,0,1,.3.8h2.5v1h-3.3v.5h-3.5l-3.3,1.5c0,.7.3,1,.8,1a1.33,1.33,0,0,1,1.6-.5,1.23,1.23,0,0,0,1.6-.8,1,1,0,0,1,1.1-.4c.6.1.9,0,.9-.4h2.3v.3h3a2.36,2.36,0,0,0,.9.8,2.59,2.59,0,0,1,1.1,1h-.5v.8h.5a1.38,1.38,0,0,1,1.3-1.1,9.89,9.89,0,0,1,1.5-.1c0-.3.1-.5.2-.5v.5h2.5c0-.3,0-.5.1-.6s.1-.3.1-.6h2.5q.3,1,.9.9a4.48,4.48,0,0,1,1.1-.1.89.89,0,0,0,.8.5c0-.5.4-.8,1.3-.8,0,.5.1.8.3.8v3.8c.5.2.7.3.6.5s0,.3.4.5a1.33,1.33,0,0,0,.3-1h1v-1.8a4.65,4.65,0,0,1,2.8-.8V132h.8a.89.89,0,0,0,.8.5,2.42,2.42,0,0,0,1.3-.6,11.15,11.15,0,0,0,1-.9,3.45,3.45,0,0,0,1.8-.5h1.5c.3.7.8,1,1.3.9s.9.3,1.3,1.1h1.5v-1.3h.8a1.43,1.43,0,0,0,1,.8c.2,0,.2,0,.2-.1s.2-.1.5-.1.3,0,.3-.1.2,0,.5.4h3.5c0,.3.1.5.3.5h.3a1.14,1.14,0,0,0,.8-.3,1,1,0,0,1,.8-.3,5.39,5.39,0,0,1,1.6.5c.8.3,1.4.6,1.9.8.3,1,.6,1.4.8,1.3s.3.3.3,1.3a3.27,3.27,0,0,1-.9,1.6c-.6.8-1,1.1-1.1,1.1a8.81,8.81,0,0,1-1.5,3.4,8.81,8.81,0,0,0-1.5,3.4h-.3a3.32,3.32,0,0,1-1,2.5,5.74,5.74,0,0,0-1.5,2.3l-1,1.3c0,.5-.2.8-.5.8h-.3v1.3a12.58,12.58,0,0,1-1.3,1.6,6,6,0,0,0-.8,1.6l-.3,1.5-.1.4-.5.5c-.3.4-.5.6-.9.6a18.89,18.89,0,0,1-5.3,7,2.89,2.89,0,0,1-1.3,1.9,1.82,1.82,0,0,0-1,1.6l-2,2a7.34,7.34,0,0,0-1,1.3,3.45,3.45,0,0,0-.5,1.8c-1.3,0-2.2.4-2.5,1.3a8.3,8.3,0,0,1-1.5,2.5c0,.5-.2.8-.5.8a4.26,4.26,0,0,1-2,1.5,12.13,12.13,0,0,1-1.6,2.3c-.8.8-1.4,1.4-1.9,1.8l-1,1.3a7.41,7.41,0,0,1-1.8,2.1,10.71,10.71,0,0,0-1.8,1.9,4.21,4.21,0,0,0-2,1c-.5.5-1.2,1.1-2,1.8-.2,0-.3.3-.3.8l-2,2a16.24,16.24,0,0,0-1.8,2h-.8l-1.3,1.3a1.33,1.33,0,0,1-1,.3l-1.9,1.9-2.9,2.9c-1,1-2,1.9-3,2.8a5,5,0,0,1-2.3,1.3h-.5a2,2,0,0,0-.8-1.9c-.5-.3-.6-1-.2-2.4-.3.2-.5,0-.5-.5h.5v-.8q-.75-.3-.6-.3c.1,0,.1-.2.1-.5s-.1-.5-.2-.5h.7v-2.8c-.3,0-.5-.1-.5-.3h-1.5c0,.2-.2.2-.5.1s-.5,0-.5.1V206a.27.27,0,0,0-.3.3c0,.2-.2.3-.5.5V200c-.5,0-.8-.2-.8-.5v-.3c0-.5.2-.8.5-.8h.3a2.52,2.52,0,0,1,.3-2.1,4.14,4.14,0,0,0,.5-1.9h-1.5v-.8a1.46,1.46,0,0,0,.5-.8.47.47,0,0,1-.5-.5c.3,0,.5-.3.6-.8a3.1,3.1,0,0,1,.6-1.3h.8v-3.5c.3,0,.5-.3.6-.8a3.1,3.1,0,0,1,.6-1.3l-.8-.5h.3c.2-.2.3-.3.5-.3v-3.3h.5v-2.3h1.8v2c-.2,0-.3.3-.3,1,0,.3,0,.5.1.6s.1.3.1.6h1.3a2.42,2.42,0,0,1,.3-1.4,2.42,2.42,0,0,0,.3-1.4h.8a2.14,2.14,0,0,1-.1-1.9,1.22,1.22,0,0,1,1.6-.6v-1.3h-.8v-3c.7,0,1-.2.9-.5a1.5,1.5,0,0,1,.4-1.3v-2.8c-.3.3-.6.4-.9.1s-.5-.4-.6-.4c-.3,0-.5,0-.6.1s-.3.1-.6.1a1.33,1.33,0,0,0-.3-1,1,1,0,0,1-.3-.8v-.5h1.3a.6.6,0,0,0,.3.6c.2.1.3.3.5.6a19.5,19.5,0,0,0,.8-2c.2-.5.3-.9.5-1.3,0-.3-.1-.5-.3-.4s-.3-.2-.3-.9h.5v-2.5q-.45,0-.6-.9a3,3,0,0,0-.6-1.4c-.2-.3-.3-.5-.5-.6a.6.6,0,0,1-.3-.6h-1.3a3.82,3.82,0,0,1-.9.9,4.07,4.07,0,0,1-1.1.6l-.8-.8a.88.88,0,0,0,.9-.8l.3-1.5a5,5,0,0,1,.4-1.3c.2-.3.6-.4,1.3-.3-.2-.5-.4-.7-.8-.6a2.48,2.48,0,0,1-.8.1c0-.3-.1-.5-.3-.5s-.2-.1-.2-.3a1.46,1.46,0,0,0,.5-.8c-.8.2-1.3,0-1.5-.5a2.7,2.7,0,0,0-1.3-1.3h-1.8c.3-.7.3-1.1-.1-1.4s-.5-.7-.1-1.4l-.6.6c-.1.1-.3.1-.6.1a5,5,0,0,1-1.5-.5,2,2,0,0,1-.8-.8,2.15,2.15,0,0,0-1.3.9c-.5.6-.9.9-1.3.9l-1-.5a5.58,5.58,0,0,1-.8-.5,1,1,0,0,0-.8-.3,2,2,0,0,0-1.3.4,8.12,8.12,0,0,0-1,.9h-4.5c0,.3-.2.5-.5.4a3.4,3.4,0,0,0-1-.1,1.54,1.54,0,0,1-1.1,1.6c-.8.3-1.1.7-1.1,1.4h-2.5v.3h-4.8l-.3.5a.27.27,0,0,1-.3.3h-.2a1.22,1.22,0,0,1-.9-.4,1.09,1.09,0,0,0-.9-.4,1.43,1.43,0,0,0-1,.4,1.84,1.84,0,0,1-1.3.4,1.56,1.56,0,0,1-1.3.8c-.5,0-.9.3-1.3,1h-3.5c0,.2-.2.3-.5.3h-.3c-1,1.3-1.9,2-2.8,2,.2.7,0,1-.4.9a.7.7,0,0,0-.9.4h-3.8q-.3,1-.9.6a1.86,1.86,0,0,0-1.1-.4,5.62,5.62,0,0,1-3.1,1.9,28.47,28.47,0,0,0-3.9,1.1c0,.5-.3.8-1,.9a9.89,9.89,0,0,1-1.5.1l-.8,1a3.65,3.65,0,0,0-2.4.8,8.91,8.91,0,0,1-2.4,1.3c0,.3,0,.5.1.6s-.1.1-.6.1h-.3v-1.8h.3v-1.8c0-.3.1-.5.3-.5h.3v-1.5h-.8v-1.3a1.6,1.6,0,0,0,.3-.8,3.92,3.92,0,0,0-.3-1.3l.3-.8h1.3a1.46,1.46,0,0,0,.8.5h.5a1,1,0,0,0,.8.3,1.19,1.19,0,0,1,1.1-.4,6.15,6.15,0,0,0,1.4.1v-1.3h-1.3l1.5-2h-1.5l-.3.5h-.3c-.3-.3-.5-.4-.6-.2s-.3.1-.6-.3v-.8a1.59,1.59,0,0,1,1-.5,5,5,0,0,1,.1-1.5,8,8,0,0,1,.6-.8h.8q.75.45,0,1.5H463l1-3.3h.5c-.3-.7-.3-1.1.1-1.3s.6-.4.6-.8c0-.8.2-1.3.5-1.5a4.34,4.34,0,0,0,.2-1.3,18.82,18.82,0,0,1,1.6-2.3,3.66,3.66,0,0,0,.9-2.5l1.5-1.3a8.42,8.42,0,0,1,1.3-2.5,23,23,0,0,0,1.5-2.3l-.8-.5c0-.7.4-1,1.3-1a2.37,2.37,0,0,1,.3-1.5l.5-.5a.55.55,0,0,0-.4-.6.55.55,0,0,1-.4-.6,5.48,5.48,0,0,1,.8-1.5c.7-1,1.1-1.6,1.3-1.8v-3.5h.8v-2.5c-.5,0-.8-.2-.8-.5V117c0-.2.3-.4.8-.8v-2.5h-.8v-2.8c-.3,0-.5-.1-.5-.4a.71.71,0,0,0-.3-.6h-2.8c0,.2,0,.3.1.3s.1.2.1.5v.3h-1.3l-.6-1.5a5.44,5.44,0,0,1-.4-2,8.53,8.53,0,0,1-2.1-1.4,14.92,14.92,0,0,0-2.4-1.4v-.5c-.8.3-1.5.4-1.9.1s-.9-.5-1.4-.9a.86.86,0,0,0-.6-.3c-.3,0-.5-.2-.9-.5H459a1.05,1.05,0,0,0-.9-.5H457a1,1,0,0,0-.8-.3v.3h-4.3v.5h-3a.27.27,0,0,1-.3-.3V102h-8.3c0,.3,0,.5.1.5s.1.2.1.5l-.3.3v.5a.27.27,0,0,1,.3.3h-.3c-.8,0-1.3-.3-1.3-.8a1,1,0,0,0,.3-.8h-1v1.3c.5,0,.8.4.8,1.3a2.77,2.77,0,0,1-.9-.1c-.3-.1-.5,0-.9.4h-2.3a2.62,2.62,0,0,1-1.3.6,2.23,2.23,0,0,0-1.3,1.1H430c0,.5-.2.7-.5.5s-.6-.1-.8.3h-2.8c.3.5.3.8-.1.8h-1.1a4,4,0,0,1-1.5.3,19.83,19.83,0,0,0-2,1.1,3.86,3.86,0,0,1-2,.6,2.59,2.59,0,0,1-1.4.6,16.25,16.25,0,0,0-1.9.4c-.3.7-.6.9-.9.8a1.55,1.55,0,0,0-.6-.3,11.94,11.94,0,0,1-1.6.8,1.5,1.5,0,0,0-1.1,1.3c0,.2.2.3.5.3a.27.27,0,0,1,.3.3v.3a.47.47,0,0,1-.5.5,2.42,2.42,0,0,0-2-1.3,1.38,1.38,0,0,0-1.4,1c-.2.7-1.6,1.2-3.9,1.5a1.3,1.3,0,0,1-1,.9,9.41,9.41,0,0,0-1.8.6,3.38,3.38,0,0,1-2.4,1.5,11.24,11.24,0,0,0-3.1,1,.55.55,0,0,1-.4.6c-.3.1-.4.2-.4.4a10.54,10.54,0,0,0-3.4,1.4,13.38,13.38,0,0,1-3.4,1.4,5.79,5.79,0,0,1-2.5,1.5,4.23,4.23,0,0,0-2.3,1.5l-3.8,1a2.11,2.11,0,0,1-2.8,1.8,3.69,3.69,0,0,1-1.4.8,2.5,2.5,0,0,0-1.4,1.3h-1.3c-.3.3-.6.7-.9,1a1,1,0,0,1-1.1.3c-.2.3-.3.5-.5.6s-.3.2-.3.4a1.14,1.14,0,0,0-.8.3,1,1,0,0,1-.8.3.6.6,0,0,1-.6-.3.6.6,0,0,0-.6-.3l-1.4,1.4a6.57,6.57,0,0,0-1.2,1.7h-.2a5.62,5.62,0,0,0-2,.3c-.3-.3-.6-.5-.9-.4s-.5,0-.6-.4V135h-1.3a3.33,3.33,0,0,1-1.6.8,4.11,4.11,0,0,0-1.6.5c-.2.3-.3.5-.5.5a.27.27,0,0,0-.3.3h-2a1.14,1.14,0,0,0,.3.8c.2.2.3.3.3.5-.5.3-1,.6-1.4.8a2.84,2.84,0,0,0-1.1.8h.2c.2.7.1,1-.1,1.1a.9.9,0,0,0-.6.6v3.5c0,.2,0,.3.1.3s.1.1.1.3v.8a2.77,2.77,0,0,0-1.3.3h-2.2c-.3.3-.7.6-1,.9a2.08,2.08,0,0,1-1.5.4,3.35,3.35,0,0,1-1.5,1.8,3.44,3.44,0,0,1-.1.9q-.15.6-.6.6v.8a.61.61,0,0,1,.8.1,1.24,1.24,0,0,0,.8.6v2.5c-.2,0-.3,0-.3.1s-.1.1-.3.1h-.3l2.8,1v1.5l-1.5,1.3v1h.8l.5-.3h2.3c.3.2.7.4,1,.6s.5.5.5.9h6.5a2.91,2.91,0,0,0,1,1.3c.3.2.5.7.5,1.5a8.75,8.75,0,0,1,2.5,1.6,3.63,3.63,0,0,1,1.3,2.4q1.2-.3.9.6a1.18,1.18,0,0,0,.1,1.4v4a.86.86,0,0,0-.3.9q.3.45,0,.6h-.8v3a2,2,0,0,0-.8,1.1c-.2.6-.5,1-1,1.1v5.1q0-.3-.3.3v2.8a2.38,2.38,0,0,0-.6,1.1,8.23,8.23,0,0,1-.6,1.6h-.5v2.5a7.22,7.22,0,0,1-1.4,2.6,10,10,0,0,0-1.4,2.4,9.77,9.77,0,0,0-1.1,1.4c-.4.6-.8,1.1-1.1,1.6v.8h-1.3a14.51,14.51,0,0,0-1,1.8,2.17,2.17,0,0,1-1.5,1.3c-1,1.3-1.9,2-2.8,2a4.18,4.18,0,0,1-.3,1.8,1.72,1.72,0,0,0-1.6,1,2.85,2.85,0,0,1-1.4,1.3c-.2.3-.7.5-1.5.5-.8.7-1.6,1.3-2.3,1.9a8.57,8.57,0,0,1-2.5,1.4,4.44,4.44,0,0,1-1.1.8,4,4,0,0,0-1.4,1.3h-2.8a1.87,1.87,0,0,1-.8,1.4,2.15,2.15,0,0,1-1.3.6h-.3c-.2,0-.3-.2-.5-.5H327a.47.47,0,0,1-.5.5h-6l-4-2V218c-.2-.3-.4-.5-.8-.4a.63.63,0,0,1-.8-.4h-2.5c-.2-.3-.7-.5-1.5-.5a7.42,7.42,0,0,1-1.6-1,11.16,11.16,0,0,0-1.6-1,6.85,6.85,0,0,0-1.6-2.3,3.07,3.07,0,0,1-1.1-2.5l-2-2.3v-3.7a.85.85,0,0,1-.6-.2.6.6,0,0,0-.6-.3v-3h-.3v-3.3q-1.2.45-1.5,0a1.34,1.34,0,0,1-.2-.8,10.63,10.63,0,0,0,.9-1.1c.3-.4.5-.6.9-.6v-4.8h.3v-3.5c.5-.3.7-.7.6-1a3.4,3.4,0,0,1-.1-1h.8V183c.3-.3.5-.5.5-.6s.1-.2.3-.4a7.62,7.62,0,0,0,.6-2c.1-.7.3-1,.6-1v-2.3l2-2.5.8-1.5c-.2,0-.3-.1-.5-.3-.2,0-.3-.1-.3-.2a1.22,1.22,0,0,0,.9-.4c.3-.3.5-.4.6-.4-.2-.3,0-.7.5-1a1.67,1.67,0,0,1,1.3-.3v-.8h-2V169c.2,0,.3-.2.4-.5s.4-.5.9-.5c.2,0,.3.2.3.5a.47.47,0,0,0,.5.5l2-2.5a6,6,0,0,1,1.6-2.5c.8-.7,1.5-1.4,2.4-2.3v-.8h.8c0-1.2.3-1.8,1-1.8a1.2,1.2,0,0,1,.5-1.5,1,1,0,0,1,1.3,0,9.75,9.75,0,0,0,1.6-2.1,1.88,1.88,0,0,1,1.9-1.1,1.1,1.1,0,0,0,.5-1c.3.2.7-.1,1.1-.8s.8-1,1.1-1c0-.5.2-.8.5-.8h.3l.5-.5a.27.27,0,0,1,.3-.3c.2,0,.2-.2.2-.5h.8a3.24,3.24,0,0,0,.9-.8,3.28,3.28,0,0,0,.6-.8,2.42,2.42,0,0,0,1.9-1,10.83,10.83,0,0,1,1.4-1.5h.3l.5-.5a.27.27,0,0,1,.3-.3c.2,0,.3-.2.3-.5a3.84,3.84,0,0,0,2.3-1.1,3.09,3.09,0,0,1,2-1.1v-.8h1.3a1.61,1.61,0,0,1,.3-.9,1.4,1.4,0,0,0,.3-.9c1.5.3,2.5,0,2.9-.9a3.84,3.84,0,0,1,2.6-1.9,1.11,1.11,0,0,1,1.4-.5c.6.2.9-.2.9-1,1,0,1.6-.1,1.8-.4s.7-.5,1.5-.9a1.41,1.41,0,0,0,1.1-1.4c.1-.8.6-1,1.6-.6.7-.3,1.3-.7,1.9-1a20.92,20.92,0,0,1,2.1-1,4.32,4.32,0,0,0,1.3-1.6c.3-.8,1-1,2-.6a1.61,1.61,0,0,1,.3-1.1,2.42,2.42,0,0,0,.3-1.4,14.7,14.7,0,0,0,1.3-1l1-1,1.3-.8a1.71,1.71,0,0,0,.4-1.5,1.06,1.06,0,0,1,.9-1.3v-.8c-.3.2-.6,0-.9-.4s-.5-.6-.9-.6a1.93,1.93,0,0,1,1-.3.72.72,0,0,1,.6.4,1.09,1.09,0,0,0,.9.4,3,3,0,0,0,1.4-.6q.9-.6.9-.9a4.93,4.93,0,0,1,1.8-.5,7.58,7.58,0,0,0,1.6-.9,1.56,1.56,0,0,1,1.6.1c0-.8-.3-1.3-1-1.3-.3-.8-.7-1.3-1-1.3a1.46,1.46,0,0,1-.8.5h-.3c-1.2,0-1.5-.6-1-1.8h-1.8c0,.8-.7,1.3-2,1.3a.72.72,0,0,1-.6-.4,1.09,1.09,0,0,0-.9-.4,10.72,10.72,0,0,0-2.8,1.4,8,8,0,0,1-3.3,1.4,7.29,7.29,0,0,1-.9,1.1c-.4.4-.8.5-1.1.1a10.37,10.37,0,0,1-3.3,2.3,31.37,31.37,0,0,1-4,1.3,1.74,1.74,0,0,0-1.1.6,2.19,2.19,0,0,1-1.9.4,2.33,2.33,0,0,1-2,1c-.7.7-.9,1-.8,1a18,18,0,0,1-2.1.8,4.74,4.74,0,0,0-1.9.8c0,.7-.3,1-1,1.1a13.4,13.4,0,0,1-2,.1,2.49,2.49,0,0,0-1.1,1.5c-.3.7-.9.7-1.9,0v1.3a4.46,4.46,0,0,0-3.5,2,13.09,13.09,0,0,0-2.8.9,3.87,3.87,0,0,0-1.8,2.4,7.36,7.36,0,0,0-2.3.5c-.8.3-1.7.7-2.5,1a.6.6,0,0,1-.3.6.6.6,0,0,0-.3.6h-1.5a7.34,7.34,0,0,0-1,1.3q-.45.75-1.5.3a14.63,14.63,0,0,0-1.3.9,3.11,3.11,0,0,1-1.8.6,4.87,4.87,0,0,1-.8,1,1,1,0,0,0-.3.8,13.69,13.69,0,0,0-1.4,1,2.27,2.27,0,0,0-.9,1.8,2.45,2.45,0,0,0-1.4.9,1.56,1.56,0,0,1-1.4.6,11,11,0,0,0-1,1.1c-.3.4-.9.5-1.8.1a4.83,4.83,0,0,0-1.3,2.1c-.2.8-.8,1-2,.6L300,152a2.27,2.27,0,0,1-.9,1.8,2.93,2.93,0,0,1-1.9.8v1.3l-4.8,4.3a1.8,1.8,0,0,1-.9,1.6,23.15,23.15,0,0,0-1.9,1.6,2.23,2.23,0,0,1-1.3,2,2.42,2.42,0,0,0-1.3,2,8.48,8.48,0,0,0-3.1,3.4c-.8,1.4-1.6,2.9-2.4,4.4h-.3c0,.7-.2,1-.5,1.1a1.56,1.56,0,0,0-.8.6v1.5a1.5,1.5,0,0,0-1.5,1,4.92,4.92,0,0,0-.5,2h-.8a1.19,1.19,0,0,0-.4,1.1c.1.4-.2.8-.9,1.1a9.42,9.42,0,0,0-.6,1.8,2.9,2.9,0,0,1-1.1,1.5,1.6,1.6,0,0,0-.3.8c0,.2-.2.4-.5.8v1.3h1.3v1.3h-1.5a4.71,4.71,0,0,0-.6,1.5,4.71,4.71,0,0,1-.6,1.5,5.28,5.28,0,0,0,.1,1.3c.1.3-.1.6-.6.8a6.15,6.15,0,0,0,.1,1.4c.1.4,0,.6-.4.6v3.3h-.7v4.8c-.2,0-.3.1-.5.3v.3c0,.5.2.8.5.8V211h1.5a6.57,6.57,0,0,1,1.3.3c-.3.8-.8,1.2-1.4,1a1.2,1.2,0,0,0-1.4.3v2c.7.2,1,1.3,1,3.3a8.7,8.7,0,0,0,1.3,1.5,2,2,0,0,1,.5,2,2.33,2.33,0,0,1,1,2,21.87,21.87,0,0,0,1.4,2,7.49,7.49,0,0,1,1.1,2,31.09,31.09,0,0,0,3.3,2.9,6.5,6.5,0,0,1,2.3,3.4,2.24,2.24,0,0,1,1.3,1.4c.2.6.7.7,1.5.4l1.3,1a1.9,1.9,0,0,0,1.3.5v.5h5.5a1.43,1.43,0,0,1,.8,1h3.3v.5h2.5l.3.5h5.3c0,.2.1.3.3.5a.27.27,0,0,0,.3.3,4.72,4.72,0,0,1,1.6-1.3,5.06,5.06,0,0,1,1.9-.8.27.27,0,0,1,.3-.3l.5.5h4c0-.5.2-.7.6-.5a.59.59,0,0,0,.9-.3,5.58,5.58,0,0,0,.8-.5c.2-.2.3-.3.5-.3v.5h1.3q-.45-1.05.6-.6a1.57,1.57,0,0,0,1.9-.6h2.8a3.78,3.78,0,0,1,2.3-.8,6.7,6.7,0,0,1,2.1-1,13.49,13.49,0,0,0,2.4-.8c.2-.7.4-1,.8-.9a2.48,2.48,0,0,0,.8.1,3.45,3.45,0,0,1,1.8-.5l.8-.8a1.22,1.22,0,0,0,.9-.4,1.37,1.37,0,0,1,1.1-.4,7,7,0,0,0,.8-1,1.1,1.1,0,0,1,1-.5v-.5h2.3a8.16,8.16,0,0,0,1.9-1,3.09,3.09,0,0,1,1.9-.5l3-1.5h2.3a1,1,0,0,1,.6-1,1.76,1.76,0,0,0,.9-.8,2.81,2.81,0,0,0-.1-.8c-.1-.3,0-.5.1-.5h1c-.3-.5-.3-.9.3-1.1a3.42,3.42,0,0,1,1.8-.4c0-.3.3-.5.8-.5V220a.27.27,0,0,1,.3-.3c.3,0,.5-.3.5-.8a1.55,1.55,0,0,0,2-.5,7,7,0,0,1,1.3-1.5c.5,0,1-.4,1.5-1.3h1.3c.7-.2,1.1-.4,1.3-.8a2.09,2.09,0,0,1,1-.8v-1.5a2.75,2.75,0,0,0,1.8-1c.2,0,.3-.1.4-.4s.5-.4,1.1-.4a3.31,3.31,0,0,1,.5-1.9,3.25,3.25,0,0,1,1.3-1,6.71,6.71,0,0,0,1.4-.9,2.75,2.75,0,0,0,.9-1.5h2a8.53,8.53,0,0,1,2.5-2.8,2.25,2.25,0,0,1,1.1-2.1,9.89,9.89,0,0,1,2.4-.9l1.5-1.3,1.8-1.3v-3.3a7.3,7.3,0,0,0,.9-1.3,2.15,2.15,0,0,1,1.4-1v-.8c-.2,0-.4-.2-.8-.5v-.8a1.43,1.43,0,0,0,1-.4,1.19,1.19,0,0,1,1.3-.1c-.5-.5-.3-.8.5-.8a1.42,1.42,0,0,1,1.3-1.5,1.85,1.85,0,0,0,1.5-1.3c-.3-.3-.5-.5-.4-.5s.1-.1.1-.3l.5-1a2.77,2.77,0,0,0,.5-.8,4.44,4.44,0,0,0,.8-1.1c.2-.4.3-.6.5-.6v-1.8a1.55,1.55,0,0,1,.6-.3c.1,0,.3-.2.6-.5H396a7,7,0,0,0,.8-1,3.51,3.51,0,0,1,.8-1v-2.5a.76.76,0,0,1-.3-.9.83.83,0,0,0-.3-1.1h-2v-2c.8-.3,1.1-.8.9-1.3s.1-1,1.1-1.5c-.2-.3-.1-.6.3-.8a3.51,3.51,0,0,0,1-.8c0-.2.2-.4.5-.8v-3.8a5.58,5.58,0,0,1-.8-.5c-.2-.2-.3-.3-.5-.3v-3c0-.3.1-.5.3-.5q1.05.3.9.9a1,1,0,0,0,.4,1.1V156a14.29,14.29,0,0,1-.9-1.8,4.14,4.14,0,0,0-1.9-1.8v-2.3h-1.9a4,4,0,0,0-.2-1.5,2.37,2.37,0,0,1-.3-1.5c-.8.3-1.3.3-1.5-.1a1.76,1.76,0,0,0-.8-.9v-1.3l-2-1.3a5,5,0,0,0-1.1-1.6,3.61,3.61,0,0,1-.8-1.5l.2-.2a5.67,5.67,0,0,1,2.3-2.9,16,16,0,0,1,3.5-1.4c.3,0,.5-.2.4-.5a.91.91,0,0,1,.4-1h2c-.3-.3-.3-.5.3-.5h.5a2.11,2.11,0,0,1,1.3.5c.2,0,.2-.1.1-.3s0-.3.1-.3h4.1c-.2,0-.3-.2-.5-.6a2.3,2.3,0,0,1-.3-.9c0-.7.5-1.2,1.5-1.6a7.39,7.39,0,0,1,2-.6v-1q1.8.3,2.4-.6c.4-.6,1.3-.7,2.6-.4-.3-.8-.2-1.2.5-1a6.36,6.36,0,0,0,1.5.3,4,4,0,0,1,1.5-.3v-1.3q1.05.45,1.5,0l.8-.8h2.5v-.8h4.3v-.5h5v.5h3.5a4.85,4.85,0,0,0,3.5,1.5,7.42,7.42,0,0,0,1,1.6,3.66,3.66,0,0,0,1.5,1.1v6.8a.63.63,0,0,0-.6.5.63.63,0,0,1-.6.5,6.53,6.53,0,0,1-1,3.8,6,6,0,0,0-1,3.5c-.3.5-.6.9-.8,1.3s-.4.9-.8,1.8h-.5c-.2.2-.3.3-.3.5s-.2.4-.5.8v1c-.7.7-.9,1-.8,1a4.5,4.5,0,0,1-.6,1.9,25.58,25.58,0,0,0-1.1,2.4h-.7a2.44,2.44,0,0,1-.3,2.5,4.28,4.28,0,0,1-1.8,1.5c-.3,1.8-1,2.9-2,3.3a1.05,1.05,0,0,1-.8,1v1.8c-.3.3-.6.7-.9,1a.68.68,0,0,0,.1,1,2.38,2.38,0,0,0-1.3.8v2a1,1,0,0,0-1.5.3v3.3a2.79,2.79,0,0,0-2,.8q.3.45-.3.9a8.12,8.12,0,0,0-1,.9v1.5c-.3.3-.6.7-.9,1a2.08,2.08,0,0,0-.4,1.5c-.2,0-.3,0-.3.1s-.2.1-.5.1l-.8,2.8c-.3,0-.5.1-.5.2a.27.27,0,0,1-.3.3,2.11,2.11,0,0,1-.5,1.3c-.3,0-.5,0-.5.1s-.3.3-1,.6c.2.7.1,1.1-.3,1.3a3.51,3.51,0,0,0-1,.8,8.11,8.11,0,0,1-1.3,2.8,6.57,6.57,0,0,0-1,2.8c-.7.7-1.4,1.3-2.1,2a3.07,3.07,0,0,0-1.1,2.5l-.5,1.5h-1.5a2.42,2.42,0,0,1-1,1.9c-.7.6-1,1-1,1.4,0,.2,0,.3.1.3s.1.2.1.5h-1v1.3a1.05,1.05,0,0,1,1,.8c0,.3.1.5.3.5s.3.3.3.8a4.92,4.92,0,0,1-.5,2c-.3.2-.5.3-.5.5s-.2.3-.5.3v1.3h.8v3.5c.3,0,.5.3.4.8a6.15,6.15,0,0,0-.1,1.3c.5,0,.7.1.6.4a2.48,2.48,0,0,0-.1.9,1.19,1.19,0,0,0,1.1.4,1.57,1.57,0,0,1,1.4.6h2.3v-.8h3.3a.74.74,0,0,0,.8.8c1.2,0,1.6-.5,1.3-1.5a6,6,0,0,0,2.1-1.4l1.9-1.9a1.43,1.43,0,0,1-1-.8q.75-.3.6-.3c-.1,0,0-.2.4-.5h.3c-.2-.7-.1-1,.1-1.1a.92.92,0,0,0,.6-.4h2.5a4.83,4.83,0,0,1,1-1.5,2.57,2.57,0,0,1,1.8-.5,5,5,0,0,0,1.6-1.1c.4-.4,1-.5,1.9-.1a2.87,2.87,0,0,1,.9-1.3,4,4,0,0,0,.9-1.3V203c.3-.5,1.1-.8,2.3-.8a1.28,1.28,0,0,1,.4-1.4,1.2,1.2,0,0,1,1.6-.1c-.2-.7.1-.9.8-.8s1.1.2,1.3,0a6.34,6.34,0,0,0,2.8-4h1.3a1.14,1.14,0,0,1,.3-.8c.2-.2.2-.4.2-.8h1.3v-1a4.92,4.92,0,0,0,1.8-.5,2.31,2.31,0,0,0,1.3-1.8,4.92,4.92,0,0,1-2-.5c.5-.7,1-.9,1.4-.6a.78.78,0,0,0,1.1-.1.94.94,0,0,0,.8-.6c.2-.4.6-.5,1.3-.1v-1.3h1.3a2.27,2.27,0,0,1,.9-1.8,2,2,0,0,1,2.1-.3,22,22,0,0,0,2.1-.9,7,7,0,0,1,2.4-.6,8.93,8.93,0,0,0,.5-1.3c.2-.5.7-.7,1.5-.5a7.65,7.65,0,0,0,.5-1.6,1.34,1.34,0,0,1,1.5-1.1,4.46,4.46,0,0,1,3.5-2,3.78,3.78,0,0,1,1.8-.8,9,9,0,0,0,2.3-.8,2.42,2.42,0,0,1,2-1.3,5.65,5.65,0,0,1,1.6-.9,9.38,9.38,0,0,1,2.4-.6,7.58,7.58,0,0,0,1.6-.9,2.82,2.82,0,0,1,1.9-.1c0-.7.3-1,.8-1a2,2,0,0,1,.8.1.9.9,0,0,0,.5.1c.3-1,1.3-1.5,2.9-1.6a6.67,6.67,0,0,0,3.6-1.1h3.5V168h5.5l1.8,1.3v2.3c.2.2.3.3.3.5v4c-.3,0-.5.2-.4.8a1.31,1.31,0,0,1-.4,1.3h-.5a2.77,2.77,0,0,1-.3,1.3V183c-.8.3-1.2.8-1.1,1.3a.8.8,0,0,1-.6,1,5.28,5.28,0,0,0,.1,1.3.63.63,0,0,1-.4.8v3.8H490v4.3h-.5v3.8h-.8v2.8h-.5v4.3l-.2.5v2.5c0,.2,0,.2.1.1s.1,0,.1.1v2.5a2.59,2.59,0,0,1,.6,1.4,11.52,11.52,0,0,0,.6,2.1h.5v1.5a20.28,20.28,0,0,1,2,4.2,3.81,3.81,0,0,0,3,2.6q0,.75.3.9a1.76,1.76,0,0,1,.5.4.86.86,0,0,0,.9.3q.3-.3.9.3a1.93,1.93,0,0,0,1,.3,1.59,1.59,0,0,1,1,.5h6a.27.27,0,0,0,.3.3h.8a.27.27,0,0,0,.3-.3c0,.2.2.3.5.3h.5a2.77,2.77,0,0,0,1.3-.3h2.5a.47.47,0,0,1,.5-.5h.3a.74.74,0,0,1,.8.8h1.3c-.3-.3-.2-.7.3-1a2.66,2.66,0,0,1,1.3-.5,2,2,0,0,0,.8-1.1c.2-.6.6-.7,1.3-.4v-.8a1.87,1.87,0,0,1,1.9-1q1.35,0,.9-1.5a1.46,1.46,0,0,1,.5.8h2.3a2.55,2.55,0,0,1,2.1-2.1,16.29,16.29,0,0,0,3.1-1.1,10.27,10.27,0,0,1,2.8-3.1,8,8,0,0,0,2.5-3.1l4-3.3h.3c.2,0,.3-.1.5-.3a22.74,22.74,0,0,0,3.8-3.8,11.94,11.94,0,0,1,4.5-3.5c.5-.5.8-.9.8-1.3.7,0,1.1-.1,1.3-.4a.81.81,0,0,1,.8-.4c.5-2.2,1.6-3.5,3.3-4a2.87,2.87,0,0,0,.9-1.3c.2-.7.8-.9,1.6-.8a6.57,6.57,0,0,0,1.8-2.3,3.18,3.18,0,0,1,1.8-1.8c.3-.8.6-1.6.9-2.3a1.54,1.54,0,0,1,1.6-1h.5l.3,1.3q-1.05.45-.9.6c.1.1,0,.3-.4.6v2c-.3.7-.7,1.3-1,2a4.83,4.83,0,0,1-1,1.5v3.3a.47.47,0,0,1,.5.5H559a2.82,2.82,0,0,1-.4,1.5,6,6,0,0,1-.9,1.5.55.55,0,0,1-.2-.5c0-.2-.2-.3-.5-.3V203a15.05,15.05,0,0,0-.9,1.8,17.59,17.59,0,0,1-.9,2c.3,0,.5,0,.5.1s.1.1.3.1h.3a.47.47,0,0,1-.5.5.47.47,0,0,0-.5.5l.5.3.5.5-1.3,2h-1.6c.2.8,0,1.4-.4,1.6s-.6.5-.6.6a4.49,4.49,0,0,1-.1,1.1,1.46,1.46,0,0,1-.6.9.55.55,0,0,0,.5.2h.3v.3h-.3v2.8c-.7.3-1,.6-.9.8s0,.4-.4.8v.5c.3.3.5.4.5.3v2.6h-1c0-.2-.1-.3-.4-.5a.81.81,0,0,1-.4-.8h-.2a1,1,0,0,1-.5.8c-.3.2-.5.3-.5.5.7,0,.9.2.8.6a.91.91,0,0,0,.2,1.1.27.27,0,0,1,.3.3c-.8.3-1.3.8-1.3,1.5s.2,1,.5,1.1a.63.63,0,0,1,.5.6c0,.2-.2.5-.6,1.1a2.79,2.79,0,0,1-1.1,1.1v2a1.24,1.24,0,0,1-.8.6.63.63,0,0,0-.5.6c0,.3.2.5.5.4s.5.2.5.9a1.65,1.65,0,0,0-1,.8,1.1,1.1,0,0,1-1,.5,1.14,1.14,0,0,1-.3.8,1,1,0,0,0-.3.8h1.3c0,.3-.3.6-.8.8v2.5c.3,0,.5,0,.5.1s.1.1.3.1c0,.3,0,.4-.1.3s-.3-.1-.6.3a2.69,2.69,0,0,1-.4,1.3,2.18,2.18,0,0,0-.4,1,2.77,2.77,0,0,0,.1.9,2.22,2.22,0,0,1,.1.9,5.06,5.06,0,0,1-.2,1.3v3.5h-.5v8.8c.3.2.4.5.3,1a1.09,1.09,0,0,0,.3,1.3c.2,0,.2.2.2.5v.3l-.2.5V266a1.45,1.45,0,0,0-.5,1.3v.5a.47.47,0,0,0,.5.5v4h-.5v3.3c.3.2.4.5.3,1.1s0,1,.5,1.1v4.3h1.5v2.8h1.3l-.2.3v1.3h.8q-1.05-2.55,1.5-1.5v-1.3c-.3.3-.5.3-.4-.1a4.49,4.49,0,0,0,.1-1.1h-1.3a.81.81,0,0,1,.9-.4,1,1,0,0,0,1.1-.4l1.3,1.3v3c.5,0,.7.2.5.6a.91.91,0,0,0,.2,1.1h.8a.27.27,0,0,1-.3.3c-.2,0-.3.2-.3.5a2,2,0,0,0,.3.8c.2.3.7.5,1.5.5l.5.5a.55.55,0,0,1,.2.5.89.89,0,0,0,.5-.8c.2.5.4.8.8.8l.5-.5c.5-.5.8-.7.8-.5,0-.2-.2-.4-.5-.8l-.2-.3c.2-.2.3-.3.5-.3s.3-.2.3-.5-.1-.3-.4-.5a.81.81,0,0,1-.4-.8,1.5,1.5,0,0,1,1-1.5v-2.3a4.44,4.44,0,0,1-.8-1.1c-.2-.4-.4-1-.8-1.9.3-.2.5-.3.5-.5s.1-.3.2-.5h2v-.9h.8v.5h1.3a2.42,2.42,0,0,1-.3-1.5,3.51,3.51,0,0,1,.8-1c.5.3.7.6.5.8s-.1.5.3,1c.5,0,.8.1.8.3-.8.5-1.3.9-1.3,1.3,0,.7.1,1,.4.9s.4,0,.4.4l-.2.3v1.8h.2v-1.8H564v-1l-.8-.5a3.16,3.16,0,0,1,1.3-2v-2a1.6,1.6,0,0,0,.3-.8c0-.3,0-.5-.1-.6s-.1-.3-.1-.6l.8-.8a7.91,7.91,0,0,0,.8-1.3,3.1,3.1,0,0,1,.5,1.1v.9c.2.2.3.3.5.3h.2v.3c0,.5-.2.8-.5.8h-.3a4.62,4.62,0,0,1-.5,2.3h1.5v-1.1l-.3-.3c.2-.3.3-.7.5-1a1.93,1.93,0,0,0,.3-1,1.61,1.61,0,0,0-.3-.9,1.55,1.55,0,0,1-.3-.6v-.3c0-.2.2-.4.5-.8v-1h-.8a1.1,1.1,0,0,1-.5,1h-.3v-2.3a2.81,2.81,0,0,1-1.5-.3,1.93,1.93,0,0,0-1-.3c.3-.3.5-.5.5-.4s.1.1.3.1a1.45,1.45,0,0,1,.5-1.3h.8l-.3-.5h-.3v-2.3c.5-.5.7-.8.5-.9s0-.2.5-.4v-2.8h.8v3a2,2,0,0,1,.8.3,1.6,1.6,0,0,0,.8.3c.8,0,1.1-.4.8-1.1s0-1.3,1-1.6a4.31,4.31,0,0,0,.3-2h.5v-1.8h-1.3a.47.47,0,0,1-.5.5v-2h-.8c0-.2.1-.3.2-.3s.3-.2.3-.5c0-.5-.4-1-1.3-1.5l.8-.5v-2.8a.47.47,0,0,1,.5-.5v-2.3c.3,0,.5-.3.4-.8a6.15,6.15,0,0,1-.1-1.3q.75-.45.6-.6c-.1-.1,0-.3.4-.6.8.3,1.2.1,1.1-.8a1,1,0,0,1,1.1-1.3v.5a.9.9,0,0,1-.1.5.9.9,0,0,0-.1.5,2.77,2.77,0,0,0,.1.9,2.48,2.48,0,0,1,.1.9v.3H572a.78.78,0,0,0-.1,1.1c.3.4,0,.6-.6.6v2.8h-.5a.75.75,0,0,0,0,.9c.2.2.1.5-.3.6-.3.3-.5.6-.4.9s-.1.5-.6.9v.8c.3,0,.5-.1.5-.3s.2-.3.5-.3H572l1.3-3a1.61,1.61,0,0,0,.3-.9c0-.3.2-.5.5-.9v-3.5a1.85,1.85,0,0,0,.3-2.1,1,1,0,0,1-.3-.8,1.74,1.74,0,0,1,.6-1.1q.6-.6.9-.6v-3h-1v-1c0-.2.3-.3.8-.3-.3-.3-.4-.6-.1-.9l.9-.9a.27.27,0,0,1-.3-.3c0-.3.1-.5.3-.5h1.5a10.63,10.63,0,0,0,.9-1.1,2.73,2.73,0,0,0,.4-1.6h.3v-.8c-.3-.3-.5-.5-.4-.5s.1-.1.1-.2a1.22,1.22,0,0,1,.4-.9l.9-.9-1-.3a.47.47,0,0,1,.5-.5h.8c-.2-.2-.3-.3-.3-.5v-2.3l2-1.5v-2.5a.27.27,0,0,1,.3-.3v-2.5a5.88,5.88,0,0,0,2.8-4.8c.3,0,.5-.1.5-.4a.46.46,0,0,1,.5-.4v-3.8a.9.9,0,0,0,.5-.1.9.9,0,0,1,.5-.1v-1.3h-1a.89.89,0,0,1,.8-.5l1.5-4.3a.47.47,0,0,0-.5.5l-.3.3a1.45,1.45,0,0,1-.5-1.3c0-.2.1-.3.3-.5l.5-.5c0-.3-.1-.5-.4-.5a.46.46,0,0,1-.4-.5,2.77,2.77,0,0,0,1.3-.3v-.4h1.5v-1.3c-.5,0-.8-.2-.8-.5a1.93,1.93,0,0,0-.3-1c.3,0,.5-.2.4-.6a.7.7,0,0,1,.4-.9,1,1,0,0,0,.8.3.52.52,0,0,0-.2-.4q-.3-.15-.3-.9h1.3v-2.3H594v.3h1.5v-.7a5.58,5.58,0,0,1-.8-.5,7.91,7.91,0,0,0-1.3-.8l.8-1v-1h1a4,4,0,0,1,.3-1.5,2.7,2.7,0,0,1,1.3-1.3.86.86,0,0,1,.3-.6,1.34,1.34,0,0,0,.2-.9,1.79,1.79,0,0,1-1-.9,7,7,0,0,0-.8-1.4,12.41,12.41,0,0,1,1.9-1.6c.6-.4.9-1.3.9-2.6h1.8v-1h.3a6,6,0,0,0,1.3-2.8,4.36,4.36,0,0,1,1.5-2.5,5.33,5.33,0,0,1,.6-2.4c.4-.8,1.2-1.1,2.4-1.1a2.07,2.07,0,0,1,.5-1.5,2.25,2.25,0,0,0,.3-1.8.74.74,0,0,0,.8-.8.27.27,0,0,0,.3-.3v-.5h.5v-1.2a2.35,2.35,0,0,0,1.3-1.3,20.54,20.54,0,0,1,.8-2c.3.3.5.3.6-.3a3.1,3.1,0,0,1,.6-1.3h.8c.3-.8.7-1.6,1-2.4a9.33,9.33,0,0,1,1.5-2.4,2.54,2.54,0,0,1,.5-1.6c.3-.4.8-1,1.3-1.6a1.9,1.9,0,0,0,.5-1.3c.3,0,.5-.1.5-.4s.1-.4.3-.4v-1.3h-.8v-.8c.3,0,.4-.2.2-.6a.59.59,0,0,1,.3-.9c.3.2.5.4.4.6a2.22,2.22,0,0,0-.1.9h1.3v-1.3h1.3a1.22,1.22,0,0,1-.1-1.4,2.58,2.58,0,0,1,.9-.9l1.3-1.5c-.3.2-.6.3-.9.5a1.4,1.4,0,0,1-.9.3h-.3c.2-.3.3-.6.5-.9s.2-.5.2-.9c-.3,0-.5-.1-.5-.3l-.5.3h-.5a2.77,2.77,0,0,1-1.3-.3,18,18,0,0,1,2.1-.8,3.86,3.86,0,0,0,1.9-1h2.3l.9-.6a1,1,0,0,1,.9-.4c.2,0,.3.1.5.4a.81.81,0,0,0,.8.4c.3-.8.7-1.3,1-1.3s.5.1.5.3.2.3.5.3c.5,0,.8-.2.8-.5h2c0,1.7.3,2.5,1,2.5a1.71,1.71,0,0,0,1.6-1,1.82,1.82,0,0,1,1.6-1c.7,0,1,0,1,.1a4.54,4.54,0,0,0,.5.9h2.5l1.3,1.8H646c0-.7.3-1,1-1a1.25,1.25,0,0,0,1.3-.8h4.5c0,.7.4,1,1.3,1v-.5h3.3v-.5h.3a1.46,1.46,0,0,0,.8.5,10.07,10.07,0,0,1,1.8-1.5,4.62,4.62,0,0,1,2.3-.5l.9-.9.9-.9c.3-1,.7-1.5,1-1.5v-2.3c1.8.3,2.8-.1,2.8-1.4a4.45,4.45,0,0,1,1-3.1h.8v-7.2a4.11,4.11,0,0,0-1.3-.8,1.25,1.25,0,0,1-.8-1.3c-.7,0-1.2-.4-1.5-1.3a1.83,1.83,0,0,0-1.8-1.3c-.2,0-.3.1-.4.4s-.4.4-.9.4l-1-1.5.2-.3c-.2,0-.4-.2-.6-.5s-.5-.5-.9-.5v1.3a1.82,1.82,0,0,1-1.1-1c-.1-.3-.2-.8-.4-1.3a1.47,1.47,0,0,1-1.3-.1,1.2,1.2,0,0,0-.8-.4c-.2,0-.3,0-.4.1s-.2.1-.4.1l-.3.3c-.2-.3-.3-.5-.5-.5s-.2-.1-.2-.3a15.8,15.8,0,0,0-2.8-1c-.3,0-.5.3-.5,1H650a2.62,2.62,0,0,0-1.6-1,1.34,1.34,0,0,1-1.1-1.5c0-.8.7-1.5,2-2l2-2a2.77,2.77,0,0,1,.3-1.3h.8a2.1,2.1,0,0,1,.1-1.6c.3-.4.5-1,.9-1.6h.8v-1q.45.3.9-.3a2.66,2.66,0,0,0,.6-1c.2,0,.2,0,.2.1s.1.1.3.1a.27.27,0,0,0,.3.3l4-4.5h-1a1.46,1.46,0,0,1,.8-.5h.8c-.3-.8-.3-1.3.3-1.4a6.15,6.15,0,0,1,1.3-.1q0-1.2.6-1.5a2.59,2.59,0,0,0,1.1-1v-1a1.79,1.79,0,0,1,.9-1c.4-.2.6-.4.6-.8a7.34,7.34,0,0,0-1.3-1h.8l-1-1.8a.9.9,0,0,0,.5-.1.9.9,0,0,1,.5-.1V78h3.8a2.91,2.91,0,0,1,1.3-1v-.5l1-1.3-.3-.3.8-.5v1.3l-.5,1.3,1-.5.2-.5.5-.8V76l.8-.8V73.1l.5-.5Z"/><path class="cls-2" d="M710.58,193.1l-5.3,30.4H603.18c1.2-8.7,2-17.6,2.6-26.5s1-18.1,1.4-27.5a.9.9,0,0,0,.5-.1,1.72,1.72,0,0,1,.8-.1,2.81,2.81,0,0,1,.3-1.5q.3-.45-.3-.3c.3-.3.7-.8,1.1-1.3a3.17,3.17,0,0,0,.6-2,2.24,2.24,0,0,0,.8-1.5,5,5,0,0,0,2.3-3.3l1.3-.8a10.34,10.34,0,0,1,1.6-4.1c.8-1.1,1.5-2,2.1-2.9a2.17,2.17,0,0,1,.8-1.8,5.37,5.37,0,0,0,1.5-3.3l3.5-3.5-.5-.8h-.3l1.3-1.5-1.8-1.8h3l.2-.3a.67.67,0,0,0,1,0,7,7,0,0,1,1-.8h1a4.28,4.28,0,0,0,3.8,1.8,10.53,10.53,0,0,0,1.8-.3,4.88,4.88,0,0,0,2.3-1.3.6.6,0,0,1,.6.3.6.6,0,0,0,.6.3l1.5,1.5,4.3.3c-.2,5.4-.3,10.8-.3,16.3v39.8h14.8c9.1,0,17.9-.2,26.4-.8A203.13,203.13,0,0,0,710.58,193.1ZM608.18,93.8a7.17,7.17,0,0,1-.9,2.1,4.07,4.07,0,0,0-.6,1.1c-.5-15.9-1.5-32.2-3-48.8h44l-.5,8.6c-2.5,2.5-4.1,4.1-4.9,4.7a4.56,4.56,0,0,1-2.9.9l-.8,2.8-1,1.3-.2-.6a1.1,1.1,0,0,0,.4-1,4.18,4.18,0,0,0-.4-1l-4.5,2.5c0-.2-.1-.1-.4.1a3.63,3.63,0,0,1-.9.8,1.84,1.84,0,0,1-1.3.4c-.5,0-1.1-.4-1.8-1.3a1.43,1.43,0,0,1-.4,1c-.3.3-.4,1.4-.4,3.3l-3,.2a8.67,8.67,0,0,1-.1,1.8,3.4,3.4,0,0,0-.1,1v.5H624a9.18,9.18,0,0,1-2.3,3.8l-.8,1.3c0,.2.1.3.2.3l-3.5.8v1.5a6.18,6.18,0,0,1-.5,2.5,3.24,3.24,0,0,1-.8.9c-.3.3-.5.5-.5.6l-.3.5H615l-2.3,3.3a7.34,7.34,0,0,1-1.3,1,3.81,3.81,0,0,0-1.3,1.8l-1.5,1.5-.4-.2Zm150.9-.8c9.7.5,18.1.8,25.2.8,4.9,0,12.3-.3,22.4-.8q7.8,29.25,19.4,61.5c7.7,21.5,16.9,44.6,27.4,69h-40.7a291.76,291.76,0,0,0-8-31.9H758c-1.7,4.9-3.1,9.9-4.4,15.2s-2.5,10.9-3.6,16.7h-36.7c12.2-29,22.3-54.2,30.1-75.6C750.88,126.6,756.28,108.3,759.08,93Zm23.2,21.7c-3.7,9.2-7,18.2-10.1,26.9s-5.8,17.4-8.3,25.9h34.7c-1.8-6.2-4-13.7-6.5-22.4S786.28,126.2,782.28,114.7Zm122.9-21.2q13.8,0,24.9.6a50.08,50.08,0,0,1,19.6,4.9,35.86,35.86,0,0,1,13,10.4,24.17,24.17,0,0,1,4.7,14.5q0,20.85-29.7,29.7c11.6,1.2,20.4,4.4,26.5,9.6s9.2,12.1,9.2,20.6a32.53,32.53,0,0,1-5.3,18.1c-3.5,5.4-8.7,9.7-15.6,13.1a50.83,50.83,0,0,1-13,5,93.83,93.83,0,0,1-15,2.5q-8.1.75-17.1.9c-6,.1-12.5.1-19.4.1h-26.2c1.7-12.6,2.7-24.3,3.1-35.1s.6-21,.6-30.6c0-10.2-.3-20.7-.9-31.4s-1.4-21.7-2.4-32.9h43Zm.5,52.8c19.6,0,29.4-5.5,29.4-16.6,0-4.9-2.1-8.4-6.2-10.6s-10.3-3.3-18.5-3.3h-5.7c-1.8,0-3.6.1-5.7.3,0,2.9-.1,6.8-.2,11.7s-.3,11.1-.3,18.5h7.2Zm1.6,53.6c10.9,0,19.1-1.3,24.6-4s8.3-7.2,8.3-13.6c0-7.2-3.1-11.8-9.2-13.8s-14.9-3-26.3-3h-6v34.4Z"/></svg>