<svg id="Layer_1" data-name="Layer 1" xmlns="http://www.w3.org/2000/svg" viewBox="0 0 941.95 217.59"><defs><style>.cls-1{fill:#c4c4c4;stroke:#a1d324;stroke-miterlimit:10;stroke-width:2px;}</style></defs><title>fontspring</title><path class="cls-1" d="M668.49,66.2c-5.4,0-11.5-5.5-11.5-11.2,0-4.6,3.4-10.7,12.6-10.7,16.4,0,29.6,35.3,29.6,35.3C690,69.6,681,66.2,668.49,66.2Zm64.4-9.2c5.4,0,11.5-5.5,11.5-11.2,0-4.6-3.3-10.7-12.5-10.7-16.4,0-29.6,35.3-29.6,35.3C711.39,60.4,720.29,57,732.89,57Zm-34,3.4s14.7-34.7,2.8-46c-6.7-6.3-13.3-4.2-16.5-.8-4,4.2-3.3,12.4.6,16C694.89,38.3,699,46.9,698.89,60.4Zm-688,145.3h15V155.5h43.5V142.1H25.89V104.5h51.4V91.1H10.89Zm174.9-57.3c0,39.7-16.1,59-49.1,59s-49.1-19.3-49.1-59,16.1-59,49.1-59S185.79,108.7,185.79,148.4Zm-15.2,0c0-31.6-10.5-45.6-33.9-45.6s-33.9,14.1-33.9,45.6,10.5,45.6,33.9,45.6S170.59,179.9,170.59,148.4Zm110.9,39.4-52.6-96.2-.3-.5h-21.4V205.7H222V109l52.6,96.1.3.5h21.4V91.1h-14.8v96.7Zm32.1-83.3h34.3V205.7h15V104.5h34.2V91.1h-83.5v13.4Zm138.8,36.7-4.2-1.3c-13.9-4.3-24.8-7.7-24.8-20.5,0-11,8.2-16.6,24.5-16.6,8.6,0,19.8,1.7,26.9,3.1l1,.2,2.3-12.8-.9-.2a141.45,141.45,0,0,0-29.4-3.7c-25,0-39.3,11.4-39.3,31.2,0,18.5,11.9,25.7,32.4,31.9,18.8,5.6,27.1,8.6,27.1,21.7,0,13.3-8.9,19.8-27.1,19.8-9.8,0-22.7-1.9-29-3.1l-1-.2-2.1,12.8,1,.2c5.2,1.1,18.8,3.7,31.5,3.7,26.9,0,41.7-11.9,41.7-33.5C482.79,150.9,466.69,145.7,452.39,141.2Zm126.2-16.9c0,25.3-14.5,38.1-43.1,38.1-6.5,0-13.2-.5-19.6-1.1v44.5h-15V92.1l.9-.1A288.44,288.44,0,0,1,536,89.5C555.89,89.5,578.59,93.5,578.59,124.3Zm-62.7,24c7.1.6,13.3.6,15.8.6,19.1,0,31.8-4.1,31.8-24.1,0-16.1-7.5-21.9-28.7-21.9-5.7,0-13,.4-18.9,1v44.4Zm158.2,55.8,1,1.6h-18l-.3-.5c-10.6-17.8-18.8-32.9-26-47.2-5.5,0-14.1,0-19.8-.3v48H596V92.1l.9-.1a302.46,302.46,0,0,1,34.4-2.5c19,0,40.9,3.7,40.9,32.8,0,18.4-8.6,29.5-26.4,33.7C653.19,170.3,662.19,185.6,674.09,204.1Zm-42.2-101.2c-4.4,0-13.8.3-20.8,1v40.9c4.2.3,8.2.3,12.1.3,25.1,0,33.9-5.8,33.9-22.2C657.09,108.1,650.49,102.9,631.89,102.9Zm61.3,102.8h15V91.1h-15Zm115.9-17.9-52.6-96.1-.3-.5h-21.4V205.8h14.8V109.1l52.6,96.1.3.5h21.4V91.1h-14.8v96.7Zm83.8-41.1v13.4h23.2v29.4a61.12,61.12,0,0,1-22.6,4.5c-10.8,0-18.9-3.5-24.2-10.4-5.7-7.5-8.5-19-8.5-35.4,0-15.2,2.5-26.2,7.7-33.5,7.4-10.6,19.2-12,28.7-12a146,146,0,0,1,27.6,3.1l1.1.2L928,93.1l-.9-.2a145.14,145.14,0,0,0-30.8-3.7c-18.3,0-30.8,5.2-39.3,16.5-7.5,10-11.2,23.9-11.2,42.6,0,20.3,4.3,35.6,12.8,45.4,7.7,9.1,19,13.6,33.6,13.6a76.52,76.52,0,0,0,38.3-10.3l.5-.3V146.5l-38.1.2Z"/></svg>