<svg id="Layer_1" data-name="Layer 1" xmlns="http://www.w3.org/2000/svg" viewBox="0 0 619.47 627.08"><defs><style>.cls-1{fill:#c4c4c4;stroke:#a1d324;stroke-miterlimit:10;}</style></defs><title>glyphs</title><path id="G" class="cls-1" d="M26.29,321.3a9.66,9.66,0,0,0,0-13.6,9.84,9.84,0,0,0-4.8-2.6V284.6c4.3-91.7,29.4-154.2,77.9-195.4,48.7-41.3,122.7-62.8,231.2-66.7h29a10.3,10.3,0,0,0,2.6,4.8,9.62,9.62,0,0,0,6.8,2.8,9.45,9.45,0,0,0,6.8-2.8h0a9.84,9.84,0,0,0,2.6-4.8h37c9.7.3,19.4.6,29.2,1.1a6.57,6.57,0,0,0,1.2,1.7,6.8,6.8,0,0,0,4.9,2,7,7,0,0,0,4.9-2,10.63,10.63,0,0,0,.9-1.1q33.9,1.8,67.7,5a6.69,6.69,0,0,0,1.6,2.5,7,7,0,0,0,9.8,0h0a6.42,6.42,0,0,0,1-1.3c6.1.6,12.3,1.3,18.4,2l37.1,5.3v7.7h6.3l-20.1,203.5h-8.1v5.8l-50.1-4.2a7.48,7.48,0,0,0-1.8-3.4,6.9,6.9,0,0,0-11.6,3.2c-14.3-1-28.2-1.9-41.9-2.6a6.63,6.63,0,0,0-2-5.1,6.82,6.82,0,0,0-9.7,0,8.11,8.11,0,0,0-1.7,2.8h-34a10.3,10.3,0,0,0-2.6-4.8,9.54,9.54,0,0,0-13.6,0,9.84,9.84,0,0,0-2.6,4.8H321a6.92,6.92,0,1,0-11.5,7,7,7,0,0,0,4.9,2,7.14,7.14,0,0,0,4.9-2,8.11,8.11,0,0,0,1.7-2.8h25.9c-13.8,2.1-23.9,5.3-31.7,9.8-9.7,5.5-15.9,13.1-19.4,24.1V267.7a6.85,6.85,0,0,0,4.8-6.6,7,7,0,0,0-2-4.9,6.8,6.8,0,0,0-4.9-2h0a7,7,0,0,0-4.9,2,6.8,6.8,0,0,0-2,4.9,7,7,0,0,0,2,4.9,8.11,8.11,0,0,0,2.8,1.7v34a10.3,10.3,0,0,0-4.8,2.6,9.66,9.66,0,0,0,0,13.6,9.84,9.84,0,0,0,4.8,2.6v29.4a6.85,6.85,0,0,0-4.8,6.6,6.83,6.83,0,0,0,6.9,6.9,7.14,7.14,0,0,0,4.9-2h0a7,7,0,0,0,0-9.8,8.11,8.11,0,0,0-2.8-1.7v-7.8c4.3,16.2,12.9,26.4,26.1,31.3h-6.2a6.86,6.86,0,1,0-11.4,6.9,7,7,0,0,0,4.9,2,7.14,7.14,0,0,0,4.9-2h0a8.11,8.11,0,0,0,1.7-2.8h18.5a10.3,10.3,0,0,0,2.6,4.8,9.61,9.61,0,0,0,16.2-4.8h6.5v47.4h-7.2V442h17.2V424.9l42.5-52.8h13.8V354.9h-17.2v8.9L394,367.9a10.63,10.63,0,0,0-.9-1.1,6.81,6.81,0,0,0-11.6,3.9l-5.5.9a10.59,10.59,0,0,0-1-1.2,6.82,6.82,0,0,0-9.7,0,6.27,6.27,0,0,0-1.6,2.7c-.4,0-.8.1-1.2.1V305.8h7.2v-7.2h221.6v7.2h7.2V575.4l-9.8,9.7-31.2,6c-14.1,2.3-28.2,4.3-42.1,6a7.17,7.17,0,0,0-4.6-1.8,7,7,0,0,0-4.9,2,3.92,3.92,0,0,0-.8,1c-21.3,2.5-42.5,4.4-63.9,5.7l-.9-1.2a6.8,6.8,0,0,0-4.9-2,7,7,0,0,0-4.9,2,5.86,5.86,0,0,0-1.3,1.9c-7.3.4-14.6.7-22,.9h-32.4a9.9,9.9,0,0,0-2.6-4.8,9.61,9.61,0,0,0-16.2,4.8h-29.4C219,601.7,146,580.9,98.69,541c-48-40.5-72.8-103.2-77.1-196.1V323.8A9,9,0,0,0,26.29,321.3Zm348.5,58.9a7,7,0,0,1-4.9,2,7.14,7.14,0,0,1-4.9-2,8.11,8.11,0,0,1-1.7-2.8h-1.2v47.4h3.8l42.5-52.8v-3.9l-13.6,3.8a6.93,6.93,0,0,1-2,4.7,7,7,0,0,1-9.8,0,6.5,6.5,0,0,1-1.7-3c-1.6.3-3.2.5-4.8.8a5.89,5.89,0,0,1-1.7,5.8Z"/><path id="handles" class="cls-1" d="M378.69,20.3h65.2m-323.1,0h238.6m91.8,227h-33.4m-42.7,360.4h53.4m89-6.7L586,587.7M293.69,301.2V267.8m69.4,107.5h-9.8m-59.6-54.8v28.9M316,375.3h18M119.19,607.7h236.6M19.49,304.8v-195m500.8,142.6,49.9,4.2M19.49,324.1V523.7m518-496.1,54.6,7.8M321.49,247.3h77m194.7,43.3h13.1v13.1h-13.1Zm-238.9,13.1h13.1V290.6h-13.1Zm0,136.2h13.1V426.8h-13.1Zm56.3-69.9h13.1V356.9h-13.1Zm-19.1,5.1a4.81,4.81,0,1,0-6.8,0,4.77,4.77,0,0,0,6.8,0m-18.1,3.6a4.81,4.81,0,1,0-6.8,0,4.77,4.77,0,0,0,6.8,0M349,380.6a7.57,7.57,0,1,0-10.7,0,7.49,7.49,0,0,0,10.7,0m-36.5-1.9a4.81,4.81,0,1,0-6.8,0,4.77,4.77,0,0,0,6.8,0m-15.4-19.1a4.81,4.81,0,1,0-6.8,0,4.77,4.77,0,0,0,6.8,0m2-43.4a7.57,7.57,0,1,0-10.7,0,7.67,7.67,0,0,0,10.7,0m-2-51.9a4.81,4.81,0,1,0-6.8,0,4.77,4.77,0,0,0,6.8,0M318,250.7a4.81,4.81,0,1,0-6.8,0,4.77,4.77,0,0,0,6.8,0m95.5,1.9a7.57,7.57,0,1,0-10.7,0,7.49,7.49,0,0,0,10.7,0m48-1.9a4.81,4.81,0,1,0-6.8,0,4.77,4.77,0,0,0,6.8,0m55.4,4.5a4.81,4.81,0,1,0-6.8,0,4.77,4.77,0,0,0,6.8,0m55.4,8.6h13.1V250.7h-13.1Zm21.8-220.7h13v-13h-13Zm-60-13.1a4.81,4.81,0,1,0-6.8,0,4.77,4.77,0,0,0,6.8,0m-79.9-6.3a4.81,4.81,0,1,0-6.8,0,4.77,4.77,0,0,0,6.8,0m-79.8,1.9a7.57,7.57,0,1,0-10.7,0,7.49,7.49,0,0,0,10.7,0m-257.1-1.9a4.81,4.81,0,1,0-6.8,0,4.77,4.77,0,0,0,6.8,0m-94.4,82.6a4.81,4.81,0,1,0-6.8,0,4.77,4.77,0,0,0,6.8,0m1.9,213.5a7.57,7.57,0,1,0-10.7-10.7,7.57,7.57,0,0,0,10.7,10.7M22.89,534a4.81,4.81,0,1,0-6.8,0,4.77,4.77,0,0,0,6.8,0m93,76.7a4.1,4.1,0,1,0-5.8,0,4.1,4.1,0,0,0,5.8,0m254.9,2.4a7.57,7.57,0,1,0-10.7,0,7.49,7.49,0,0,0,10.7,0m68-1.9a4.81,4.81,0,1,0-6.8,0,5,5,0,0,0,6.8,0m75.3-5.5a4.81,4.81,0,1,0-6.8,0,4.77,4.77,0,0,0,6.8,0m97.8-16.6L599.69,577l-12.2,12.1Z"/></svg>