<svg id="Layer_1" data-name="Layer 1" xmlns="http://www.w3.org/2000/svg" viewBox="0 0 856.59 284.99"><defs><style>.cls-1{fill:#c4c4c4;stroke:#a1d324;stroke-miterlimit:10;stroke-width:2px;}</style></defs><title>google</title><path class="cls-1" d="M115.59,132V103.3h96a92.66,92.66,0,0,1,1.6,17.6c0,21.5-5.9,48.1-24.8,67.1-18.4,19.2-42,29.4-73.2,29.4-57.9,0-106.5-47.1-106.5-105s48.6-105,106.5-105c32,0,54.8,12.5,71.9,28.9l-20.2,20.2C154.59,45,138,36,115.19,36c-42.2,0-75.3,34-75.3,76.3s33,76.3,75.3,76.3c27.4,0,43-11,53-21,8.1-8.1,13.5-19.8,15.6-35.8Z"/><path class="cls-1" d="M359.39,149.8c0,38.9-30.5,67.6-67.8,67.6s-67.8-28.7-67.8-67.6c0-39.2,30.5-67.6,67.8-67.6S359.39,110.7,359.39,149.8Zm-29.7,0c0-24.3-17.7-41-38.1-41s-38.1,16.6-38.1,41c0,24.1,17.7,41,38.1,41S329.69,173.9,329.69,149.8Z"/><path class="cls-1" d="M507.39,149.8c0,38.9-30.5,67.6-67.8,67.6s-67.8-28.7-67.8-67.6c0-39.2,30.5-67.6,67.8-67.6S507.39,110.7,507.39,149.8Zm-29.7,0c0-24.3-17.7-41-38.1-41s-38.1,16.6-38.1,41c0,24.1,17.7,41,38.1,41S477.69,173.9,477.69,149.8Z"/><path class="cls-1" d="M649.29,86.3V207.6c0,49.9-29.4,70.4-64.3,70.4-32.8,0-52.5-22-59.9-39.9L551,227.3c4.6,11,15.9,24.1,34,24.1,22.3,0,36.1-13.8,36.1-39.7V202h-1c-6.7,8.2-19.5,15.4-35.6,15.4-33.8,0-64.8-29.4-64.8-67.3,0-38.1,31-67.8,64.8-67.8,16.1,0,28.9,7.2,35.6,15.1h1v-11l28.2-.1Zm-26.1,63.8c0-23.8-15.9-41.2-36.1-41.2-20.5,0-37.6,17.4-37.6,41.2,0,23.6,17.2,40.7,37.6,40.7C607.29,190.8,623.19,173.7,623.19,150.1Z"/><path class="cls-1" d="M699.59,15.3v198h-29.7V15.3Z"/><path class="cls-1" d="M814.29,172.1l23,15.4c-7.4,11-25.3,30-56.3,30-38.4,0-67.1-29.7-67.1-67.6,0-40.2,28.9-67.6,63.7-67.6,35.1,0,52.2,27.9,57.9,43l3.1,7.7-90.4,37.4c6.9,13.6,17.7,20.5,32.8,20.5S806.59,183.4,814.29,172.1Zm-70.9-24.3,60.4-25.1c-3.3-8.4-13.3-14.3-25.1-14.3C763.59,108.4,742.59,121.7,743.39,147.8Z"/></svg>