<svg id="Layer_1" data-name="Layer 1" xmlns="http://www.w3.org/2000/svg" viewBox="0 0 974.95 260.99"><defs><style>.cls-1{fill:#c4c4c4;stroke:#a1d324;stroke-miterlimit:10;stroke-width:2px;}</style></defs><title>hoefler</title><path class="cls-1" d="M466.49,51.6c0-8.3,6.7-15.4,17.3-15.4,6.2,0,10.4,2.3,13.3,5.9l1.9-5.7h7.9V52.7h-8.4c-3.7-5.7-7.9-9.7-13-9.7-4,0-6,1.8-6,4.6,0,3.5,2.7,4.8,11.8,7.1,10.4,2.7,17.8,6.1,17.8,15.6,0,8.2-6.4,15.7-18,15.7a18.22,18.22,0,0,1-14.6-6.5l-1.9,5.5h-7.8V68.4h8.4c4.2,6.4,8.8,10.7,14.6,10.7,4.3,0,6.2-1.8,6.2-4.8,0-3.7-2.6-5.1-12.1-7.5C472.49,63.8,466.49,60.2,466.49,51.6ZM288.39,76.1h-11.1V56.4h4.3c5.6,0,6.6,1.3,7.6,9.8h7.9V38.7h-7.9c-1.2,8.2-1.9,9.4-7.6,9.4h-4.3V26.7h13.8c8.5,0,10.8,1.9,13.9,15.7h8.9V18.1H251V27h9.7V76.2H251v8.9h37.4v-9Zm22.7-14.7c0-14.8,11.1-25.1,25.8-25.1,15.2,0,25.6,10,25.6,24.6,0,14.8-11,25.1-25.7,25.1C321.69,86,311.09,76.1,311.09,61.4Zm16.3-.2c0,12.9,3.3,17.9,9.8,17.9s9.2-5.2,9.2-18-3.2-17.9-9.8-17.9S327.39,48.4,327.39,61.2ZM393,76.5h-5.3V57.9c0-6.8,4.4-11.6,9.2-11.6a6.84,6.84,0,0,1,4.7,1.6c1.5,1.5,2.1,4,2.1,7.2V76.4h-5.4v8.5h27.1V76.4h-6.8V53.1c0-9.9-4.3-16.8-14.5-16.8-8.7,0-13.9,5.5-17.3,13.4V37.2h-21v8.5h7V76.3h-7v8.5H393V76.5Zm39.3-6.8c0,10.9,5.1,16.3,15.5,16.3,9.6,0,14.5-5,16.3-16.1L458,68.2c-1.3,6-2.8,8.5-5.8,8.5-3.5,0-5-2.4-5-6.8v-24H463V37.4h-15.8V25.1l-14.5,1.7V37.4H424v8.5h8.4l-.1,23.8Zm94.5-46.2h-6.9V14.7h21.9v32c3-6.2,7.9-10.5,15.2-10.5a15.91,15.91,0,0,1,12.1,4.9c4.4,4.4,6.5,11.4,6.5,19.9s-2.5,15.6-6.8,19.8a17.25,17.25,0,0,1-12.7,5.1c-8.4,0-13.5-4-16.7-10.1l-4.7,9.8h-7.8l-.1-62.1ZM540.89,62c0,9.4,3.8,15.7,10.2,15.7,5.9,0,8.6-5.6,8.6-16.4,0-10.2-2.7-15.6-8.6-15.6C544.49,45.7,540.89,52.9,540.89,62Zm60.4,23.8c-2.9,7.1-5.5,9.1-9.7,9.6a8.87,8.87,0,0,0,.9-3.8c0-4-2.6-8-7.7-8-4.7,0-7.8,3.8-7.8,8.6,0,6.1,4.5,10.6,13.1,10.6,11.1,0,16.5-7.5,21.3-19L627.69,46h5.8V37.5h-20.8V46h6.1l-9.7,24.9-10.7-25.1h7.2V37.3h-29.8v8.5h6.3S595.69,74.1,601.29,85.8Zm-369.4,12c0,17-12.3,29.9-27.7,29.9a27.44,27.44,0,0,1-23.9-13.9c-8.6,4.8-17.1,12.1-25.7,23.1,14.1,16.3,23.6,22.9,34.3,22.9,11.7,0,18.5-6.5,24-16.3l3.6,1.1c-.7,32.2-20.3,52.4-44.2,52.4-16.5,0-28.7-6-46.7-25.1C110,189,91,197,68.09,197c-33.3,0-60.7-22.2-60.7-51.4,0-23.3,16-40.6,45.3-50.7-11.4-12.3-17-22.1-17-38.2,0-23.9,23.5-46.9,60.5-46.9,34,0,52.4,21.5,52.4,41a33.5,33.5,0,0,1-5.1,18.8c15.2-.8,26.3,5.7,27.2,20.2,9.2-13.3,19.7-20.8,33.5-20.8C219.49,69.1,231.89,80.9,231.89,97.8ZM109,155.3a534.06,534.06,0,0,0-41.3-45.5,32.53,32.53,0,0,0-8.8,22.5c0,17,12.2,29.9,29.1,29.9C96.29,162.2,102.69,160.1,109,155.3Zm2-103.8c0-12.7-6.6-21.4-16-21.4-8.7,0-15.1,7.1-15.1,16.4,0,12.5,8.5,20.5,21.1,32.6C107.29,69.7,111,60.4,111,51.5Zm28.2,23.7c-5.1,5.6-12.5,11.6-23.2,18.6,8.7,9,15.8,17.1,22.6,25.4C149.39,101,152,88.1,139.19,75.2Zm125,143.5h-4.5v5.4h-2.5V228h2.5v10.4c0,4.3,2.4,5.8,5.7,5.8a8.27,8.27,0,0,0,4.1-1v-3.7a5.55,5.55,0,0,1-2.8.7c-1.5,0-2.4-.7-2.4-2.5V228h5.3v-3.9h-5.3v-5.4Zm20.2,20.1-5.5-14.7H274l8.2,19.8c-.7,1.7-1.5,2.2-2.8,2.2a5.6,5.6,0,0,1-2.7-.8l-1.5,3.3a8.88,8.88,0,0,0,4.7,1.2c3.2,0,4.9-1.5,6.5-5.6l7.9-20.3h-4.7Zm35.8-4.8h0c0,6.6-4.5,10.3-9.2,10.3a7.87,7.87,0,0,1-6.7-3.5v9.1h-4.6V224.2h4.6v3.3a7.83,7.83,0,0,1,6.7-3.7C315.69,223.7,320.19,227.4,320.19,234Zm-4.6,0c0-3.8-2.6-6.3-5.6-6.3s-5.8,2.5-5.8,6.3v.1c0,3.8,2.7,6.3,5.8,6.3s5.6-2.5,5.6-6.4Zm31.1,0h0a10.37,10.37,0,0,1-10.6,10.4,10.25,10.25,0,0,1-10.5-10.2v-.1a10.27,10.27,0,0,1,10.5-10.3A10.15,10.15,0,0,1,346.69,234Zm-4.5,0a6.13,6.13,0,0,0-6.1-6.4c-3.6,0-5.9,2.8-5.9,6.3v.1a6.09,6.09,0,0,0,6,6.3c3.6.1,6-2.8,6-6.3Zm25.8-9.9h4.5v15.7c0,3.3-.9,5.8-2.5,7.4-1.8,1.8-4.6,2.7-8.1,2.7a16.13,16.13,0,0,1-8.8-2.4l1.7-3.4a12.82,12.82,0,0,0,7,2.1c4,0,6.2-2.1,6.2-6v-1.5a8.29,8.29,0,0,1-7,3.6,8.82,8.82,0,0,1-9-9.2V233a9,9,0,0,1,9-9.3,8.32,8.32,0,0,1,6.9,3.4l.1-3Zm0,8.9a5.53,5.53,0,0,0-5.8-5.4,5.3,5.3,0,0,0-5.6,5.4v.1a5.36,5.36,0,0,0,5.6,5.4A5.5,5.5,0,0,0,368,233Zm16.5-4.4v-4.5h-4.6v19.8h4.6v-7.5c0-5.2,2.8-7.8,6.7-7.8h.3v-4.8C388,223.6,385.69,225.6,384.49,228.6Zm26.2-2.5c1.5,1.4,2.1,3.5,2.1,6.1v11.7h-4.4v-2.5a8,8,0,0,1-6.4,2.9c-3.7,0-7-2.1-7-6.1v-.1c0-4.3,3.4-6.4,8.2-6.4a16,16,0,0,1,5.3.8V232c0-2.8-1.7-4.3-4.9-4.3a14,14,0,0,0-5.6,1.2l-1.2-3.5a16.65,16.65,0,0,1,7.5-1.6A9.32,9.32,0,0,1,410.69,226.1Zm-2.2,9.3a11.69,11.69,0,0,0-4.5-.8c-2.9,0-4.6,1.2-4.6,3.3v.1c0,1.9,1.7,3,3.9,3,3,0,5.3-1.7,5.3-4.2l-.1-1.4Zm32-1.4h0c0,6.6-4.5,10.3-9.2,10.3a7.87,7.87,0,0,1-6.7-3.5v9.1H420V224.2h4.6v3.3a7.83,7.83,0,0,1,6.7-3.7C435.89,223.7,440.49,227.4,440.49,234Zm-4.6,0c0-3.8-2.6-6.3-5.6-6.3s-5.8,2.5-5.8,6.3v.1c0,3.8,2.7,6.3,5.8,6.3s5.6-2.5,5.6-6.4Zm21.7-10.3a7.24,7.24,0,0,0-6.2,3.4V216.5h-4.6v27.4h4.6V232.8c0-3.1,1.8-4.9,4.5-4.9s4.2,1.8,4.2,4.8v11.2h4.5V231.3C464.69,226.7,462.09,223.7,457.59,223.7Zm22.3,15.1-5.5-14.7h-4.9l8.2,19.8c-.7,1.7-1.5,2.2-2.8,2.2a5.6,5.6,0,0,1-2.7-.8l-1.5,3.3a8.88,8.88,0,0,0,4.7,1.2c3.2,0,4.9-1.5,6.5-5.6l7.9-20.3h-4.7Zm13.8,5.1h5v-5.2h-5Zm22-3.5c-3.5,0-5.9-2.8-5.9-6.3V234c0-3.4,2.4-6.3,5.7-6.3a6.65,6.65,0,0,1,5.1,2.5l2.8-3a10.48,10.48,0,0,0-18.2,6.9v.1a10.36,10.36,0,0,0,18.3,6.5l-2.7-2.7A6.89,6.89,0,0,1,515.69,240.4Zm33.6-6.4h0a10.37,10.37,0,0,1-10.6,10.4,10.25,10.25,0,0,1-10.5-10.2v-.1a10.27,10.27,0,0,1,10.5-10.3A10.09,10.09,0,0,1,549.29,234Zm-4.5,0a6.13,6.13,0,0,0-6.1-6.4,6,6,0,0,0-6,6.3v.1a6.09,6.09,0,0,0,6,6.3c3.8.1,6.1-2.8,6.1-6.3Zm33.3-10.3a8.06,8.06,0,0,0-6.7,3.5,6.26,6.26,0,0,0-5.9-3.5,7.11,7.11,0,0,0-6,3.4v-3h-4.6v19.8h4.6V232.8c0-3,1.7-4.9,4.2-4.9s4,1.7,4,4.8v11.2h4.5V232.8c0-3.2,1.8-4.9,4.2-4.9s4,1.7,4,4.8v11.2h4.5V231.3C585,226.5,582.39,223.7,578.09,223.7ZM306,114h11.8v24.6h-33.7V114h11.7V102.6H251V114h11.8v63.4H251v11.4h44.8V177.4h-11.7V149.6h33.7v27.8H306v11.4h44.9V177.4h-11.8V114h11.8V102.6H306V114Zm112,43.7c0,19-14.1,32.3-33.1,32.3-19.5,0-33.1-12.7-33.1-31.7s14.3-32.3,33.3-32.3C404.49,126.1,418,138.9,418,157.7Zm-21,.3c0-16.5-4.1-23-12.6-23-8.2,0-11.8,6.7-11.8,23.2s4.2,23,12.6,23S397,174.5,397,158Zm87.4,2.6h-41.8c.8,14.3,6.5,19,16.4,19,7.2,0,11.9-3,14.7-10.7h10.1c-2.4,12.8-11,21.2-28.2,21.2-20.4,0-32.9-12.6-32.9-31.4,0-18.6,13.7-32.6,32.2-32.6C475.59,126.1,485.29,140.7,484.39,160.6Zm-18.8-8.2c-.6-12.4-4.1-17.4-11.1-17.4-6.8,0-11,4.3-11.8,17.4Zm162.8,8.2h-41.8c.8,14.3,6.5,19,16.4,19,7.2,0,11.9-3,14.7-10.7h10.1c-2.4,12.8-11,21.2-28.2,21.2-20.4,0-32.9-12.6-32.9-31.4,0-18.6,13.8-32.6,32.2-32.6C619.59,126.1,629.29,140.7,628.39,160.6Zm-18.7-8.2c-.7-12.4-4.1-17.4-11.1-17.4-6.8,0-11,4.3-11.8,17.4Zm67.8-26.2c-8.4,0-15.5,5.6-19.1,17V127.4h-27v11h9v39.4h-9v11h39.5v-11h-11.4V150.9c2.2-7.6,6.7-11.5,10.1-11.8,0,.4-.1.8-.1,1,0,6,4.5,9.3,10.2,9.3s10.2-4.7,10.2-11.3C689.89,131.8,685.09,126.2,677.49,126.2Zm97.4,43.2,7.2,2.2c-2.5,10.7-8,19.2-19.5,19.2-7.9,0-12.3-2.6-18.7-10.6-6.9,7.1-14.9,10.6-24.6,10.6-17.3,0-27.4-10-27.4-22.8,0-12.6,8.9-19.1,20.2-23.4-6-6.2-9-10.9-9-18.1,0-11.4,10.3-21.2,25.9-21.2,14.9,0,22.7,9.2,22.7,17.9,0,9.9-7.5,14.7-17,18.9a148.76,148.76,0,0,1,18.1,20.8,76.4,76.4,0,0,0,9.6-14.1h-9V137.9h28v11h-8.1a98.34,98.34,0,0,1-15.1,20.9c4.5,6.2,6.4,7.6,9.6,7.6S772.89,175.5,774.89,169.4ZM720,122c0,4.8,2.9,8.9,9.2,15.2,5.1-3.7,7.6-8,7.6-13.5s-2.6-9.8-8.7-9.8A7.83,7.83,0,0,0,720,122Zm18.5,52.1a156.76,156.76,0,0,0-21-24.2c-4.3,3.4-6.7,8-6.7,14.5,0,8.6,5.5,14.4,14.5,14.4C729.69,178.8,734,177.4,738.49,174.1Zm97.6,4.5c-14.8,0-23.8-10.1-23.8-33.6,0-24.6,8.6-33.6,20.9-33.6,10.9,0,18.2,8,23.4,23.8h13V100.9h-11.8l-2.8,10c-5.2-6.4-13.5-10.2-24.5-10.2-22.5,0-41.6,18.9-41.6,45.7,0,26.6,17.3,44.7,44.1,44.7,23.3,0,36.1-14.3,38.4-36.5h-12.7C856.49,168.7,849,178.6,836.09,178.6Zm106.2-20.9c0,19-14.1,32.3-33.1,32.3-19.5,0-33.1-12.7-33.1-31.7s14.3-32.3,33.3-32.3C928.79,126.1,942.29,138.9,942.29,157.7Zm-21,.3c0-16.5-4.1-23-12.6-23-8.2,0-11.8,6.7-11.8,23.2s4.2,23,12.6,23S921.29,174.5,921.29,158Zm34.4,9.8a11.6,11.6,0,1,0,11.7,11.4A11.4,11.4,0,0,0,955.69,167.8Zm-418,10V138.4h-22.3v39.4h7.8v11h-35.5v-11h8.9V138.4h-11.1v-11h11.1v-.5c0-20.2,14.2-29.3,30.3-29.3a32.31,32.31,0,0,1,13.2,2.6l16.3-2.9v80.6h10v11h-36.6v-11l7.9-.1Zm0-50.4v-7.5c-5.5-.1-9.2-3.1-9.2-8.9a9.62,9.62,0,0,1,1.7-5.4,10,10,0,0,0-4.2-.8c-6.5,0-11.1,3.3-11.1,18.2v4.3l22.8.1Z"/></svg>