<svg id="Layer_1" data-name="Layer 1" xmlns="http://www.w3.org/2000/svg" viewBox="0 0 676.47 580.47"><defs><style>.cls-1{fill:#c4c4c4;stroke:#a1d324;stroke-miterlimit:10;}</style></defs><title>ina-saltz</title><path class="cls-1" d="M101.89,417.79h62.5V367c-24.4-16.8-50.2-22.6-79.4-22.6-20.1,0-41,2.5-55.3,13.3-17.6,13.3-21.4,24.9-22.4,48v4.8c0,46.5,22.9,56.3,63.6,66.3,18.6,4.5,32.4,6.3,32.4,28.4,0,7.8-4,16.6-13.1,16.6a14,14,0,0,1-12.1-7c-2.3-4.5-2-14.1-2-26.9H10.49v57.8c21.9,17.3,50.8,22.6,78.1,22.6,64.1,0,82.4-30.7,82.4-72.1v-1a84.47,84.47,0,0,0-5-29.6c-3-9-8.8-15.3-16.6-20.6-13.6-9-35.2-14.8-51.3-19.1-5.5-1.5-15.1-4.5-18.8-8.5-3.5-3.5-4-7.8-4-12.1,0-8,4.5-14.3,13.1-14.3,13.1,0,13.3,13.3,13.3,22.9v3.9h.2Zm167,100.8c-5.5,4-11.1,5.8-16.1,5.8-5.3,1-8.5-4.8-8.5-9.8,0-11.1,14.1-13.6,24.6-17.8v21.8Zm2.3,45.4h64.3v-35.4c-8-5.8-7.3-13.1-7.3-21.4V463c.3-18.3,0-34.9-16.6-48-13.3-10-33.7-12.6-49.5-12.6-24.6,0-50.2,5-70.6,19.6v38.9H247v-6.4c0-7.8,2-15.6,11.6-15.6,8.3,0,10.3,7.8,10.3,15.6V460l-38.2,12.3c-26.6,8.8-45.7,18.1-45.7,49.7,0,27.9,17.3,45.2,45,45.2,16.3,0,28.6-4.8,41.2-15.3V564Zm141.7-215.3h-66.6v35.4c8,4.8,7.3,12.8,7.3,20.9v103.8c0,8,.5,15.1-7.3,19.8V564h73.9v-35.4c-8-4.3-7.3-13.1-7.3-20.9v-159Zm83.4,9.3L437,374.79v30.9h-7.3v36.2H437v73.9c0,13.8-.8,28.6,10,39.4,10,9.8,26.1,12.1,39.2,11.1l29.6-2.3V528.1c-19.8-2.3-19.6-8.5-19.6-25.6V442h19.6v-36.2h-19.6l.1-47.8Zm29.9,206h141.2v-61.5h-43.5v4.8c0,4.3-.3,11.3-2.5,15.1-2.8,5-11.6,4.3-16.6,4.3h-6l67.1-85.2v-35.7H527.19v58.7h41.2v-3.8c0-3.3.3-10.8,2-14.6,2.5-5.3,11.3-4.3,16.1-4.3h5.8l-66.1,84.7V564Z"/><path class="cls-1" d="M24.89,247.79c0,12.4,1.2,24.9-11.3,32.6v59h126.2v-59c-12.4-7.8-11.3-20.2-11.3-32.6V98.3c0-12.4-1.2-24.9,11.3-32.6V6.7H13.59v59c12.4,7.8,11.3,20.2,11.3,32.6v149.5Zm240.7-153h-99v54.7c11.6,8.5,11.3,17.1,11.3,30.3V254c0,12.4.8,23.7-11.3,30.7v54.7h114.2V284.7c-12.4-6.6-11.3-20.2-11.3-32.2V160.9c15.1-7,25.2,0,31.5,9.3,3.9,8.9,2.7,20.2,2.7,21.7v71.4c0,25.2-.4,51.3,5,76.1h97.5v-54.7c-12-6.6-10.9-20.2-10.9-32.2V160.9c0-21-1.9-38.8-18.6-54.7-9.3-9.3-26-15.5-45-16.3-19.4-.8-41.2,3.5-66,20.2l-.1-15.3ZM556,269.19c-8.5,6.2-17.1,8.9-24.8,8.9-8.2,1.6-13.2-7.4-13.2-15.1,0-17.1,21.7-21,38.1-27.6l-.1,33.8Zm3.5,70.2h99.4v-54.7c-12.4-8.9-11.3-20.2-11.3-33v-68.3c.4-28.3,0-54-25.6-74.2-20.6-15.5-52-19.4-76.5-19.4-38.1,0-77.7,7.8-109.1,30.3v60.2h85.8v-10.1c0-12,3.1-24.1,17.9-24.1,12.8,0,15.9,12,15.9,24.1v8.5l-59,19c-41.2,13.6-70.7,28-70.7,76.9,0,43.1,26.8,69.9,69.5,69.9,25.2,0,44.3-7.4,63.7-23.7v18.6Z"/></svg>