<svg id="Layer_1" data-name="Layer 1" xmlns="http://www.w3.org/2000/svg" viewBox="0 0 968 573"><defs><style>.cls-1{fill:#c4c4c4;stroke:#a1d324;stroke-miterlimit:10;stroke-width:2px;}</style></defs><title>mark-simonson</title><path class="cls-1" d="M795.8,209.7c-8.5,3.8-22.6,8.5-35.7,8.5-10.6,0-20.7-2.5-29.1-9.4,18.2,1.8,33.8-10.1,33.8-27.3,0-16-13.2-24.5-25.4-24.5-22.6,0-40.7,15.7-51.7,43.7V180.1c36.9-62.8,50.8-99.5,50.8-126.5,0-16-7.5-43.3-25.4-43.3s-50.8,25.4-50.8,106.3v81.6c-8.7,11-16.2,17.1-22.6,17.1-7.5,0-12.2-6.6-12.2-16.9s3.8-21.6,6.6-28.2,0-12.2-7.5-7.5c-4.7,2.8-9.4,6.6-16.9,6.6-2.8,0-11.3,0-16-3.8.9-13.2-3.8-20.7-12.2-20.7-7.5,0-15,7.5-15,17.9,0,9,4.3,15.6,11.2,19.9-4.1,17.9-18.9,30.9-27.2,30.9-6.6,0-9.4-4.7-9.4-16v-32c0-6-10.2-3.2-17.7,2.5a39.51,39.51,0,0,0-23.7-8.1c-21.6,0-49.8,17.9-49.8,47,0,19.8,13.2,31,31,31,14.5,0,28.2-10.5,36.9-23.7,2.3,15.8,14.3,20.9,25.2,20.9,19.7,0,41.5-24.3,46.8-48a51.56,51.56,0,0,0,10.6,1,41.76,41.76,0,0,0,12.8-2.2c-5.7,7.5-10,18.1-10,25.7,0,14.1,10.3,23.5,26.3,23.5,12.2,0,22.8-6.6,32.9-17.8v10.3c0,4.7,1.9,6.6,6.6,6.6h15c4.7,0,5.6-3.8,6.6-6.6,10.3-36.7,23.5-54.5,36.7-54.5,7.5,0,12.2,7.5,12.2,15,0,3.8-1.9,9.4-6.6,9.4s-6.6-3.8-9.4-5.6c-4.7-3.8-15,9.4-15,20.7,0,10.3,15,24.5,39.5,24.5,28.2,0,44.2-10.3,50.8-18.8C803.3,212.5,801.5,206.9,795.8,209.7Zm-304.7,2.8c-11.3,0-16.9-8.5-16.9-19.8,0-10.3,8.5-18.8,19.8-18.8,8.3,0,14.8,3.1,21.5,9.7C514,203.4,502.6,212.5,491.1,212.5ZM703.6,25.4c12.2,0,16,21.6,16,38.6,0,25.6-14.5,63.4-32,95.2V103.5C687.7,68.6,691.4,25.4,703.6,25.4Zm-492.9,268a19.8,19.8,0,1,1,19.8,19.8A19.35,19.35,0,0,1,210.7,293.4Zm264.4-27.3c-6.6,14.1-19.8,21.6-32.9,21.6-26.3,0-39.5-23.5-39.5-62.1,0-27.3,4.7-64.9,4.7-92.2,0-16.9-3.8-26.3-14.1-26.3-15,0-29.2,17.9-29.2,63v57.4c0,4.7-1.9,6.6-6.6,6.6H343.4c-4.7,0-6.6-1.9-6.6-6.6V124.1c0-16.9,0-36.7-14.1-36.7-10.3,0-27.3,14.1-27.3,47v93.1c0,4.7-1.9,6.6-6.6,6.6H274.7c-4.7,0-6.6-1.9-6.6-6.6V113.8c0-43.3-18.8-62.1-48-62.1S159,72.4,159,112.8c0,28.2,19.8,45.1,43.3,45.1,16,0,29.2-9.4,39.5-23.5,5.6-7.5,9.4-1.9,5.6,5.6-9.4,18.8-30.1,36.7-57.4,36.7-29.2,0-50.8-24.5-50.8-53.6,0-48.9,45.1-88.4,89.3-88.4,30.5,0,58.9,15.9,65.4,64.2,8.4-18.7,22.2-29.4,39-29.4,20.7,0,31,16.9,31,38.6V120c8.6-20.1,23.2-28.8,36.7-28.8,16,0,32,12.2,32,39.5,0,24.5-3.8,58.3-3.8,86.5,0,33.9,5.6,52.7,21.6,52.7,9.4,0,14.1-3.8,18.8-9.4C473.2,255.8,477.9,260.5,475.1,266.1ZM950.9,379c-4.7,3.8-9.4,5.6-15,5.6-4.7,0-9.4-1.9-14.1-14.1l-6.6-17.9c-4.7-12.2-8.5-20.7-19.8-20.7-10.5,0-20,8.4-25.6,19.1-1.2-9.7-7.4-17.2-16.7-17.2h-2.8c-3.8,0-5.6,1.9-5.6,6.6v2.9c-2.9,7.3-12.1,12.2-28.2,12.2,0-7.5-3.8-18.8-17.9-18.8a13.82,13.82,0,0,0-7.4,2.4c-3-3.9-8.2-6.2-14.3-6.2-15.2,0-33.6,16.2-38.9,34.4a57,57,0,0,1-21.4,16.8c-2.2-35.8-31.8-33-31.8-50.2,0-2.8-1.9-5.6-4.7-5.6-7.5,0-16.9,13.2-16.9,21.6a19,19,0,0,0,3.8,11.4c-5.4,12.3-15,23.4-21.6,23.4-4.7,0-9.4-1.9-14.1-14.1l-6.6-17.9c-4.7-12.2-8.5-20.7-19.8-20.7-10.5,0-20,8.4-25.6,19.1-1.2-9.7-7.4-17.2-16.7-17.2h-2.8c-3.8,0-5.6,1.9-5.6,6.6v2.9c-2.9,7.3-12.1,12.2-28.2,12.2,0-7.5-3.8-18.8-17.9-18.8a13.82,13.82,0,0,0-7.4,2.4c-3-3.9-8.2-6.2-14.3-6.2-14.7,0-32.5,15.2-38.4,32.6-.1.1-.1.2-.2.3-3.8,11.3-10.3,18.8-16.9,18.8-4.7,0-9.4-1.9-14.1-14.1l-6.6-17.9c-4.7-12.2-8.5-20.7-19.8-20.7-10.7,0-20.2,8.6-25.8,19.4-1.4-13.5-6.6-19.4-18.4-19.4-9.3,0-24.1,7-32.1,20-.9-10.1-7.2-18.2-16.8-18.2h-2.8c-3.8,0-5.6,1.9-5.6,6.6v4.7c0,16-18.8,38.6-35.7,38.6-5.6,0-9.4-5.6-9.4-15V340.5c0-4.7-1.9-6.6-6.6-6.6H225c-4.7,0-6.6,1.9-6.6,6.6v6.6c0,24.5-18.8,44.2-37.6,55.5-7.5,4.7-4.7,10.3,2.8,7.5,13.4-5.3,28.1-15,35.5-27.2,2,15.9,8.5,24.3,22.8,24.3,13.4,0,36.4-13.3,47-31.5v24c0,4.7,1.9,6.6,6.6,6.6h12.2c4.7,0,6.6-1.9,6.6-6.6V380.9c0-16,11.3-25.4,18.8-25.4,3.8,0,6.6,1.9,6.6,9.4v34.8c0,4.7,1.9,6.6,6.6,6.6h12.2c4.7,0,6.6-1.9,6.6-6.6V380.9c0-16,10.3-25.4,16-25.4s6.6,8.5,7.5,12.2l4.7,19.8c2.8,14.1,10.3,20.7,23.5,20.7,13.5,0,24.6-8.3,31.2-19.3,4.7,13.2,17.6,23,37.5,23,24.2,0,38-22.2,40.1-40.4h1.2c9.7,0,20.4-4.1,27.3-11.1v39.4c0,4.7,1.9,6.6,6.6,6.6h12.2c4.7,0,6.6-1.9,6.6-6.6V381c0-16,10.3-25.4,16-25.4s6.6,8.5,7.5,12.2l4.7,19.8c2.8,14.1,10.3,20.7,23.5,20.7,19.8,0,35.6-18.9,42.5-40.1C683.6,376,697,381,697,390.5c-7.5,0-12.2-2.8-16-2.8-5.6,0-11.3,9.4-11.3,14.1s9.4,6.6,15,6.6c18,0,38.4-9.6,52.5-23.7,3.2,15.4,16.7,27.5,38.7,27.5,24.2,0,38-22.2,40.1-40.4h1.3c9.7,0,20.4-4.1,27.3-11.1v39.4c0,4.7,1.9,6.6,6.6,6.6h12.2c4.7,0,6.6-1.9,6.6-6.6V377.5c0-16,10.3-21.6,16-21.6s6.6,8.5,7.5,12.2l4.7,19.8c2.8,14.1,10.3,20.7,23.5,20.7,12.2,0,31-13.2,34.8-23.5C958.4,380,953.7,377.1,950.9,379Zm-460.8,8.5c-11.3,0-23.5-10.3-23.5-23.5,0-9.4,6.6-16,15-16a18.54,18.54,0,0,1,12.3,4.4c.5,6.1,3.3,13.3,14,18.2C507.9,380,502.3,387.5,490.1,387.5Zm290.6,0c-11.3,0-23.5-10.3-23.5-23.5,0-9.4,6.6-16,15-16a18.54,18.54,0,0,1,12.3,4.4c.5,6.1,3.3,13.3,14,18.2C798.6,380,792.9,387.5,780.7,387.5ZM108.2,289.7c-3.8,7.5-7.5,12.2-7.5,22.6,0,16.9,14.1,30.1,32.9,30.1,29.2,0,43.3-20.7,43.3-43.3,0-35.7-34.8-64-74.3-64s-65.8,25.4-65.8,58.3c0,76.2,118.5,71.5,118.5,154.2,0,36.7-26.3,60.2-54.5,60.2-27.3,0-41.4-16.9-41.4-36.7,0-23.5,23.5-41.4,41.4-41.4,7.5,0,7.5,7.5,1.9,7.5-11.3.9-23.5,8.5-23.5,26.3,0,13.2,11.3,26.3,30.1,26.3s31-12.2,31-32C140.2,391.2,17,397.8,17,304.7c0-51.7,51.7-92.2,95.9-92.2,42.3,0,77.1,26.3,77.1,75.2,0,41.4-28.2,72.4-59.3,72.4-27.3,0-46.1-19.8-46.1-42.3,0-16,10.3-28.2,19.8-32C107.3,285,109.2,286.9,108.2,289.7ZM308.7,554.1a16.24,16.24,0,0,1-14.7-8.9l8.7-5.4a6.22,6.22,0,0,0,6,4.3c3.4,0,6.1-2.4,6.1-5.4,0-3.6-3.6-5.8-7.6-8.2-5.4-3.3-11.5-7-11.5-15,0-7.6,6.5-13.7,14.5-13.7a14.77,14.77,0,0,1,13.4,8.5l-9,4.6a4.46,4.46,0,0,0-4.4-3.1c-2.4,0-4.5,1.7-4.5,3.7,0,2.6,3.1,4.5,6.8,6.7,5.5,3.3,12.4,7.6,12.4,16.5C324.9,547.2,317.6,554.1,308.7,554.1Zm65.8-41.4V553h-10V512.7h-8.4v-10H383v10ZM434,554.1a15.77,15.77,0,0,1-15.8-15.8V502.8h10v35.5a5.85,5.85,0,1,0,11.7,0V502.8h9.9v35.5A15.83,15.83,0,0,1,434,554.1Zm68.1-1.1H489.4V502.7h12.7a25.15,25.15,0,1,1,0,50.3Zm0-40.3h-2.7V543h2.7a15.15,15.15,0,1,0,0-30.3ZM563.6,553V502.7h10V553Zm72.5,1.1A26.15,26.15,0,1,1,662.2,528,26.14,26.14,0,0,1,636.1,554.1Zm0-10.1A16.1,16.1,0,1,0,620,527.9,16.09,16.09,0,0,0,636.1,544Z"/></svg>