<svg id="Layer_1" data-name="Layer 1" xmlns="http://www.w3.org/2000/svg" viewBox="0 0 821.96 206.99"><defs><style>.cls-1{fill:#c4c4c4;stroke:#a1d324;stroke-miterlimit:10;stroke-width:2px;}</style></defs><title>monotype</title><path class="cls-1" d="M134.89,150.3h16.6L143,15.3h-22.4l-33.9,97c-2.7,7.9-4.6,14.1-6.7,21.6-1.2-5.8-3.5-15-5.2-20.4L42,15.3H19L9,150.3H25l5.2-84.8c.8-12.5,1.7-26,1.7-34.3,2.3,8.1,6.2,20,8.3,26.6l30.9,92.5h17.7l31.6-91.8c3.5-10,5.8-19.1,8.1-27.6,0,8.1.8,25.1,1.2,32.2Zm105.4-50c0,22.4-8.7,38.9-28.9,38.9-19.3,0-28.5-12.1-28.5-35.7,0-22.4,9.1-39.1,29.3-39.1,19.4.1,28.1,12.4,28.1,35.9m16.5,0c0-30.1-13.3-48.6-42.4-48.6-31.4,0-48.2,19.7-48.2,51.9,0,30.1,13.3,48.6,42.4,48.6,31.5,0,48.2-19.7,48.2-51.9m79.4,50h16V81.5c0-20-12.5-29.9-29.5-29.9-13.5,0-24.5,6-32.8,11l-2.5-9.1h-13.3v96.8h16V73.4c8.5-4.2,18.1-7.9,27.6-7.9,11.4,0,18.5,5.4,18.5,17.9v66.9Zm107.2-50c0,22.4-8.7,38.9-28.9,38.9-19.3,0-28.5-12.1-28.5-35.7,0-22.4,9.1-39.1,29.3-39.1,19.4.1,28.1,12.4,28.1,35.9m16.5,0c0-30.1-13.3-48.6-42.4-48.6-31.4,0-48.2,19.7-48.2,51.9,0,30.1,13.3,48.6,42.4,48.6,31.5,0,48.2-19.7,48.2-51.9m43.8,51.7a65,65,0,0,0,24.2-4.8L526,136.5a71.43,71.43,0,0,1-14.5,2c-7.7,0-12.7-3.1-12.7-13.7V66.2h23.9l1.9-12.7h-26l-.4-27.6-11.8,2.9-3.5,23.9-16.2,4.2v8.9l16,.2v63.8c0,15.7,8.3,22.2,21,22.2m86.5-1.9,33.5-96.6h-17.2l-20,61.5c-1.9,5.6-5,15.8-6.6,21.2-1.5-5.4-5-15.6-6.9-21l-22.9-61.7h-17.5L570,150.3h4.2c-9.1,20.4-16.6,29.1-32.6,29.1a52.33,52.33,0,0,1-14.1-2.1l-2.7,12.1a59.86,59.86,0,0,0,19.1,3.3c28.7,0,37.4-17.6,46.3-42.6m108.3-50c0,27-14.5,39.1-32.6,39.1a59.11,59.11,0,0,1-17.3-2.9V70c7.1-2.7,15.4-4.6,22.4-4.6,16.9,0,27.5,7.8,27.5,34.7m16.6-1.7c0-34.3-16.2-46.8-38.4-46.8a51.41,51.41,0,0,0-28.1,7.9l-2.7-6h-13.3V192.7l16-3.9V149.1a52.14,52.14,0,0,0,17.5,3.1c24,0,49-14.3,49-53.8m77.3-7.1h-46.3c1.5-13.3,8.5-26.8,23.7-26.8,14.1,0,21.7,10,22.6,26.8M809,97.4c0-27.8-12.3-45.7-37.4-45.7-28.7,0-42.8,22-42.8,51.9,0,31.2,17.5,48.6,45.3,48.6,13.5,0,23.5-2.1,32-6l-2.5-11.6a84.69,84.69,0,0,1-26.8,3.9c-18.9,0-31.4-13.3-31.4-33.9v-1.4H808Z"/></svg>