<svg id="Layer_1" data-name="Layer 1" xmlns="http://www.w3.org/2000/svg" viewBox="0 0 607.47 719.96"><defs><style>.cls-1{fill:#c4c4c4;stroke:#a1d324;stroke-miterlimit:10;stroke-width:2px;}</style></defs><title>moshik</title><path class="cls-1" d="M420.09,598.19l77,95.7H513l-49.5-62.1c-17.3-21.9-21.9-42.9-21.9-62.5,0-20.1,4.7-37.8,5.6-53.2l1.4-20.5v-7.5a193.77,193.77,0,0,0-3.7-39.7l119.9-109.7c4.7-4.7,7.5-6.1,15.9-6.1h17.7l3.3-2.3.5-11.2H451.79L120,623.39a178.47,178.47,0,0,1-24.7-25.2l303.8-279.1h-90.5v10.7l3.3,2.8h11.2c9.8,0,17.7,4.2,17.7,12.1,0,5.1-3.3,11.7-12.1,19.6L86.89,587c-8.4-12.1-14.5-25.2-19.6-39.2-.9-4.2-1.9-7.9-1.9-11.7,0-13.5,11.2-25.2,50.4-62.1l242.7-226.8c25.7-25.2,37.3-56.5,37.3-87.3,0-24.7-7.5-49.9-21.5-71.9a25.59,25.59,0,0,1,.9,7.5c0,6.5-1.9,14.9-10.3,22.9l-258,235.7c-37.3,33.6-60.2,82.1-60.2,136.3A183.77,183.77,0,0,0,231,674.69c99.9,0,184.8-83.5,184.8-182.9,0-5.1-.5-10.3-.9-15.9l19.1-17.7a184.32,184.32,0,0,1,2.8,32.2c0,105-89.6,205.3-205.8,205.3-113.4,0-205.3-91.9-205.3-205.3a203.81,203.81,0,0,1,65.8-150.7l242.7-224.9c12.6-11.7,17.3-23.3,17.3-33.6,0-20.1-16.8-36.9-30.8-46.2-26.1-16.8-56-26.6-88.2-26.6-90.1,0-163.3,73.3-163.3,163.3,0,48.1,20.5,91.5,54.1,121.3l-40.2,37.3a217.46,217.46,0,0,0-70,160.1c0,120.4,97.5,217.9,217.9,217.9,61.1,0,115.7-25.7,154.9-65.8C400.49,627.09,411.69,612.59,420.09,598.19ZM134,283.59c-31.7-29.4-50.4-69.1-50.4-112,0-82.1,66.7-148.9,148.9-148.9,30.3,0,55.1,7.5,73.3,20.5,19.1,13.5,28.5,26.6,28.5,39.7,0,10.3-5.6,20.5-16.8,31.7Zm271.6,200.2a71.07,71.07,0,0,1,.5,10.3c0,86.8-78.9,170.3-174.1,170.3a156.9,156.9,0,0,1-20.5-1.4Z"/></svg>