<svg id="Layer_1" data-name="Layer 1" xmlns="http://www.w3.org/2000/svg" viewBox="0 0 946 464"><defs><style>.cls-1{fill:#c4c4c4;stroke:#a1d324;stroke-miterlimit:10;stroke-width:2px;}</style></defs><title>ohno</title><path class="cls-1" d="M628.3,452.3c5.8-133.8,4-226,7.5-319.5C592,266.6,558.5,439,547.6,447.1s-23.1,2.9-54.8,0c1.7-45,1.7-96.3,1.7-147-22.5-.6-45-.6-66.3-.6.6,60.5.6,141.3-6.9,147-9.2,6.9-47.3.6-57.1,1.2,4.6-69.2,5.2-106.7,5.2-147.6-20.2.6-39.2.6-57.1,1.2-.6,60,2.9,131.5.6,136.7-5.2,11.5-12.7,13.8-56.5,15-1.7-67.5,0-110.1,1.2-149.9-20.2.6-36.3,1.2-46.1,1.7-20.8,35.2-60.5,105.5-75,142.4-20.2-4.6-46.1,1.7-46.1,1.7a121,121,0,0,0-11.5-35.2c-9.2-17.9-64-98-66.9-110.1-2.3-10.4,0-25.4,8.1-40.4-6.3-10.4-5.2-28.3,1.7-51.3,9.2-30,49-113,81.9-190.9,16.7,0,28.3-1.2,49.6-6.9,23.1,58.8,44.4,143.6,62.9,232.4,8.6.6,23.6,1.2,42.7,1.7v-8.7c0-65.2-4.6-196.1,4.6-210.5,4-6.3,13.8-10.4,51.3-11-4.6,90,1.2,170.1-.6,230.7,17.9.6,36.3.6,55.4.6v-2.9c0-200.7-6.9-210.5,4.6-219.7,8.1-6.3,36.3-3.5,49.6-4-1.7,97.5,1.2,170.1,2.9,226,25.4-.6,48.4-1.2,68-2.3-.6-113-1.7-212.8,4.6-221.4,10.4-13.8,39.8-9.2,56.5-8.1-6.3,46.7-6.3,188-5.8,247.4,39.8-132,75-238.1,87.1-244.5,12.7-6.9,54.8-1.2,54.8-1.2C685,153,695.9,428,689,442.4,681.9,456.9,628.3,452.3,628.3,452.3ZM160,262.6c-1.2-11.5-24.2-110.7-34-151.1C96.6,177.2,61.4,255.1,61.4,266.6c-.6,13.3,31.7,58.2,53,106.7C135.8,317.3,161.2,277,160,262.6ZM852.6,9.4c30.6,98,47.9,152.2,78.4,266.4-45.6,119.4-72.7,171.8-85.9,174.7s-38.1-5.8-53.6-12.1c-1.7-35.8-43.2-92.8-59.4-119.4s-3.5-32.3,1.7-40.4c4.6-8.1.6-16.7-10.4-19.6,0,0,65.2-160.3,87.6-245.6C824.3,19.2,842.8,20.4,852.6,9.4ZM776.5,278.7c1.2,18.5,40.9,72.1,51.9,98.6,23.1-53.1,41.5-103.8,41.5-103.8-13.3-76.7-29.4-123.4-35.8-156.3C811.6,183,775.3,260.3,776.5,278.7Z"/></svg>