<svg id="Calque_1" data-name="Calque 1" xmlns="http://www.w3.org/2000/svg" viewBox="0 0 490 638"><defs><style>.cls-1{fill:#c4c4c4;stroke:#a1d324;stroke-miterlimit:10;stroke-width:2px;}</style></defs><title>production-type</title><path class="cls-1" d="M17,621.5V14.5H270c115.9,0,207,81,207,213.4,0,131.5-91.1,212.5-207,212.5H218.5c-27.6,0-41.4-5.5-58.9-23l-20.3,20.3c15.7,15.6,23,26.6,23,49.7V621.7H17ZM162.3,276.6c0,18.4-6.5,26.6-21.1,42.3l17.5,18.4c16.6-16.6,29.4-21.1,52.4-21.1h31.3c50.6,0,89.2-35.9,89.2-88.3,0-53.4-38.6-89.2-89.2-89.2H202c-19.3,0-28.5-5.5-43.2-20.3L141.3,135c14.7,14.7,21.1,23.9,21.1,42.3C162.3,177.2,162.3,276.6,162.3,276.6Z"/></svg>