<svg id="Layer_1" data-name="Layer 1" xmlns="http://www.w3.org/2000/svg" viewBox="0 0 740 700"><defs><style>.cls-1{fill:#c4c4c4;stroke:#a1d324;stroke-miterlimit:10;stroke-width:2px;}</style></defs><title>robofont</title><path class="cls-1" d="M284.4,368c19.7,5.6,50,16.9,68.7,36.4l67-20.8c4.4-26.6,23-53.1,36.1-68.9l-135.1-132Zm48.7-72.5c1.1-10.2,7-17.7,16.2-20.6s18.2-.1,25,7.6c4.5,5,8.1,12.2,11.1,21.9s4,17.6,3.2,24.3c-1.3,10.2-7.2,17.6-16.3,20.4s-18.3,0-25-7.8c-4.3-5-7.8-12.1-10.8-21.8S332.4,302,333.1,295.5Z"/><path class="cls-1" d="M711.6,229.4C689,166.2,646.2,113,588,75.5,531.2,38.9,463.7,19.6,392.6,19.6A397.9,397.9,0,0,0,258.5,43.1C167.2,75.8,92.7,138.6,48.9,220,5,301.6-2.9,392,26.7,474.6,49.4,537.8,92.2,591,150.4,628.5c56.8,36.6,124.3,55.9,195.4,55.9a397.9,397.9,0,0,0,134.1-23.5c91.3-32.7,165.8-95.5,209.6-176.9C733.3,402.4,741.2,312,711.6,229.4Zm-235.9,420a385.69,385.69,0,0,1-130,22.8C202.8,672.2,82.1,593,38.3,470.5c-58.7-164,42-350.5,224.4-415.9a385.69,385.69,0,0,1,130-22.8c142.9,0,263.6,79.2,307.4,201.7C758.8,397.5,658.2,584,475.7,649.4Z"/><path class="cls-1" d="M275.9,87.7C113.1,146,23.7,312,76.2,458.6S303.1,676.7,465.9,618.4,718,394,665.5,247.5,438.6,29.5,275.9,87.7ZM493,322.1c-13.2,13.2-48.8,56.4-40.1,80.6l34.9,97a12,12,0,0,1-.5,9.3,11.47,11.47,0,0,1-7.1,6L378.6,546.5a11.4,11.4,0,0,1-9.2-1,11.91,11.91,0,0,1-5.7-7.3l-26.1-99.7c-6.6-24.9-60.4-40.3-78.7-43.7a12,12,0,0,1-7.7-5.1,11.52,11.52,0,0,1-1.7-9l50-233.2a11.85,11.85,0,0,1,8.1-8.8l.4-.1a11.76,11.76,0,0,1,11.6,2.7L492.8,305.2a11.67,11.67,0,0,1,3.7,8.4A12.48,12.48,0,0,1,493,322.1Z"/></svg>