<svg id="Layer_1" data-name="Layer 1" xmlns="http://www.w3.org/2000/svg" viewBox="0 0 979.45 223.09"><defs><style>.cls-1{fill:#c4c4c4;stroke:#a1d324;stroke-miterlimit:10;stroke-width:2px;}</style></defs><title>rosetta</title><path class="cls-1" d="M120.49,214l36.9-22.4-42.1-56.3c19.1-10.8,32.3-29.2,32.3-56.9,0-40-26.1-62.4-77.8-62.4-21.8,0-45.5,3.1-59.3,6.5V210h39V147.6h12.3a144.39,144.39,0,0,0,16.3-.9ZM49.39,113.2V59a222.92,222.92,0,0,1,23.4-1.5c21.2,0,36.9,7.7,36.9,26.1,0,21.8-22.4,29.5-50.1,29.5l-10.2.1Zm193.7-58.8c-47,0-71.6,32-71.6,79.9s24.6,79.3,71.3,79.3,71.3-31.1,71.3-79.9c0-48.2-24.6-79.3-71-79.3m0,43.4c20.3,0,35.7,10.8,35.7,36.3,0,24.6-13.8,37.5-36.3,37.5-21.5,0-35.7-12-35.7-36.3,0-24,13.9-37.5,36.3-37.5m89.5,105.4a112.84,112.84,0,0,0,46.7,9.8c40,0,65.2-19.4,65.2-50.7,0-27.1-18.8-34.1-48-42.1-15.1-4-26.1-7.4-26.1-15.1,0-6.5,8-10.5,22.1-10.5a219.67,219.67,0,0,1,37.2,4L438,64.2c-11.1-5.2-27.4-9.2-43.3-9.2-36.9,0-62.1,22.1-62.1,50.7,0,26.4,21.8,34.1,42.1,39.7,16.6,4.3,31.4,8.6,31.4,17.2,0,7.1-8,11.1-24,11.1-11.1,0-29.2-1.5-40.9-4Zm208.7-28.6c-27.4,0-40.3-7.7-44-26.7h92.5a140.93,140.93,0,0,0,3.4-30.4c0-42.1-23.4-63-60.2-63-45.5,0-71.6,30.4-71.6,82.4,0,45.5,24.3,76.2,71.6,76.2,19.4,0,40-3.4,58.4-11.1l-8-32a200.83,200.83,0,0,1-42.1,4.6m-11.4-81.7c16.6,0,26.4,7.7,26.4,22.4a54.69,54.69,0,0,1-.3,6.8h-58.7c3.7-20.9,15.7-29.2,32.6-29.2m285.6,76.8a188.27,188.27,0,0,1-23.1,1.8c-14.1,0-19.4-6.5-19.4-21.8V97.1h45.8v-39H773V12h-31.1L733,58.1h-64.6V12h-31.1L629,56.9l-20.9,3.4V97.2h23.7l-.3,60.9c-.3,38.7,11.4,55,44.3,55,15.1,0,31.4-3.7,42.1-9.2l-7.1-34.1a184.1,184.1,0,0,1-23.1,1.8c-14.1,0-19.4-6.5-19.4-21.8V97.2h67.6V158c-.3,38.7,11.4,55,44,55,15.4,0,31.7-3.7,42.1-9.2Zm154.9,33.5c-4-12.9-6.8-27.7-6.8-40.9V107.9c0-34.4-24-53.5-63-53.5A126.89,126.89,0,0,0,845,67.9l8.6,32a138.1,138.1,0,0,1,38.7-6.1c22.4,0,34.4,7.7,35,28.9a171.22,171.22,0,0,0-28.3-2.5c-36.9,0-64.3,16-64.3,49.2,0,25.8,15.7,44.3,43.7,44.3,22.4,0,39.3-7.4,51.6-19.1a153.16,153.16,0,0,0,8.3,19.1ZM873.29,163c0-10.1,8-17.2,27.4-17.2a160,160,0,0,1,26.7,2.2v22.8c-10.1,5.8-25.5,8.9-36,8.9-11.1-.1-18.1-5.7-18.1-16.7"/></svg>