<svg id="Calque_1" data-name="Calque 1" xmlns="http://www.w3.org/2000/svg" viewBox="0 0 1000 215.99"><defs><style>.cls-1{fill:#c4c4c4;stroke:#a1d324;stroke-miterlimit:10;stroke-width:2px;}</style></defs><title>society-scribes</title><path class="cls-1" d="M612.8,190.3c-.9,1.2-1.6,2.5-2.8,2.5-1.9,0-5.7-5-7.8-7.6s-4.8-6.4-5.6-6.4c-.4,0-.4.6-.4,1s-.1,6.6-.1,7c0,1,.4,2.9,1.2,3.5s1.2.7,1.2,1.2-1,.4-2.2.6c-.7,0-1.9.1-2.5.1s-.6-.1-.6-.6c0-2.2,1-7.3,1-10.5,0-4-.4-4.5-1.2-4.5-.4,0-1.2.1-1.2-.4,0-.9,1.8-1.2,3.1-1.6s2.2-1.3,3.4-1.3c.6,0,1,1.8,2.5,3.5,3.5,4.5,9.4,12.3,11.4,12.3.6,0,1.2-1.5,1.8-1.5S613.7,189.3,612.8,190.3Zm1.9-16.9a38.45,38.45,0,0,0-4.1,1.5c-.3.1-.6.3-.7.3a.73.73,0,0,0-.6.6c0,.3.1.4.6.4a3.35,3.35,0,0,1,1,0c.6.1,1.3,3.2,1.3,5a40.3,40.3,0,0,1-.4,6c0,.4,0,.7.3.7,1,0,3.4-9.5,3.4-13.5C615.4,173.9,615.4,173.4,614.7,173.4Zm66.4,15.1c-.3,0-.4.3-.9.3-1.3,0-2.9-5.4-4-9.1l-.9-3.5c-.1-1.2,0-2.8-.4-2.8s-.9.6-1.6.9-2.1,1.2-2.1,1.5a5.66,5.66,0,0,0-.1,1.6c0,.7-2.9,7.5-5.4,10,0-2.6-2.3-14.2-3.8-14.2-.6,0-1.3.6-2.8,1.3s-3.2.4-3.2,1c0,.3.1.6.4.6a15.7,15.7,0,0,1,1.6-.3c1.5,0,3.2,7.8,4.2,12.9.4,2.2.3,4.4.9,4.2s1-1.5,1.8-1.9c3.2-2.8,6.9-9.5,7.3-10.4h.1c.6,2.2,3.4,12,5.1,12,.9,0,1.5-.9,2-1.5a14.07,14.07,0,0,0,1.8-2.1C681.5,189,681.5,188.5,681.1,188.5Zm5.4-14.3a12.23,12.23,0,0,0-2.1.6c-1.3.6-2.6,1-2.6,1.5s.9.4,1.3.4a.62.62,0,0,1,.7.7,9.9,9.9,0,0,1-.3,2.8c-.7,4.1-2.9,7-2.9,7.6a.45.45,0,0,0,.4.3c.6,0,2.3-1.9,3.8-4.5,1.5-2.8,2.8-6.9,2.8-8.1A1.07,1.07,0,0,0,686.5,174.2Zm-39.9,13.7c-.6,0-1.8,1.8-6.6,1.8a40.27,40.27,0,0,1-6.3-.3c.1-.5.5-3.1.8-5.9h5.6a12.91,12.91,0,0,0,3.7-1.5c.3,0,.3-.4-.3-.6-.5,0-6.6-.2-8.7-.3a35.84,35.84,0,0,0,.3-4v-1.9H638c3.2,0,4.2.7,4.2,1.6,0,1.2,0,2.3.4,2.3.6,0,.7-.7.9-1.3l.3-2.2a12.67,12.67,0,0,0,.6-1.8,1,1,0,0,0-1-.9c-1,0-4,.4-5.9.4h-4.2a15.29,15.29,0,0,0-4.4,1.5c-.1.1-.1.1-.1.4,0,.1.1.3.7.3,1,0,1.8,1.6,1.8,5a79.51,79.51,0,0,1-1,9.5,5.7,5.7,0,0,0-.1,1.3c0,.7,4.1,1,8.6,1,3.8,0,7.8-3.8,8.1-4.1C647,188.2,646.9,187.9,646.6,187.9Zm93.6-14.8a14.47,14.47,0,0,0-3.5.4c-1.6.4-6.7,7-8.2,9.4h-.3s.1-1.3.1-2.1c0-2-3.4-6.9-6.9-6.9a13.5,13.5,0,0,0-3.2,1c-1.2.7-2.6.7-2.6,1.5,0,.1.1.3.4.3.9,0,.6-.7,2.3-.7,1.9,0,7.6,5.3,7.6,8.5,0,3.4-.4,5.9-.4,6.9,0,.3.1.4.3.4a13.33,13.33,0,0,0,2.8-.3c.7,0,3.2.3,3.2-.1,0-.6-.4-.4-1.3-1.5-.6-.6-1-1.5-1-3.8,0-4.7,7.3-9.8,10.3-11.6.7-.6,3.1-.3,3.1-1S741.1,173,740.2,173.1Zm97.3,17.8c-3.4-1.2-6.2-7-8.3-8.3a9.31,9.31,0,0,0-3.2-.3v-.1c4-2.2,8.6-7.3,9.5-7.6.4-.1,1.6-.3,1.6-.9,0-.4-.4-.4-1-.4s-4.1.1-4.4.4c-4.5,5.9-7.5,8.1-8.6,8.8a62.62,62.62,0,0,0,.7-8.2c0-.4-.1-1-.9-1-.4,0-1.6.4-3.1.7l-3.4.4c-.3,0-.3.1-.3.3,0,.4.6.4,1.5.4,1.5,0,1.9,2.3,1.9,7.6a54.85,54.85,0,0,1-1,8.8c0,.7.4.7.9.7s.7-.1,1.9-.1c2.5,0,3.7.3,3.7-.3,0-.3-.4-.4-.9-1a4.91,4.91,0,0,1-1-3.4c0-.6-.1-2.1,0-4.2a2.15,2.15,0,0,1,1-.2c.7,0,1.8,1.5,3.4,3.2,1.9,2.3,4.1,5.3,6,5.6,1,.1,4,.3,5.4.3.7,0,.9-.3.9-.6C839.7,190.9,838.4,191.2,837.5,190.9Zm-35.8-1.5c-1.6-1.8-4.2-5.1-6.2-5.9a7.77,7.77,0,0,0-1.3-.1.32.32,0,0,1,.3-.3c2.2-1.2,5.9-2.3,5.9-5.6,0-2.9-3.4-4.2-5.9-4.2a14.42,14.42,0,0,0-5.3,1.6c-.1-.5-.5-1.2-1-1.2s-4.4,1-4.8,1-.4.3-.4.6.7.3,1.2.6c.4.1,1.3.9,1.3,3.2s-1,11.6-1,12c0,.6.1.9.4.9s1.5-.1,2.2-.1h3.2c.4,0,.4,0,.4-.1,0-.3-.3-.4-.6-.7a4.69,4.69,0,0,1-1.2-3.4c0-.6.3-5.3.4-8.8,0-1.3-.1-2.4-.1-3a5.75,5.75,0,0,1,2.5-.6,3.84,3.84,0,0,1,4.2,3.8c0,2.1-1.8,3.4-3.2,4.1-1.2.6-1.9.6-1.9,1,0,.7.9.3,2.8,2.6,2.1,2.3,5.4,5.7,6.4,5.7a34.24,34.24,0,0,0,3.5-.3c.4,0,1.8.1,1.8-.1C805.4,191.6,803.5,191.3,801.7,189.4Zm-31.2-8.3c0,7.6-7.8,11.3-12.5,11.3-2.2,0-8.1-1.2-8.1-8.5,0-6.7,8.9-10.4,12.6-10.4C764.2,173.4,770.5,174.3,770.5,181.1Zm-3.8,1.9a7.14,7.14,0,0,0-6.9-7.3c-2.2,0-6,1.9-6,7.5,0,3.5,2.1,7,6.9,7A6.89,6.89,0,0,0,766.7,183Zm120.6,4.6c-.4,0-1.9,2.3-6.6,2.3-2.9,0-8.8-2.8-8.8-7,0-2.9,1.9-7.6,6.4-7.6,2.6,0,5.6.7,6.4,2.2a2.45,2.45,0,0,1,.1,1.5c0,.9-.3,1.8.7,1.8s.7-.9.7-1.8c0-2.3.7-3.7.7-4.8,0-.9-2.2-1.3-3.1-1.3-4.2,0-15.7,2.2-15.7,11.3,0,4.5,5.3,8.5,9.5,8.5s9.5-3.1,9.5-4.5C887.4,187.8,887.4,187.6,887.3,187.6Zm19.6,2.1c-.4-.6-.7-1.9-.7-4.2s1.2-11.3,1.2-11.9-.3-.7-.7-.7a13.23,13.23,0,0,0-2.3.7c-1.6.6-2.9.4-2.9,1.2,0,.4.3.4.7.4.7,0,.7,1,.7,2.2,0,3.1-.7,11.6-.7,11.9s-.1,2.3.9,2.2a13.44,13.44,0,0,0,2.2-.3c1.3-.1,2.6,0,2.6-.4C907.8,190.1,907.4,190.3,906.9,189.7Zm28.7-16.6c-2,.1-10.4-.1-10.4-.1-1,0-4.4,2.9-4.7,3.4-.3.3-.1.6.3.6s1.6-.4,3.2-.7a20.71,20.71,0,0,1,4.2-.1h.1a5,5,0,0,1,.6,2.6c0,1.2-.9,10.8-.9,11.6s.1,1.5.9,1.5c.6,0,2.1-.3,2.8-.3s3.2.3,3.2-.3-2.6-.6-2.6-3.8c0-1.9.4-8.9.4-9.7a3.23,3.23,0,0,1,.3-1.6,23.52,23.52,0,0,0,2.8-.1l3.2-1.9c1.3-.6,2.5-.7,2.5-1.3S939.3,172.9,935.6,173.1Zm40.5-.8a9.08,9.08,0,0,0-4,.6c-1.3.4-7,7.8-7,7.8H965c-.3-.1-.1-.7-.7-2.1-.9-2.2-3.5-5.7-5.6-5.7-1.5,0-5.1,2.5-5.1,2.9s0,.6.4.6c.7,0,.6-.6,1.6-.6,1.9,0,6.6,5.1,6.6,6.9,0,.9-.3,6.3-.3,7.2,0,1.3.4,2.2,1.3,2.1,1.8-.3,4.4.1,4.4-.4s-.6-.6-.9-.9-.7-.9-.7-4.4a21.65,21.65,0,0,1,.6-4.5c.6-1.9,8.5-8.2,9.2-8.3,1.2-.3,2.3.1,2.3-.6S977.2,172.1,976.1,172.3Z"/><path class="cls-1" d="M40.5,150.4C23.7,150.4,5,143.9,5,139.9c0-1.6,3.4-5.1,5.3-13.4,2.6-11.8,4.5-23.7,7.3-23.7a1.63,1.63,0,0,1,1.6,1.8c0,2-3.4,5.7-3.4,12.4,0,8.9,13.2,16,42.6,16,20.2,0,31-11.1,31-28.4,0-12-17.2-13.8-34.7-15.4C32,87.4,18.6,84.3,18.6,69.5c0-1.6,2-16,3.4-20.3,1.4-4.1,22.7-24.5,29.2-28.8S73,13.9,82,13.9c3.9,0,22.9.8,22.3,7.5-.2,2.2-4.5,2.8-6.7,8.1-2.6,6.3-3.2,16.8-6.1,19.7-1,1-2.4.2-2.4-1.2s2.6-4.5,2.6-8.7A5.5,5.5,0,0,0,88.5,34c-2.4-1.2-11-3.9-20.3-4.1-11.6-.2-18.7,1-27.6,5.1-4.5,2-6.7,7.9-6.5,13,1,17.4,6.7,21.1,35.9,22.5s34.1,14.6,34.1,25c0,11.6-14,26-21.3,33.9-7.9,8.5-11.4,13.4-16.2,17C62.4,149.6,50.2,150.4,40.5,150.4Zm88,.8c-3.7,0-15.6-6.9-15.6-31.4,0-9.9,2-22.5,3-30,1-7.7,2.2-15.8.8-23.3,18.7-7.7,30.8-21.9,40.2-21.9,13.4,0,14.8,18.7,14.8,25.4s-3,37.3-6.5,43.6c.2,0-8.1,14-17.9,20.9C137.3,141.7,130.4,151.2,128.5,151.2Zm15-16c5.3,0,10.5-22.5,10.5-50.1,0-26-10.3-28.2-16-28.2-3.7,0-2.4,5.5-4.1,17.2-1.2,8.7-2.6,20.3-4.1,37.5C129.1,122,138.3,135.2,143.5,135.2Zm193.2,70.4c-24.7,0-40.9-22.2-41.2-32,0,0,0-1,.6-1,.8,0,.8.6,1,1.2,3.5,10.9,18.2,29.2,38.9,29.2,31.7,0,56.6-39.7,62.6-79.6-6.7,10.2-17.8,25.8-22.8,25.8-5.9,0-7.5-9.9-7.5-17.4,0-2.1.1-5.4.3-9.4-1.7,2.1-23.7,28.7-31.5,28.7-6.9,0-10.3-23.3-8.9-38.7.4-4.5.9-8.6,1.5-12.5-10.4,18.4-32.1,50-46.1,50-11.3,0-14.1-15.4-13.8-29.9-8.4,12.2-23,31.4-26.9,31.4-4.7,0-10.1-9.5-10.1-17.4,0-5.6,1.4-16.8,2.6-24.8a124,124,0,0,1-26.5,32.9c-5.9,5.3-8.3,10.8-10.8,10.8-2.8,0-16.8-10.5-16.8-29.6,0-18.9,7.1-36.5,4.9-58.2A59.86,59.86,0,0,0,202.8,57c9.7-6.9,17-12,21.3-12,5.3,0,9.7,3.2,11.2,6.1,1.2,2.4-2.8,2.2-5.3,9.1a36.6,36.6,0,0,0-2.1,10.5V71c8.3-9.3,25.1-21.3,27.3-21.3,2.8,0,3.7,12.8,3.7,16.6.2,8.9-8.5,45.4-7.9,56s4.3,10.8,5.1,10.8c1.5,0,9.9-9.7,14.1-17.2.2-2.8.4-5.5.7-7.9a7.57,7.57,0,0,1-4.8-5.4c-.6-2-.5-5.2.5-5.2.8,0,.8,2.4,1.4,4.3s1.5,3.5,3.2,3.6c1.1-7.1,4.3-25.6,4.3-32a46.62,46.62,0,0,0-.6-7.1c5.7-3.7,14.2-8.3,25.4-14.8,6.7-3.9,12.2-7.3,13.2-7.3,1.3,0,3.6,3.4,5.5,8.4,3.4,0,10.1-.2,14.5-2.3,4.7-2.2,6-6.8,6.4-10.6.1-1.3.1-2.5.1-3.4a7.42,7.42,0,0,0-.8-2.8l19.5-11.2c.4.8,1.2,6.7-.4,16.6l-2.1,12.6c5.6.5,12.9.8,12.9.8,28.4,0,28.8-8,29-9a5.83,5.83,0,0,0-.6-2.9v-.1a3.19,3.19,0,0,1,3.2,3.4c.2,4.9-8,7.9-13.6,9.1-7,1.5-24.1,3.6-32,4.5-1.8,8.3-7,31.8-7.9,44.2-1,14.6-1.4,33.5,5.1,33.5,3.3,0,11.4-8.7,16.9-15.6.5-10.6,1.2-24,1.2-29.5,0-8.3-2.4-20.9-6.1-20.9-1.4,0-2,1.8-3.9,1.8-1.5,0-1.8-.5-1.8-.7a.1.1,0,0,1,.1-.1s11.5-8.5,15.4-10.9a41.93,41.93,0,0,1,8.3-3.9c.6,0,5.7,2.8,5.7,23.5,0,20.9-6.9,52.1.4,52.1,3.4,0,10.6-11,14-19.3,2.8-13.9,10.8-50.7,18-57.6,8.9-8.7,28.4-16.6,28.4-16.6.8-.3,1.4-.2,1.6.4.2.4,0,.9-.6,1.2-.4.4-3.4,1.2-5.5,3.9-12.6,15-20.5,45.4-27,71.6C409.9,142.5,387,205.6,336.7,205.6ZM236.4,101.3v-.2c1-5.9,6.3-36.5,1.8-36.5-2,0-6.3,4.5-10.3,9.1C223,79.2,223,83,221.8,83s-1.3-.8-.2-3.2c.3-.6.8-1.5,1.2-2.3v-.2c.2-4.8-2-11.8-5.3-14.6-3.9-3.2-10.3-5.3-12-4.5-1.2,19.3-6.1,36.7-6.9,55.2-.6,12,10.1,22.3,12.2,21.9C213.8,134.7,229.2,118.2,236.4,101.3Zm54.2-17.4c-1.7,9.1-2.7,15.4-3.2,21.1a8.93,8.93,0,0,0,2-.6c5.1-1.8,14.4-11.4,13.6-27.6-.8-16.8-5.7-20.9-7.9-20.3C292.6,57.1,293.9,65.6,290.6,83.9Zm40,9.3c2.3-13.7,5.2-24.4,6.7-36.1l-17.4-1.3a45.46,45.46,0,0,1,1.8,12.5c-.2,14-10.5,18.1-16.2,25.6-3.9,5.3-10.7,13-18.3,14.1-.1,2.1-.2,4.1-.2,6.2,0,15,5.7,19.7,9.3,19.7C306,133.8,323,108.4,330.6,93.2ZM245,36.8c5.6-.1,6.3-1.4,11.4-2.2a33.91,33.91,0,0,0,11-3.7c-6.9-1.3-13.9-3.8-18.4-6.5-6.7,1.5-13.2,2.9-18.9,4.2C231.8,31.5,239.8,36.9,245,36.8Zm242.6,172c-16,0-31.8-11.8-36.9-20.1a4.11,4.11,0,0,1-.7-1.7c0-.6.4-.8.5-.8.4,0,1.2,1.3,1.9,2,5.5,7.1,21.5,17.6,34.3,17.6,35.9,0,44-47.3,46.5-61.9,1.1-6.7,2.6-28.4,4.6-48.1-.3-.1-.7-.1-1-.2-6.3-1-12.1-1.6-17.3-2-1.1,7.9-2.7,15.2-4.6,19.2A44.48,44.48,0,0,1,506,126c-6.1,5.9-11,7.7-21.1,16.6-4.9,4.3-6.7,7.5-8.5,7.5-5.1,0-14.6-9.5-14.6-25.8,0-20.7,5.7-42.6,5.7-53.6,0-2.4-.4-5.7-.4-5.7s9.9-5.3,19.3-10.3c8.5-4.7,15.6-10.5,21.3-10.5,8.3,0,14.6,8.1,14.6,19.9,0,2.6-.5,12-1.7,22.1,2.2-.5,4.2-.9,5.7-1.4A45.34,45.34,0,0,0,540,78.1c.3-2.3.7-4.5,1-6.5,3.4-20.7,11.4-37.7,22.7-45.8,5.5-4.1,25.6-16.2,34.5-17.2a47,47,0,0,1,4.7-.4,25.71,25.71,0,0,1,5.3.6c.9.2.6,2,.4,2.6-.6,1.6-7.3,6.3-9.7,7.5-2.8,1.4-16.2-.8-24.3,4.7-10.1,7.1-15,37.6-18,66.7,6.4-.3,15.1-.8,19.2-1.4s11-1.4,16.8-3.7a22.2,22.2,0,0,0,8.5-5.3c1.2-1.4,1.2.6.6,1.6-2.2,3-18.7,15.6-27.8,15.6-4.6,0-11.3,0-18-.2-1,11-1.8,21.6-2.5,30.2C551.1,155.3,528.3,208.8,487.6,208.8ZM503.1,93a88,88,0,0,1-8.9-.5l.2-2s3.9-.5,9.1-1.2c2.4-24.1-4.5-29-7.9-31.2a13,13,0,0,0-5.7-1.6,5.36,5.36,0,0,0-3.2.8c-1.6,1.4-.8,7.5-2.4,16s-5.3,33.5-5.3,42c0,10.5,8.3,19.1,12.8,19.1C496.9,134.4,500.3,117.4,503.1,93Zm35.3-2.1q.45-3.9.9-7.5a97.23,97.23,0,0,1-19.1,6.3c-.1.5-.1,1-.2,1.4C525.4,91,532.5,90.9,538.4,90.9ZM793.3,38.3c4.1,0,8.1-1,10.8-1a94.12,94.12,0,0,0,13.1-.7c.4-.2.8-.8.4-1A27.45,27.45,0,0,1,806,27.5c-5.3,0-16.6,3-22.3,2.8C786.4,34.2,790.1,38.3,793.3,38.3Zm49.2,115.5c-2.2.8-6.5.2-9.1-1.4-3.2-2-5.3-6-5.8-9.9l-4.8,4a80.4,80.4,0,0,1-1.2-13.8,105.08,105.08,0,0,1,1-13.5,187.56,187.56,0,0,1-18,23.1c-2.2,2.4-7.7,8.7-10.1,8.7-4.1,0-5.9-10.5-6.3-21.1-.4-12.6,2.2-40.6,6.9-55.8l18.7-14.2h.2c-7.7,26.4-8.5,38.9-9.7,50.3-1,11.6.4,22.7,2.8,22.7,2.6,0,11.5-10,16.2-19v-.1c.2-2.4.2-6.3.4-7.3.6-8.1,10.1-43.8,10.1-75.7a22.1,22.1,0,0,0-2-8.9c9.3-2.4,16.2-7.5,18.3-12.2l.4-.2c2.6,3.2,0,28.8-.4,33.1-.8,8.2-4.6,30.9-9.7,55.3l.8-2.5c5.3-14.2,13.4-26,19.5-32.5,6.7-7.3,15-12.4,17-12.4,3.2,0,6.7,12,6.7,20.5,0,8.1-2.8,35.7-12.4,55-4.1,8.5-11.2,13.4-16.8,17.9C850.3,148,846,152.4,842.5,153.8Zm-11.5-14c2.2,2,6.2,4.9,11.2,4.9,6.5,0,12-3.2,14-7.7,4.1-8.3,4.9-15.8,6.1-23.7,2.4-18.3,4.1-47.5-.6-47.5-.4,0-.8.2-1.6,1.2-4.8,6.1-15.9,23.7-21.4,44.6a89.79,89.79,0,0,0-1.1,11.8c0,7.7.2,10.8.2,10.8ZM962.2,148c-2.8,1.8-11.4,3.4-15.6,3.4s-18.7-2.4-18.7-4.3,3.2-10.5,4.1-13a31.7,31.7,0,0,0,1.8-8.1c-3,4.4-8.7,10.1-14.6,15.4-7.9,7.1-12.8,12.2-14.4,12.2-2.6,0-12.2-10.8-12.2-27.8s8.1-40.6,5.7-56a30.52,30.52,0,0,0,9.5-4.9c11.2-7.5,28.6-18.3,30-18.3,3,0,6.9,5.1,6.9,16.2,0,17.9-7.7,19.1-14.4,27-2.7,3.3-13.2,16.6-19.7,17.6a80.93,80.93,0,0,0-.6,8.6c0,13,5.7,20.3,7.9,20.3,3.7,0,7.9-2.6,12.6-8.9a20,20,0,0,0,4.5-8.9,3,3,0,0,1,.6-1.4,7.72,7.72,0,0,0,.2-1.5c.2-1.4.8-5.9,1.2-6.5a3,3,0,0,1,2.8-1.4c1.2,0,1.2.4,1.2,1s-4.1,10.1-4.1,16.2c0,8.3,13.8,12.8,22.3,12.8,12.8,0,16.2-12.6,16.2-15.6,0-10.3-5.9-12.4-12-13.8-8.9-2.2-18.7-.6-18.7-13.4,0-7.5,2.6-13,3.2-21.5,0,0,8.7-6.1,14.4-11.2s8.3-8.1,9.9-9.7c0,0,8.7-3.9,16.2-3.9,6.1,0,5.9,1,6.1,1.4.6,2-1.2,4.5-3.4,9.5-2.4,5.7-.6,17.4-3.9,17.9-.6,0-1-.6-1-2.2,0-2,.8-4.5.4-7.1-.4-3.2-4.5-5.5-11-5.5-5.1,0-9.1.6-12,3.4-3.4,3.4-4.7,11-4.7,17s3.9,9.3,9.5,10.3c5.5.8,9.1,1.4,11.6,2.4,6.3,2.6,8.3,8.1,8.3,15,0,9.3-4.3,9.7-13.6,20.9C967.3,141.5,964.5,146.3,962.2,148ZM918.8,60.9c-2,4.9-6,27.8-7.8,43.4,4.8-.4,15.7-9.3,15.7-28.8,0-8.9-3.9-15.8-5.7-16A2.46,2.46,0,0,0,918.8,60.9ZM653.9,147.3c3.9-2.2,17-16.8,21.7-22.1S692,109.4,692,98.4c0-14.6-8.9-24.1-45.8-26.6-16-1-20.3-10.1-20.3-17.2,0-4.1.6-12,5.1-15,5.1-3.7,14-5.1,25.6-5.1S680,38.9,681.3,40c1.5,1.2,1.7,2.9,1.4,4.7s-3,6.5-3.2,7.5a1.87,1.87,0,0,0,2,2.2c2.1,0,2.4-3.8,3.7-8.5,1.2-4.5,2.4-9.4,4.7-12.4,2.7-3.6,6-3.3,6.2-6.2.2-3.4-9.3-7.9-22.3-7.9s-27.6,3.4-30.6,5.3C640,26.5,617.4,45.6,614,51.5c-.8,1.2-3.9,17.4-3.9,22.1,0,12.6,13.4,15.4,28.4,17.2,13.6,1.8,38.7,2.4,38.7,16.4,0,9.7-4.9,27.2-30.4,27.2-10.5,0-42-3.4-42-16.8,0-7.5,4.1-10.1,4.1-12.6a2,2,0,0,0-1.8-2.2c-1.5,0-2.4,2.1-3.5,5.1-2.3,6.1-4.2,15.8-4.8,18.4-.8,3.7-5.5,11.2-5.5,13.4,0,2.8,20.1,11,36.5,11C643.1,150.6,650,149.6,653.9,147.3Zm95.1,1.5s-1.6-1.6-2-5.3a77.69,77.69,0,0,1-.2-12.4,74.56,74.56,0,0,1,1.9-15.4,102.49,102.49,0,0,1-12.8,16.6c-2.8,3-5.3,4.9-7.9,7.3-5,5-10.5,10.9-13.1,12.8-.2.1-.5.4-.8.4a1.14,1.14,0,0,1-.7-.3c-5.9-4.7-13.8-17.1-13.8-23.5a394.84,394.84,0,0,1,4.1-46.1c.4-3.4.7-6.6.9-9.5,0-3.3,0-6-.2-8.4a7.87,7.87,0,0,0,3.7-1c.1-.1.3-.1.4-.2,3-1.6,7.4-3.6,14.2-7.7s12.2-8.9,17.8-8.9c8.1,0,10.5,3,10.5,3s-7.5,12.2-6.9,17.6c8.3-7.3,23.9-18.1,26.6-18.1,1.2,0,4.9,7.3,4.9,16.4h.2c3.9-3.2,15.6-16.4,21.5-17.2.6,0,1,.2,1,.6,0,1-1.2.8-1.2,1.6,0,.6,2.6,2.2,6.1,3.9,4.9,2.4,7.1,1.6,7.1,2.4s-12.8,9.3-21.3,9.3c-3,0-5.1-1-7.3-1-2.4,0-16,30-16,58.2,0,9.2,1.5,12.7,2.6,14.3.7,1,1.2.8,1.2,1.8a.94.94,0,0,1-.5.9,47.9,47.9,0,0,0-9.3,2.8C755.5,145.8,749,148.8,749,148.8Zm1.8-42.1c3.2-14.5,5.1-28.6,5.1-35.3,0-7.7-2.6-8.7-2.6-8.7a61.94,61.94,0,0,0-10.1,10.5,19.66,19.66,0,0,0-1,3c-.7,1.8-1.7,3.7-2.6,3.5-1.3-.3,1.6-4.9.8-8.7-1.8-7.9-8.1-11.2-16.2-11.2-5.3,8.5-7.9,48.5-7.9,56.6,0,7.9,7.5,17,11.4,17C731.2,133.6,742.2,123.2,750.8,106.7Z"/></svg>