<svg id="Layer_1" data-name="Layer 1" xmlns="http://www.w3.org/2000/svg" viewBox="0 0 959.95 386.98"><defs><style>.cls-1,.cls-2,.cls-3,.cls-4,.cls-5{fill:#c4c4c4;stroke:#a1d324;stroke-miterlimit:10;stroke-width:2px;}.cls-2{opacity:0.35;}.cls-2,.cls-3,.cls-4,.cls-5{isolation:isolate;}.cls-3{opacity:0.55;}.cls-4{opacity:0.65;}.cls-5{opacity:0.8;}</style></defs><title>trilon</title><path class="cls-1" d="M91.29,105.1h56v37.5h-56v63.5c0,35.7,29.6,37.5,58.2,27.1l4.6,37.8c-59.2,16.4-111.7,6.8-111.7-63.9V142.5l-32.5-3.2V105h36l5.4-53.5h40Zm199.8-4c13.2-.4,26.8,3.6,36.8,11.1L316.79,154a54.55,54.55,0,0,0-32.1-9.3c-21.8,0-40.3,14.3-40.3,40.7v91.4h-48.9V157.2c0-14.3-1.4-23.6-17.1-21.1V105.4c25-5.7,60-5.7,62.8,25C248.29,110.8,270.09,101.1,291.09,101.1Zm208.4-85.6V209.6c0,26.4,10.3,33.2,34.3,29.3l1.8,36c-53.2,9.6-85.3-3.6-85.3-65.3V15.5Zm138.1,264.8c-45.7,0-91-30-91-90.3,0-60,45.3-88.9,91-88.9S729,130,729,190C729,250.3,683.29,280.3,637.59,280.3Zm.4-43.9c21.1,0,41.4-15.3,41.4-46.4,0-30.7-20.7-45-41.4-45-21.1,0-41.8,13.9-41.8,45C596.19,221.4,616.89,236.4,638,236.4ZM744,104.3c25.3-4.6,65.7-7.1,65.7,26.1,11.1-20.3,31.4-29.3,54.2-29.3,48.5,0,68.9,33.2,67.8,76v45c0,16.1.7,23.9,18.2,22.8v29.3c-33.9,8.6-67.8,4.3-67.8-38.5V177.2c.4-23.9-15-36.4-33.2-36.4-18.6-1.1-36,13.6-36,37.5v98.5h-50V158.2c0-18.9.4-25.7-18.9-24.6V104.3Z"/><path class="cls-1" d="M387.29,7.2a32,32,0,1,0,32,32,32,32,0,0,0-32-32"/><path class="cls-2" d="M387.29,83.5a32,32,0,1,0,32,32,32,32,0,0,0-32-32"/><path class="cls-3" d="M387.29,159.9a32,32,0,1,0,32,32,32,32,0,0,0-32-32"/><path class="cls-4" d="M387.29,236.2a32,32,0,1,0,32,32,32,32,0,0,0-32-32"/><path class="cls-5" d="M387.29,312.5a32,32,0,1,0,32,32,32,32,0,0,0-32-32"/></svg>