<svg id="Layer_1" data-name="Layer 1" xmlns="http://www.w3.org/2000/svg" viewBox="0 0 974.95 410.98"><defs><style>.cls-1{fill:#c4c4c4;stroke:#a1d324;stroke-miterlimit:10;stroke-width:2px;}</style></defs><title>type-together</title><line class="cls-1" x1="5.89" y1="7.4" x2="965.89" y2="7.4"/><line class="cls-1" x1="5.89" y1="277.7" x2="965.89" y2="277.7"/><line class="cls-1" x1="5.89" y1="404.4" x2="965.89" y2="404.4"/><path class="cls-1" d="M750.69,183.5h-34.1V66.2h34.1v34.4c3.5-3.4,9.4-7.1,19.4-7.1,14.8,0,24.6,10,24.6,30.9v59.1h-34.1V126.9c0-4.7-1-7.4-4.7-7.4-3.5,0-5.2,2.4-5.2,6.4v57.6Zm-276.8-45.6c0,31.2-19.4,48.3-43.6,48.3-25,0-40.7-14.5-40.7-45.2,0-35.6,24-47.4,43-47.4C446.69,93.5,473.89,97.7,473.89,137.9Zm-35.2,2.4c0-16-1.7-22.6-7.3-22.6-4.9,0-6.9,7.3-6.9,19.6,0,13.7.7,24.5,7.1,24.5C436.89,161.7,438.69,156.1,438.69,140.3Zm-195.6-.9c0,30.4-15,46.8-39.2,46.8a49.67,49.67,0,0,1-9.1-1v33.7h-34.1V100.4c14.5-5.2,31.6-6.9,40.3-6.9C228.39,93.5,243.09,109,243.09,139.4Zm-34.5,1.2c0-14-.7-22.4-8.4-22.4a17.39,17.39,0,0,0-5.4.8v42.9a14,14,0,0,0,4.7,1C208.49,162.9,208.59,152.3,208.59,140.6Zm-101.4,87.8c-20.1,0-30.7-9.3-30.7-24.1,0-10.6,4.4-19.8,15.9-28.5-14.7-3.2-20.1-12.2-20.1-26.7V96.3h34.1v52.2c0,5.7.5,8.8,4.7,8.8,3.7,0,5.4-2.9,5.4-8.3V96.3h34.3v62.3c0,3.5,0,18.9-.2,23.6C149.19,212,134.89,228.4,107.19,228.4Zm10.1-51.5c-4.4,3.4-11.6,11.1-11.6,20.8,0,4.7,2,6.6,5.6,6.6,4.6,0,6.1-3,6.1-10.5V176.9Zm763-.3c.3-.2-13.5,9.6-34.4,9.6-30.9,0-42.9-17.9-42.9-43.6,0-24.5,14.8-49.1,45.1-49.1,18.4,0,31.4,8.8,31.4,28.5,0,23.1-24.3,29.2-41.7,30.9,1.4,5.1,6.1,8.3,13.3,8.3,6.9,0,14.3-2.9,20.6-6.9Zm-44.2-43.8c9.1-.8,14.3-6.2,14.3-11.1a4.25,4.25,0,0,0-4.4-4.6C841.39,117.1,836.59,121.7,836.09,132.8Zm-452.4,25.5,7.1,21.6c-5.4,3.4-15.5,6.2-26,6.2-16.7,0-25.8-5.2-30.4-16.9-8.9,9.8-22.3,16.9-40.2,16.9-32.2,0-44.6-18.2-44.6-43.6,0-24.5,14.9-49.1,45.1-49.1,18.4,0,31.4,8.8,31.4,28.5,0,23.1-24.3,29.2-41.7,30.9,1.5,4.7,6.2,8.4,16,8.4,12.7,0,31.9-7.6,31.9-37.8V66h34.3V96.1h20.1v26.3h-20.1v27c0,8.4,4.4,11.1,9.3,11.1A13.5,13.5,0,0,0,383.69,158.3Zm-100.9-25.5c9.1-.8,14.4-6.2,14.4-11.1a4.25,4.25,0,0,0-4.4-4.6C288,117.1,283.29,121.7,282.79,132.8Zm651.6-39.3c-5.9,0-14.3,2.9-19.2,14.4l-2.7-11.6h-27.2l2.5,18.2v69h34.1V131.2c0-6.6,3.4-8.9,10-8.9a31.37,31.37,0,0,1,12.3,3l4.2-28.5C944.29,94.4,938.79,93.5,934.39,93.5ZM70.69,179.8l-6.9-21.4a24.13,24.13,0,0,1-10,2.4c-6.8,0-8.6-2.7-8.6-11.1v-27h19.4V96.4H45.19V66.3H11v85.1c0,16.7,1.9,34.9,32.4,34.9A62.44,62.44,0,0,0,70.69,179.8Zm567.9-25.5,8.6,22.3c.3-.2-13.5,9.6-34.4,9.6-30.9,0-42.9-17.9-42.9-43.6,0-24.5,14.9-49.1,45.1-49.1,18.4,0,31.4,8.8,31.4,28.5,0,23.1-24.3,29.2-41.7,30.9,1.3,5.1,6.1,8.3,13.3,8.3C624.89,161.2,632.39,158.3,638.59,154.3ZM603,132.8c9.1-.8,14.4-6.2,14.4-11.1a4.25,4.25,0,0,0-4.4-4.6C608.19,117.1,603.49,121.7,603,132.8Zm93.8,27.9c-4.9,0-9.3-2.7-9.3-11.1v-27h20.1V96.3h-20.1V66.2h-34.3v85.1c0,16.7,1.9,34.9,32.4,34.9,10.5,0,20.6-2.9,26-6.2l-7.1-21.6A15.81,15.81,0,0,1,696.79,160.7Zm-176.7,67.5c-21.3,0-31.9-9.6-31.9-24.1,0-11.5,5.4-21.4,16.7-30.2-13.3-2.4-24.8-15.4-24.8-35.4,0-29.2,19.1-44.9,46.3-44.9,10.6,0,26,2.2,36,6.4v67.4c0,3.2-.2,14.7-.5,18.2C559.89,212.2,546.59,228.2,520.09,228.2Zm-5.9-89.8c0,9.8.8,19.2,7.9,19.2,3.2,0,6.2-2.4,6.2-8.3V117.4C516.69,115.8,514.19,127.8,514.19,138.4Zm8.8,65.9c4.7,0,6.1-3,6.1-11.8V176.9c-4.4,3.4-11.6,11.1-11.6,20.8C517.39,202.4,519.39,204.3,523,204.3ZM66,337H38.69V313.9h-7.1v53.9h7.1V343.3H66v24.5h7.1V313.9H66V337Zm30.1,30.7h7.1V313.8h-7.1Zm64.1-6a46.42,46.42,0,0,1-9.3,1.1c-15.9,0-20.7-11-20.7-22.8,0-14.5,8-21.2,19.3-21.2a25.12,25.12,0,0,1,14.4,4.4l3.3-5.6c-3.3-2.7-10.4-5.2-17-5.2-17.9,0-27.6,11.9-27.6,28.3,0,15.7,8,28.4,27.6,28.4,6.3,0,13.3-1.6,17.2-3.8V342.6h-7.2v19.1Zm61.5-24.7h-27.3V313.9h-7.1v53.9h7.1V343.3h27.3v24.5h7.1V313.9h-7.1Zm96.5,27.6a29.76,29.76,0,0,0,10,6.5l-2.8,4.7a36.68,36.68,0,0,1-12.8-8.3,32.92,32.92,0,0,1-10.4,1.6c-17.7,0-25.5-12.5-25.5-29s9.3-27.7,26.3-27.7c15.3,0,25.2,10.8,25.2,27.3C328.09,351.3,324.79,359.8,318.19,364.6Zm-4.7-5.1c4.8-3.7,7.2-10.2,7.2-18.3,0-13.7-5.5-22.5-18.3-22.5-11.9,0-18.4,8.2-18.4,20.8,0,9.5,2.9,23.4,18.6,23.4a21.8,21.8,0,0,0,5.2-.6,51.55,51.55,0,0,1-6.4-9.9l5.7-2.9A43,43,0,0,0,313.49,359.5Zm68.4-14.4c0,9.3-1.6,17.4-13.9,17.4-13.1,0-14.2-8.4-14.2-19.7v-29h-7v32.6c0,13.6,3.7,22.7,20.4,22.7,18.8,0,21.5-12,21.5-23.6V313.8h-6.8v31.3Zm47.4-31.3,19.8,53.9h-7.6l-5.7-16.1h-20.6l-5.8,16.1h-7l19.7-53.9Zm4.3,32-7.9-24h-.3l-8.4,24Zm37.9-32h-7.1v53.9h31.7v-6h-24.6Zm41.6,53.9h7.1V313.8h-7.1Zm23.2-47.7h18.1v47.7h7.2V320h18.3v-6.2h-43.6Zm73,20.4H609l-13.4-26.6H588l17.5,33.7v20.2h6.9V347.3l18.3-33.5h-7.1Zm65.1,27.3h7.1V343.8h19.7v-6.3h-19.7V320h23.9v-6.2h-31Zm93.8-28c0,18.8-8.7,29.4-25.9,29.4-17.7,0-25.5-12.5-25.5-29s9.3-27.7,26.3-27.7C758.39,312.4,768.19,323.1,768.19,339.7Zm-7.4,1.5c0-13.7-5.5-22.5-18.3-22.5-11.9,0-18.4,8.2-18.4,20.8,0,9.5,2.9,23.4,18.6,23.4C754.89,362.9,760.79,354,760.79,341.2Zm63.6,16h-.6l-25.5-43.4h-11.1v53.9h6.6V320.3h.6l28.4,47.4h8.1V313.8h-6.5v43.4Zm22.3-37.2h18.1v47.7H872V320h18.3v-6.2h-43.6Zm74.7,16.5c-7.5-2.9-11.5-4.9-11.5-10.2,0-4.2,3.4-7.8,10.1-7.8a22.68,22.68,0,0,1,12,3.4l2.9-5.2c-3.8-2.8-9.4-4.4-14.9-4.4-9.1,0-17.4,4.6-17.4,14.9,0,9.4,6.7,12.6,14.5,15.3,7.1,2.5,11.9,4,11.9,10.7,0,6.1-4.3,9.7-11.8,9.7-6.7,0-12.5-3.3-14.6-4.7l-2.9,5.6c3.1,2.4,10.3,5.3,18,5.3,11.1,0,18.6-6,18.6-17C936.39,342,927.79,339,921.39,336.5Z"/></svg>