<svg id="Layer_1" data-name="Layer 1" xmlns="http://www.w3.org/2000/svg" viewBox="0 0 892 408"><defs><style>.cls-1{fill:#c4c4c4;stroke:#a1d324;stroke-miterlimit:10;stroke-width:2px;}</style></defs><title>type-directorsLogo</title><path class="cls-1" d="M880.4,335.2c0,15.2-5.4,28.4-16.3,38.9-10.8,10.8-23.7,16-38.9,16s-28.4-5.4-38.9-16c-10.8-10.8-16.3-23.7-16.3-38.9s5.4-28.4,16.3-38.9C797.1,285.5,810,280,825.2,280s28.4,5.4,38.9,16.3C875,307.1,880.4,320,880.4,335.2Z"/><path class="cls-1" d="M57.1,301.2V169.5H13.6V111.7H57.7l5.4-83.5h77v83.5h56.1v57.8H140.1V287.7c0,21.5,8.8,33.5,29.2,36.4a145.26,145.26,0,0,0,32.3,0v61a418.55,418.55,0,0,1-49.5,3.2c-62.1-.2-95-29.4-95-87.1"/><path class="cls-1" d="M389.9,299.7V189.8c-9.5-13.7-22-28.6-46.1-28.6-30.6,0-45,22-45,86.1,0,65.8,16.9,85,44.3,85,24.2.3,37.9-15.2,46.8-32.6m-179.8-53c0-86.7,43.5-140,108.2-140,32.3,0,55.5,14.3,71.2,32.9V17.7h84.7V384H393V345.1c-22,29.2-45,44.1-85.6,44.1-58.6-.2-97.3-46.3-97.3-142.5"/><path class="cls-1" d="M505.2,247.3c0-77.6,52.1-140.5,134.5-140.5,65.8,0,109.9,35.2,120.7,102.1L684.5,216c-3.7-31.2-15.4-52.6-42.4-52.6-30.6,0-46.7,29.2-46.7,84.7,0,60.4,18.1,86.7,47.8,86.7,26.9,0,38.9-18.1,44.1-48.9l73.6,6.6c-8.3,62.1-51.5,96.7-122.4,96.7-78.4-.2-133.3-52.3-133.3-141.9"/></svg>