<svg id="Layer_1" data-name="Layer 1" xmlns="http://www.w3.org/2000/svg" viewBox="0 0 734.96 446.98"><defs><style>.cls-1{fill:#c4c4c4;stroke:#a1d324;stroke-miterlimit:10;stroke-width:3px;}</style></defs><title>type-network</title><path class="cls-1" d="M370.29,10h32.4l141.4,166.9V10h51.1V267.5h-34.1L420.89,102.6V267.4h-50.6V10Zm-27,0H99.39V56.2h96.5V267.5h50.9V56.2h96.5V10ZM72.19,333.9v-11H7.59v11h25.8v79.2h12.4V333.9Zm55,18.9h-12l-20,43.9-19.6-43.9H63.09l26.1,55.8-4.7,9.4c-3.5,6.8-6.7,9-10.6,9a11.89,11.89,0,0,1-5.1-1.2l-3.3,10.4a21.62,21.62,0,0,0,7.9,1.6c6.7,0,14.6-2.7,20.3-14.5Zm3.5,84.8h11.5V400.9c2.5,7.2,10.7,13.2,22,13.2,14.5,0,27.3-12.1,27.3-32,0-18.4-10.9-30.5-27.3-30.5-12.1,0-20.4,6.8-22.7,14.9V352.9h-10.7l-.1,84.7Zm30.8-33c-10.8,0-19.6-6.7-19.6-21.4,0-14.9,8.3-22.5,19.1-22.5,12.1,0,18.7,9.5,18.7,22,0,13.2-7.8,22-18.2,21.9Zm69.5,9.9c14.1,0,20.9-4.8,26.6-10.7l-7.2-7.4c-3.6,4.2-9,8.3-19.4,8.3-13,0-20.4-7.7-21-17.9h50.8c0-22.5-12.2-35.3-30.4-35.3s-31.5,14.3-31.5,32c0,19.6,13.7,31.2,32.4,31.2Zm-20.7-36.6c.9-8.9,8.5-16.8,19.8-16.8s18.9,7.4,19.3,16.8Zm134.6,35.2V322.9h-11.5v67.7l-52.6-67.7h-9.4v90.2h11.7V344.9l53.1,68.2Zm43.2,1.4c14.1,0,20.9-4.8,26.6-10.7l-7.2-7.4c-3.6,4.2-9,8.3-19.4,8.3-13,0-20.4-7.7-21-17.9h50.8c0-22.5-12.2-35.3-30.4-35.3s-31.5,14.3-31.5,32c0,19.6,13.7,31.2,32.4,31.2Zm-20.8-36.6c.9-8.9,8.5-16.8,19.8-16.8s18.9,7.4,19.3,16.8Zm87.6,24.5A17.46,17.46,0,0,1,448,404c-5.2,0-8.2-2.6-8.2-8.5V362.8h14.5v-9.9h-14.5V332.8l-11.5,1.5V353h-8.9v9.9h8.9V397c0,12.6,8.5,17.1,17.7,17.1,4.2,0,8.3-.9,9.9-2Zm61.5,11.1h6.7l21.5-60.7h-11l-14.2,43L505.09,359h-6.8l-15.2,37.1-14.2-43.2h-12.1l21.5,60.7H485l16.3-38.3Zm60.4,1c17.9,0,32.5-13.8,32.5-33q0-13.5-9.6-21.9a33.74,33.74,0,0,0-22.9-8.4,30.28,30.28,0,0,0-22.1,9.4,30.83,30.83,0,0,0-9.5,22.6c0,9.8,3.2,17.4,9.6,23a32.2,32.2,0,0,0,21.7,8.4Zm.2-10c-11.2,0-20.1-7.8-20.1-21.2,0-12.7,8.2-21.7,19.3-21.7,13,0,21,9.1,21,20.9C597.19,395.3,588.89,404.5,577,404.5Zm85.5-49.4c-2.6-2.1-6.9-3.7-12.4-3.7-11.1,0-19,7.4-20.6,14.1V352.9h-10.7v60.3h11.5V378.1c0-9.9,8-16.7,15.9-16.7a16.83,16.83,0,0,1,11.2,3.7Zm65.1,57.9-28.3-35.5,22.8-24.7h-13l-29.3,32.5v-71h-11.2v98.8h11.5V397.7l11.6-12.2,22.4,27.7Z"/></svg>