<svg id="Layer_1" data-name="Layer 1" xmlns="http://www.w3.org/2000/svg" viewBox="0 0 946 594"><defs><style>.cls-1{fill:#c4c4c4;stroke:#a1d324;stroke-miterlimit:10;stroke-width:3px;}</style></defs><title>type-today</title><path class="cls-1" d="M840.7,135.7H589.4C587.2,69.9,536,17.3,473,17.3S358.8,69.9,356.6,135.6H105.3c-51,0-92.3,43.2-92.3,96.4s41.3,96.4,92.3,96.4H840.7c51,0,92.3-43.2,92.3-96.4S891.7,135.7,840.7,135.7Z"/><path class="cls-1" d="M83.7,524.5V489.4h16.7V469.6H83.7V451.9h-29v17.7H44.4v19.8H54.6v37.8c0,19.9,10.7,29.2,29.9,29.2a65.41,65.41,0,0,0,16.1-2.4V531.9a21.56,21.56,0,0,1-8.3,1.5C86.8,533.4,83.7,530.6,83.7,524.5Z"/><polygon class="cls-1" points="155.5 514.9 138 469.6 106.5 469.6 140.5 545.9 126.3 582.9 154.1 582.9 199.5 469.6 171.8 469.6 155.5 514.9"/><path class="cls-1" d="M264.9,467.3a30.11,30.11,0,0,0-26.5,14.9V469.5h-29V582.7h29V541.8c4.2,8.4,13.5,14.4,26.3,14.4,20,0,36-14.6,36-43.8v-1.3C300.7,482.3,284.7,467.3,264.9,467.3Zm6.3,45.3c0,14-5.8,21.6-16.7,21.6-10.5,0-16.9-7.3-16.9-21.7v-1.4c0-14.3,6.3-21.9,16.9-21.9,10.2,0,16.7,7.1,16.7,22.1Z"/><path class="cls-1" d="M355.1,467.3c-25.6,0-45.9,17.2-45.9,44.5v1.3c0,27.7,19.5,43.3,46.1,43.3,25.6,0,40.4-10.9,43-30H371c-1.1,5.7-5.2,10.1-14.8,10.1-10.4,0-16.9-6.5-17.7-17.7h59.7v-7.7C398.2,480.7,378.3,467.3,355.1,467.3Zm-16.2,35.1c1.5-10.2,7.5-15.9,16.2-15.9,9.4,0,14.4,5.7,14.9,15.9Z"/><path class="cls-1" d="M426.1,523.5a16.4,16.4,0,1,0,0,32.8c9.7,0,17-7.3,17-16.4S435.9,523.5,426.1,523.5Z"/><path class="cls-1" d="M491,524.5V489.4h16.7V469.6H491V451.9H462v17.7H451.8v19.8H462v37.8c0,19.9,10.7,29.2,29.8,29.2a65.41,65.41,0,0,0,16.1-2.4V531.9a21.56,21.56,0,0,1-8.3,1.5C494.1,533.4,491,530.6,491,524.5Z"/><path class="cls-1" d="M563.2,467.3c-26.3,0-46.6,17.2-46.6,44.5v1.3c0,27.4,20.3,43.3,46.4,43.3s46.4-16.6,46.4-44.1V511C609.5,484.1,589.3,467.3,563.2,467.3Zm16.7,45.3c0,14.1-5.8,22.2-16.7,22.2-11.2,0-16.9-7.9-16.9-22.5V511c0-14.3,6-21.9,16.9-21.9s16.7,7.9,16.7,22.2Z"/><path class="cls-1" d="M680,481.6c-4.9-8.6-12.8-14.3-26.1-14.3-20.1,0-36,15.4-36,44.3v1.3c0,29.4,16.1,43.5,35.7,43.5,12.8,0,22.2-7,26.4-15.7v13.8h29V432.3H680v49.3Zm.8,30.8c0,14.4-6.5,21.7-17,21.7-10.1,0-16.4-7.3-16.4-21.6v-1.3c0-14.8,5.8-22.1,16.7-22.1,10.7,0,16.7,7.6,16.7,21.9v1.4Z"/><path class="cls-1" d="M765.2,467.3c-23.2,0-39.3,10.1-40.6,30.5h27.3c.6-5.3,3.6-10.1,11.5-10.1,9.2,0,11.2,5.4,11.2,13.5v2h-8.1c-28.2,0-45.1,7.8-45.1,27.7,0,18,13.5,25.5,28.7,25.5,13.6,0,21.1-5.7,25.1-11.8v9.9h28.2v-55C803.5,476.9,788.6,467.3,765.2,467.3Zm9.4,57.5c0,7.3-6.2,12-14.4,12-6.8,0-10.1-3.1-10.1-7.9,0-7,5.2-9.3,16.9-9.3h7.6Z"/><polygon class="cls-1" points="858.5 514.9 841 469.6 809.5 469.6 843.4 545.9 829.3 582.9 857 582.9 902.4 469.6 874.7 469.6 858.5 514.9"/></svg>