<svg id="Layer_1" data-name="Layer 1" xmlns="http://www.w3.org/2000/svg" viewBox="0 0 890 607"><defs><style>.cls-1{fill:#c4c4c4;stroke:#a1d324;stroke-miterlimit:10;stroke-width:2px;}</style></defs><title>type-supply</title><path class="cls-1" d="M445.4,378.3c0,19.3-7.4,28.3-19.4,28.3a28.41,28.41,0,0,1-17.5-6.5V358.4c6-5.9,11.9-8.5,18.2-8.5C439,349.8,445.4,360.8,445.4,378.3Zm69.9-158.2c0-17.5-6.4-28.5-18.7-28.5-6.3,0-12.3,2.6-18.2,8.5v41.7a28.2,28.2,0,0,0,17.5,6.5C507.9,248.4,515.3,239.3,515.3,220.1Zm16.5,129.7c-6.3,0-12.3,2.5-18.2,8.5V400a28.2,28.2,0,0,0,17.5,6.5c12,0,19.4-9,19.4-28.3C550.4,360.8,544,349.8,531.8,349.8ZM868,305c0,165.1-126.5,284.6-425.3,284.6S18,470.1,18,305,143.9,20.4,442.7,20.4,868,139.9,868,305ZM553.4,220.2c0,29.8,19.5,48.4,51.4,48.4,11.3,0,26.7-3.9,37.1-9.5l-5-20.7c-13,7-21.7,9.4-30.6,9.4-13.8,0-22.8-6.5-25-20.2H644v-7.3c0-28.1-16.7-48.4-44.5-48.4C573.2,171.8,553.4,192.2,553.4,220.2ZM260.7,161.9h35.9V266.7H326V161.9h35.9V137.3H260.7Zm7.1,224.5c0-19.8-7.5-30.7-35.5-38.2l-12.9-3.5c-9.2-2.7-13-7.1-13-14,0-7.3,6.2-12.7,16.9-12.7,9.7,0,20,2.8,34.9,10.2l6.7-24.8c-14.2-6.6-29.6-9.6-40.7-9.6-27.1,0-45.3,16.3-45.3,39.1,0,17.9,8.9,29.8,31.5,36.5l14.8,4.3c10.5,3.1,13.8,7.8,13.8,14.1,0,8.6-6.5,13.9-19.1,13.9-9.4,0-22.8-3.6-38.4-11.9L174.8,415a107.92,107.92,0,0,0,48.1,11.8C250.9,426.8,267.8,408.9,267.8,386.4Zm96.5-54.5H336.8v63.2c-5.2,5.9-12.6,10.5-18.5,10.5-7.7,0-11.5-4.3-11.5-14.8v-59H279.3v58.5c0,23.9,9.6,36.5,29.3,36.5,11.9,0,22.8-6.6,30.1-16.4V425h25.7l-.1-93.1Zm4.7-28.7c19.9,0,29.5-5.5,35.9-25l36-104.5H414.3l-18.8,62.9-18.7-62.9H347.5L381,270.3l-1.4,4.1c-2.3,5.9-4.9,7.5-11.8,7.5H357.5v21.3Zm104.7,75.2c0-29.8-17.3-48.4-38.5-48.4-11.7,0-21.6,4.6-29.4,14V331.8H381.1V461.2h27.5V417.1c7,6.2,15.7,9.7,24.2,9.7C456.1,426.8,473.7,408.8,473.7,378.4Zm4.8-119.5c7,6.2,15.7,9.7,24.1,9.7,23.4,0,41-18,41-48.4,0-29.8-17.3-48.4-38.5-48.4-11.7,0-21.6,4.6-29.4,14V173.6H451V303h27.5V258.9ZM578.7,378.4c0-29.8-17.3-48.4-38.5-48.4-11.7,0-21.6,4.6-29.4,14V331.8H486V461.2h27.5V417.1c7,6.2,15.7,9.7,24.1,9.7C561,426.8,578.7,408.8,578.7,378.4Zm39.2-82.8H590.4V425h27.5Zm103.2,36.3H694.5l-18.8,62.9L657,331.9H627.7l33.5,96.6-1.4,4.1c-2.3,5.9-4.9,7.5-11.8,7.5H637.7v21.3h11.5c19.9,0,29.5-5.5,35.9-25ZM599.8,191.5c-8.7,0-15.6,6.5-18.1,18.4H617C616.3,197.9,609.8,191.5,599.8,191.5Z"/></svg>