<svg id="Layer_1" data-name="Layer 1" xmlns="http://www.w3.org/2000/svg" viewBox="0 0 977.95 290.7"><defs><style>.cls-1{fill:#c4c4c4;stroke:#a1d324;stroke-miterlimit:10;stroke-width:2px;}</style></defs><title>typejockeys</title><path class="cls-1" d="M773,105c2.7,0,5,1.8,5,8.3-.1,10.3-14.1,35.9-25,35.9a7.12,7.12,0,0,1-5.9-3c8.7-25.1,23.3-41.2,25.9-41.2m-378.5-1.7c3,0,3.8,3.3,3.8,7.4-.1,13-15.8,37.1-25.3,37-3.2,0-6.2-2.4-6.8-4.5,9.6-21.7,23.5-39.9,28.3-39.9m114.6,22.4c-4.1-2.1-10.9-2.1-18.3-.4v-1.8c0-9.1,4.2-18.3,11-18.2,7.4,0,11.8,5.7,11.7,21.9,0,7.7-1.6,15.9-3.7,24.2-8.9-.3-15-5.7-17.6-15.1a46.84,46.84,0,0,1,16.3-7.3ZM448.19,36c-.7,16.5-6.4,36-6.4,36l6.8,5.1c8.9-4.1,27.8-17.6,27.9-26.1,0-11-15-14.9-28.3-15m59.3,123.6c-6.3,19.1-16.7,35.6-25.9,35.6-7.4,0-10.6-6.3-10.5-15.4.1-10.3,3.4-23.6,11.4-34.2,5.8,8,14.9,13.7,25,14M698.19,18.7c5.3,0,9.4,5.1,9.4,14.2-.1,16.2-12.6,39.5-39.8,41.1,11.7-37.4,22.5-55.3,30.4-55.3M143.39,259.8c-5.9,0-14.5-1.3-14.4-9.5.1-11.5,27.3-26.1,55-30.4-11.9,29.2-23.8,40-40.6,39.9m665.7,5.9c-8.6,0-12.4-5.4-12.3-13.3.1-11.5,15.8-25.9,48-45.8-12.4,43.9-21.3,59.2-35.7,59.1m-534-80.1c-4.1,0-5.3-2.7-5.6-3.3l-1.8.3c-.9,1.2-1.8,3.5-1.8,7.1,0,6.8,4.9,13.3,14.4,13.4,31,.2,52.3-62,52.4-83.2.1-9.7-2.2-26.9-19.3-27-9.4,0-21,8.4-48.7,65l-2.7-.6c3.6-12.7,9-28.6,13.5-43.6,5.4-18.6-3.7-23.3-17-23.4-16.6,64.2-31.3,115.5-41.9,170.9L241,274.9c2.8-22.4,6.1-44.2,11-67.2,34.6-74.2,49.5-98,55.4-98,1.2,0,1.5.9,1.5,2.7-.2,18.5-20.2,73.2-33.8,73.2M59.49,49.6c-23.6-.1-34.9,14.9-35,31.1-.1,23.9,13.6,41.4,34.3,50,7.1-3.5,17.1-6.1,24.8-6.1a18,18,0,0,1,3.2,10c0,8-5.4,11.8-13.6,11.7A66.35,66.35,0,0,1,57,143.9a35.47,35.47,0,0,0-13.7,28.5c-.1,17.4,9.9,22.5,18.5,22.5,29.8.2,45.1-45.8,59.7-136-23.9-5-46-9.2-62-9.3m106.6,40.7c-6.6,28.3-24.3,66.9-24.4,92.5-.1,13.3,5.2,22.5,14.3,22.5,15,.1,24.3-21.4,48.4-64.4l2.4,1.2c-6.9,28.9-13.3,51.3-19.2,68.4-42.8,3.3-72.4,22.6-72.5,39.2-.1,16.8,16.4,25.2,34.1,25.3,48.4.3,57.8-55.2,88.8-168.6,3.3-12.4-7.6-14.8-16.4-14.8l-54.8,93.8-2.1-.9c12.3-41.5,21.9-73.1,22-81.9.1-9.5-9.6-12-20.6-12.3m225.6,88.8a164.13,164.13,0,0,0-19,18.5,17.61,17.61,0,0,1-4.1.6c-8,0-12.1-4.5-12-16.3.1-10.3,2.8-21.5,7-32.4,2.6,7.4,9.1,12.4,18.5,12.5,15.9.1,32.3-20.5,32.4-43.2.1-14.2-7.5-25.4-29.4-25.5-28-.1-54.3,49.3-54.4,83.2-.1,21.8,13.7,29.6,33.5,29.7.6,0,1.5-.3,2.1-.3-8.3,12.1-14.3,25.6-14.4,39.8-.1,20.7,14.6,26.6,24.9,26.7,18.6.1,46.1-11.6,70.6-122.7l7.9-35.1c3.6-16.8-5.2-20.4-20-20.5L423.79,143c-22,94-38.7,117.8-50.5,117.8-3.5,0-6.5-3-6.4-13,.1-13.3,6.1-32.7,16.8-45.1,10.9-3.2,21-9,21-15.8,0-6.3-7.7-7.8-13-7.8M217,73.4c-21.5-.1-46.9-4.4-71.6-9.5-17.4,118.2-43.2,141.7-81.3,141.5-20.9-.1-37.4-12-37.3-32.4.1-17.1,9-27.1,17.9-33.8v-.6C30,134.1,7.29,119.5,7.49,90.3c.1-27.1,20.9-54.2,66.1-53.9,34.5.2,83.2,10.5,119.7,10.7,31.3.2,58.5-9.1,71-28.5,1.2,1.2,6.2,6.8,6.1,17.1-.2,23.9-23.9,37.9-53.4,37.7m324.1,95c-.1,26.8,16.3,37.3,32,37.3,20.1.1,38.8-22.5,52.5-50.5l1.5.6c-2.4,12.7-5.2,26.2-7.6,41l20.9,10.7c10.3-46.9,36.8-99.5,49.2-99.5,2.1,0,3.8,1.2,3.8,6.8-.1,11.5-13.1,30.6-25.8,33.8-1.1,38.9,2.7,56.4,18,56.5,9.4,0,19.8-11.7,29.4-27.3.8,20.4,15.2,29.9,29.9,30,16.2.1,34-11.6,50.6-30.7a35.05,35.05,0,0,0-.3,5.6c-.1,13.3,5.2,22.5,14.3,22.5,15,.1,25.8-22,49.9-64.9l2.4,1.2c-5.1,21.2-9.4,38.9-13.6,53.9-54.4,29.8-67.8,41-67.9,57.5-.1,18.6,19.6,26.4,34.1,26.4,29.2.2,40-29,54.4-82.6l18.6-11.1c2.6,15.9,15.8,22.5,29.1,22.6,23,.1,39.9-16.6,40-38.7.1-23.9-29.1-30-28.9-51.5.1-10.9,8-14.4,13.1-14.4,5.3,0,7.4,2.7,7.3,5.6,0,3.8-2.7,6.5-2.7,12.1-.1,9.4,6.7,13.9,14.7,16.9,2.4-7.4,7.5-14.4,7.5-22.7.1-10.9-9-20.1-27.6-20.2-17.1-.1-33.7,10.7-33.8,30.8-.1,24.2,26.7,28.5,26.6,51.8-.1,12.7-8.1,20.3-16,20.3-8.3,0-13.3-5.4-13.2-13.3a13.07,13.07,0,0,1,1.8-7.1c6.8-3.2,9.5-7.3,9.5-12.9a16.42,16.42,0,0,0-3.8-9.8c-12.7-.1-22.8,9.9-24,22l-15.1,7.9c5.7-20.9,11.7-45.4,19.9-73.1,3.6-12.4-7.6-14.8-16.4-14.8l-54.8,90-2.1-.9c12.3-41.2,23.1-69.2,23.1-78.1,0-9.4-9.7-11.9-20.6-12.2-4.8,20-15.6,41.8-21.6,62.1-19,25.9-38.6,37.3-50.1,37.2-5.3,0-8.2-5.1-8.2-13.6a106.65,106.65,0,0,1,4.3-29.5c2.3,5.6,7.9,10.1,16.2,10.1,15.6.1,32.6-18.7,32.7-42.3.1-13.3-7.8-24.5-29.7-24.6-20.9-.1-40.3,31.7-47.2,60.5-8.9,16.5-17.3,28.8-21.4,28.8-6.2,0-7.6-22.8-8.1-39.3,7.1-2.9,28.1-14.6,28.2-32.9.1-13.3-9.6-18.3-18.5-18.4-19.2-.1-34.1,23.4-44.8,51.1l-2.1-.3c4.8-23.9,9.7-44.5,14.5-61.3,39-1.9,58.3-25.4,58.4-44,.1-20.4-15.2-29.3-32-29.4-15.3-.1-29.6,14-44.6,62.6-37.1-6.1-68.9-29.9-80-57.7-8,2-13.9,9.1-14,18.8-.2,32.5,47.9,46.3,90.9,49.2-1.8,5.9-3.6,12.4-5.1,19.4-20.4,58.9-49.2,90.6-61.6,90.6-10.3-.1-11.5-9.2-11.4-18.1.2-31.9,20.1-68.6,37.2-68.6a2.05,2.05,0,0,1,2.1,2.1c0,5-16.3,19.4-19.9,32.4-2.7,9.4,3.2,15.1,13.5,19,12.2-23.5,20.6-40.3,20.6-47.7s-9-19.8-25-19.9c-8.3,0-28.1,13.1-41.2,34.6-6.5,7-12.2,12.9-17.8,16.7a117.26,117.26,0,0,0,1-13.3c.1-23.3-13.1-37.5-31.4-37.6s-28.4,15.5-28.5,33.8a28,28,0,0,0,.3,5c-13.3,7.9-25.2,22.6-25.3,45.3-.1,25.1,18.4,31.1,33.5,31.2,26.3.1,42.6-25.7,48.7-53.4a47.2,47.2,0,0,0,10.7-7.3,72.41,72.41,0,0,0-3.2,21.2"/></svg>