<svg id="Layer_1" data-name="Layer 1" xmlns="http://www.w3.org/2000/svg" viewBox="0 0 1000 506.21"><defs><style>.cls-1{fill:#c4c4c4;stroke:#a1d324;stroke-miterlimit:10;stroke-width:2px;}</style></defs><title>type@cooper</title><path class="cls-1" d="M65.8,207.31l29.4-9L132,25.81l-24.3,6-50.9,69.5-9.6-3,22.2-85.7H260.2l-8.1,86.3-9.3,2.1-25.2-69.2-21-6-36.8,172.5,25.8,9-2.4,11.4H63.4Zm153.4,35.6c0-14.4,11.1-22.5,22.8-22.5,11.4,0,20.4,7.8,20.4,18.6,0,10.2-4.5,16.5-14.1,19.2v.6a38.25,38.25,0,0,0,6,.3c6.3,0,12.6-1.8,19.8-4.5,3-13.2,6.3-37.7,6.3-69.5,0-46.1-3.3-70.7-6-81.5l-29.7,28.8-7.2-6.6c35.9-50,48.8-59.6,65.6-59.6s28.5,12.3,28.5,62.3c0,32.6-2.4,60.2-7.2,86.6,25.4-31.2,44.6-73.7,44.6-109.4l-.6-.3c-14.1,3.3-23.1-8.1-23.1-19.5,0-11.1,9-19.8,22.5-19.8,12.9,0,27.3,9.6,27.3,35,0,55.4-56,146.5-113.5,169.2-8.7,3.3-18.9,5.7-27.9,5.7C238.4,276.21,219.2,267.21,219.2,242.91Zm153.7,10.2h21.9L432.5,112a323.8,323.8,0,0,0-25.2,20.4l-7.2-6.6c14.1-17.7,25.8-32.1,39.8-41.9l12-44.6h48.8l-7.5,27.3a81.45,81.45,0,0,1,8.7-.3c38.9,0,62,23.4,62,55.1,0,54.8-47.6,99.7-111.7,98.2l-9,33.5h26.1l-4.2,19.5H368.6Zm135.6-140.2c0-17.4-7.5-23.7-21.3-24.6L457,201.61c22.8-3.6,35-14.1,46.1-55.7C506.7,131.81,508.5,121.31,508.5,112.91Zm60.2,61.4c0-52.7,39.5-108.1,93.8-108.1,30.9,0,46.7,12.6,46.7,29.7,0,23.7-24.3,39.2-79.4,52.4-3.3,14.1-4.8,24.3-4.8,31.2,0,11.7,4.2,14.7,11.7,14.7,10.5,0,22.8-9.9,41.9-31.5l8.7,5.4c-18.3,34.1-42.5,53-73.4,53C587,221.11,568.7,202.51,568.7,174.31ZM633.1,136c24.3-11.4,32.9-22.2,32.9-45.2,0-3.9-1.8-6.9-5.7-6.9-7.8,0-16.2,9-27,50.6A3.89,3.89,0,0,0,633.1,136Zm76.1,37.1c0-73.1,67.4-153.4,162-153.4,63.2,0,108.7,37.1,108.7,93.8,0,69.5-46.4,110.2-93.5,110.2-27.3,0-36.2-9.3-39.8-27.6l-.3-1.5,20.1-34.1-.6-.6c-21.6,31.5-46.7,61.1-68.9,61.1-14.4,0-27.3-12-27.3-32.6,0-53,38.6-113.2,78.5-113.2,14.1,0,22.2,5.4,26.7,10.8l2.4-9h47.9L891,183.91a33.28,33.28,0,0,0-1.8,10.2c0,6.3,2.7,10.5,9.9,10.5,27.9,0,46.7-37.7,46.7-90.5,0-54.8-27.3-77-75.5-77-72.8,0-122.8,60.2-122.8,131.5,0,63.8,28.2,86,82.7,86,27.3,0,55.4-6,75.8-12.3l4.8,10.8c-22.8,12.3-51.5,20.7-87.5,20.7C750.9,273.81,709.2,229.71,709.2,173.11Zm145.3-11.6,17.1-62.9c-3-1.8-6.6-3.3-9.9-3.3-12.6,0-25.5,14.4-36.5,69.2a53.34,53.34,0,0,0-.9,8.7c0,6.9,2.4,9.3,6.3,9.3C837.4,182.41,845.8,174,854.5,161.51ZM20,359.41c0-69.5,54.2-115.6,113.2-115.6,21.3,0,34.7,5.7,45.5,15.9l10.2-13.5h11.4l3.3,81.5-9.9,2.1c-29.4-56-37.7-65-52.1-65-22.5,0-36.2,18.3-48.8,77.6-4.5,21.3-6.6,37.7-6.6,50.6,0,32,13.2,41,34.4,41,23.7,0,44.3-11.7,62.9-33.8l12.6,8.7c-21.3,31.8-47.6,45.8-83,45.8C51.5,454.71,20,411.31,20,359.41ZM205.4,396c0-54.8,46.1-96.1,92-96.1,35,0,59,27.6,59,57.5,0,54.8-46.4,97.3-92.3,97.3C229.1,454.71,205.4,425.91,205.4,396Zm90.8-21c6.6-23.7,9.6-37.7,9.6-46.1s-3-10.5-9.3-10.5c-12.6,0-16.8,8.4-30.9,61.1-6.3,24.3-9.6,38.6-9.6,46.7,0,7.8,3,9.9,9,9.9C277.6,436.11,281.8,428.31,296.2,375Zm65.3,21c0-54.8,46.1-96.1,92-96.1,35,0,59,27.6,59,57.5,0,54.8-46.4,97.3-92.3,97.3C385.1,454.71,361.5,425.91,361.5,396Zm90.7-21c6.6-23.7,9.6-37.7,9.6-46.1s-3-10.5-9.3-10.5c-12.6,0-16.8,8.4-30.9,61.1-6.3,24.3-9.6,38.6-9.6,46.7,0,7.8,3,9.9,9,9.9C433.7,436.11,437.8,428.31,452.2,375Zm36.6,111.7h21.9l37.7-141.1A323.79,323.79,0,0,0,523.2,366l-7.2-6.6c14.1-17.7,25.8-32.1,39.8-41.9l12-44.6h48.8l-7.5,27.3a81.45,81.45,0,0,1,8.7-.3c38.9,0,62,23.4,62,55.1,0,54.8-47.6,99.7-111.7,98.2l-9,33.5h26.1l-4.2,19.5H484.6Zm135.7-140.1c0-17.4-7.5-23.7-21.3-24.6l-30.3,113.2c22.8-3.6,35-14.1,46.1-55.7C622.7,365.41,624.5,355,624.5,346.61ZM684.7,408c0-52.7,39.5-108.1,93.8-108.1,30.9,0,46.7,12.6,46.7,29.7,0,23.7-24.3,39.2-79.4,52.4-3.3,14.1-4.8,24.3-4.8,31.2,0,11.7,4.2,14.7,11.7,14.7,10.5,0,22.8-9.9,41.9-31.5l8.7,5.4c-18.3,34.1-42.5,53-73.4,53C702.9,454.71,684.7,436.11,684.7,408Zm64.4-38.4c24.3-11.4,32.9-22.2,32.9-45.2,0-3.9-1.8-6.9-5.7-6.9-7.8,0-16.2,9-27,50.6A3.89,3.89,0,0,0,749.1,369.61Zm103.3-28.7-24.9,25.2-7.2-6.6c38.6-51.2,50.9-59.6,63.5-59.6,10.5,0,17.4,4.5,16.2,22.2l-.6,8.1-23.7,64.1,1.2.6c27-59.3,42.5-95,71-95,16.5,0,26.4,11.7,26.4,26.7,0,15.3-11.7,27-24,27-16.2,0-20.1-10.2-20.7-17.1H929c-11.4,7.2-26.4,28.2-37.7,49.4l-18,66.5H822.1Z"/></svg>