<svg id="Calque_1" data-name="Calque 1" xmlns="http://www.w3.org/2000/svg" viewBox="0 0 670 681.3"><defs><style>.cls-1{fill:#c4c4c4;stroke:#a1d324;stroke-miterlimit:10;stroke-width:4px;}</style></defs><title>village</title><path class="cls-1" d="M297.8,482.5,141.9,87.8C120.8,34.7,99,17,73.8,7.5V0H332.4V7.5c-44.8,10.8-57,25.1-19.6,123.1l77.6,202.1L455.1,168C493.2,71.4,468.7,19,407.5,7.4V-.1h181V7.4c-46.3,10.9-70.8,52.4-106.2,142.2L351.6,482.5Zm-285,55.3H43.5l24.6,77.3L92,537.8h30.3l-39,123.7H52.8Zm148.1,0V661.5H131.1V537.8Zm12.2,0h29.7v95.4h40.3v28.3h-70Zm81.3,0h29.7v95.4h40.3v28.3h-70Zm120,0h28.5l42.4,123.7h-30l-5.9-18.1H367.8l-5.9,18.1H332.1Zm2.4,78.7h23.7l-11.9-36.1ZM441,599.7c0-35.9,26.4-63.6,63.7-63.6,25.9,0,45.6,12.9,56.3,30.8l-26.1,14.4c-5.8-11-16.3-17.3-30-17.3-19.2,0-34.4,15.2-34.4,35.6,0,21,14.4,35.4,34.9,35.4,14.2,0,24.2-7.1,28.5-19.3H499.5V588.2h66.4v14.1c0,32.7-24.2,60.8-60,60.8C465.6,663.2,441,633.9,441,599.7Zm135.2-61.9h73.4v27.5H605.7v20.3h43.9v27.5H605.7v21h43.9v27.5H576.2Z"/></svg>