<svg id="Layer_1" data-name="Layer 1" xmlns="http://www.w3.org/2000/svg" viewBox="0 0 1000 950"><defs><style>.cls-1{fill:#a1d324;stroke:#a1d324;stroke-width:4px;}.cls-1,.cls-2{stroke-miterlimit:10;}.cls-2{fill:#c4c4c4;stroke:#c4c4c4;}</style></defs><title>works-that-work</title><path class="cls-1" d="M574.5,419.7h0c-4.4,0-8.5-2.6-9.8-6.4l-74-153.7c-2.6-5.4-.5-12.4,5.4-14.7,5.4-2.6,12.4-.5,14.7,5.4L575,383.6l82.5-160.4a11.29,11.29,0,0,1,20.1,10.3L584.3,413.2A10.75,10.75,0,0,1,574.5,419.7Z"/><path class="cls-1" d="M420.8,419.7h0c-4.4,0-8.5-2.6-9.8-6.4L323.6,233.1c-2.6-5.4-.5-12.4,5.4-14.7,5.4-2.6,12.4-.5,14.7,5.4l77.6,160.4,37.1-71.7a11.29,11.29,0,0,1,20.1,10.3l-46.9,91.5C428.8,417.4,424.9,419.7,420.8,419.7Z"/><path class="cls-1" d="M584.3,209.3H415.9a11.3,11.3,0,0,1,0-22.6H584.3a11.3,11.3,0,0,1,0,22.6Z"/><path class="cls-1" d="M735.9,435.7a10.75,10.75,0,0,1-5.4-1.5,11.06,11.06,0,0,1-4.4-15.2c42-76.6,42-171.5,0-247.8-2.8-5.4-1-12.4,4.4-15.2s12.4-1,15.2,4.4c45.9,83,45.9,186.2,0,269.7C743.4,433.1,739.8,435.7,735.9,435.7Z"/><path class="cls-1" d="M370.5,70.6a10.87,10.87,0,0,1-9.8-5.9c-2.8-5.4-1-12.4,4.4-15.2A278.94,278.94,0,0,1,632.2,48a11.19,11.19,0,1,1-10.8,19.6,254.92,254.92,0,0,0-245.5,1.5A9.51,9.51,0,0,1,370.5,70.6Z"/><path class="cls-1" d="M264.3,435.7a10.87,10.87,0,0,1-9.8-5.9c-45.9-83-45.9-186.7,0-269.7a11.19,11.19,0,0,1,19.6,10.8c-42,76.6-42,171.5,0,247.8,2.8,5.4,1,12.4-4.4,15.2A7.85,7.85,0,0,1,264.3,435.7Z"/><path class="cls-1" d="M500,574.9c-46.4,0-93.3-11.3-134.8-34A11.19,11.19,0,0,1,376,521.3a259.31,259.31,0,0,0,249.8-1c5.4-2.8,12.4-1,15.2,4.4s1,12.4-4.4,15.2A282.79,282.79,0,0,1,500,574.9Z"/><path class="cls-2" d="M92.9,680.3l3,67.8,29.5-52a12.43,12.43,0,0,0,2.1-6.1c0-3-3-4.3-9.5-4.7l1.3-5.3h29.8l-1.3,4.7c-5.7.7-10.3,3.8-13.7,9.6L90.5,770.2H86.2l-5-72.2-43,72.2H33.9l-4.7-77.8c-.3-3.4-1.6-5-3.7-5.8A25.58,25.58,0,0,0,20,685l1.3-5.3H55.8L54.5,685c-10.4.6-12.7,1.6-12.7,7.7v2.1l1.6,52.8,39.9-67.8h9.5l.1.5Z"/><path class="cls-2" d="M152.2,770.6c-13.2,0-19.4-9-19.4-22.1,0-20.2,14.4-42.7,35.9-42.7,12.7,0,19.9,8.3,19.9,21.8C188.5,746.2,173.7,770.6,152.2,770.6ZM176.1,726c0-7.7-2.1-14.1-9.8-14.1-13.8,0-21.2,20.5-21.2,36.9,0,8.3,1.8,15.4,9.1,15.4C167.2,764.2,176.1,742.1,176.1,726Z"/><path class="cls-2" d="M210,713.5c-2.1,0-5.8,1.6-9.1,3.7v-4.7c8-5.3,13.5-7.1,17.2-7.1s5.3,2.1,5.3,5a24.54,24.54,0,0,1-.6,4.3l-4,14.4h.3c12.3-19.7,17.2-23.6,23.9-23.6,3.7,0,6.1,1.3,6.1,5.3,0,3.4-2.1,6.7-7.4,6.7-10.4.6-14.1,5.3-25.2,22.5l-7.4,28.5H198.6l12.7-51C212.1,714.6,211.4,713.5,210,713.5Z"/><path class="cls-2" d="M246.5,768.4l21.2-84.5c.6-3,0-4.3-1.8-4.3-2.1,0-5.8,1.8-9,3.7v-4.7c6.7-5,12.7-7.1,16.8-7.1,5.3,0,6.4,3.4,5.3,8.3l-12.8,51.6h.3c11.1-19.1,19.1-26.1,27.1-26.1,5.5,0,10.4,2.7,10.4,10.4,0,8.3-5.8,15.4-18.8,24.5L300.3,766l-1.3,3.7h-9l-14.8-26.6v-1.3c11.7-9.8,16.8-18.1,16.8-23.1,0-2.4-1.3-3.7-3.7-3.7-5,0-14.1,10.4-25.2,29.8L257,767.9H246.3v.5Z"/><path class="cls-2" d="M308,762.6a5.1,5.1,0,0,1,5.5-5.5c5,0,7.4,5.8,15.7,5.8,3,0,6.1-1.3,6.1-5.8,0-4-2.1-7.1-4.3-10.1l-9-12.7a19.45,19.45,0,0,1-3.4-10.1c0-9.1,11.1-18.8,23.6-18.8,7.7,0,13.5,3,13.5,8,0,3-2.1,5.3-5.8,5.3-4.7,0-7.7-5.8-15.1-5.8-5,0-7.1,3-7.1,7.1a11,11,0,0,0,2.4,6.7l9.1,12.8c1.3,1.8,5.5,6.7,5.5,12.3,0,7.4-8,18.1-23.1,18.1C314.4,770,308,767.9,308,762.6Z"/><path class="cls-2" d="M445.3,686.7l-17.2,69.5c-1,3.7-.6,5.8,1.8,6.4,1.6.6,3.7.3,7.4.6l-1.6,5.3H401.9l1.6-5.3a58.78,58.78,0,0,0,7.7-.6c2.4-.6,4.3-2.7,5.3-6.4l17.2-69.4h-7.1c-11.1,0-16.4,2.7-22.5,15.1h-4.7l5.3-21.2h72.5l-5.3,21.2h-4.7c-.3-12.3-3.7-15.1-15.1-15.1l-6.8-.1Z"/><path class="cls-2" d="M518.1,754.6c-.6,3.4-1,5.3.6,5.3s4.3-1.8,9.5-6.4l1.6,4c-8.3,9.8-14.8,13.5-18.4,13.2-3.4,0-5.3-2.7-5.3-6.4a24.54,24.54,0,0,1,.6-4.3l7.7-30.5a37.76,37.76,0,0,0,1.6-8.7c0-2.4-1.3-3.7-3.7-3.7-5,0-14.4,9.8-25.5,29.2L481,768.8H470.6l20.8-84.5c.6-3,.3-4.3-1.6-4.3-2.1,0-5.8,1.6-9.1,3.7v-4.5c8-5.3,13.5-7.1,17.2-7.1s5.3,2.1,5.3,5a24.54,24.54,0,0,1-.6,4.3L489.8,733h.3c11.4-19.9,19.7-27.3,27.6-27.3,5.5,0,9.1,3,9.1,10.7a30.43,30.43,0,0,1-1.6,9.8Z"/><path class="cls-2" d="M587.2,759.5c1.8,0,6.1-3.4,9.8-6.4l2.1,3.7c-8.3,9.8-15.7,13.5-19.4,13.5-3.4,0-5.3-2.7-5.3-6.4a11.42,11.42,0,0,1,.6-4.3l5-15.7h-.2C570.7,759,561,770,551.9,770c-6.7,0-12.7-5.3-12.7-17.2,0-20.2,16.8-47.3,40.9-47.3a25.06,25.06,0,0,1,9.5,2.1l8-2.1h1.8l-12.7,50.7C585.9,758.6,586.2,759.5,587.2,759.5Zm-5.3-27.7,3.7-15.7c-3-2.1-6.7-4-10.4-4-16.8,0-23.9,25.8-23.9,38.7,0,6.1,1.6,9.1,4.7,9.1C562.5,760.5,573.6,745.1,581.9,731.8Z"/><path class="cls-2" d="M614.4,707.3h12.3l3-12.3,10.1-6.7h1.8l-4.7,18.8h17.5l-1.6,6.4H635.3L626.6,748a49.2,49.2,0,0,0-1.3,7.7c0,3.4,1.3,5,4,5,3,0,7.4-1.8,14.1-5.3l2.1,3.7c-7.7,6.7-14.8,10.7-21.5,10.7s-10.4-3.4-10.4-10.1a23.68,23.68,0,0,1,1-6.7l9.8-39.3H612.1Z"/><path class="cls-2" d="M768.9,680.3l3,67.8,29.5-52a12.43,12.43,0,0,0,2.1-6.1c0-3-3-4.3-9.5-4.7l1.3-5.3h29.8l-1.3,4.7c-5.8.6-10.4,3.7-13.8,9.5l-43.9,75.9h-4.3l-5-72.2-42.7,72.2h-4.3l-4.7-77.8c-.3-3.4-1.6-5-3.7-5.8a25.58,25.58,0,0,0-5.5-1.6l1.3-5.3h34.5l-1.3,5.3c-10.4.6-12.7,1.6-12.7,7.7v2.1l1.6,52.8,39.9-67.8h9.5v.6Z"/><path class="cls-2" d="M828.2,770.6c-13.2,0-19.4-9-19.4-22.1,0-20.2,14.4-42.7,35.9-42.7,12.7,0,19.9,8.3,19.9,21.8C864.5,746.2,849.7,770.6,828.2,770.6ZM852.1,726c0-7.7-2.1-14.1-9.8-14.1-13.8,0-21.2,20.5-21.2,36.9,0,8.3,1.8,15.4,9.1,15.4C843.3,764.2,852.1,742.1,852.1,726Z"/><path class="cls-2" d="M886,713.5c-2.1,0-5.8,1.6-9.1,3.7v-4.7c8-5.3,13.5-7.1,17.2-7.1s5.3,2.1,5.3,5a24.54,24.54,0,0,1-.6,4.3l-4,14.4h.3c12.3-19.7,17.2-23.6,23.9-23.6,3.7,0,6.1,1.3,6.1,5.3,0,3.4-2.1,6.7-7.4,6.7-10.4.6-14.1,5.3-25.2,22.5l-7.4,28.5H874.7l12.7-51C888,714.6,887.6,713.5,886,713.5Z"/><path class="cls-2" d="M922.5,768.4l21.2-84.5c.6-3,0-4.3-1.8-4.3-2.1,0-5.8,1.8-9,3.7v-4.7c6.7-5,12.7-7.1,16.8-7.1,5.3,0,6.4,3.4,5.3,8.3l-12.8,51.6h.3c11.1-19.1,19.1-26.1,27.1-26.1,5.5,0,10.4,2.7,10.4,10.4,0,8.3-5.8,15.4-18.8,24.5L976.3,766l-1.3,3.7h-9.1l-14.8-26.8v-1.3c11.7-9.8,16.8-18.1,16.8-23.1,0-2.4-1.3-3.7-3.7-3.7-5,0-14.1,10.4-25.2,29.8l-6.1,23.1H922.5v.5h0Z"/><path class="cls-2" d="M257.5,899a21.37,21.37,0,0,0,5.5.6v4.7H233.2v-4.7a28,28,0,0,0,5.5-.6c2.4-.6,3.4-2.7,3.4-6.4v-39c0-4-.6-5.3-4.7-5.3-1.6,0-4.7.3-5.5.3v-4.7c3.7-1.3,11.1-3,15.4-3,5,0,6.4,2.4,6.4,7.7v1.6c6.1-5.5,13.2-9.1,21.5-9.1,7.1,0,12.3,2.7,15.1,9.5,6.4-5.8,13.5-9.5,21.8-9.5,10.4,0,16.5,5.5,16.5,20.8v30.5c0,3.7,1,5.5,3.4,6.4a21.37,21.37,0,0,0,5.5.6v4.7H307.7v-4.7a28,28,0,0,0,5.5-.6c2.4-.6,3.4-2.7,3.4-6.4V865.3c0-9.5-2.4-14.1-12.7-14.1-4.7,0-8.3,1-13.2,2.4a36,36,0,0,1,.6,8.3v30.5c0,3.7,1,5.5,3.4,6.4a21.37,21.37,0,0,0,5.5.6v4.7H270.4v-4.7a28,28,0,0,0,5.5-.6c2.4-.6,3.4-2.7,3.4-6.4V865.3c0-9.5-2.4-14.1-12.7-14.1-5,0-8.3,1-13.8,2.7v38.7C253.9,896.2,255.1,898,257.5,899Z"/><path class="cls-2" d="M401.1,900.1h2.1v3.7a21.86,21.86,0,0,1-9.8,2.1c-9.5,0-12.7-4-12.7-9.8a23.41,23.41,0,0,1-18.4,9.8c-8.7,0-15.7-5.5-15.7-15.1,0-8.7,5.5-14.4,18.4-17.8l15.7-3.7v-3c0-11.1-3-14.8-13.2-14.8-5.5,0-13.5,1.3-19.4,2.4v-5.8a62,62,0,0,1,25.5-6.1c11.4,0,18.4,5.5,18.4,20.8v29.8C392.4,898.7,395.5,900.1,401.1,900.1ZM380.7,893V874.6l-8.7,2.1c-9.5,2.4-13.8,4.7-13.8,10.1s3,9.1,10.4,9.1A20.57,20.57,0,0,0,380.7,893Z"/><path class="cls-2" d="M427.1,879.6a9.78,9.78,0,0,0-2.4,5.8c0,2.7,2.1,5,7.1,5h9.8c15.7,0,26.1,4.7,26.1,15.7,0,12.7-13.5,27.3-35.3,27.3-16.4,0-24.5-8.7-24.5-17.8,0-8,6.1-12.3,13.8-15.7-5.3-2.1-6.7-5.8-6.7-9.1,0-4.7,4-8.7,8.3-11.7-7.1-2.7-11.7-8.3-11.7-16.4,0-12,10.4-20.8,24.5-20.8,7.1,0,14.1,2.4,18.8,6.7,5.8-2.7,5.8-9.8,11.4-9.8,3,0,5.5,1.8,5.5,5,0,5.5-9,7.4-14.4,7.7a17,17,0,0,1,3,9.8c0,12.7-12,19.9-23.9,19.9A42.79,42.79,0,0,1,427.1,879.6Zm-1.5,20.8c-5,3.7-6.4,8-6.4,12.3,0,8,5.5,13.5,17.2,13.5,11.1,0,19.9-5.3,19.9-14.8,0-6.4-4-10.4-15.4-10.4H430.8A48.76,48.76,0,0,0,425.6,900.4Zm9.5-53.1c-6.7,0-11.4,5.5-11.4,13.5,0,8.3,5.3,13.5,12.7,13.5,7.1,0,11.4-5,11.4-12.8C447.4,852.3,441.2,847.3,435.1,847.3Z"/><path class="cls-2" d="M532.7,900.1h2.1v3.7a21.86,21.86,0,0,1-9.8,2.1c-9.5,0-12.7-4-12.7-9.8a23.41,23.41,0,0,1-18.4,9.8c-8.7,0-15.7-5.5-15.7-15.1,0-8.7,5.5-14.4,18.4-17.8l15.7-3.7v-3c0-11.1-3-14.8-13.2-14.8-5.5,0-13.5,1.3-19.4,2.4v-5.8a62,62,0,0,1,25.5-6.1c11.4,0,18.4,5.5,18.4,20.8v29.8C523.9,898.7,527.3,900.1,532.7,900.1ZM512.2,893V874.6l-8.7,2.1c-9.5,2.4-13.8,4.7-13.8,10.1s3,9.1,10.4,9.1A20.57,20.57,0,0,0,512.2,893Z"/><path class="cls-2" d="M544.1,843h44.3l2.1,3.7L557,898h15.7c7.1,0,14.1-5.8,15.7-14.1l3.7.6-2.7,19.9h-46l-1.8-3.4,33.5-51.6H559.7c-9,0-11.1,5.5-13.8,12.7l-4.3-.6Z"/><path class="cls-2" d="M622.4,892.6c0,3.7,1,5.5,3.4,6.4a21.37,21.37,0,0,0,5.5.6v4.7H601.5v-4.7a28,28,0,0,0,5.5-.6c2.4-.6,3.4-2.7,3.4-6.4v-39c0-4-.6-5.3-4.7-5.3-1.6,0-4.7.3-5.5.3v-4.7c3.7-1.3,11.1-3,15.4-3,5,0,6.4,2.4,6.4,7.7v43.9l.4.1Zm-6.1-85.2c4.3,0,8.3,2.7,8.3,8.3s-4,8.3-8.3,8.3-8.3-2.7-8.3-8.3S612,807.4,616.3,807.4Z"/><path class="cls-2" d="M663.9,899a21.37,21.37,0,0,0,5.5.6v4.7H639.6v-4.7a28,28,0,0,0,5.5-.6c2.4-.6,3.4-2.7,3.4-6.4v-39c0-4-.6-5.3-4.7-5.3-1.6,0-4.7.3-5.5.3v-4.7c3.7-1.3,11.1-3,15.4-3,5,0,6.4,2.4,6.4,7.7v1.6c6.1-5.5,13.2-9.1,21.5-9.1,10.4,0,16.5,5.5,16.5,20.8v30.5c0,3.7,1,5.5,3.4,6.4a21.37,21.37,0,0,0,5.5.6v4.7H677.1v-4.7a28,28,0,0,0,5.5-.6c2.4-.6,3.4-2.7,3.4-6.4V865.3c0-9.5-2.4-14.1-12.7-14.1-5,0-8.3,1-13.8,2.7v38.7C660.6,896.2,661.5,898,663.9,899Z"/><path class="cls-2" d="M743.5,906.3c-17.8,0-27.1-12-27.1-29.8,0-21.5,12.8-35,31-35,11.7,0,19.7,7.4,20.8,20.2a41.35,41.35,0,0,1,0,6.1l-2.7,5.5H727.1c.3,14.8,6.7,23.1,20.8,23.1a64.65,64.65,0,0,0,17.5-3l.3,6.1C759.2,904.4,749.9,906.3,743.5,906.3Zm-16.1-39.9h29.2V864c0-9.1-4.7-15.4-13.5-15.4C733.7,848.6,728.7,855.7,727.4,866.4Z"/></svg>