<svg id="Layer_1" data-name="Layer 1" xmlns="http://www.w3.org/2000/svg" viewBox="0 0 979.45 328.48"><defs><style>.cls-1{fill:#c4c4c4;stroke:#a1d324;stroke-miterlimit:10;stroke-width:3px;}</style></defs><title>xyz</title><path class="cls-1" d="M116.29,308.5h-95c-6.3,0-10.9-4.6-10.9-10.5V262.3c0-5.5,4.6-10.1,10.9-10.1h8.8l70.6-89.1L30.49,70.6h-7.6C16.59,70.6,12,66,12,60.5V24.8c0-5.9,4.6-10.5,10.9-10.5H149a10.14,10.14,0,0,1,10.5,10.5V58A10.14,10.14,0,0,1,149,68.5H136l34.9,51.3,34.9-51.3h-12.2A10.37,10.37,0,0,1,183.09,58V24.8a10.37,10.37,0,0,1,10.5-10.5h94.6c6.3,0,10.9,4.6,10.9,10.5V60.5c0,5.5-4.6,10.1-10.9,10.1H279L210.49,158,282,252.2h8c6.3,0,10.9,4.6,10.9,10.1V298c0,5.9-4.6,10.5-10.9,10.5H163.39a10.14,10.14,0,0,1-10.5-10.5V264.8a10.14,10.14,0,0,1,10.5-10.5h13l-36.1-53.8-37.4,53.8h13.5a10.37,10.37,0,0,1,10.5,10.5V298A10.52,10.52,0,0,1,116.29,308.5Zm401.4,0H397.49c-6.3,0-10.9-4.2-10.9-10.5V262.3c0-5.9,4.6-10.1,10.9-10.1h15.1V196.3L336.49,70.6h-8.4c-6.3,0-10.9-4.6-10.9-10.1V24.8c0-5.9,4.6-10.5,10.9-10.5h122.7a10.14,10.14,0,0,1,10.5,10.5V58a10.14,10.14,0,0,1-10.5,10.5h-13l36.1,66.8,36.2-66.8h-13.5A10.37,10.37,0,0,1,486.09,58V24.8a10.37,10.37,0,0,1,10.5-10.5h89.1c6.3,0,10.9,4.6,10.9,10.5V60.5c0,5.5-4.6,10.1-10.9,10.1h-8l-75.2,123.2v58.4h15.1c6.3,0,10.9,4.2,10.9,10.1V298C528.69,304.3,524,308.5,517.69,308.5Zm314.4,0H641.29c-18.5,0-28.2-8.4-28.2-28.2V255.1c0-14.7,2.5-22.3,11.8-32.8L758.09,66.8h-79.4v34.5c0,12.2-7.1,19.3-18.5,19.3h-26.5c-11.3,0-18.5-7.1-18.5-19.3v-66c0-14.7,7.1-21,20.6-21h187.9c18.5,0,28.2,8.4,28.2,28.2V67.7c0,14.7-2.5,22.3-11.8,32.8L706.89,256h82.4V218.6c0-12.2,7.6-19.8,18.5-19.8h26.5c11.3,0,18.5,7.6,18.5,19.8v68.9C852.69,302.2,845.59,308.5,832.09,308.5Zm53.4-57.6c0-18.1,8-27.3,29.4-27.3H941c21.4,0,29.4,9.2,29.4,27.3v30.3c0,18.1-8,27.3-29.4,27.3h-26.1c-21.4,0-29.4-9.2-29.4-27.3Z"/></svg>