<?xml version="1.0" encoding="utf-8"?>
<!-- Generator: Adobe Illustrator 21.1.0, SVG Export Plug-In . SVG Version: 6.00 Build 0)  -->
<svg version="1.1" id="Layer_1" xmlns="http://www.w3.org/2000/svg" xmlns:xlink="http://www.w3.org/1999/xlink" x="0px" y="0px"
	 viewBox="0 0 383.8 102" style="enable-background:new 0 0 383.8 102;" xml:space="preserve">
<style type="text/css">
	.st0{fill:#9600CE;}
	.st1{fill:#161616;}
	.st2{fill:#333333;}
</style>
<title>about-banner</title>
<rect class="st0" width="383.8" height="102"/>
<path class="st1" d="M94.1,23v1.1c0,0.3-0.1,0.5-0.2,0.8c-0.2,0.2-0.5,0.3-0.8,0.3h-0.9c-0.5,0-0.7-0.1-0.7-0.4
	c0.1-0.6,0.4-1.1,0.8-1.5c0.6-0.6,1-0.9,1.4-0.9S94.2,22.6,94.1,23z M98.7,18.8v2.5c0,0.3,0.1,0.6,0.3,0.8c0.2,0.2,0.5,0.2,0.8,0.2
	h5.2c0.5,0,0.7,0.1,0.7,0.5c-0.1,0.5-0.3,0.9-0.6,1.2c-0.4,0.4-0.8,0.7-1.3,0.9c-0.7,0.2-1.5,0.3-2.2,0.2h-5.2
	c-0.3,0-0.5-0.1-0.8-0.2c-0.2-0.2-0.3-0.5-0.3-0.8v-3.7c0-0.7,0.4-1.4,1-1.8c0.5-0.4,1.2-0.7,1.9-0.7C98.5,17.9,98.7,18.2,98.7,18.8
	L98.7,18.8z M98.7,27.3v6.8c0,1,0.1,1.9,0.2,2.8c0.1,0.7,0.3,1.3,0.6,1.9c0.2,0.4,0.6,0.8,1,1c0.4,0.2,0.9,0.3,1.4,0.3
	c0.5,0,1-0.1,1.5-0.2c0.3-0.1,0.7-0.3,1-0.5c0.2-0.2,0.5-0.3,0.7-0.5c0.1-0.1,0.3-0.2,0.5-0.2c0.1,0,0.3,0,0.4,0.2
	c0.1,0.1,0.1,0.2,0.1,0.4c0,0.3-0.1,0.7-0.3,1c-0.2,0.5-0.5,0.9-0.9,1.2c-0.5,0.5-1,0.8-1.6,1.1c-0.8,0.3-1.7,0.5-2.6,0.5
	c-0.9,0-1.7-0.1-2.6-0.4c-0.7-0.3-1.3-0.8-1.7-1.4c-0.5-0.8-0.8-1.6-1-2.5c-0.2-1.3-0.3-2.5-0.3-3.8v-7.5c0-0.2,0.1-0.5,0.2-0.6
	c0.1-0.1,0.3-0.3,0.5-0.3c0.2-0.1,0.4-0.1,0.6-0.1h0.5c0.2,0,0.5,0,0.7,0c0.2,0,0.4,0.1,0.6,0.1c0.2,0.1,0.3,0.2,0.4,0.3
	C98.6,26.8,98.7,27,98.7,27.3L98.7,27.3z"/>
<path class="st1" d="M115,42.9c-1,0-1.9-0.1-2.8-0.4c-0.8-0.3-1.4-0.7-1.9-1.4c-0.5-0.7-0.9-1.6-1.1-2.5c-0.3-1.3-0.4-2.5-0.3-3.8
	V24.2c0-0.4,0.1-0.7,0.3-1c0.2-0.3,0.4-0.6,0.7-0.8c0.3-0.2,0.6-0.4,0.9-0.5c0.3-0.1,0.6-0.2,0.9-0.2c0.5,0,0.7,0.3,0.7,0.8v11
	l0.1,1.7c0,0.4,0,0.7,0.1,0.9c0,0.2,0.1,0.4,0.1,0.6c0,0.2,0.1,0.4,0.1,0.5s0.1,0.4,0.2,0.6c0.2,0.7,0.6,1.3,1.3,1.7
	c0.7,0.3,1.5,0.5,2.4,0.5c1,0,1.9-0.3,2.8-0.8c0.2-0.1,0.3-0.2,0.5-0.2c0.2,0,0.3,0.2,0.3,0.7c0,0.5-0.2,1-0.6,1.4
	c-0.4,0.4-0.9,0.7-1.4,1c-0.5,0.2-1.1,0.4-1.7,0.6C116,42.9,115.5,42.9,115,42.9z M113.1,50.3c0.4,0.3,0.8,0.6,1.3,0.8
	c0.5,0.2,1,0.2,1.5,0.2c0.6,0,1.2-0.1,1.8-0.2l1.1-0.2c0.3,0,0.5,0.2,0.5,0.5c0,0.6-0.5,1.2-1.5,1.8c-1,0.6-2.1,0.9-3.3,0.9
	c-1.1,0-2.2-0.2-3.2-0.7c-1-0.5-1.5-1-1.5-1.4c0-0.5,0.3-1,0.8-1.3c0.4-0.4,0.9-0.7,1.5-0.8C112.4,49.9,112.8,50.1,113.1,50.3
	L113.1,50.3z M124.6,22.6v23.7c0,0.9-0.1,1.8-0.4,2.7c-0.2,0.7-0.5,1.4-0.9,2c-0.3,0.5-0.8,0.9-1.2,1.3c-0.4,0.3-0.8,0.6-1.2,0.8
	c-0.3,0.1-0.6,0.2-0.9,0.2c-0.2,0-0.3-0.1-0.3-0.3c0-0.2,0.2-0.4,0.3-0.6c0.5-0.7,0.8-1.5,0.9-2.3c0.2-1.2,0.3-2.5,0.2-3.8V24.2
	c0-0.4,0.1-0.9,0.4-1.2c0.3-0.4,0.7-0.7,1.2-1c0.4-0.2,0.8-0.4,1.3-0.4C124.4,21.7,124.6,22,124.6,22.6z"/>
<path class="st1" d="M134,23.4c1.3-1,2.9-1.6,4.6-1.6c2.1-0.1,4.1,0.8,5.4,2.4c1.3,1.6,1.9,4.1,1.9,7.4c0,1.3-0.1,2.6-0.4,3.8
	c-0.2,1.1-0.6,2.3-1.1,3.3c-0.4,0.9-1,1.8-1.8,2.5c-0.4,0.5-1.1,0.9-1.7,1c-0.3,0-0.4-0.1-0.4-0.4c0-0.1,0.1-0.2,0.1-0.3
	c0.1-0.1,0.2-0.3,0.4-0.6c0.2-0.3,0.3-0.6,0.4-1c0.6-2,0.8-4.1,0.7-6.2c0-1.1,0-2.1-0.2-3.2c-0.1-0.9-0.3-1.7-0.5-2.6
	c-0.2-0.7-0.5-1.4-0.9-2c-0.4-0.5-0.9-0.8-1.4-1.1c-0.6-0.3-1.3-0.4-2-0.4c-1,0-2,0.2-2.8,0.6c-1.2,0.7-2.4,1.5-3.5,2.3
	c-0.3,0.3-0.6,0.4-1,0.5c-0.3,0-0.4-0.2-0.4-0.6v-3.3c0-0.7,0.4-1.3,1-1.7c0.5-0.4,1.2-0.6,1.8-0.7c0.5,0,0.7,0.3,0.7,0.8v0.5
	c0,0.5,0.1,0.7,0.3,0.7C133.5,23.7,133.8,23.6,134,23.4z M134.1,39.5c0.7,0.4,1.5,0.6,2.4,0.6c0.8,0,1.5-0.1,2.3-0.3l1-0.3
	c0.3,0,0.4,0.1,0.4,0.4c0,0.7-0.5,1.3-1.5,2c-1.1,0.7-2.3,1-3.6,1c-1.4,0-2.7-0.3-3.8-1c-0.6-0.3-1.1-0.8-1.5-1.4
	c-0.3-0.6-0.5-1.3-0.4-2v-7.3c0-0.6,0.1-1.2,0.5-1.7c0.4-0.4,0.8-0.8,1.2-1.1c0.3-0.2,0.7-0.4,1.2-0.4c0.4,0,0.6,0.3,0.6,0.8v7.8
	C132.8,37.8,133.3,38.8,134.1,39.5z M132.9,45.4v6.2c0,0.7-0.4,1.4-1,1.8c-0.5,0.4-1.2,0.7-1.9,0.7c-0.5,0-0.7-0.3-0.7-0.8v-9.8
	c0-0.6,0.2-0.9,0.7-0.9c0.8,0.1,1.6,0.5,2.2,1.1C132.7,44.1,133,44.8,132.9,45.4z"/>
<path class="st1" d="M153.2,31.5c0,0.9,0,1.7,0.1,2.3s0.1,1.3,0.2,2c0.1,0.6,0.3,1.2,0.5,1.8c0.2,0.5,0.5,0.9,0.9,1.4
	c0.4,0.4,0.8,0.7,1.3,0.9c0.6,0.2,1.2,0.3,1.9,0.3c0.5,0,1.1-0.1,1.6-0.2c0.3-0.1,0.5-0.2,0.8-0.2c0.3,0,0.4,0.1,0.4,0.4
	c-0.1,0.8-0.6,1.5-1.3,1.9c-0.9,0.7-2,1-3.1,1c-1,0-2.1-0.2-3-0.6c-0.8-0.3-1.5-0.8-2-1.5c-0.5-0.7-1-1.5-1.2-2.3
	c-0.3-0.9-0.5-1.8-0.6-2.8c-0.1-1.1-0.2-2.1-0.2-3.2c0-0.7,0.1-1.4,0.2-2.1c0.1-0.6,0.3-1.2,0.5-1.7c0.3-0.5,0.8-1,1.3-1.3
	c0.5-0.3,1-0.5,1.6-0.6c0.3,0,0.5,0.2,0.5,0.6c0,0.1-0.1,0.6-0.2,1.5C153.3,29.9,153.2,30.7,153.2,31.5z M158,21.7
	c3,0,5.1,0.9,6.5,2.6c1.4,1.8,2.1,4.3,2.1,7.7c0,1.1-0.1,2.3-0.4,3.4c-0.2,1.1-0.6,2.2-1.1,3.2c-0.5,0.9-1.1,1.8-1.8,2.5
	c-0.4,0.5-1.1,0.9-1.7,1c-0.3,0-0.4-0.1-0.4-0.4c0-0.1,0.1-0.2,0.1-0.3c0.1-0.1,0.2-0.3,0.4-0.6c0.2-0.3,0.3-0.6,0.4-0.9
	c0.6-2,0.9-4.1,0.8-6.2c0-1.3-0.1-2.6-0.3-3.8c-0.2-1-0.5-2-1-2.9c-0.4-0.8-1.1-1.5-1.9-1.9c-0.9-0.5-2-0.7-3-0.6
	c-1.8,0.1-3.6,0.7-5.1,1.8l-0.3,0.2l-0.3,0.2l-0.2,0.1c-0.1,0-0.1,0.1-0.2,0.1c-0.2,0-0.3-0.1-0.3-0.3c0-0.2,0.1-0.4,0.2-0.6
	c0.1-0.2,0.2-0.4,0.4-0.6C152.5,23.1,155.2,21.7,158,21.7z"/>
<path class="st1" d="M170,49.1c0-1.2,0.3-2.4,1.1-3.4c0.7-1,1.3-1.5,1.8-1.5c0.2,0,0.4,0.1,0.4,0.4c0,0.4-0.1,0.4-0.2,1
	c-0.1,0.6-0.2,1.2-0.2,1.9c0,1.2,0.6,2.3,1.6,2.8c1.3,0.7,2.8,1.1,4.4,1c0.7,0,1.3-0.1,2-0.2c0.5-0.1,1.1-0.3,1.6-0.4l0.6-0.2
	c0.2,0,0.3,0.1,0.3,0.3c0,0,0,0.1,0,0.1c0,0.4-0.2,0.7-0.4,0.9c-0.4,0.4-0.8,0.8-1.2,1.1c-0.7,0.4-1.4,0.7-2.2,0.9
	c-1,0.3-2,0.4-3.1,0.4c-0.7,0-1.4-0.1-2.1-0.3c-0.7-0.2-1.4-0.5-2.1-0.9c-0.7-0.4-1.2-0.9-1.7-1.6C170.2,50.7,170,49.9,170,49.1z
	 M171.4,27.7c0.3-0.3,0.7-0.5,1.1-0.7c0.3-0.2,0.7-0.3,1.1-0.4c0.3,0,0.5,0.2,0.5,0.6c0,0.1,0,0.4-0.1,0.8c0,0.4-0.1,0.8-0.1,1.2
	c0,0.7,0.1,1.5,0.3,2.2c0.2,0.5,0.4,1,0.8,1.4c0.3,0.3,0.7,0.6,1.2,0.7c0.4,0.2,0.8,0.3,1.2,0.3c0.4,0,0.8,0.1,1.1,0.1
	c0.5,0,1.1-0.1,1.6-0.3c0.2-0.1,0.5-0.2,0.8-0.3c0.2,0,0.3,0.1,0.3,0.4c0,0.5-0.4,1.1-1.2,1.7c-1,0.7-2.1,1-3.3,0.9
	c-0.6,0-1.2-0.1-1.8-0.2c-0.6-0.1-1.2-0.3-1.7-0.6c-0.5-0.3-1-0.7-1.5-1.1c-0.4-0.5-0.8-1.1-1-1.7c-0.3-0.8-0.4-1.6-0.4-2.4
	C170.4,29.4,170.7,28.4,171.4,27.7z M186.8,25.5c-1,0.3-2,0.4-3,0.3c-1.2,0.1-2.4-0.1-3.5-0.5c-1.1-0.5-2.4-0.8-3.6-0.8
	c-0.7,0-1.5,0.1-2.2,0.4c-1,0.3-1.9,0.7-2.7,1.3c-0.3,0.2-0.6,0.4-0.9,0.5c-0.2,0-0.3-0.1-0.3-0.4c0.1-0.4,0.3-0.7,0.5-1
	c0.5-0.7,1-1.3,1.7-1.9c0.6-0.5,1.2-0.9,1.9-1.1c0.6-0.2,1.2-0.4,1.8-0.5c0.5-0.1,1-0.1,1.6-0.1c1.5,0,2.9,0.3,4.3,0.9
	c0.6,0.3,1.3,0.5,2.1,0.5h3.7c0.4,0,0.6,0.1,0.6,0.4c-0.1,0.4-0.3,0.8-0.6,1.1C187.7,25,187.3,25.3,186.8,25.5z M183.4,52.7
	c0.7-0.4,1.2-1,1.5-1.8c0.3-0.7,0.5-1.4,0.5-2.2c0.2-1.5-0.5-3-1.7-3.9c-1.6-0.8-3.4-1.2-5.2-1.2h-2.1c-0.5,0-1.1,0-1.8-0.1
	c-0.6,0-1.1-0.1-1.6-0.3c-0.4-0.2-0.8-0.4-1.2-0.6c-0.4-0.2-0.7-0.6-0.9-1c-0.2-0.5-0.3-1-0.2-1.5c0-0.9,0.3-1.8,0.9-2.4
	c0.4-0.5,0.9-0.9,1.6-1c0.2,0,0.3,0.1,0.4,0.3c0,0,0,0.1,0,0.1c0,0.2-0.1,0.5-0.2,0.7c-0.1,0.3-0.2,0.7-0.2,1c0,0.2,0.1,0.5,0.2,0.7
	c0.1,0.2,0.3,0.3,0.5,0.5c0.3,0.1,0.7,0.2,1,0.2c0.4,0.1,0.9,0.1,1.3,0.1c0.4,0,1,0,1.7,0c0.9,0,1.7,0,2.4,0c0.7,0,1.5,0.1,2.2,0.2
	c0.7,0.1,1.3,0.3,2,0.5c0.6,0.2,1.1,0.5,1.7,0.8c0.5,0.3,1,0.7,1.3,1.2c0.4,0.5,0.6,1.1,0.8,1.8c0.2,0.8,0.3,1.6,0.3,2.4
	c0,0.8-0.2,1.7-0.5,2.5c-0.3,0.7-0.7,1.4-1.2,1.9c-0.5,0.5-1,0.9-1.6,1.2c-0.5,0.3-1,0.5-1.6,0.5c-0.3,0-0.4-0.1-0.4-0.3
	C183.1,53,183.2,52.8,183.4,52.7L183.4,52.7z M183.9,26.8c0.6-0.1,1.3,0.1,1.8,0.5c0.4,0.6,0.6,1.3,0.5,2c0,1.5-0.4,2.9-1.2,4.1
	c-0.4,0.5-0.9,1-1.4,1.5c-0.4,0.4-0.8,0.6-1.4,0.8c-0.2,0-0.3-0.1-0.3-0.3c0,0,0-0.1,0-0.1c0-0.2,0.1-0.3,0.2-0.5l0.5-0.8
	c0.2-0.4,0.4-0.8,0.5-1.3c0.1-0.6,0.2-1.2,0.2-1.8c0-0.6-0.1-1.2-0.2-1.7c-0.1-0.6-0.3-1.2-0.6-1.7c-0.1-0.1-0.1-0.2-0.1-0.3
	c0-0.1,0-0.1,0.1-0.2c0.1-0.1,0.3-0.1,0.5-0.2C183.1,26.8,183.5,26.8,183.9,26.8z"/>
<path class="st1" d="M198.7,21.7c0.8,0,1.6,0.2,2.3,0.5c0.8,0.3,1.2,0.8,1.2,1.3c-0.1,0.5-0.4,1-0.8,1.3c-0.4,0.4-0.9,0.6-1.5,0.7
	c-0.5,0-1-0.2-1.5-0.5c-0.5-0.3-1.1-0.4-1.6-0.4c-0.3,0-0.6,0.1-0.9,0.1c-0.4,0.1-0.7,0.3-1,0.6c-0.4,0.3-0.7,0.5-0.9,0.7
	c-0.2,0.2-0.6,0.6-1.2,1.1c-0.6,0.5-1,1-1.4,1.2c-0.2,0.2-0.4,0.3-0.7,0.4c-0.3,0-0.4-0.2-0.4-0.7v-3.8c0-0.7,0.4-1.4,1-1.8
	c0.5-0.4,1.2-0.7,1.9-0.7c0.5,0,0.7,0.3,0.7,0.8v1.1c0,0.4,0.1,0.6,0.3,0.6s0.4-0.2,0.7-0.5C195.8,22.6,197.2,21.9,198.7,21.7z
	 M190.3,41.7v-9.9c0-0.6,0.1-1.2,0.5-1.7c0.4-0.4,0.8-0.8,1.2-1.1c0.3-0.3,0.7-0.4,1.1-0.5c0.4,0,0.6,0.3,0.6,0.8v10.7
	c0,0.7-0.4,1.4-1,1.8c-0.5,0.4-1.2,0.7-1.9,0.7C190.5,42.5,190.3,42.2,190.3,41.7L190.3,41.7z"/>
<path class="st1" d="M212.6,30.7c0.2,0.1,0.4,0.3,0.5,0.5c0.1,0.4,0.2,0.8,0.1,1.2c0,0.4,0,0.8-0.1,1.1c-0.1,0.2-0.2,0.3-0.5,0.3
	c-0.2,0-0.4-0.1-0.6-0.2c-1-0.5-2.2-0.8-3.3-0.8c-1.7,0-3.3,0.6-4.6,1.7c-0.3,0.3-0.6,0.4-0.9,0.5c-0.2,0-0.3-0.1-0.3-0.3
	c0-0.4,0.2-0.8,0.4-1.2c0.6-1.1,1.6-2,2.7-2.6c1.2-0.6,2.5-0.9,3.8-0.9C210.8,30.1,211.8,30.3,212.6,30.7z M212.8,41.2
	c-0.6,0.5-1.3,0.9-2,1.2c-0.7,0.3-1.5,0.5-2.3,0.5c-1.5,0.1-2.9-0.4-4-1.4c-0.9-0.9-1.4-2.1-1.4-3.4c-0.1-0.9,0.3-1.7,1-2.2
	c0.4-0.4,1-0.6,1.6-0.7c0.1,0,0.3,0.1,0.4,0.2c0.1,0.1,0.2,0.3,0.2,0.5c-0.1,1.1,0.2,2.3,0.8,3.2c0.7,0.7,1.7,1.1,2.7,1
	c0.5,0,1-0.1,1.4-0.2c0.5-0.1,1-0.3,1.4-0.6c0.2-0.1,0.3-0.2,0.5-0.2c0.2,0,0.3,0.2,0.3,0.7C213.4,40.4,213.2,40.9,212.8,41.2
	L212.8,41.2z M210.8,21.7c1,0,2,0.1,2.9,0.4c0.8,0.3,1.6,0.7,2.2,1.4c0.6,0.7,1.1,1.5,1.4,2.5c0.3,1.2,0.5,2.4,0.5,3.6v10.6
	c0,0.3-0.1,0.7-0.3,0.9c-0.2,0.3-0.5,0.5-0.7,0.8c-0.3,0.2-0.6,0.4-0.9,0.5c-0.3,0.1-0.6,0.2-0.9,0.2c-0.5,0-0.7-0.3-0.7-0.8V30.3
	c0-3.8-1.5-5.8-4.6-5.8c-1.7,0-3.4,0.5-4.8,1.5c-0.3,0.3-0.7,0.5-1.1,0.6c-0.2,0-0.3-0.1-0.3-0.3c0.1-0.5,0.3-0.9,0.6-1.3
	C205.7,22.9,208.2,21.7,210.8,21.7z"/>
<path class="st1" d="M225.6,23.4c1.3-1,2.9-1.6,4.6-1.6c2.1-0.1,4.1,0.8,5.4,2.4c1.3,1.6,1.9,4.1,1.9,7.4c0,1.3-0.1,2.6-0.4,3.8
	c-0.2,1.1-0.6,2.3-1.1,3.3c-0.4,0.9-1,1.8-1.8,2.5c-0.4,0.5-1.1,0.9-1.7,1c-0.3,0-0.4-0.1-0.4-0.4c0-0.1,0.1-0.2,0.1-0.3
	c0.1-0.1,0.2-0.3,0.4-0.6c0.2-0.3,0.3-0.6,0.4-0.9c0.6-2,0.8-4.1,0.7-6.2c0-1.1,0-2.1-0.1-3.2c-0.1-0.9-0.3-1.7-0.5-2.6
	c-0.2-0.7-0.5-1.4-0.9-2c-0.4-0.5-0.9-0.9-1.4-1.2c-0.6-0.3-1.3-0.4-2-0.4c-1,0-2,0.2-2.8,0.6c-1.2,0.7-2.4,1.5-3.5,2.3
	c-0.3,0.3-0.6,0.4-1,0.5c-0.3,0-0.4-0.2-0.4-0.6v-3.2c0-0.7,0.4-1.3,1-1.7c0.5-0.4,1.2-0.6,1.8-0.7c0.5,0,0.7,0.3,0.7,0.8v0.5
	c0,0.5,0.1,0.7,0.3,0.7C225.1,23.7,225.4,23.6,225.6,23.4z M225.8,39.5c0.7,0.4,1.5,0.6,2.4,0.6c0.8,0,1.5-0.1,2.3-0.3l1-0.3
	c0.3,0,0.4,0.1,0.4,0.4c0,0.7-0.5,1.3-1.5,2c-1.1,0.7-2.3,1-3.6,1c-1.4,0-2.7-0.3-3.9-1c-0.6-0.3-1.1-0.8-1.4-1.4
	c-0.3-0.6-0.5-1.3-0.4-2v-7.3c0-0.6,0.1-1.2,0.5-1.7c0.4-0.4,0.8-0.8,1.2-1.1c0.3-0.3,0.7-0.4,1.1-0.5c0.4,0,0.6,0.3,0.6,0.8v7.8
	C224.5,37.7,224.9,38.8,225.8,39.5z M224.6,45.4v6.2c0,0.7-0.4,1.4-1,1.8c-0.5,0.4-1.2,0.7-1.9,0.7c-0.5,0-0.7-0.3-0.7-0.8v-9.8
	c0-0.6,0.2-0.9,0.7-0.9c0.8,0.1,1.6,0.5,2.2,1.1C224.4,44.1,224.6,44.8,224.6,45.4L224.6,45.4z"/>
<path class="st1" d="M244.7,23.5c1.4-1.1,3.1-1.7,4.9-1.7c1.8-0.1,3.5,0.6,4.6,2c1,1.3,1.5,3.5,1.5,6.4V40c0,0.7-0.4,1.4-1,1.8
	c-0.5,0.4-1.2,0.7-1.9,0.7c-0.5,0-0.7-0.3-0.7-0.8c0-6.4,0-9.9,0-10.5c0-0.6,0-1.4-0.1-2.2c0-0.7-0.2-1.3-0.4-1.9
	c-0.2-0.5-0.5-0.9-0.8-1.3c-0.3-0.4-0.7-0.8-1.2-0.9c-0.6-0.2-1.2-0.3-1.8-0.2c-1.6,0-3.7,1-6.2,3c-0.3,0.3-0.6,0.4-1,0.5
	c-0.3,0-0.4-0.2-0.4-0.6V14.8c0-0.7,0.4-1.4,1-1.7c0.5-0.4,1.2-0.7,1.9-0.7c0.5,0,0.7,0.3,0.7,0.8l-0.1,9.8c0,0.6,0.1,0.8,0.4,0.8
	C244.3,23.7,244.5,23.6,244.7,23.5z M240.2,41.7V31.2c0-0.6,0.1-1.2,0.5-1.7c0.4-0.4,0.8-0.8,1.2-1.1c0.3-0.3,0.7-0.4,1.1-0.5
	c0.4,0,0.6,0.3,0.6,0.8v11.3c0,0.7-0.4,1.4-1,1.7c-0.5,0.4-1.2,0.6-1.8,0.7C240.4,42.5,240.2,42.2,240.2,41.7z"/>
<path class="st1" d="M262.2,12.4v2.8c0,0.4-0.1,0.9-0.4,1.2c-0.3,0.4-0.7,0.7-1.2,1c-0.4,0.2-0.8,0.3-1.3,0.4
	c-0.5,0-0.7-0.3-0.7-0.8v-2.8c0-0.4,0.1-0.8,0.4-1.2c0.3-0.4,0.7-0.7,1.2-1c0.4-0.2,0.8-0.4,1.3-0.4C262,11.5,262.2,11.8,262.2,12.4
	z M262.2,22.6V40c0,0.4-0.1,0.9-0.4,1.2c-0.3,0.4-0.7,0.7-1.2,1c-0.4,0.2-0.8,0.3-1.3,0.4c-0.5,0-0.7-0.3-0.7-0.8V24.2
	c0-0.4,0.1-0.8,0.4-1.2c0.3-0.4,0.7-0.7,1.2-1c0.4-0.2,0.8-0.4,1.3-0.4C262,21.7,262.2,22,262.2,22.6z"/>
<path class="st1" d="M268.5,32.4c0,5.1,1.8,7.7,5.5,7.7c0.7,0,1.4-0.1,2.1-0.3c0.5-0.1,1.1-0.3,1.5-0.6l1-0.6
	c0.2-0.1,0.4-0.2,0.7-0.3c0.3,0,0.5,0.2,0.5,0.5c-0.1,0.4-0.2,0.8-0.5,1.1c-0.9,1.2-2.2,2.1-3.6,2.5c-0.9,0.3-1.9,0.5-2.8,0.5
	c-2.7,0-4.8-0.8-6.1-2.5s-2-4-2-7.1c-0.1-1.6,0.2-3.2,0.9-4.6c0.4-0.5,0.8-1,1.4-1.3c0.5-0.3,1-0.6,1.6-0.6c0.3,0,0.5,0.2,0.5,0.5
	c0,0.5-0.1,0.6-0.3,1.7C268.6,30.2,268.5,31.3,268.5,32.4z M278.6,22.9c0.3,0.2,0.5,0.5,0.6,0.9c0,0.3-0.3,0.7-0.8,1.2
	c-0.4,0.4-0.9,0.6-1.5,0.7c-0.5,0-0.9-0.1-1.3-0.4c-0.9-0.5-2-0.7-3-0.8c-2.1,0-4.1,0.7-5.7,1.9c-0.3,0.2-0.6,0.4-1,0.6
	c-0.2,0-0.3-0.1-0.3-0.3c0-0.2,0.1-0.4,0.2-0.6c0.1-0.2,0.2-0.4,0.4-0.6c0.9-1.2,2-2.1,3.3-2.8c1.4-0.6,3-1,4.5-0.9
	c0.8,0,1.7,0.1,2.5,0.3C277.3,22.2,278,22.4,278.6,22.9z"/>
<path class="st1" d="M292.5,37.9c0.1-1.1-0.3-2.2-1.1-3c-1-0.7-2.1-1-3.3-1.1c-1.1-0.1-2.2-0.3-3.3-0.6c-0.8-0.2-1.5-0.6-2.2-1.2
	c-0.5-0.4-0.8-0.9-1.1-1.5c-0.2-0.5-0.3-1.1-0.3-1.7c0-0.7,0.4-1.3,0.9-1.6c0.4-0.4,1-0.6,1.6-0.7c0.3,0,0.5,0.2,0.6,0.6
	c0.1,0.4,0.2,0.7,0.3,1.1c0.1,0.3,0.3,0.6,0.5,0.8c0.2,0.2,0.4,0.4,0.6,0.5c0.3,0.2,0.6,0.3,0.9,0.4c0.4,0.1,0.8,0.2,1.2,0.3
	s0.9,0.1,1.6,0.2c1,0.1,2,0.4,2.9,0.8c0.7,0.3,1.3,0.8,1.8,1.4c0.4,0.5,0.7,1.1,0.9,1.7c0.2,0.7,0.3,1.3,0.2,2
	c0,0.8-0.1,1.6-0.4,2.4c-0.4,1.2-1.2,2.3-2.3,3c-0.3,0.2-0.7,0.4-1.1,0.4c-0.2,0-0.3-0.1-0.3-0.3c0.1-0.2,0.2-0.4,0.3-0.6
	C292.2,40.2,292.5,39.1,292.5,37.9z M293.8,22.9c0.3,0.2,0.6,0.5,0.6,0.9c0,0.3-0.3,0.7-0.8,1.2c-0.4,0.4-0.9,0.7-1.5,0.7
	c-0.1,0-0.2,0-0.4,0l-0.5-0.2l-0.4-0.2c-1-0.5-2.2-0.7-3.3-0.8c-1.7,0-3.4,0.4-4.8,1.3l-0.4,0.2l-0.4,0.2c-0.1,0-0.2,0.1-0.2,0.1
	c-0.2,0-0.3-0.1-0.3-0.3c0.1-0.4,0.3-0.9,0.6-1.2c1.8-2.1,4.5-3.3,7.2-3.1c0.8,0,1.7,0.1,2.5,0.3C292.5,22.2,293.2,22.5,293.8,22.9
	L293.8,22.9z M284.9,39.2l0.9,0.5c0.3,0.1,0.6,0.2,0.8,0.3c0.4,0.1,0.8,0.2,1.3,0.2c0.6,0,1.1-0.1,1.7-0.2l0.9-0.2
	c0.3,0,0.5,0.2,0.5,0.5c0,0.3-0.1,0.5-0.3,0.8c-0.3,0.4-0.5,0.7-0.9,0.9c-0.5,0.4-1,0.6-1.5,0.8c-0.7,0.2-1.4,0.3-2.2,0.3
	c-1.1,0-2.2-0.3-3.1-0.8c-1-0.5-1.5-1-1.5-1.6c0.1-0.5,0.4-1,0.8-1.2c0.4-0.4,1-0.6,1.6-0.6C284.2,38.8,284.6,38.9,284.9,39.2
	L284.9,39.2z"/>
<path class="st2" d="M112.5,68.8c1.2,0.7,2.3,1.7,3.1,2.9c0.1,0.2,0.1,0.3,0,0.4l-0.9,0.6c0,0-0.1,0-0.1,0c-0.1,0-0.2-0.1-0.3-0.2
	c-0.8-1-1.7-1.9-2.8-2.5c-0.9-0.5-1.9-0.8-2.9-0.8c-2.8-0.1-5.5,1.6-6.6,4.2c-1.2,2.9-1.2,6.2,0,9.2c1.1,2.6,3.7,4.2,6.5,4.2
	c2.5,0,4.5-1.2,6.1-3.7c0.1-0.1,0.1-0.2,0.2-0.2c0.1,0,0.1,0,0.2,0.1l0.9,0.6c0.1,0.1,0.2,0.2,0.1,0.4c-0.8,1.3-1.9,2.5-3.3,3.2
	c-2.8,1.5-6.2,1.5-9-0.2c-1.4-0.9-2.5-2.1-3.1-3.6c-1.5-3.4-1.5-7.2,0-10.6c0.7-1.5,1.8-2.7,3.1-3.6
	C106.3,67.5,109.7,67.4,112.5,68.8L112.5,68.8z"/>
<path class="st2" d="M123.6,86.9c-1.4-0.9-2.4-2.1-3.1-3.5c-0.8-1.6-1.1-3.4-1.1-5.2c0-1.8,0.3-3.7,1.1-5.3c0.7-1.5,1.8-2.8,3.2-3.6
	c2.9-1.7,6.5-1.7,9.4,0c1.4,0.9,2.5,2.1,3.2,3.6c1.5,3.4,1.5,7.2,0,10.6c-0.7,1.5-1.8,2.7-3.2,3.6C130.1,88.6,126.5,88.6,123.6,86.9
	L123.6,86.9z M133.8,84.4c1.4-1.8,2.1-4.1,2-6.3c0-1.6-0.3-3.2-0.9-4.6c-0.6-1.3-1.4-2.3-2.6-3.1c-2.4-1.5-5.4-1.5-7.8,0
	c-1.1,0.8-2.1,1.8-2.6,3.1c-0.6,1.4-1,3-0.9,4.6c0,1.6,0.3,3.1,0.9,4.6c1.2,2.6,3.8,4.2,6.6,4.2C130.5,86.8,132.5,85.9,133.8,84.4
	L133.8,84.4z"/>
<path class="st2" d="M142.8,87.4V68.5c0-0.2,0.1-0.3,0.3-0.3h0.8c0.1,0,0.3,0.1,0.3,0.2c0,0,0,0.1,0,0.1v2.3c0,0.1,0,0.2,0.1,0.2
	c0.1,0,0.1,0,0.2-0.1c1.2-0.9,2.5-1.7,3.8-2.4c1-0.5,2.2-0.7,3.3-0.7c1.6-0.1,3.2,0.4,4.4,1.5c1.1,1,1.6,2.5,1.6,4v14.1
	c0,0.2-0.1,0.4-0.3,0.4h-0.8c-0.2,0-0.3-0.1-0.3-0.2c0,0,0-0.1,0-0.1V73.8c0-3.1-1.5-4.6-4.6-4.6c-1.2,0-2.3,0.2-3.4,0.8
	c-1.4,0.8-2.7,1.7-4,2.7v14.8c0,0.2-0.1,0.3-0.2,0.3c0,0-0.1,0-0.1,0h-0.8c-0.2,0-0.3-0.1-0.3-0.2C142.8,87.5,142.8,87.5,142.8,87.4
	z"/>
<path class="st2" d="M173.2,68.4v0.8c0,0.1-0.1,0.2-0.2,0.2c0,0,0,0,0,0h-4.9c-0.1,0-0.2,0.1-0.3,0.2c0,0,0,0,0,0.1v17.6
	c0,0.3-0.1,0.4-0.3,0.4h-0.8c-0.2,0-0.3-0.1-0.3-0.4V69.7c0-0.2-0.1-0.3-0.2-0.3h-4.2c-0.1,0-0.2-0.1-0.2-0.2c0,0,0,0,0,0v-0.8
	c0-0.1,0.1-0.2,0.2-0.2c0,0,0,0,0,0h4.2c0.1,0,0.2-0.1,0.3-0.2c0,0,0,0,0-0.1v-3c-0.1-1.2,0.3-2.5,1-3.5c0.8-0.8,2-1.2,3.1-1.1h2.7
	c0.1,0,0.2,0.1,0.2,0.3v0.8c0,0.2-0.1,0.3-0.3,0.3h-3c-0.7-0.1-1.4,0.2-1.8,0.7c-0.4,0.7-0.6,1.5-0.5,2.2v3.3c0,0.1,0.1,0.2,0.2,0.3
	c0,0,0,0,0.1,0h5C173.2,68.2,173.2,68.3,173.2,68.4z"/>
<path class="st2" d="M178.1,82.8c0.6,1.2,1.6,2.2,2.7,2.9c1.1,0.7,2.4,1.1,3.7,1.1c2.6,0.2,5.1-1.2,6.5-3.4c0.1-0.2,0.3-0.2,0.4-0.2
	l0.8,0.6c0.1,0.1,0.1,0.2,0,0.4c-1.6,2.7-4.6,4.2-7.7,4.1c-1.6,0-3.3-0.4-4.7-1.3c-1.4-0.8-2.5-2.1-3.2-3.5
	c-0.8-1.6-1.2-3.4-1.1-5.2c0-1.9,0.3-3.8,1.1-5.5c0.7-1.5,1.8-2.8,3.2-3.6c1.4-0.8,3-1.2,4.6-1.2c2.4-0.1,4.6,0.8,6.2,2.6
	c1.6,2,2.4,4.6,2.3,7.2v0.2c0,0.1,0,0.3-0.1,0.4c-0.1,0.1-0.2,0.2-0.4,0.2h-15.2c-0.1,0-0.2,0.2-0.2,0.5
	C177.1,80.3,177.4,81.6,178.1,82.8z M190.8,77.1c0.2,0,0.3,0,0.5-0.1c0.1-0.1,0.1-0.3,0.1-0.4c0-1.3-0.3-2.6-0.9-3.7
	c-0.5-1.1-1.4-2-2.4-2.7c-2.4-1.3-5.3-1.3-7.7,0.2c-1.1,0.8-2,1.8-2.5,3c-0.6,1.2-0.9,2.4-0.8,3.7L190.8,77.1z"/>
<path class="st2" d="M198.2,87.4V68.5c0-0.2,0.1-0.3,0.3-0.3h0.8c0.1,0,0.3,0.1,0.3,0.2c0,0,0,0.1,0,0.1V71c0,0.1,0,0.2,0.1,0.2
	c0.1,0,0.1,0,0.2-0.1c0.9-1,1.9-1.8,3-2.5c0.9-0.5,1.9-0.8,2.9-0.8c0.9,0,1.3,0.1,1.3,0.4v1c0,0.1,0,0.2-0.1,0.2c0,0,0,0-0.1,0h-0.4
	h-0.8c-0.9,0-1.8,0.3-2.6,0.7c-0.9,0.5-1.8,1.1-2.4,1.9c-0.6,0.6-1,1.5-1,2.3v13.1c0,0.2-0.1,0.3-0.2,0.3c0,0-0.1,0-0.1,0h-0.8
	C198.3,87.8,198.2,87.7,198.2,87.4C198.2,87.5,198.2,87.5,198.2,87.4z"/>
<path class="st2" d="M212.2,82.8c0.6,1.2,1.6,2.2,2.7,2.9c1.1,0.7,2.4,1.1,3.7,1.1c2.6,0.2,5.1-1.2,6.5-3.4c0.1-0.2,0.3-0.2,0.4-0.2
	l0.9,0.6c0.1,0.1,0.1,0.2,0,0.4c-1.6,2.7-4.6,4.2-7.8,4.1c-1.6,0-3.3-0.4-4.7-1.3c-1.4-0.8-2.5-2.1-3.2-3.5
	c-0.8-1.6-1.2-3.4-1.1-5.2c0-1.9,0.3-3.8,1.1-5.5c0.7-1.5,1.8-2.7,3.2-3.6c1.4-0.8,3-1.3,4.7-1.2c2.4-0.1,4.6,0.8,6.2,2.6
	c1.6,2,2.4,4.6,2.3,7.2v0.2c0,0.1,0,0.3-0.1,0.4c-0.1,0.1-0.2,0.2-0.4,0.2h-15.2c-0.1,0-0.2,0.2-0.2,0.5
	C211.2,80.2,211.6,81.6,212.2,82.8z M225,77.1c0.2,0,0.3,0,0.5-0.1c0.1-0.1,0.1-0.3,0.1-0.4c0-1.3-0.3-2.6-0.9-3.7
	c-0.5-1.1-1.4-2-2.4-2.7c-2.4-1.3-5.3-1.3-7.7,0.2c-1.1,0.8-2,1.8-2.5,3c-0.6,1.2-0.9,2.4-0.8,3.7L225,77.1z"/>
<path class="st2" d="M232.3,87.4V68.5c0-0.2,0.1-0.3,0.3-0.3h0.8c0.1,0,0.3,0.1,0.3,0.2c0,0,0,0.1,0,0.1v2.3c0,0.1,0,0.2,0.1,0.2
	s0.1,0,0.2-0.1c1.2-0.9,2.5-1.7,3.9-2.4c1-0.5,2.2-0.7,3.3-0.7c1.6-0.1,3.2,0.4,4.4,1.5c1.1,1,1.6,2.5,1.6,4v14.1
	c0,0.2-0.1,0.4-0.3,0.4H246c-0.2,0-0.3-0.1-0.3-0.2c0,0,0-0.1,0-0.1V73.8c0-3.1-1.5-4.6-4.6-4.6c-1.2,0-2.3,0.2-3.4,0.8
	c-1.4,0.8-2.7,1.7-4,2.7v14.8c0,0.2-0.1,0.3-0.2,0.3c0,0-0.1,0-0.1,0h-0.8C232.5,87.8,232.3,87.7,232.3,87.4
	C232.3,87.5,232.3,87.5,232.3,87.4z"/>
<path class="st2" d="M265.4,68.8c1.3,0.7,2.3,1.7,3.1,2.9c0.1,0.2,0.1,0.3,0,0.4l-0.9,0.6c0,0-0.1,0-0.1,0c-0.1,0-0.2-0.1-0.3-0.2
	c-0.8-1-1.8-1.9-2.9-2.5c-0.9-0.5-1.9-0.8-2.9-0.8c-2.8-0.1-5.5,1.6-6.6,4.2c-1.2,2.9-1.2,6.2,0,9.2c1.1,2.6,3.7,4.3,6.6,4.2
	c2.5,0,4.5-1.2,6.1-3.7c0.1-0.1,0.1-0.2,0.2-0.2c0.1,0,0.1,0,0.2,0.1l0.9,0.6c0.1,0.1,0.2,0.2,0.1,0.4c-0.8,1.3-1.9,2.4-3.3,3.2
	c-2.8,1.5-6.2,1.5-9-0.2c-1.4-0.9-2.5-2.1-3.1-3.6c-1.5-3.4-1.5-7.2,0-10.6c0.7-1.5,1.8-2.7,3.1-3.6
	C259.2,67.5,262.5,67.4,265.4,68.8L265.4,68.8z"/>
<path class="st2" d="M274.8,82.8c0.6,1.2,1.6,2.2,2.7,2.9c1.1,0.7,2.4,1.1,3.7,1.1c2.6,0.2,5.1-1.2,6.5-3.4c0.1-0.2,0.3-0.2,0.4-0.2
	l0.8,0.6c0.1,0.1,0.1,0.2,0,0.4c-1.6,2.7-4.6,4.2-7.8,4.1c-1.6,0-3.3-0.4-4.7-1.2c-1.4-0.8-2.5-2.1-3.2-3.5
	c-0.8-1.6-1.2-3.4-1.1-5.2c0-1.9,0.3-3.8,1.1-5.5c0.7-1.5,1.8-2.7,3.2-3.6c1.4-0.8,3-1.3,4.7-1.2c2.4-0.1,4.6,0.8,6.2,2.6
	c1.6,2,2.4,4.6,2.3,7.2v0.2c0,0.1,0,0.3-0.1,0.4c-0.1,0.1-0.2,0.2-0.4,0.2H274c-0.1,0-0.2,0.2-0.2,0.5
	C273.7,80.2,274.1,81.6,274.8,82.8z M287.5,77.1c0.2,0,0.3,0,0.5-0.1c0.1-0.1,0.1-0.3,0.1-0.4c0-1.3-0.3-2.6-0.9-3.7
	c-0.5-1.1-1.4-2-2.4-2.7c-2.4-1.3-5.3-1.3-7.7,0.2c-1.1,0.8-2,1.8-2.5,3c-0.6,1.2-0.9,2.4-0.8,3.7L287.5,77.1z"/>
</svg>
