<?xml version="1.0" encoding="utf-8"?>
<!-- Generator: Adobe Illustrator 21.1.0, SVG Export Plug-In . SVG Version: 6.00 Build 0)  -->
<svg version="1.1" id="Layer_1" xmlns="http://www.w3.org/2000/svg" xmlns:xlink="http://www.w3.org/1999/xlink" x="0px" y="0px"
	 viewBox="0 0 43.7 38.7" style="enable-background:new 0 0 43.7 38.7;" xml:space="preserve">
<style type="text/css">
	.st0{fill:#9E1F3D;}
</style>
<title>twitterlogo</title>
<polygon class="st0" points="29.1,1.5 28.4,1.6 27.9,1.8 27.2,2.1 26.5,2.4 25.8,2.8 25.2,3.3 24.5,3.7 24,4.3 23.3,5.1 22.9,5.8 
	22.4,6.6 22.1,7.5 22,8.2 21.6,8.8 21.5,12.3 21,12.4 20.5,12.4 19.6,12.4 18.4,12.2 17.5,12 16.3,11.8 15.4,11.5 14.4,11.3 
	13.3,10.8 11.4,9.9 9.6,8.7 8.3,8 7.2,7 6.4,6.3 5.8,5.8 5.1,5 4.7,4.6 4.2,4.1 3.8,3.6 3.5,3.3 3.1,4 2.9,5 2.6,5.4 2.5,6.2 
	2.4,7.4 2.4,8.3 2.5,9.2 2.7,10 2.9,10.5 3.1,11 3.3,11.7 3.5,12.1 3.8,12.5 4.1,12.8 4.6,13.5 5.4,14.3 6,14.8 6,15.1 5.5,14.9 
	4.7,14.9 4,14.7 3.3,14.5 2.9,14.2 2.4,14 2.4,14.7 2.6,15.9 2.8,17 3,17.5 3.3,18.2 3.7,18.9 4.4,19.6 5.3,20.6 6.6,21.7 7.3,21.9 
	8.2,22.3 8.9,22.6 9.1,22.6 9.1,22.8 8.7,22.9 8.3,22.8 7.9,22.9 7.2,22.9 6.7,22.9 5.9,22.9 5.4,22.8 5.4,23.3 6.1,24.5 6.7,25.4 
	7.3,26.1 8,26.8 8.6,27.2 9.6,27.8 10.4,28.2 11.3,28.5 12.1,28.7 13,28.9 13.4,28.9 13.3,29.1 13.1,29.2 12.3,29.8 11.8,30.1 
	10.9,30.6 10.1,31 9.4,31.4 8.6,31.7 7.9,31.8 7.1,32.1 6.5,32.3 6.5,32.4 5.7,32.6 5.2,32.6 4.6,32.6 4,32.6 3.3,32.6 2.1,32.6 
	1.3,32.6 1,32.6 1.8,33.4 2.8,33.9 5,34.8 6,35.2 7.3,35.5 8.4,35.8 9.2,36 10.1,36.2 10.6,36.2 11.1,36.3 11.6,36.3 12.8,36.3 
	13.7,36.3 15.1,36.3 16.6,36.3 17.4,36.3 18.6,36 19.3,35.9 20,35.8 20.7,35.5 21.7,35.3 23.2,34.8 24.6,34.3 25.8,33.7 26.8,33.2 
	28.1,32.3 29.2,31.4 30.6,30.4 31.9,29.1 32.8,27.9 33.5,27 34.6,25.7 35.6,24 36.7,22.1 37.4,20.3 38,19 38.2,17.9 38.5,17.1 
	38.6,16.1 38.9,15.1 38.9,14.2 38.9,13.1 39.1,11.6 39.1,10.3 40.4,9.2 41.3,8.3 41.9,7.6 42.4,7.1 42.8,6.6 43.1,6 42.8,6 
	42.3,6.2 41.7,6.5 40.8,6.7 40.4,6.9 39.9,7.1 39.5,7.1 39,7.1 38.8,7 38.7,6.8 39.2,6.5 39.5,6.2 40,6 40.6,5.3 40.9,4.7 41.2,4.3 
	41.5,3.9 41.7,3.4 42,3 42.1,2.7 42.1,2.4 41.8,2.4 41.6,2.6 41.1,2.9 40.3,3.2 39.7,3.5 39.2,3.7 39,3.8 38.8,4 38.3,4.1 37.9,4.2 
	37.5,4.4 37.1,4.5 36.7,4.5 36.3,4.2 35.9,3.8 35.5,3.4 35,3 34.5,2.8 34.1,2.6 33.7,2.4 33.3,2.2 32.7,2.2 32.4,1.9 32,1.9 
	31.9,1.7 31.3,1.7 30.7,1.5 "/>
</svg>
