<svg id="Layer_1" data-name="Layer 1" xmlns="http://www.w3.org/2000/svg" viewBox="0 0 83 58"><defs><style>.cls-1{fill:#bb65d4;}</style></defs><title>logo-reg</title><rect width="83" height="58"/><path class="cls-1" d="M31.53,13.47H6.34q-1.32,0-1.32-1a4.25,4.25,0,0,1,.62-1.57A6.82,6.82,0,0,1,7.07,9.07a3.32,3.32,0,0,1,2.28-.65H34.54q1.32,0,1.32,1a4.24,4.24,0,0,1-.62,1.57,6.81,6.81,0,0,1-1.45,1.88A3.32,3.32,0,0,1,31.53,13.47ZM16.8,50.57l0-33.41a1.45,1.45,0,0,1,.75-1.46,5.76,5.76,0,0,1,2.32-.35,5.8,5.8,0,0,1,2.41.35,1.48,1.48,0,0,1,.69,1.46V47.31a3.13,3.13,0,0,1-.62,2.06,7.84,7.84,0,0,1-2.2,1.74,5,5,0,0,1-2.26.78Q16.79,51.89,16.8,50.57Z"/><path class="cls-1" d="M32.24,22.51l7.23-7.14q.92-.89,1.32-.89a.62.62,0,0,1,.62.52,9.23,9.23,0,0,1,.15,2.12,5.57,5.57,0,0,1-1.2,4l-1.51,1.51a6.24,6.24,0,0,1-1.94,1.4,6.11,6.11,0,0,1-2.34.38,8.9,8.9,0,0,1-2.08-.18q-.72-.18-.72-.8A1.36,1.36,0,0,1,32.24,22.51ZM49.1,9.13V47.31a3.33,3.33,0,0,1-.65,2.25,8.18,8.18,0,0,1-2,1.65,4,4,0,0,1-2,.69q-1.08,0-1.08-1.32V12.39a3.1,3.1,0,0,1,.65-2.06,9.64,9.64,0,0,1,2-1.77,3.71,3.71,0,0,1,2-.75Q49.1,7.81,49.1,9.13Z"/><path class="cls-1" d="M72.88,14.08H52.3q-1.32,0-1.32-.92a6,6,0,0,1,.69-1.89,7.32,7.32,0,0,1,1.52-2.2,3.19,3.19,0,0,1,2.25-.65h19a2.22,2.22,0,0,1,1.29.29,1.2,1.2,0,0,1,.4,1A5.56,5.56,0,0,1,76,11a4.73,4.73,0,0,1-1.11,2.38A2.82,2.82,0,0,1,72.88,14.08ZM59.34,50.44l9.54-33.25a1.33,1.33,0,0,1,.69-.94,6.67,6.67,0,0,1,2.08-.2,4.94,4.94,0,0,1,2.31.31q.4.31.06,1.48L65.71,46.11a10.41,10.41,0,0,1-.74,2,7.21,7.21,0,0,1-1.23,1.63Q61.62,51.89,60,51.89q-.77,0-.77-.71A3.09,3.09,0,0,1,59.34,50.44Z"/></svg>