<svg xmlns="http://www.w3.org/2000/svg" viewBox="0 0 250 250"><defs><style>.cls-1{fill:#8593d4;}.cls-2{font-size:40px;fill:#a4d198;font-family:LondrinaSolid-Regular, Londrina Solid;}.cls-3{letter-spacing:-0.06em;}.cls-4{letter-spacing:-0.02em;}.cls-5{letter-spacing:-0.01em;}</style></defs><title>logo</title><g id="Layer_2" data-name="Layer 2"><polygon points="89 123 86 128 83 134 77 140 70 144 62 148 56 152 51 156 46 163 42 168 38 175 38 184 38 189 38 196 38 204 42 212 47 218 53 222 58 226 63 228 67 228 71 231 75 234 83 234 89 234 94 234 99 231 106 229 114 227 120 225 127 226 135 228 144 231 149 231 154 234 160 234 166 234 174 234 183 229 192 225 199 220 203 215 206 209 209 202 209 195 211 189 211 183 211 176 207 171 203 165 197 160 192 156 186 152 178 147 172 143 165 134 162 129 157 123 152 117 147 113 139 109 132 109 124 109 118 109 111 109 101 111 89 123"/><ellipse cx="42.25" cy="107.02" rx="31.52" ry="41.45" transform="translate(-42.16 28.83) rotate(-25.64)"/><ellipse cx="97.5" cy="57.5" rx="32.34" ry="44.77" transform="translate(-8.16 16.89) rotate(-9.5)"/><ellipse cx="164.24" cy="58.01" rx="44.94" ry="32.41" transform="translate(56.07 194.53) rotate(-71.06)"/><ellipse cx="209.39" cy="111.11" rx="42.31" ry="29.86" transform="translate(21.41 255.52) rotate(-65.48)"/></g><g id="Layer_3" data-name="Layer 3"><polygon class="cls-1" points="91 122 88 127 85 133 79 139 72 143 64 147 58 151 53 155 48 162 44 167 40 174 40 183 40 188 40 195 40 203 44 211 49 217 55 221 60 225 65 227 69 227 73 230 77 233 85 233 91 233 96 233 101 230 108 228 116 226 122 224 129 225 137 227 146 230 151 230 156 233 162 233 168 233 176 233 185 228 194 224 201 219 205 214 208 208 211 201 211 194 213 188 213 182 213 175 209 170 205 164 199 159 194 155 188 151 180 146 174 142 167 133 164 128 159 122 154 116 149 112 141 108 134 108 126 108 120 108 113 108 103 110 91 122"/><ellipse class="cls-1" cx="44.25" cy="106.02" rx="31.52" ry="41.45" transform="translate(-41.53 29.59) rotate(-25.64)"/><ellipse class="cls-1" cx="99.5" cy="56.5" rx="32.34" ry="44.77" transform="translate(-7.96 17.21) rotate(-9.5)"/><ellipse class="cls-1" cx="166.24" cy="57.01" rx="44.94" ry="32.41" transform="translate(58.37 195.74) rotate(-71.06)"/><ellipse class="cls-1" cx="211.39" cy="110.11" rx="42.31" ry="29.86" transform="translate(23.49 256.75) rotate(-65.48)"/></g><g id="Layer_4" data-name="Layer 4"><text class="cls-2" transform="translate(67.33 174.65)"><tspan class="cls-3">F</tspan><tspan x="17.4" y="0">riends </tspan><tspan x="-23.64" y="39">with </tspan><tspan class="cls-4" x="53.36" y="39">P</tspan><tspan x="72.36" y="39">a</tspan><tspan class="cls-5" x="91.4" y="39">w</tspan><tspan x="118.32" y="39">s</tspan></text></g></svg>